<?xml version="1.0" encoding="utf-8"?>
<svg xmlns="http://www.w3.org/2000/svg" xmlns:xlink="http://www.w3.org/1999/xlink" width="600" height="400" viewBox="0 0 2400 1600">
<defs>
  <clipPath id="clip520">
    <rect x="0" y="0" width="2400" height="1600"/>
  </clipPath>
</defs>
<path clip-path="url(#clip520)" d="
M0 1600 L2400 1600 L2400 0 L0 0  Z
  " fill="#ffffff" fill-rule="evenodd" fill-opacity="1"/>
<defs>
  <clipPath id="clip521">
    <rect x="480" y="0" width="1681" height="1600"/>
  </clipPath>
</defs>
<defs>
  <clipPath id="clip522">
    <rect x="598" y="456" width="1756" height="793"/>
  </clipPath>
</defs>
<path clip-path="url(#clip520)" d="
M232.389 1423.18 L2352.76 1423.18 L2352.76 47.2441 L232.389 47.2441  Z
  " fill="#ffffff" fill-rule="evenodd" fill-opacity="1"/>
<defs>
  <clipPath id="clip523">
    <rect x="232" y="47" width="2121" height="1377"/>
  </clipPath>
</defs>
<polyline clip-path="url(#clip523)" style="stroke:#000000; stroke-linecap:butt; stroke-linejoin:round; stroke-width:2; stroke-opacity:0.1; fill:none" points="
  565.174,1423.18 565.174,47.2441 
  "/>
<polyline clip-path="url(#clip523)" style="stroke:#000000; stroke-linecap:butt; stroke-linejoin:round; stroke-width:2; stroke-opacity:0.1; fill:none" points="
  1019.8,1423.18 1019.8,47.2441 
  "/>
<polyline clip-path="url(#clip523)" style="stroke:#000000; stroke-linecap:butt; stroke-linejoin:round; stroke-width:2; stroke-opacity:0.1; fill:none" points="
  1474.42,1423.18 1474.42,47.2441 
  "/>
<polyline clip-path="url(#clip523)" style="stroke:#000000; stroke-linecap:butt; stroke-linejoin:round; stroke-width:2; stroke-opacity:0.1; fill:none" points="
  1929.05,1423.18 1929.05,47.2441 
  "/>
<polyline clip-path="url(#clip520)" style="stroke:#000000; stroke-linecap:butt; stroke-linejoin:round; stroke-width:4; stroke-opacity:1; fill:none" points="
  232.389,1423.18 2352.76,1423.18 
  "/>
<polyline clip-path="url(#clip520)" style="stroke:#000000; stroke-linecap:butt; stroke-linejoin:round; stroke-width:4; stroke-opacity:1; fill:none" points="
  565.174,1423.18 565.174,1404.28 
  "/>
<polyline clip-path="url(#clip520)" style="stroke:#000000; stroke-linecap:butt; stroke-linejoin:round; stroke-width:4; stroke-opacity:1; fill:none" points="
  1019.8,1423.18 1019.8,1404.28 
  "/>
<polyline clip-path="url(#clip520)" style="stroke:#000000; stroke-linecap:butt; stroke-linejoin:round; stroke-width:4; stroke-opacity:1; fill:none" points="
  1474.42,1423.18 1474.42,1404.28 
  "/>
<polyline clip-path="url(#clip520)" style="stroke:#000000; stroke-linecap:butt; stroke-linejoin:round; stroke-width:4; stroke-opacity:1; fill:none" points="
  1929.05,1423.18 1929.05,1404.28 
  "/>
<path clip-path="url(#clip520)" d="M536.91 1481.64 L553.23 1481.64 L553.23 1485.58 L531.285 1485.58 L531.285 1481.64 Q533.947 1478.89 538.531 1474.26 Q543.137 1469.61 544.318 1468.27 Q546.563 1465.74 547.443 1464.01 Q548.346 1462.25 548.346 1460.56 Q548.346 1457.8 546.401 1456.07 Q544.48 1454.33 541.378 1454.33 Q539.179 1454.33 536.725 1455.09 Q534.295 1455.86 531.517 1457.41 L531.517 1452.69 Q534.341 1451.55 536.795 1450.97 Q539.248 1450.39 541.285 1450.39 Q546.656 1450.39 549.85 1453.08 Q553.045 1455.77 553.045 1460.26 Q553.045 1462.39 552.234 1464.31 Q551.447 1466.2 549.341 1468.8 Q548.762 1469.47 545.66 1472.69 Q542.559 1475.88 536.91 1481.64 Z" fill="#000000" fill-rule="evenodd" fill-opacity="1" /><path clip-path="url(#clip520)" d="M563.045 1479.7 L567.929 1479.7 L567.929 1485.58 L563.045 1485.58 L563.045 1479.7 Z" fill="#000000" fill-rule="evenodd" fill-opacity="1" /><path clip-path="url(#clip520)" d="M578.16 1451.02 L596.517 1451.02 L596.517 1454.96 L582.443 1454.96 L582.443 1463.43 Q583.461 1463.08 584.48 1462.92 Q585.498 1462.73 586.517 1462.73 Q592.304 1462.73 595.683 1465.9 Q599.063 1469.08 599.063 1474.49 Q599.063 1480.07 595.591 1483.17 Q592.118 1486.25 585.799 1486.25 Q583.623 1486.25 581.355 1485.88 Q579.109 1485.51 576.702 1484.77 L576.702 1480.07 Q578.785 1481.2 581.007 1481.76 Q583.23 1482.32 585.706 1482.32 Q589.711 1482.32 592.049 1480.21 Q594.387 1478.1 594.387 1474.49 Q594.387 1470.88 592.049 1468.77 Q589.711 1466.67 585.706 1466.67 Q583.831 1466.67 581.956 1467.08 Q580.105 1467.5 578.16 1468.38 L578.16 1451.02 Z" fill="#000000" fill-rule="evenodd" fill-opacity="1" /><path clip-path="url(#clip520)" d="M986.963 1451.02 L1005.32 1451.02 L1005.32 1454.96 L991.245 1454.96 L991.245 1463.43 Q992.264 1463.08 993.282 1462.92 Q994.301 1462.73 995.319 1462.73 Q1001.11 1462.73 1004.49 1465.9 Q1007.87 1469.08 1007.87 1474.49 Q1007.87 1480.07 1004.39 1483.17 Q1000.92 1486.25 994.602 1486.25 Q992.426 1486.25 990.157 1485.88 Q987.912 1485.51 985.504 1484.77 L985.504 1480.07 Q987.588 1481.2 989.81 1481.76 Q992.032 1482.32 994.509 1482.32 Q998.514 1482.32 1000.85 1480.21 Q1003.19 1478.1 1003.19 1474.49 Q1003.19 1470.88 1000.85 1468.77 Q998.514 1466.67 994.509 1466.67 Q992.634 1466.67 990.759 1467.08 Q988.907 1467.5 986.963 1468.38 L986.963 1451.02 Z" fill="#000000" fill-rule="evenodd" fill-opacity="1" /><path clip-path="url(#clip520)" d="M1017.08 1479.7 L1021.96 1479.7 L1021.96 1485.58 L1017.08 1485.58 L1017.08 1479.7 Z" fill="#000000" fill-rule="evenodd" fill-opacity="1" /><path clip-path="url(#clip520)" d="M1042.15 1454.1 Q1038.54 1454.1 1036.71 1457.66 Q1034.9 1461.2 1034.9 1468.33 Q1034.9 1475.44 1036.71 1479.01 Q1038.54 1482.55 1042.15 1482.55 Q1045.78 1482.55 1047.59 1479.01 Q1049.42 1475.44 1049.42 1468.33 Q1049.42 1461.2 1047.59 1457.66 Q1045.78 1454.1 1042.15 1454.1 M1042.15 1450.39 Q1047.96 1450.39 1051.01 1455 Q1054.09 1459.58 1054.09 1468.33 Q1054.09 1477.06 1051.01 1481.67 Q1047.96 1486.25 1042.15 1486.25 Q1036.34 1486.25 1033.26 1481.67 Q1030.2 1477.06 1030.2 1468.33 Q1030.2 1459.58 1033.26 1455 Q1036.34 1450.39 1042.15 1450.39 Z" fill="#000000" fill-rule="evenodd" fill-opacity="1" /><path clip-path="url(#clip520)" d="M1440.74 1451.02 L1462.96 1451.02 L1462.96 1453.01 L1450.42 1485.58 L1445.53 1485.58 L1457.34 1454.96 L1440.74 1454.96 L1440.74 1451.02 Z" fill="#000000" fill-rule="evenodd" fill-opacity="1" /><path clip-path="url(#clip520)" d="M1472.08 1479.7 L1476.97 1479.7 L1476.97 1485.58 L1472.08 1485.58 L1472.08 1479.7 Z" fill="#000000" fill-rule="evenodd" fill-opacity="1" /><path clip-path="url(#clip520)" d="M1487.2 1451.02 L1505.56 1451.02 L1505.56 1454.96 L1491.48 1454.96 L1491.48 1463.43 Q1492.5 1463.08 1493.52 1462.92 Q1494.54 1462.73 1495.56 1462.73 Q1501.34 1462.73 1504.72 1465.9 Q1508.1 1469.08 1508.1 1474.49 Q1508.1 1480.07 1504.63 1483.17 Q1501.16 1486.25 1494.84 1486.25 Q1492.66 1486.25 1490.39 1485.88 Q1488.15 1485.51 1485.74 1484.77 L1485.74 1480.07 Q1487.82 1481.2 1490.05 1481.76 Q1492.27 1482.32 1494.75 1482.32 Q1498.75 1482.32 1501.09 1480.21 Q1503.43 1478.1 1503.43 1474.49 Q1503.43 1470.88 1501.09 1468.77 Q1498.75 1466.67 1494.75 1466.67 Q1492.87 1466.67 1491 1467.08 Q1489.14 1467.5 1487.2 1468.38 L1487.2 1451.02 Z" fill="#000000" fill-rule="evenodd" fill-opacity="1" /><path clip-path="url(#clip520)" d="M1881.12 1481.64 L1888.76 1481.64 L1888.76 1455.28 L1880.45 1456.95 L1880.45 1452.69 L1888.71 1451.02 L1893.39 1451.02 L1893.39 1481.64 L1901.03 1481.64 L1901.03 1485.58 L1881.12 1485.58 L1881.12 1481.64 Z" fill="#000000" fill-rule="evenodd" fill-opacity="1" /><path clip-path="url(#clip520)" d="M1920.47 1454.1 Q1916.86 1454.1 1915.03 1457.66 Q1913.22 1461.2 1913.22 1468.33 Q1913.22 1475.44 1915.03 1479.01 Q1916.86 1482.55 1920.47 1482.55 Q1924.1 1482.55 1925.91 1479.01 Q1927.74 1475.44 1927.74 1468.33 Q1927.74 1461.2 1925.91 1457.66 Q1924.1 1454.1 1920.47 1454.1 M1920.47 1450.39 Q1926.28 1450.39 1929.34 1455 Q1932.41 1459.58 1932.41 1468.33 Q1932.41 1477.06 1929.34 1481.67 Q1926.28 1486.25 1920.47 1486.25 Q1914.66 1486.25 1911.58 1481.67 Q1908.53 1477.06 1908.53 1468.33 Q1908.53 1459.58 1911.58 1455 Q1914.66 1450.39 1920.47 1450.39 Z" fill="#000000" fill-rule="evenodd" fill-opacity="1" /><path clip-path="url(#clip520)" d="M1940.63 1479.7 L1945.52 1479.7 L1945.52 1485.58 L1940.63 1485.58 L1940.63 1479.7 Z" fill="#000000" fill-rule="evenodd" fill-opacity="1" /><path clip-path="url(#clip520)" d="M1965.7 1454.1 Q1962.09 1454.1 1960.26 1457.66 Q1958.46 1461.2 1958.46 1468.33 Q1958.46 1475.44 1960.26 1479.01 Q1962.09 1482.55 1965.7 1482.55 Q1969.34 1482.55 1971.14 1479.01 Q1972.97 1475.44 1972.97 1468.33 Q1972.97 1461.2 1971.14 1457.66 Q1969.34 1454.1 1965.7 1454.1 M1965.7 1450.39 Q1971.51 1450.39 1974.57 1455 Q1977.65 1459.58 1977.65 1468.33 Q1977.65 1477.06 1974.57 1481.67 Q1971.51 1486.25 1965.7 1486.25 Q1959.89 1486.25 1956.81 1481.67 Q1953.76 1477.06 1953.76 1468.33 Q1953.76 1459.58 1956.81 1455 Q1959.89 1450.39 1965.7 1450.39 Z" fill="#000000" fill-rule="evenodd" fill-opacity="1" /><path clip-path="url(#clip520)" d="M1308.74 1544.17 Q1308.74 1544.42 1308.45 1545.42 Q1308.16 1546.42 1307.45 1547.97 Q1306.77 1549.51 1305.84 1550.93 Q1304.9 1552.31 1303.36 1553.34 Q1301.84 1554.34 1300.1 1554.34 Q1297.79 1554.34 1296.24 1552.8 Q1294.69 1551.25 1294.69 1548.93 Q1294.69 1547.64 1295.37 1545.87 Q1299.65 1534.44 1299.65 1530.51 Q1299.65 1525.91 1296.08 1525.91 Q1294.31 1525.91 1292.63 1526.58 Q1290.99 1527.23 1289.86 1528.13 Q1288.74 1529.03 1287.71 1530.29 Q1286.71 1531.51 1286.19 1532.35 Q1285.71 1533.15 1285.32 1533.96 L1284.48 1537.24 Q1284.29 1538.14 1283.36 1541.65 L1281.91 1547.61 Q1280.88 1552.06 1280.65 1552.47 Q1280.33 1553.38 1279.62 1553.86 Q1278.91 1554.34 1278.2 1554.34 Q1277.4 1554.34 1276.85 1553.86 Q1276.3 1553.38 1276.3 1552.54 Q1276.3 1552.41 1276.4 1551.93 Q1276.5 1551.44 1276.66 1550.77 Q1276.82 1550.09 1276.88 1549.71 L1280.72 1534.47 Q1281.42 1531.7 1281.59 1530.83 Q1281.78 1529.93 1281.78 1528.93 Q1281.78 1525.91 1279.72 1525.91 Q1278.04 1525.91 1276.95 1527.9 Q1275.85 1529.9 1274.92 1533.76 Q1274.63 1534.83 1274.44 1535.05 Q1274.28 1535.28 1273.79 1535.28 Q1272.99 1535.24 1272.99 1534.6 Q1272.99 1534.44 1273.24 1533.38 Q1273.5 1532.31 1273.99 1530.8 Q1274.5 1529.25 1274.98 1528.22 Q1275.4 1527.45 1275.63 1527.1 Q1275.89 1526.71 1276.5 1525.97 Q1277.14 1525.2 1277.98 1524.84 Q1278.85 1524.46 1279.91 1524.46 Q1282.29 1524.46 1284.03 1526 Q1285.77 1527.52 1286 1530.19 Q1290.28 1524.46 1296.27 1524.46 Q1299.81 1524.46 1301.84 1526.32 Q1303.87 1528.19 1303.87 1531.51 Q1303.87 1532.28 1303.71 1533.28 Q1303.58 1534.25 1303.26 1535.47 Q1302.97 1536.69 1302.71 1537.63 Q1302.46 1538.56 1301.94 1540.08 Q1301.42 1541.56 1301.2 1542.2 Q1300.97 1542.85 1300.43 1544.36 Q1299.91 1545.84 1299.85 1546 Q1298.66 1549 1298.66 1550.7 Q1298.66 1551.83 1299.01 1552.35 Q1299.4 1552.86 1300.23 1552.86 Q1302.49 1552.86 1304.16 1550.64 Q1305.87 1548.38 1306.96 1544.71 Q1307.22 1543.91 1307.35 1543.71 Q1307.51 1543.52 1307.96 1543.52 Q1308.74 1543.52 1308.74 1544.17 Z" fill="#000000" fill-rule="evenodd" fill-opacity="1" /><polyline clip-path="url(#clip523)" style="stroke:#000000; stroke-linecap:butt; stroke-linejoin:round; stroke-width:2; stroke-opacity:0.1; fill:none" points="
  232.389,1393.32 2352.76,1393.32 
  "/>
<polyline clip-path="url(#clip523)" style="stroke:#000000; stroke-linecap:butt; stroke-linejoin:round; stroke-width:2; stroke-opacity:0.1; fill:none" points="
  232.389,1121 2352.76,1121 
  "/>
<polyline clip-path="url(#clip523)" style="stroke:#000000; stroke-linecap:butt; stroke-linejoin:round; stroke-width:2; stroke-opacity:0.1; fill:none" points="
  232.389,848.678 2352.76,848.678 
  "/>
<polyline clip-path="url(#clip523)" style="stroke:#000000; stroke-linecap:butt; stroke-linejoin:round; stroke-width:2; stroke-opacity:0.1; fill:none" points="
  232.389,576.359 2352.76,576.359 
  "/>
<polyline clip-path="url(#clip523)" style="stroke:#000000; stroke-linecap:butt; stroke-linejoin:round; stroke-width:2; stroke-opacity:0.1; fill:none" points="
  232.389,304.041 2352.76,304.041 
  "/>
<polyline clip-path="url(#clip520)" style="stroke:#000000; stroke-linecap:butt; stroke-linejoin:round; stroke-width:4; stroke-opacity:1; fill:none" points="
  232.389,1423.18 232.389,47.2441 
  "/>
<polyline clip-path="url(#clip520)" style="stroke:#000000; stroke-linecap:butt; stroke-linejoin:round; stroke-width:4; stroke-opacity:1; fill:none" points="
  232.389,1393.32 251.287,1393.32 
  "/>
<polyline clip-path="url(#clip520)" style="stroke:#000000; stroke-linecap:butt; stroke-linejoin:round; stroke-width:4; stroke-opacity:1; fill:none" points="
  232.389,1121 251.287,1121 
  "/>
<polyline clip-path="url(#clip520)" style="stroke:#000000; stroke-linecap:butt; stroke-linejoin:round; stroke-width:4; stroke-opacity:1; fill:none" points="
  232.389,848.678 251.287,848.678 
  "/>
<polyline clip-path="url(#clip520)" style="stroke:#000000; stroke-linecap:butt; stroke-linejoin:round; stroke-width:4; stroke-opacity:1; fill:none" points="
  232.389,576.359 251.287,576.359 
  "/>
<polyline clip-path="url(#clip520)" style="stroke:#000000; stroke-linecap:butt; stroke-linejoin:round; stroke-width:4; stroke-opacity:1; fill:none" points="
  232.389,304.041 251.287,304.041 
  "/>
<path clip-path="url(#clip520)" d="M184.445 1379.11 Q180.834 1379.11 179.005 1382.68 Q177.2 1386.22 177.2 1393.35 Q177.2 1400.46 179.005 1404.02 Q180.834 1407.56 184.445 1407.56 Q188.079 1407.56 189.885 1404.02 Q191.713 1400.46 191.713 1393.35 Q191.713 1386.22 189.885 1382.68 Q188.079 1379.11 184.445 1379.11 M184.445 1375.41 Q190.255 1375.41 193.311 1380.02 Q196.389 1384.6 196.389 1393.35 Q196.389 1402.08 193.311 1406.68 Q190.255 1411.27 184.445 1411.27 Q178.635 1411.27 175.556 1406.68 Q172.501 1402.08 172.501 1393.35 Q172.501 1384.6 175.556 1380.02 Q178.635 1375.41 184.445 1375.41 Z" fill="#000000" fill-rule="evenodd" fill-opacity="1" /><path clip-path="url(#clip520)" d="M158.45 1119.64 Q161.806 1120.36 163.681 1122.63 Q165.579 1124.9 165.579 1128.23 Q165.579 1133.35 162.061 1136.15 Q158.542 1138.95 152.061 1138.95 Q149.885 1138.95 147.57 1138.51 Q145.279 1138.09 142.825 1137.24 L142.825 1132.72 Q144.769 1133.86 147.084 1134.43 Q149.399 1135.01 151.922 1135.01 Q156.32 1135.01 158.612 1133.28 Q160.927 1131.54 160.927 1128.23 Q160.927 1125.18 158.774 1123.46 Q156.644 1121.73 152.825 1121.73 L148.797 1121.73 L148.797 1117.88 L153.01 1117.88 Q156.459 1117.88 158.288 1116.52 Q160.116 1115.13 160.116 1112.54 Q160.116 1109.87 158.218 1108.46 Q156.343 1107.03 152.825 1107.03 Q150.903 1107.03 148.704 1107.44 Q146.505 1107.86 143.866 1108.74 L143.866 1104.57 Q146.529 1103.83 148.843 1103.46 Q151.181 1103.09 153.241 1103.09 Q158.565 1103.09 161.667 1105.52 Q164.769 1107.93 164.769 1112.05 Q164.769 1114.92 163.126 1116.91 Q161.482 1118.88 158.45 1119.64 Z" fill="#000000" fill-rule="evenodd" fill-opacity="1" /><path clip-path="url(#clip520)" d="M184.445 1106.8 Q180.834 1106.8 179.005 1110.36 Q177.2 1113.9 177.2 1121.03 Q177.2 1128.14 179.005 1131.7 Q180.834 1135.24 184.445 1135.24 Q188.079 1135.24 189.885 1131.7 Q191.713 1128.14 191.713 1121.03 Q191.713 1113.9 189.885 1110.36 Q188.079 1106.8 184.445 1106.8 M184.445 1103.09 Q190.255 1103.09 193.311 1107.7 Q196.389 1112.28 196.389 1121.03 Q196.389 1129.76 193.311 1134.36 Q190.255 1138.95 184.445 1138.95 Q178.635 1138.95 175.556 1134.36 Q172.501 1129.76 172.501 1121.03 Q172.501 1112.28 175.556 1107.7 Q178.635 1103.09 184.445 1103.09 Z" fill="#000000" fill-rule="evenodd" fill-opacity="1" /><path clip-path="url(#clip520)" d="M154.862 846.815 Q151.714 846.815 149.862 848.967 Q148.033 851.12 148.033 854.87 Q148.033 858.597 149.862 860.773 Q151.714 862.926 154.862 862.926 Q158.01 862.926 159.839 860.773 Q161.69 858.597 161.69 854.87 Q161.69 851.12 159.839 848.967 Q158.01 846.815 154.862 846.815 M164.144 832.162 L164.144 836.421 Q162.385 835.588 160.579 835.148 Q158.797 834.708 157.038 834.708 Q152.408 834.708 149.954 837.833 Q147.524 840.958 147.177 847.278 Q148.542 845.264 150.603 844.199 Q152.663 843.111 155.14 843.111 Q160.348 843.111 163.357 846.282 Q166.39 849.43 166.39 854.87 Q166.39 860.194 163.241 863.412 Q160.093 866.629 154.862 866.629 Q148.866 866.629 145.695 862.046 Q142.524 857.44 142.524 848.713 Q142.524 840.518 146.413 835.657 Q150.302 830.773 156.853 830.773 Q158.612 830.773 160.394 831.12 Q162.2 831.468 164.144 832.162 Z" fill="#000000" fill-rule="evenodd" fill-opacity="1" /><path clip-path="url(#clip520)" d="M184.445 834.477 Q180.834 834.477 179.005 838.042 Q177.2 841.583 177.2 848.713 Q177.2 855.819 179.005 859.384 Q180.834 862.926 184.445 862.926 Q188.079 862.926 189.885 859.384 Q191.713 855.819 191.713 848.713 Q191.713 841.583 189.885 838.042 Q188.079 834.477 184.445 834.477 M184.445 830.773 Q190.255 830.773 193.311 835.38 Q196.389 839.963 196.389 848.713 Q196.389 857.44 193.311 862.046 Q190.255 866.629 184.445 866.629 Q178.635 866.629 175.556 862.046 Q172.501 857.44 172.501 848.713 Q172.501 839.963 175.556 835.38 Q178.635 830.773 184.445 830.773 Z" fill="#000000" fill-rule="evenodd" fill-opacity="1" /><path clip-path="url(#clip520)" d="M144.422 592.922 L144.422 588.663 Q146.181 589.496 147.987 589.936 Q149.792 590.376 151.528 590.376 Q156.158 590.376 158.589 587.274 Q161.042 584.149 161.39 577.806 Q160.047 579.797 157.987 580.862 Q155.927 581.926 153.427 581.926 Q148.241 581.926 145.209 578.801 Q142.2 575.653 142.2 570.214 Q142.2 564.89 145.348 561.672 Q148.496 558.454 153.728 558.454 Q159.723 558.454 162.871 563.061 Q166.042 567.644 166.042 576.394 Q166.042 584.565 162.153 589.45 Q158.288 594.311 151.737 594.311 Q149.978 594.311 148.172 593.963 Q146.366 593.616 144.422 592.922 M153.728 578.269 Q156.876 578.269 158.704 576.116 Q160.556 573.964 160.556 570.214 Q160.556 566.487 158.704 564.334 Q156.876 562.158 153.728 562.158 Q150.579 562.158 148.728 564.334 Q146.899 566.487 146.899 570.214 Q146.899 573.964 148.728 576.116 Q150.579 578.269 153.728 578.269 Z" fill="#000000" fill-rule="evenodd" fill-opacity="1" /><path clip-path="url(#clip520)" d="M184.445 562.158 Q180.834 562.158 179.005 565.723 Q177.2 569.265 177.2 576.394 Q177.2 583.501 179.005 587.065 Q180.834 590.607 184.445 590.607 Q188.079 590.607 189.885 587.065 Q191.713 583.501 191.713 576.394 Q191.713 569.265 189.885 565.723 Q188.079 562.158 184.445 562.158 M184.445 558.454 Q190.255 558.454 193.311 563.061 Q196.389 567.644 196.389 576.394 Q196.389 585.121 193.311 589.727 Q190.255 594.311 184.445 594.311 Q178.635 594.311 175.556 589.727 Q172.501 585.121 172.501 576.394 Q172.501 567.644 175.556 563.061 Q178.635 558.454 184.445 558.454 Z" fill="#000000" fill-rule="evenodd" fill-opacity="1" /><path clip-path="url(#clip520)" d="M114.931 317.385 L122.57 317.385 L122.57 291.02 L114.26 292.687 L114.26 288.427 L122.524 286.761 L127.2 286.761 L127.2 317.385 L134.839 317.385 L134.839 321.321 L114.931 321.321 L114.931 317.385 Z" fill="#000000" fill-rule="evenodd" fill-opacity="1" /><path clip-path="url(#clip520)" d="M148.311 317.385 L164.63 317.385 L164.63 321.321 L142.686 321.321 L142.686 317.385 Q145.348 314.631 149.931 310.001 Q154.538 305.349 155.718 304.006 Q157.964 301.483 158.843 299.747 Q159.746 297.987 159.746 296.298 Q159.746 293.543 157.802 291.807 Q155.88 290.071 152.778 290.071 Q150.579 290.071 148.126 290.835 Q145.695 291.599 142.917 293.15 L142.917 288.427 Q145.741 287.293 148.195 286.714 Q150.649 286.136 152.686 286.136 Q158.056 286.136 161.251 288.821 Q164.445 291.506 164.445 295.997 Q164.445 298.126 163.635 300.048 Q162.848 301.946 160.741 304.538 Q160.163 305.21 157.061 308.427 Q153.959 311.622 148.311 317.385 Z" fill="#000000" fill-rule="evenodd" fill-opacity="1" /><path clip-path="url(#clip520)" d="M184.445 289.839 Q180.834 289.839 179.005 293.404 Q177.2 296.946 177.2 304.075 Q177.2 311.182 179.005 314.747 Q180.834 318.288 184.445 318.288 Q188.079 318.288 189.885 314.747 Q191.713 311.182 191.713 304.075 Q191.713 296.946 189.885 293.404 Q188.079 289.839 184.445 289.839 M184.445 286.136 Q190.255 286.136 193.311 290.742 Q196.389 295.325 196.389 304.075 Q196.389 312.802 193.311 317.409 Q190.255 321.992 184.445 321.992 Q178.635 321.992 175.556 317.409 Q172.501 312.802 172.501 304.075 Q172.501 295.325 175.556 290.742 Q178.635 286.136 184.445 286.136 Z" fill="#000000" fill-rule="evenodd" fill-opacity="1" /><path clip-path="url(#clip520)" d="M22.5869 731.067 L33.9878 732.387 Q35.0184 732.484 35.3404 732.645 Q35.6303 732.806 35.6303 733.321 Q35.6303 734.094 34.8573 734.094 Q34.5353 734.094 33.6657 733.965 Q31.8944 733.772 30.0909 733.772 Q28.0619 733.772 26.8059 734.159 Q25.5176 734.513 24.5837 735.543 Q23.6497 736.574 23.2632 738.474 Q22.8445 740.374 22.8445 743.402 L22.8445 752.097 Q22.8445 754.223 23.231 754.738 Q23.6175 755.221 25.421 755.672 L42.1681 759.891 L42.1681 753.901 Q42.1681 749.714 40.9442 748.072 Q39.7204 746.429 35.8235 745.398 Q35.2116 745.237 34.9861 745.173 Q34.7285 745.076 34.5997 744.915 Q34.4386 744.722 34.4386 744.4 Q34.4386 744.11 34.6319 743.917 Q34.7929 743.724 34.9861 743.659 L35.1794 743.595 Q35.5014 743.595 36.2422 743.788 L50.5416 747.427 Q51.5078 747.685 51.7332 747.846 Q51.9264 747.975 51.9264 748.426 Q51.9264 748.748 51.701 748.973 Q51.4755 749.199 51.1213 749.199 Q50.7348 749.134 50.4128 749.005 Q48.4482 748.555 47.1922 748.555 Q46.387 748.555 45.9039 748.716 Q45.4208 748.877 45.0022 749.424 Q44.5835 749.972 44.3903 751.099 Q44.197 752.226 44.197 754.03 L44.197 760.406 L60.622 764.497 L62.1357 764.786 Q62.812 764.786 63.0697 764.432 Q63.3273 764.046 63.4561 762.661 Q63.6172 760.6 63.6172 759.247 Q63.6172 757.572 63.6816 757.379 Q63.8748 756.993 64.3901 756.993 Q64.9698 756.993 65.2919 757.25 Q65.5817 757.508 65.6139 757.733 Q65.6461 757.959 65.6461 758.377 L65.4529 768.2 L65.6461 776.896 Q65.6461 777.894 64.841 777.894 Q64.2291 777.894 63.9714 777.637 Q63.6816 777.379 63.6494 777.089 Q63.6172 776.799 63.6172 776.058 Q63.6172 774.448 63.5205 773.482 Q63.4239 772.516 63.2951 771.904 Q63.1341 771.26 62.6832 770.938 Q62.2323 770.583 61.8458 770.422 Q61.4272 770.261 60.4932 770.036 L25.6142 761.34 Q24.4226 761.018 24.0362 761.018 Q23.6175 761.018 23.3598 761.308 Q23.1022 761.566 23.0056 762.274 Q22.8767 762.983 22.8767 763.563 Q22.8445 764.11 22.8445 765.302 Q22.8445 766.075 22.8123 766.397 Q22.7801 766.687 22.6191 766.912 Q22.4581 767.137 22.1038 767.137 Q21.202 767.137 21.0088 766.751 Q20.7834 766.332 20.7834 765.173 L20.7834 732.838 Q20.7834 731.55 21.0732 731.26 Q21.3309 730.938 22.5869 731.067 Z" fill="#000000" fill-rule="evenodd" fill-opacity="1" /><path clip-path="url(#clip520)" d="M71.1682 699.33 Q71.3486 699.33 72.0474 699.533 Q72.7463 699.736 73.8284 700.232 Q74.9105 700.705 75.9025 701.359 Q76.8719 702.013 77.5933 703.095 Q78.2921 704.155 78.2921 705.372 Q78.2921 706.995 77.21 708.077 Q76.1279 709.159 74.5047 709.159 Q73.603 709.159 72.363 708.686 Q64.3599 705.688 61.6095 705.688 Q58.3857 705.688 58.3857 708.19 Q58.3857 709.43 58.8591 710.602 Q59.31 711.752 59.9412 712.541 Q60.5725 713.33 61.4517 714.052 Q62.3084 714.75 62.8945 715.111 Q63.4581 715.449 64.0217 715.72 L66.3212 716.306 Q66.9525 716.441 69.4098 717.095 L73.5804 718.109 Q76.6915 718.831 76.9846 718.989 Q77.6158 719.214 77.954 719.71 Q78.2921 720.206 78.2921 720.702 Q78.2921 721.266 77.954 721.649 Q77.6158 722.032 77.0297 722.032 Q76.9395 722.032 76.6013 721.964 Q76.2632 721.897 75.7897 721.784 Q75.3163 721.671 75.0458 721.626 L64.3824 718.944 Q62.4436 718.448 61.8349 718.335 Q61.2037 718.2 60.5048 718.2 Q58.3857 718.2 58.3857 719.642 Q58.3857 720.815 59.7834 721.581 Q61.1812 722.348 63.8865 723.002 Q64.6304 723.204 64.7882 723.34 Q64.946 723.452 64.946 723.791 Q64.9235 724.354 64.4726 724.354 Q64.3599 724.354 63.6159 724.174 Q62.872 723.993 61.8124 723.655 Q60.7303 723.295 60.0089 722.956 Q59.4678 722.663 59.2198 722.506 Q58.9493 722.325 58.4308 721.897 Q57.8897 721.446 57.6417 720.86 Q57.3712 720.251 57.3712 719.507 Q57.3712 717.839 58.4533 716.622 Q59.5129 715.404 61.3841 715.246 Q57.3712 712.248 57.3712 708.055 Q57.3712 705.575 58.6788 704.155 Q59.9863 702.734 62.3084 702.734 Q62.8494 702.734 63.5483 702.847 Q64.2246 702.937 65.0813 703.163 Q65.938 703.366 66.5918 703.546 Q67.2455 703.726 68.3051 704.087 Q69.3421 704.448 69.793 704.606 Q70.2439 704.763 71.3035 705.147 Q72.3405 705.507 72.4532 705.552 Q74.5498 706.387 75.7447 706.387 Q76.5337 706.387 76.8944 706.139 Q77.2551 705.868 77.2551 705.282 Q77.2551 703.704 75.6996 702.531 Q74.1215 701.337 71.5515 700.57 Q70.9879 700.39 70.8526 700.3 Q70.7173 700.187 70.7173 699.871 Q70.7173 699.33 71.1682 699.33 Z" fill="#000000" fill-rule="evenodd" fill-opacity="1" /><polyline clip-path="url(#clip523)" style="stroke:#009af9; stroke-linecap:butt; stroke-linejoin:round; stroke-width:4; stroke-opacity:1; fill:none" points="
  292.4,1384.24 474.249,1384.24 656.099,1375.16 837.949,1366.08 1019.8,1347.93 1201.65,1320.7 1383.5,1275.31 1565.35,1202.69 1747.2,1084.69 1929.05,894.065 
  2110.9,585.437 2292.75,86.1857 
  "/>
<circle clip-path="url(#clip523)" cx="292.4" cy="1384.24" r="14.4" fill="#009af9" fill-rule="evenodd" fill-opacity="1" stroke="#000000" stroke-opacity="1" stroke-width="3.2"/>
<circle clip-path="url(#clip523)" cx="474.249" cy="1384.24" r="14.4" fill="#009af9" fill-rule="evenodd" fill-opacity="1" stroke="#000000" stroke-opacity="1" stroke-width="3.2"/>
<circle clip-path="url(#clip523)" cx="656.099" cy="1375.16" r="14.4" fill="#009af9" fill-rule="evenodd" fill-opacity="1" stroke="#000000" stroke-opacity="1" stroke-width="3.2"/>
<circle clip-path="url(#clip523)" cx="837.949" cy="1366.08" r="14.4" fill="#009af9" fill-rule="evenodd" fill-opacity="1" stroke="#000000" stroke-opacity="1" stroke-width="3.2"/>
<circle clip-path="url(#clip523)" cx="1019.8" cy="1347.93" r="14.4" fill="#009af9" fill-rule="evenodd" fill-opacity="1" stroke="#000000" stroke-opacity="1" stroke-width="3.2"/>
<circle clip-path="url(#clip523)" cx="1201.65" cy="1320.7" r="14.4" fill="#009af9" fill-rule="evenodd" fill-opacity="1" stroke="#000000" stroke-opacity="1" stroke-width="3.2"/>
<circle clip-path="url(#clip523)" cx="1383.5" cy="1275.31" r="14.4" fill="#009af9" fill-rule="evenodd" fill-opacity="1" stroke="#000000" stroke-opacity="1" stroke-width="3.2"/>
<circle clip-path="url(#clip523)" cx="1565.35" cy="1202.69" r="14.4" fill="#009af9" fill-rule="evenodd" fill-opacity="1" stroke="#000000" stroke-opacity="1" stroke-width="3.2"/>
<circle clip-path="url(#clip523)" cx="1747.2" cy="1084.69" r="14.4" fill="#009af9" fill-rule="evenodd" fill-opacity="1" stroke="#000000" stroke-opacity="1" stroke-width="3.2"/>
<circle clip-path="url(#clip523)" cx="1929.05" cy="894.065" r="14.4" fill="#009af9" fill-rule="evenodd" fill-opacity="1" stroke="#000000" stroke-opacity="1" stroke-width="3.2"/>
<circle clip-path="url(#clip523)" cx="2110.9" cy="585.437" r="14.4" fill="#009af9" fill-rule="evenodd" fill-opacity="1" stroke="#000000" stroke-opacity="1" stroke-width="3.2"/>
<circle clip-path="url(#clip523)" cx="2292.75" cy="86.1857" r="14.4" fill="#009af9" fill-rule="evenodd" fill-opacity="1" stroke="#000000" stroke-opacity="1" stroke-width="3.2"/>
<path clip-path="url(#clip520)" d="
M1994.05 196.789 L2282.08 196.789 L2282.08 93.1086 L1994.05 93.1086  Z
  " fill="#ffffff" fill-rule="evenodd" fill-opacity="1"/>
<polyline clip-path="url(#clip520)" style="stroke:#000000; stroke-linecap:butt; stroke-linejoin:round; stroke-width:4; stroke-opacity:1; fill:none" points="
  1994.05,196.789 2282.08,196.789 2282.08,93.1086 1994.05,93.1086 1994.05,196.789 
  "/>
<polyline clip-path="url(#clip520)" style="stroke:#009af9; stroke-linecap:butt; stroke-linejoin:round; stroke-width:4; stroke-opacity:1; fill:none" points="
  2017.61,144.949 2158.97,144.949 
  "/>
<circle clip-path="url(#clip520)" cx="2088.29" cy="144.949" r="23.04" fill="#009af9" fill-rule="evenodd" fill-opacity="1" stroke="#000000" stroke-opacity="1" stroke-width="5.12"/>
<path clip-path="url(#clip520)" d="M2196.37 164.636 Q2194.56 169.266 2192.85 170.678 Q2191.14 172.09 2188.27 172.09 L2184.87 172.09 L2184.87 168.525 L2187.37 168.525 Q2189.12 168.525 2190.1 167.692 Q2191.07 166.858 2192.25 163.756 L2193.01 161.812 L2182.53 136.303 L2187.04 136.303 L2195.14 156.581 L2203.24 136.303 L2207.76 136.303 L2196.37 164.636 Z" fill="#000000" fill-rule="evenodd" fill-opacity="1" /><path clip-path="url(#clip520)" d="M2215.05 158.293 L2222.69 158.293 L2222.69 131.928 L2214.38 133.595 L2214.38 129.335 L2222.64 127.669 L2227.32 127.669 L2227.32 158.293 L2234.96 158.293 L2234.96 162.229 L2215.05 162.229 L2215.05 158.293 Z" fill="#000000" fill-rule="evenodd" fill-opacity="1" /><path clip-path="url(#clip520)" d="M298.322 454.041 L296.642 468.552 Q296.519 469.863 296.314 470.273 Q296.109 470.642 295.453 470.642 Q294.469 470.642 294.469 469.658 Q294.469 469.248 294.633 468.142 Q294.879 465.887 294.879 463.592 Q294.879 461.01 294.387 459.411 Q293.937 457.771 292.625 456.583 Q291.313 455.394 288.895 454.902 Q286.476 454.369 282.623 454.369 L271.556 454.369 Q268.851 454.369 268.195 454.861 Q267.58 455.353 267.007 457.648 L261.637 478.963 L269.261 478.963 Q274.59 478.963 276.68 477.405 Q278.771 475.848 280.082 470.888 Q280.287 470.109 280.369 469.822 Q280.492 469.494 280.697 469.33 Q280.943 469.125 281.353 469.125 Q281.722 469.125 281.968 469.371 Q282.214 469.576 282.296 469.822 L282.378 470.068 Q282.378 470.478 282.132 471.421 L277.5 489.62 Q277.172 490.85 276.967 491.137 Q276.803 491.383 276.229 491.383 Q275.819 491.383 275.532 491.096 Q275.245 490.809 275.245 490.358 Q275.327 489.866 275.491 489.456 Q276.065 486.956 276.065 485.357 Q276.065 484.332 275.86 483.718 Q275.655 483.103 274.959 482.57 Q274.262 482.037 272.827 481.791 Q271.392 481.545 269.097 481.545 L260.981 481.545 L255.776 502.45 L255.407 504.376 Q255.407 505.237 255.857 505.565 Q256.349 505.893 258.112 506.057 Q260.735 506.262 262.457 506.262 Q264.588 506.262 264.834 506.344 Q265.326 506.59 265.326 507.245 Q265.326 507.983 264.998 508.393 Q264.67 508.762 264.383 508.803 Q264.096 508.844 263.563 508.844 L251.062 508.598 L239.995 508.844 Q238.724 508.844 238.724 507.819 Q238.724 507.041 239.052 506.713 Q239.38 506.344 239.749 506.303 Q240.118 506.262 241.06 506.262 Q243.11 506.262 244.34 506.139 Q245.569 506.016 246.348 505.852 Q247.168 505.647 247.578 505.073 Q248.029 504.499 248.233 504.007 Q248.438 503.474 248.725 502.286 L259.792 457.894 Q260.202 456.378 260.202 455.886 Q260.202 455.353 259.833 455.025 Q259.506 454.697 258.604 454.574 Q257.702 454.41 256.964 454.41 Q256.267 454.369 254.751 454.369 Q253.767 454.369 253.357 454.328 Q252.988 454.287 252.701 454.082 Q252.414 453.877 252.414 453.427 Q252.414 452.279 252.906 452.033 Q253.439 451.746 254.915 451.746 L296.068 451.746 Q297.708 451.746 298.076 452.115 Q298.486 452.443 298.322 454.041 Z" fill="#000000" fill-rule="evenodd" fill-opacity="1" /><path clip-path="url(#clip520)" d="M338.72 515.866 Q338.72 516.095 338.462 516.985 Q338.204 517.874 337.572 519.251 Q336.97 520.629 336.138 521.891 Q335.306 523.125 333.929 524.043 Q332.58 524.932 331.031 524.932 Q328.965 524.932 327.587 523.555 Q326.21 522.178 326.21 520.112 Q326.21 518.964 326.813 517.386 Q330.629 507.2 330.629 503.7 Q330.629 499.597 327.444 499.597 Q325.866 499.597 324.374 500.2 Q322.911 500.773 321.906 501.577 Q320.902 502.38 319.984 503.499 Q319.094 504.589 318.635 505.335 Q318.205 506.053 317.861 506.77 L317.115 509.697 Q316.943 510.5 316.11 513.628 L314.819 518.936 Q313.901 522.895 313.7 523.268 Q313.413 524.072 312.782 524.502 Q312.151 524.932 311.52 524.932 Q310.802 524.932 310.315 524.502 Q309.827 524.072 309.827 523.326 Q309.827 523.211 309.913 522.781 Q309.999 522.35 310.142 521.748 Q310.286 521.145 310.343 520.801 L313.758 507.229 Q314.389 504.762 314.532 503.987 Q314.705 503.184 314.705 502.294 Q314.705 499.597 312.868 499.597 Q311.376 499.597 310.401 501.376 Q309.425 503.155 308.593 506.598 Q308.335 507.545 308.163 507.746 Q308.019 507.946 307.589 507.946 Q306.871 507.918 306.871 507.344 Q306.871 507.2 307.101 506.254 Q307.331 505.307 307.761 503.958 Q308.22 502.581 308.65 501.663 Q309.023 500.974 309.224 500.659 Q309.454 500.314 309.999 499.654 Q310.573 498.966 311.319 498.65 Q312.094 498.306 313.04 498.306 Q315.164 498.306 316.713 499.683 Q318.262 501.032 318.463 503.413 Q322.279 498.306 327.616 498.306 Q330.772 498.306 332.58 499.97 Q334.388 501.634 334.388 504.589 Q334.388 505.278 334.244 506.168 Q334.129 507.028 333.842 508.119 Q333.584 509.209 333.355 510.041 Q333.125 510.873 332.666 512.222 Q332.207 513.542 332.006 514.115 Q331.805 514.689 331.317 516.038 Q330.858 517.358 330.801 517.501 Q329.739 520.169 329.739 521.69 Q329.739 522.694 330.055 523.154 Q330.399 523.613 331.145 523.613 Q333.154 523.613 334.646 521.633 Q336.167 519.624 337.142 516.353 Q337.372 515.636 337.486 515.464 Q337.63 515.292 338.032 515.292 Q338.72 515.292 338.72 515.866 Z" fill="#000000" fill-rule="evenodd" fill-opacity="1" /><path clip-path="url(#clip520)" d="M370.666 496.096 Q370.748 495.072 372.346 495.072 L423.788 495.072 Q426.206 495.072 426.247 496.014 Q426.247 497.039 423.952 496.998 L372.92 496.998 Q370.666 497.039 370.666 496.096 M370.666 479.701 Q370.666 478.676 372.428 478.717 L423.706 478.717 Q426.206 478.717 426.247 479.701 Q426.247 480.643 424.116 480.643 L372.346 480.643 Q370.666 480.643 370.666 479.701 Z" fill="#000000" fill-rule="evenodd" fill-opacity="1" /><path clip-path="url(#clip520)" d="M510.546 419.986 L510.546 417.363 Q520.629 417.363 525.835 411.993 Q527.269 411.993 527.515 412.321 Q527.761 412.649 527.761 414.166 L527.761 461.263 Q527.761 463.763 528.991 464.542 Q530.221 465.321 535.59 465.321 L538.254 465.321 L538.254 467.903 Q535.303 467.657 524.646 467.657 Q513.989 467.657 511.079 467.903 L511.079 465.321 L513.743 465.321 Q519.03 465.321 520.301 464.583 Q521.572 463.804 521.572 461.263 L521.572 417.773 Q517.186 419.986 510.546 419.986 Z" fill="#000000" fill-rule="evenodd" fill-opacity="1" /><path clip-path="url(#clip520)" d="
M476.546 490.303 L581.387 490.303 L581.387 485.823 L476.546 485.823  Z
  " fill="#000000" fill-rule="evenodd" fill-opacity="1"/>
<path clip-path="url(#clip520)" d="M476.546 565.602 L487.586 548.574 L492.076 571.169 L492.919 575.285 Q493.106 574.209 493.667 572.385 Q494.275 570.514 494.369 570.046 L509.198 513.115 Q509.291 512.741 509.432 512.133 Q509.619 511.478 509.712 511.244 Q509.806 511.01 509.946 510.542 Q510.087 510.074 510.18 509.934 Q510.274 509.747 510.414 509.419 Q510.554 509.092 510.742 508.998 Q510.929 508.905 511.163 508.718 Q511.396 508.531 511.677 508.484 Q512.005 508.437 512.332 508.39 Q512.66 508.344 513.127 508.344 L521.501 508.344 Q524.448 508.344 524.448 510.262 Q524.448 512.179 521.594 512.179 L513.408 512.179 L494.088 586.044 Q493.807 587.12 493.573 587.541 Q493.386 587.962 492.731 588.337 Q492.076 588.711 490.907 588.711 L489.971 588.711 L483.843 558.257 L478.089 567.145 L476.546 565.602 Z" fill="#000000" fill-rule="evenodd" fill-opacity="1" /><path clip-path="url(#clip520)" d="
M521.304 512.203 L572.427 512.203 L572.427 508.223 L521.304 508.223  Z
  " fill="#000000" fill-rule="evenodd" fill-opacity="1"/>
<path clip-path="url(#clip520)" d="M530.264 573.052 Q530.264 570.551 531.616 569.608 Q532.969 568.625 534.404 568.625 Q536.33 568.625 537.437 569.854 Q538.584 571.043 538.584 572.724 Q538.584 574.404 537.437 575.634 Q536.33 576.823 534.404 576.823 Q533.461 576.823 532.969 576.659 Q534.076 580.512 537.437 583.299 Q540.839 586.086 545.307 586.086 Q550.922 586.086 554.283 580.635 Q556.292 577.109 556.292 569.117 Q556.292 562.066 554.775 558.541 Q552.439 553.172 547.643 553.172 Q540.839 553.172 536.822 559.033 Q536.33 559.771 535.756 559.812 Q534.936 559.812 534.731 559.361 Q534.568 558.869 534.568 557.599 L534.568 532.759 Q534.568 530.751 535.387 530.751 Q535.715 530.751 536.412 530.997 Q541.7 533.333 547.561 533.374 Q553.587 533.374 558.997 530.915 Q559.407 530.669 559.653 530.669 Q560.473 530.669 560.514 531.611 Q560.514 531.939 559.817 532.923 Q559.161 533.866 557.726 535.136 Q556.292 536.366 554.447 537.555 Q552.603 538.743 549.898 539.563 Q547.233 540.342 544.282 540.342 Q540.757 540.342 537.15 539.235 L537.15 555.59 Q541.495 551.327 547.807 551.327 Q554.529 551.327 559.161 556.738 Q563.793 562.148 563.793 569.69 Q563.793 577.601 558.3 583.012 Q552.849 588.423 545.471 588.423 Q538.748 588.423 534.486 583.627 Q530.264 578.831 530.264 573.052 Z" fill="#000000" fill-rule="evenodd" fill-opacity="1" /><path clip-path="url(#clip520)" d="M590.347 564.025 L590.347 381.255 L617.923 381.255 L617.923 385.45 L602.573 385.45 L602.573 559.83 L617.923 559.83 L617.923 564.025 L590.347 564.025 Z" fill="#000000" fill-rule="evenodd" fill-opacity="1" /><path clip-path="url(#clip520)" d="M649.603 472.659 Q649.603 441.784 661.114 416.887 Q666.022 406.447 672.893 397.702 Q679.765 388.957 684.316 385.12 Q688.867 381.282 690.116 381.282 Q691.901 381.282 691.99 383.067 Q691.99 383.96 689.58 386.19 Q660.133 416.173 660.222 472.659 Q660.222 529.324 688.867 558.147 Q691.99 561.27 691.99 562.252 Q691.99 564.036 690.116 564.036 Q688.867 564.036 684.494 560.378 Q680.122 556.719 673.34 548.331 Q666.558 539.943 661.65 529.681 Q649.603 504.784 649.603 472.659 Z" fill="#000000" fill-rule="evenodd" fill-opacity="1" /><path clip-path="url(#clip520)" d="M746.662 413.252 L746.662 410.629 Q756.745 410.629 761.951 405.259 Q763.386 405.259 763.632 405.587 Q763.877 405.915 763.877 407.432 L763.877 454.528 Q763.877 457.029 765.107 457.807 Q766.337 458.586 771.706 458.586 L774.371 458.586 L774.371 461.168 Q771.42 460.923 760.762 460.923 Q750.105 460.923 747.195 461.168 L747.195 458.586 L749.859 458.586 Q755.147 458.586 756.417 457.848 Q757.688 457.07 757.688 454.528 L757.688 411.039 Q753.302 413.252 746.662 413.252 Z" fill="#000000" fill-rule="evenodd" fill-opacity="1" /><path clip-path="url(#clip520)" d="M813.449 441.207 Q811.523 441.207 811.523 440.182 Q811.523 439.157 813.531 439.157 Q813.777 439.157 814.187 439.198 Q814.638 439.239 814.72 439.239 L838.371 439.239 L838.371 415.506 Q838.371 415.424 838.33 415.056 Q838.289 414.646 838.289 414.4 Q838.289 412.391 839.273 412.391 Q840.297 412.391 840.297 414.4 L840.297 439.239 L863.989 439.239 Q864.071 439.239 864.481 439.198 Q864.891 439.157 865.137 439.157 Q867.063 439.157 867.063 440.182 Q867.104 441.207 865.055 441.207 Q864.809 441.207 864.44 441.166 Q864.071 441.125 863.989 441.125 L840.297 441.125 L840.297 466.046 Q840.297 467.973 839.273 467.973 Q838.289 467.973 838.289 465.964 Q838.289 465.718 838.33 465.308 Q838.371 464.939 838.371 464.857 L838.371 441.125 L814.72 441.125 Q814.638 441.125 814.146 441.166 Q813.695 441.207 813.449 441.207 Z" fill="#000000" fill-rule="evenodd" fill-opacity="1" /><path clip-path="url(#clip520)" d="M899.483 439.976 L910.523 422.949 L915.014 445.543 L915.856 449.66 Q916.043 448.584 916.604 446.759 Q917.212 444.888 917.306 444.42 L932.135 387.49 Q932.228 387.115 932.369 386.507 Q932.556 385.852 932.649 385.618 Q932.743 385.385 932.883 384.917 Q933.024 384.449 933.117 384.309 Q933.211 384.122 933.351 383.794 Q933.491 383.467 933.679 383.373 Q933.866 383.279 934.1 383.092 Q934.334 382.905 934.614 382.858 Q934.942 382.812 935.269 382.765 Q935.597 382.718 936.064 382.718 L944.438 382.718 Q947.385 382.718 947.385 384.636 Q947.385 386.554 944.531 386.554 L936.345 386.554 L917.025 460.419 Q916.744 461.495 916.511 461.916 Q916.323 462.337 915.668 462.711 Q915.014 463.085 913.844 463.085 L912.908 463.085 L906.78 432.632 L901.026 441.52 L899.483 439.976 Z" fill="#000000" fill-rule="evenodd" fill-opacity="1" /><path clip-path="url(#clip520)" d="
M944.241 386.578 L995.364 386.578 L995.364 382.597 L944.241 382.597  Z
  " fill="#000000" fill-rule="evenodd" fill-opacity="1"/>
<path clip-path="url(#clip520)" d="M953.201 447.426 Q953.201 444.926 954.553 443.983 Q955.906 442.999 957.341 442.999 Q959.267 442.999 960.374 444.229 Q961.522 445.418 961.522 447.098 Q961.522 448.779 960.374 450.008 Q959.267 451.197 957.341 451.197 Q956.398 451.197 955.906 451.033 Q957.013 454.886 960.374 457.673 Q963.776 460.461 968.244 460.461 Q973.859 460.461 977.22 455.009 Q979.229 451.484 979.229 443.491 Q979.229 436.441 977.712 432.916 Q975.376 427.546 970.58 427.546 Q963.776 427.546 959.759 433.408 Q959.267 434.146 958.693 434.187 Q957.873 434.187 957.669 433.736 Q957.505 433.244 957.505 431.973 L957.505 407.134 Q957.505 405.125 958.324 405.125 Q958.652 405.125 959.349 405.371 Q964.637 407.708 970.498 407.748 Q976.524 407.748 981.934 405.289 Q982.344 405.043 982.59 405.043 Q983.41 405.043 983.451 405.986 Q983.451 406.314 982.754 407.298 Q982.098 408.24 980.664 409.511 Q979.229 410.741 977.384 411.929 Q975.54 413.118 972.835 413.938 Q970.17 414.717 967.219 414.717 Q963.694 414.717 960.087 413.61 L960.087 429.965 Q964.432 425.702 970.744 425.702 Q977.466 425.702 982.098 431.112 Q986.73 436.523 986.73 444.065 Q986.73 451.976 981.237 457.387 Q975.786 462.797 968.408 462.797 Q961.686 462.797 957.423 458.001 Q953.201 453.206 953.201 447.426 Z" fill="#000000" fill-rule="evenodd" fill-opacity="1" /><path clip-path="url(#clip520)" d="
M746.662 490.303 L1004.32 490.303 L1004.32 485.823 L746.662 485.823  Z
  " fill="#000000" fill-rule="evenodd" fill-opacity="1"/>
<path clip-path="url(#clip520)" d="M854.662 563.598 Q854.662 562.081 854.785 561.63 Q854.949 561.179 855.605 560.483 L871.714 542.529 Q880.526 532.61 880.526 523.961 Q880.526 518.346 877.575 514.329 Q874.665 510.312 869.295 510.312 Q865.606 510.312 862.491 512.566 Q859.376 514.821 857.941 518.838 Q858.187 518.756 859.048 518.756 Q861.138 518.756 862.286 520.067 Q863.475 521.379 863.475 523.141 Q863.475 525.396 861.999 526.503 Q860.564 527.568 859.13 527.568 Q858.556 527.568 857.777 527.445 Q857.039 527.322 855.851 526.175 Q854.662 524.986 854.662 522.895 Q854.662 517.034 859.089 512.361 Q863.557 507.688 870.361 507.688 Q878.067 507.688 883.109 512.279 Q888.191 516.829 888.191 523.961 Q888.191 526.462 887.412 528.757 Q886.675 531.011 885.65 532.774 Q884.666 534.536 881.961 537.365 Q879.256 540.193 877.083 542.201 Q874.911 544.21 870.033 548.473 L861.138 557.122 L876.263 557.122 Q883.641 557.122 884.215 556.466 Q885.035 555.277 886.06 549.006 L888.191 549.006 L885.814 563.598 L854.662 563.598 Z" fill="#000000" fill-rule="evenodd" fill-opacity="1" /><path clip-path="url(#clip520)" d="M1022.24 562.252 Q1022.24 561.359 1024.56 559.128 Q1054.01 529.145 1054.01 472.659 Q1054.01 415.995 1025.72 387.35 Q1022.24 384.049 1022.24 383.067 Q1022.24 381.282 1024.03 381.282 Q1025.28 381.282 1029.65 384.941 Q1034.11 388.6 1040.8 396.988 Q1047.59 405.376 1052.58 415.638 Q1064.63 440.535 1064.63 472.659 Q1064.63 503.535 1053.12 528.431 Q1048.21 538.872 1041.34 547.617 Q1034.47 556.362 1029.92 560.199 Q1025.37 564.036 1024.03 564.036 Q1022.24 564.036 1022.24 562.252 Z" fill="#000000" fill-rule="evenodd" fill-opacity="1" /><path clip-path="url(#clip520)" d="M1133.23 435.815 Q1133.23 436.045 1132.97 436.934 Q1132.71 437.824 1132.08 439.201 Q1131.48 440.578 1130.65 441.841 Q1129.82 443.074 1128.44 443.993 Q1127.09 444.882 1125.54 444.882 Q1123.48 444.882 1122.1 443.505 Q1120.72 442.127 1120.72 440.062 Q1120.72 438.914 1121.32 437.336 Q1125.14 427.15 1125.14 423.65 Q1125.14 419.547 1121.96 419.547 Q1120.38 419.547 1118.89 420.149 Q1117.42 420.723 1116.42 421.526 Q1115.41 422.33 1114.5 423.449 Q1113.61 424.539 1113.15 425.285 Q1112.72 426.002 1112.37 426.72 L1111.63 429.646 Q1111.45 430.45 1110.62 433.577 L1109.33 438.885 Q1108.41 442.845 1108.21 443.218 Q1107.92 444.021 1107.29 444.452 Q1106.66 444.882 1106.03 444.882 Q1105.31 444.882 1104.83 444.452 Q1104.34 444.021 1104.34 443.275 Q1104.34 443.16 1104.42 442.73 Q1104.51 442.3 1104.65 441.697 Q1104.8 441.095 1104.85 440.75 L1108.27 427.179 Q1108.9 424.711 1109.04 423.936 Q1109.22 423.133 1109.22 422.244 Q1109.22 419.547 1107.38 419.547 Q1105.89 419.547 1104.91 421.325 Q1103.94 423.104 1103.1 426.547 Q1102.85 427.494 1102.67 427.695 Q1102.53 427.896 1102.1 427.896 Q1101.38 427.867 1101.38 427.293 Q1101.38 427.15 1101.61 426.203 Q1101.84 425.256 1102.27 423.908 Q1102.73 422.531 1103.16 421.612 Q1103.53 420.924 1103.74 420.608 Q1103.97 420.264 1104.51 419.604 Q1105.08 418.915 1105.83 418.6 Q1106.6 418.255 1107.55 418.255 Q1109.67 418.255 1111.22 419.633 Q1112.77 420.981 1112.97 423.363 Q1116.79 418.255 1122.13 418.255 Q1125.28 418.255 1127.09 419.92 Q1128.9 421.584 1128.9 424.539 Q1128.9 425.228 1128.76 426.117 Q1128.64 426.978 1128.35 428.068 Q1128.1 429.158 1127.87 429.991 Q1127.64 430.823 1127.18 432.171 Q1126.72 433.491 1126.52 434.065 Q1126.32 434.639 1125.83 435.987 Q1125.37 437.307 1125.31 437.451 Q1124.25 440.119 1124.25 441.64 Q1124.25 442.644 1124.57 443.103 Q1124.91 443.562 1125.66 443.562 Q1127.67 443.562 1129.16 441.582 Q1130.68 439.574 1131.65 436.303 Q1131.88 435.586 1132 435.413 Q1132.14 435.241 1132.54 435.241 Q1133.23 435.241 1133.23 435.815 Z" fill="#000000" fill-rule="evenodd" fill-opacity="1" /><path clip-path="url(#clip520)" d="M1220.59 486.669 Q1221.09 487.161 1221.09 487.858 Q1221.09 488.554 1220.59 489.046 Q1220.1 489.538 1219.41 489.538 L1166.86 489.538 Q1166.16 489.538 1165.67 489.046 Q1165.18 488.554 1165.18 487.858 Q1165.18 487.161 1165.67 486.669 Q1166.16 486.177 1166.86 486.177 L1219.41 486.177 Q1220.1 486.177 1220.59 486.669 Z" fill="#000000" fill-rule="evenodd" fill-opacity="1" /><path clip-path="url(#clip520)" d="M1253.14 475.117 Q1253.14 445.078 1264.34 420.856 Q1269.11 410.699 1275.8 402.191 Q1282.48 393.683 1286.91 389.95 Q1291.34 386.217 1292.55 386.217 Q1294.29 386.217 1294.37 387.953 Q1294.37 388.821 1292.03 390.991 Q1263.38 420.162 1263.47 475.117 Q1263.47 530.245 1291.34 558.287 Q1294.37 561.325 1294.37 562.28 Q1294.37 564.017 1292.55 564.017 Q1291.34 564.017 1287.08 560.457 Q1282.83 556.898 1276.23 548.737 Q1269.63 540.576 1264.86 530.592 Q1253.14 506.37 1253.14 475.117 Z" fill="#000000" fill-rule="evenodd" fill-opacity="1" /><path clip-path="url(#clip520)" d="M1348.29 418.158 L1348.29 415.535 Q1358.38 415.535 1363.58 410.165 Q1365.02 410.165 1365.26 410.493 Q1365.51 410.821 1365.51 412.338 L1365.51 459.434 Q1365.51 461.935 1366.74 462.714 Q1367.97 463.492 1373.34 463.492 L1376 463.492 L1376 466.075 Q1373.05 465.829 1362.39 465.829 Q1351.74 465.829 1348.83 466.075 L1348.83 463.492 L1351.49 463.492 Q1356.78 463.492 1358.05 462.755 Q1359.32 461.976 1359.32 459.434 L1359.32 415.945 Q1354.93 418.158 1348.29 418.158 Z" fill="#000000" fill-rule="evenodd" fill-opacity="1" /><path clip-path="url(#clip520)" d="M1468.57 443.9 Q1469.06 444.391 1469.06 445.088 Q1469.06 445.785 1468.57 446.277 Q1468.08 446.769 1467.38 446.769 L1414.84 446.769 Q1414.14 446.769 1413.65 446.277 Q1413.15 445.785 1413.15 445.088 Q1413.15 444.391 1413.65 443.9 Q1414.14 443.408 1414.84 443.408 L1467.38 443.408 Q1468.08 443.408 1468.57 443.9 Z" fill="#000000" fill-rule="evenodd" fill-opacity="1" /><path clip-path="url(#clip520)" d="M1501.11 444.883 L1512.15 427.855 L1516.65 450.449 L1517.49 454.566 Q1517.67 453.49 1518.24 451.666 Q1518.84 449.794 1518.94 449.327 L1533.77 392.396 Q1533.86 392.022 1534 391.414 Q1534.19 390.759 1534.28 390.525 Q1534.37 390.291 1534.52 389.823 Q1534.66 389.355 1534.75 389.215 Q1534.84 389.028 1534.98 388.7 Q1535.12 388.373 1535.31 388.279 Q1535.5 388.186 1535.73 387.999 Q1535.97 387.812 1536.25 387.765 Q1536.57 387.718 1536.9 387.671 Q1537.23 387.624 1537.7 387.624 L1546.07 387.624 Q1549.02 387.624 1549.02 389.542 Q1549.02 391.46 1546.16 391.46 L1537.98 391.46 L1518.66 465.325 Q1518.38 466.401 1518.14 466.822 Q1517.96 467.243 1517.3 467.617 Q1516.65 467.992 1515.48 467.992 L1514.54 467.992 L1508.41 437.538 L1502.66 446.426 L1501.11 444.883 Z" fill="#000000" fill-rule="evenodd" fill-opacity="1" /><path clip-path="url(#clip520)" d="
M1545.87 391.484 L1597 391.484 L1597 387.504 L1545.87 387.504  Z
  " fill="#000000" fill-rule="evenodd" fill-opacity="1"/>
<path clip-path="url(#clip520)" d="M1554.83 452.332 Q1554.83 449.832 1556.19 448.889 Q1557.54 447.906 1558.97 447.906 Q1560.9 447.906 1562.01 449.135 Q1563.15 450.324 1563.15 452.004 Q1563.15 453.685 1562.01 454.915 Q1560.9 456.103 1558.97 456.103 Q1558.03 456.103 1557.54 455.939 Q1558.64 459.792 1562.01 462.58 Q1565.41 465.367 1569.88 465.367 Q1575.49 465.367 1578.85 459.915 Q1580.86 456.39 1580.86 448.397 Q1580.86 441.347 1579.34 437.822 Q1577.01 432.453 1572.21 432.453 Q1565.41 432.453 1561.39 438.314 Q1560.9 439.052 1560.33 439.093 Q1559.51 439.093 1559.3 438.642 Q1559.14 438.15 1559.14 436.879 L1559.14 412.04 Q1559.14 410.031 1559.96 410.031 Q1560.28 410.031 1560.98 410.277 Q1566.27 412.614 1572.13 412.655 Q1578.16 412.655 1583.57 410.195 Q1583.98 409.949 1584.22 409.949 Q1585.04 409.949 1585.08 410.892 Q1585.08 411.22 1584.39 412.204 Q1583.73 413.147 1582.3 414.417 Q1580.86 415.647 1579.02 416.836 Q1577.17 418.024 1574.47 418.844 Q1571.8 419.623 1568.85 419.623 Q1565.33 419.623 1561.72 418.516 L1561.72 434.871 Q1566.06 430.608 1572.38 430.608 Q1579.1 430.608 1583.73 436.019 Q1588.36 441.429 1588.36 448.971 Q1588.36 456.882 1582.87 462.293 Q1577.42 467.703 1570.04 467.703 Q1563.32 467.703 1559.05 462.908 Q1554.83 458.112 1554.83 452.332 Z" fill="#000000" fill-rule="evenodd" fill-opacity="1" /><path clip-path="url(#clip520)" d="
M1348.29 490.303 L1605.96 490.303 L1605.96 485.823 L1348.29 485.823  Z
  " fill="#000000" fill-rule="evenodd" fill-opacity="1"/>
<path clip-path="url(#clip520)" d="M1456.29 563.598 Q1456.29 562.081 1456.42 561.63 Q1456.58 561.179 1457.24 560.483 L1473.35 542.529 Q1482.16 532.61 1482.16 523.961 Q1482.16 518.346 1479.21 514.329 Q1476.3 510.312 1470.93 510.312 Q1467.24 510.312 1464.12 512.566 Q1461.01 514.821 1459.57 518.838 Q1459.82 518.756 1460.68 518.756 Q1462.77 518.756 1463.92 520.067 Q1465.11 521.379 1465.11 523.141 Q1465.11 525.396 1463.63 526.503 Q1462.2 527.568 1460.76 527.568 Q1460.19 527.568 1459.41 527.445 Q1458.67 527.322 1457.48 526.175 Q1456.29 524.986 1456.29 522.895 Q1456.29 517.034 1460.72 512.361 Q1465.19 507.688 1471.99 507.688 Q1479.7 507.688 1484.74 512.279 Q1489.82 516.829 1489.82 523.961 Q1489.82 526.462 1489.04 528.757 Q1488.31 531.011 1487.28 532.774 Q1486.3 534.536 1483.59 537.365 Q1480.89 540.193 1478.71 542.201 Q1476.54 544.21 1471.66 548.473 L1462.77 557.122 L1477.9 557.122 Q1485.27 557.122 1485.85 556.466 Q1486.67 555.277 1487.69 549.006 L1489.82 549.006 L1487.45 563.598 L1456.29 563.598 Z" fill="#000000" fill-rule="evenodd" fill-opacity="1" /><path clip-path="url(#clip520)" d="M1623.88 562.28 Q1623.88 561.412 1626.13 559.242 Q1654.78 530.071 1654.78 475.117 Q1654.78 419.988 1627.26 392.12 Q1623.88 388.908 1623.88 387.953 Q1623.88 386.217 1625.61 386.217 Q1626.83 386.217 1631.08 389.776 Q1635.42 393.335 1641.93 401.496 Q1648.53 409.657 1653.39 419.641 Q1665.11 443.863 1665.11 475.117 Q1665.11 505.155 1653.91 529.377 Q1649.14 539.534 1642.45 548.042 Q1635.77 556.55 1631.34 560.283 Q1626.91 564.017 1625.61 564.017 Q1623.88 564.017 1623.88 562.28 Z" fill="#000000" fill-rule="evenodd" fill-opacity="1" /><path clip-path="url(#clip520)" d="M1732.96 435.815 Q1732.96 436.045 1732.7 436.934 Q1732.44 437.824 1731.81 439.201 Q1731.21 440.578 1730.38 441.841 Q1729.55 443.074 1728.17 443.993 Q1726.82 444.882 1725.27 444.882 Q1723.21 444.882 1721.83 443.505 Q1720.45 442.127 1720.45 440.062 Q1720.45 438.914 1721.05 437.336 Q1724.87 427.15 1724.87 423.65 Q1724.87 419.547 1721.68 419.547 Q1720.11 419.547 1718.61 420.149 Q1717.15 420.723 1716.15 421.526 Q1715.14 422.33 1714.22 423.449 Q1713.34 424.539 1712.88 425.285 Q1712.45 426.002 1712.1 426.72 L1711.36 429.646 Q1711.18 430.45 1710.35 433.577 L1709.06 438.885 Q1708.14 442.845 1707.94 443.218 Q1707.65 444.021 1707.02 444.452 Q1706.39 444.882 1705.76 444.882 Q1705.04 444.882 1704.56 444.452 Q1704.07 444.021 1704.07 443.275 Q1704.07 443.16 1704.15 442.73 Q1704.24 442.3 1704.38 441.697 Q1704.53 441.095 1704.58 440.75 L1708 427.179 Q1708.63 424.711 1708.77 423.936 Q1708.95 423.133 1708.95 422.244 Q1708.95 419.547 1707.11 419.547 Q1705.62 419.547 1704.64 421.325 Q1703.67 423.104 1702.83 426.547 Q1702.58 427.494 1702.4 427.695 Q1702.26 427.896 1701.83 427.896 Q1701.11 427.867 1701.11 427.293 Q1701.11 427.15 1701.34 426.203 Q1701.57 425.256 1702 423.908 Q1702.46 422.531 1702.89 421.612 Q1703.26 420.924 1703.47 420.608 Q1703.69 420.264 1704.24 419.604 Q1704.81 418.915 1705.56 418.6 Q1706.33 418.255 1707.28 418.255 Q1709.4 418.255 1710.95 419.633 Q1712.5 420.981 1712.7 423.363 Q1716.52 418.255 1721.86 418.255 Q1725.01 418.255 1726.82 419.92 Q1728.63 421.584 1728.63 424.539 Q1728.63 425.228 1728.49 426.117 Q1728.37 426.978 1728.08 428.068 Q1727.83 429.158 1727.6 429.991 Q1727.37 430.823 1726.91 432.171 Q1726.45 433.491 1726.25 434.065 Q1726.05 434.639 1725.56 435.987 Q1725.1 437.307 1725.04 437.451 Q1723.98 440.119 1723.98 441.64 Q1723.98 442.644 1724.3 443.103 Q1724.64 443.562 1725.39 443.562 Q1727.39 443.562 1728.89 441.582 Q1730.41 439.574 1731.38 436.303 Q1731.61 435.586 1731.73 435.413 Q1731.87 435.241 1732.27 435.241 Q1732.96 435.241 1732.96 435.815 Z" fill="#000000" fill-rule="evenodd" fill-opacity="1" /><path clip-path="url(#clip520)" d="M1750.58 559.83 L1765.93 559.83 L1765.93 385.45 L1750.58 385.45 L1750.58 381.255 L1778.15 381.255 L1778.15 564.025 L1750.58 564.025 L1750.58 559.83 Z" fill="#000000" fill-rule="evenodd" fill-opacity="1" /></svg>
