<?xml version="1.0" encoding="utf-8"?>
<svg xmlns="http://www.w3.org/2000/svg" xmlns:xlink="http://www.w3.org/1999/xlink" width="600" height="400" viewBox="0 0 2400 1600">
<defs>
  <clipPath id="clip160">
    <rect x="0" y="0" width="2400" height="1600"/>
  </clipPath>
</defs>
<path clip-path="url(#clip160)" d="
M0 1600 L2400 1600 L2400 0 L0 0  Z
  " fill="#ffffff" fill-rule="evenodd" fill-opacity="1"/>
<defs>
  <clipPath id="clip161">
    <rect x="480" y="0" width="1681" height="1600"/>
  </clipPath>
</defs>
<path clip-path="url(#clip160)" d="
M193.936 1486.45 L2352.76 1486.45 L2352.76 47.2441 L193.936 47.2441  Z
  " fill="#ffffff" fill-rule="evenodd" fill-opacity="1"/>
<defs>
  <clipPath id="clip162">
    <rect x="193" y="47" width="2160" height="1440"/>
  </clipPath>
</defs>
<polyline clip-path="url(#clip162)" style="stroke:#000000; stroke-linecap:butt; stroke-linejoin:round; stroke-width:2; stroke-opacity:0.1; fill:none" points="
  255.035,1486.45 255.035,47.2441 
  "/>
<polyline clip-path="url(#clip162)" style="stroke:#000000; stroke-linecap:butt; stroke-linejoin:round; stroke-width:2; stroke-opacity:0.1; fill:none" points="
  579.173,1486.45 579.173,47.2441 
  "/>
<polyline clip-path="url(#clip162)" style="stroke:#000000; stroke-linecap:butt; stroke-linejoin:round; stroke-width:2; stroke-opacity:0.1; fill:none" points="
  903.312,1486.45 903.312,47.2441 
  "/>
<polyline clip-path="url(#clip162)" style="stroke:#000000; stroke-linecap:butt; stroke-linejoin:round; stroke-width:2; stroke-opacity:0.1; fill:none" points="
  1227.45,1486.45 1227.45,47.2441 
  "/>
<polyline clip-path="url(#clip162)" style="stroke:#000000; stroke-linecap:butt; stroke-linejoin:round; stroke-width:2; stroke-opacity:0.1; fill:none" points="
  1551.59,1486.45 1551.59,47.2441 
  "/>
<polyline clip-path="url(#clip162)" style="stroke:#000000; stroke-linecap:butt; stroke-linejoin:round; stroke-width:2; stroke-opacity:0.1; fill:none" points="
  1875.73,1486.45 1875.73,47.2441 
  "/>
<polyline clip-path="url(#clip162)" style="stroke:#000000; stroke-linecap:butt; stroke-linejoin:round; stroke-width:2; stroke-opacity:0.1; fill:none" points="
  2199.87,1486.45 2199.87,47.2441 
  "/>
<path clip-path="url(#clip160)" d="M255.035 1517.37 Q251.424 1517.37 249.595 1520.93 Q247.789 1524.47 247.789 1531.6 Q247.789 1538.71 249.595 1542.27 Q251.424 1545.82 255.035 1545.82 Q258.669 1545.82 260.474 1542.27 Q262.303 1538.71 262.303 1531.6 Q262.303 1524.47 260.474 1520.93 Q258.669 1517.37 255.035 1517.37 M255.035 1513.66 Q260.845 1513.66 263.9 1518.27 Q266.979 1522.85 266.979 1531.6 Q266.979 1540.33 263.9 1544.94 Q260.845 1549.52 255.035 1549.52 Q249.225 1549.52 246.146 1544.94 Q243.09 1540.33 243.09 1531.6 Q243.09 1522.85 246.146 1518.27 Q249.225 1513.66 255.035 1513.66 Z" fill="#000000" fill-rule="evenodd" fill-opacity="1" /><path clip-path="url(#clip160)" d="M569.555 1544.91 L577.194 1544.91 L577.194 1518.55 L568.884 1520.21 L568.884 1515.95 L577.148 1514.29 L581.824 1514.29 L581.824 1544.91 L589.463 1544.91 L589.463 1548.85 L569.555 1548.85 L569.555 1544.91 Z" fill="#000000" fill-rule="evenodd" fill-opacity="1" /><path clip-path="url(#clip160)" d="M897.965 1544.91 L914.284 1544.91 L914.284 1548.85 L892.34 1548.85 L892.34 1544.91 Q895.002 1542.16 899.585 1537.53 Q904.191 1532.88 905.372 1531.53 Q907.617 1529.01 908.497 1527.27 Q909.4 1525.51 909.4 1523.82 Q909.4 1521.07 907.455 1519.33 Q905.534 1517.6 902.432 1517.6 Q900.233 1517.6 897.779 1518.36 Q895.349 1519.13 892.571 1520.68 L892.571 1515.95 Q895.395 1514.82 897.849 1514.24 Q900.303 1513.66 902.34 1513.66 Q907.71 1513.66 910.904 1516.35 Q914.099 1519.03 914.099 1523.52 Q914.099 1525.65 913.289 1527.57 Q912.502 1529.47 910.395 1532.07 Q909.816 1532.74 906.715 1535.95 Q903.613 1539.15 897.965 1544.91 Z" fill="#000000" fill-rule="evenodd" fill-opacity="1" /><path clip-path="url(#clip160)" d="M1231.7 1530.21 Q1235.05 1530.93 1236.93 1533.2 Q1238.83 1535.47 1238.83 1538.8 Q1238.83 1543.92 1235.31 1546.72 Q1231.79 1549.52 1225.31 1549.52 Q1223.13 1549.52 1220.82 1549.08 Q1218.53 1548.66 1216.07 1547.81 L1216.07 1543.29 Q1218.02 1544.43 1220.33 1545.01 Q1222.65 1545.58 1225.17 1545.58 Q1229.57 1545.58 1231.86 1543.85 Q1234.17 1542.11 1234.17 1538.8 Q1234.17 1535.75 1232.02 1534.03 Q1229.89 1532.3 1226.07 1532.3 L1222.05 1532.3 L1222.05 1528.45 L1226.26 1528.45 Q1229.71 1528.45 1231.54 1527.09 Q1233.36 1525.7 1233.36 1523.11 Q1233.36 1520.45 1231.47 1519.03 Q1229.59 1517.6 1226.07 1517.6 Q1224.15 1517.6 1221.95 1518.01 Q1219.75 1518.43 1217.11 1519.31 L1217.11 1515.14 Q1219.78 1514.4 1222.09 1514.03 Q1224.43 1513.66 1226.49 1513.66 Q1231.81 1513.66 1234.92 1516.09 Q1238.02 1518.5 1238.02 1522.62 Q1238.02 1525.49 1236.37 1527.48 Q1234.73 1529.45 1231.7 1530.21 Z" fill="#000000" fill-rule="evenodd" fill-opacity="1" /><path clip-path="url(#clip160)" d="M1554.6 1518.36 L1542.79 1536.81 L1554.6 1536.81 L1554.6 1518.36 M1553.37 1514.29 L1559.25 1514.29 L1559.25 1536.81 L1564.18 1536.81 L1564.18 1540.7 L1559.25 1540.7 L1559.25 1548.85 L1554.6 1548.85 L1554.6 1540.7 L1539 1540.7 L1539 1536.19 L1553.37 1514.29 Z" fill="#000000" fill-rule="evenodd" fill-opacity="1" /><path clip-path="url(#clip160)" d="M1866.01 1514.29 L1884.36 1514.29 L1884.36 1518.22 L1870.29 1518.22 L1870.29 1526.7 Q1871.31 1526.35 1872.32 1526.19 Q1873.34 1526 1874.36 1526 Q1880.15 1526 1883.53 1529.17 Q1886.91 1532.34 1886.91 1537.76 Q1886.91 1543.34 1883.44 1546.44 Q1879.96 1549.52 1873.64 1549.52 Q1871.47 1549.52 1869.2 1549.15 Q1866.95 1548.78 1864.55 1548.04 L1864.55 1543.34 Q1866.63 1544.47 1868.85 1545.03 Q1871.07 1545.58 1873.55 1545.58 Q1877.56 1545.58 1879.89 1543.48 Q1882.23 1541.37 1882.23 1537.76 Q1882.23 1534.15 1879.89 1532.04 Q1877.56 1529.94 1873.55 1529.94 Q1871.68 1529.94 1869.8 1530.35 Q1867.95 1530.77 1866.01 1531.65 L1866.01 1514.29 Z" fill="#000000" fill-rule="evenodd" fill-opacity="1" /><path clip-path="url(#clip160)" d="M2200.27 1529.7 Q2197.12 1529.7 2195.27 1531.86 Q2193.44 1534.01 2193.44 1537.76 Q2193.44 1541.49 2195.27 1543.66 Q2197.12 1545.82 2200.27 1545.82 Q2203.42 1545.82 2205.25 1543.66 Q2207.1 1541.49 2207.1 1537.76 Q2207.1 1534.01 2205.25 1531.86 Q2203.42 1529.7 2200.27 1529.7 M2209.55 1515.05 L2209.55 1519.31 Q2207.79 1518.48 2205.99 1518.04 Q2204.21 1517.6 2202.45 1517.6 Q2197.82 1517.6 2195.36 1520.72 Q2192.93 1523.85 2192.59 1530.17 Q2193.95 1528.15 2196.01 1527.09 Q2198.07 1526 2200.55 1526 Q2205.76 1526 2208.77 1529.17 Q2211.8 1532.32 2211.8 1537.76 Q2211.8 1543.08 2208.65 1546.3 Q2205.5 1549.52 2200.27 1549.52 Q2194.28 1549.52 2191.1 1544.94 Q2187.93 1540.33 2187.93 1531.6 Q2187.93 1523.41 2191.82 1518.55 Q2195.71 1513.66 2202.26 1513.66 Q2204.02 1513.66 2205.8 1514.01 Q2207.61 1514.36 2209.55 1515.05 Z" fill="#000000" fill-rule="evenodd" fill-opacity="1" /><polyline clip-path="url(#clip162)" style="stroke:#000000; stroke-linecap:butt; stroke-linejoin:round; stroke-width:2; stroke-opacity:0.1; fill:none" points="
  193.936,1445.72 2352.76,1445.72 
  "/>
<polyline clip-path="url(#clip162)" style="stroke:#000000; stroke-linecap:butt; stroke-linejoin:round; stroke-width:2; stroke-opacity:0.1; fill:none" points="
  193.936,1106.28 2352.76,1106.28 
  "/>
<polyline clip-path="url(#clip162)" style="stroke:#000000; stroke-linecap:butt; stroke-linejoin:round; stroke-width:2; stroke-opacity:0.1; fill:none" points="
  193.936,766.842 2352.76,766.842 
  "/>
<polyline clip-path="url(#clip162)" style="stroke:#000000; stroke-linecap:butt; stroke-linejoin:round; stroke-width:2; stroke-opacity:0.1; fill:none" points="
  193.936,427.405 2352.76,427.405 
  "/>
<polyline clip-path="url(#clip162)" style="stroke:#000000; stroke-linecap:butt; stroke-linejoin:round; stroke-width:2; stroke-opacity:0.1; fill:none" points="
  193.936,87.9677 2352.76,87.9677 
  "/>
<path clip-path="url(#clip160)" d="M50.9921 1446.17 L80.6679 1446.17 L80.6679 1450.1 L50.9921 1450.1 L50.9921 1446.17 Z" fill="#000000" fill-rule="evenodd" fill-opacity="1" /><path clip-path="url(#clip160)" d="M91.5706 1459.06 L99.2095 1459.06 L99.2095 1432.7 L90.8993 1434.36 L90.8993 1430.1 L99.1632 1428.44 L103.839 1428.44 L103.839 1459.06 L111.478 1459.06 L111.478 1463 L91.5706 1463 L91.5706 1459.06 Z" fill="#000000" fill-rule="evenodd" fill-opacity="1" /><path clip-path="url(#clip160)" d="M120.922 1457.12 L125.807 1457.12 L125.807 1463 L120.922 1463 L120.922 1457.12 Z" fill="#000000" fill-rule="evenodd" fill-opacity="1" /><path clip-path="url(#clip160)" d="M145.992 1431.52 Q142.381 1431.52 140.552 1435.08 Q138.746 1438.62 138.746 1445.75 Q138.746 1452.86 140.552 1456.42 Q142.381 1459.96 145.992 1459.96 Q149.626 1459.96 151.431 1456.42 Q153.26 1452.86 153.26 1445.75 Q153.26 1438.62 151.431 1435.08 Q149.626 1431.52 145.992 1431.52 M145.992 1427.81 Q151.802 1427.81 154.857 1432.42 Q157.936 1437 157.936 1445.75 Q157.936 1454.48 154.857 1459.09 Q151.802 1463.67 145.992 1463.67 Q140.181 1463.67 137.103 1459.09 Q134.047 1454.48 134.047 1445.75 Q134.047 1437 137.103 1432.42 Q140.181 1427.81 145.992 1427.81 Z" fill="#000000" fill-rule="evenodd" fill-opacity="1" /><path clip-path="url(#clip160)" d="M51.9875 1106.73 L81.6633 1106.73 L81.6633 1110.67 L51.9875 1110.67 L51.9875 1106.73 Z" fill="#000000" fill-rule="evenodd" fill-opacity="1" /><path clip-path="url(#clip160)" d="M101.756 1092.08 Q98.1447 1092.08 96.316 1095.64 Q94.5104 1099.18 94.5104 1106.31 Q94.5104 1113.42 96.316 1116.99 Q98.1447 1120.53 101.756 1120.53 Q105.39 1120.53 107.196 1116.99 Q109.024 1113.42 109.024 1106.31 Q109.024 1099.18 107.196 1095.64 Q105.39 1092.08 101.756 1092.08 M101.756 1088.37 Q107.566 1088.37 110.621 1092.98 Q113.7 1097.56 113.7 1106.31 Q113.7 1115.04 110.621 1119.65 Q107.566 1124.23 101.756 1124.23 Q95.9456 1124.23 92.8669 1119.65 Q89.8114 1115.04 89.8114 1106.31 Q89.8114 1097.56 92.8669 1092.98 Q95.9456 1088.37 101.756 1088.37 Z" fill="#000000" fill-rule="evenodd" fill-opacity="1" /><path clip-path="url(#clip160)" d="M121.918 1117.68 L126.802 1117.68 L126.802 1123.56 L121.918 1123.56 L121.918 1117.68 Z" fill="#000000" fill-rule="evenodd" fill-opacity="1" /><path clip-path="url(#clip160)" d="M137.033 1089 L155.39 1089 L155.39 1092.93 L141.316 1092.93 L141.316 1101.41 Q142.334 1101.06 143.353 1100.9 Q144.371 1100.71 145.39 1100.71 Q151.177 1100.71 154.556 1103.88 Q157.936 1107.06 157.936 1112.47 Q157.936 1118.05 154.464 1121.15 Q150.992 1124.23 144.672 1124.23 Q142.496 1124.23 140.228 1123.86 Q137.982 1123.49 135.575 1122.75 L135.575 1118.05 Q137.658 1119.18 139.881 1119.74 Q142.103 1120.3 144.58 1120.3 Q148.584 1120.3 150.922 1118.19 Q153.26 1116.08 153.26 1112.47 Q153.26 1108.86 150.922 1106.75 Q148.584 1104.65 144.58 1104.65 Q142.705 1104.65 140.83 1105.06 Q138.978 1105.48 137.033 1106.36 L137.033 1089 Z" fill="#000000" fill-rule="evenodd" fill-opacity="1" /><path clip-path="url(#clip160)" d="M100.76 752.641 Q97.1493 752.641 95.3206 756.206 Q93.515 759.748 93.515 766.877 Q93.515 773.984 95.3206 777.548 Q97.1493 781.09 100.76 781.09 Q104.395 781.09 106.2 777.548 Q108.029 773.984 108.029 766.877 Q108.029 759.748 106.2 756.206 Q104.395 752.641 100.76 752.641 M100.76 748.937 Q106.571 748.937 109.626 753.544 Q112.705 758.127 112.705 766.877 Q112.705 775.604 109.626 780.21 Q106.571 784.794 100.76 784.794 Q94.9502 784.794 91.8715 780.21 Q88.816 775.604 88.816 766.877 Q88.816 758.127 91.8715 753.544 Q94.9502 748.937 100.76 748.937 Z" fill="#000000" fill-rule="evenodd" fill-opacity="1" /><path clip-path="url(#clip160)" d="M120.922 778.243 L125.807 778.243 L125.807 784.122 L120.922 784.122 L120.922 778.243 Z" fill="#000000" fill-rule="evenodd" fill-opacity="1" /><path clip-path="url(#clip160)" d="M145.992 752.641 Q142.381 752.641 140.552 756.206 Q138.746 759.748 138.746 766.877 Q138.746 773.984 140.552 777.548 Q142.381 781.09 145.992 781.09 Q149.626 781.09 151.431 777.548 Q153.26 773.984 153.26 766.877 Q153.26 759.748 151.431 756.206 Q149.626 752.641 145.992 752.641 M145.992 748.937 Q151.802 748.937 154.857 753.544 Q157.936 758.127 157.936 766.877 Q157.936 775.604 154.857 780.21 Q151.802 784.794 145.992 784.794 Q140.181 784.794 137.103 780.21 Q134.047 775.604 134.047 766.877 Q134.047 758.127 137.103 753.544 Q140.181 748.937 145.992 748.937 Z" fill="#000000" fill-rule="evenodd" fill-opacity="1" /><path clip-path="url(#clip160)" d="M101.756 413.204 Q98.1447 413.204 96.316 416.769 Q94.5104 420.31 94.5104 427.44 Q94.5104 434.546 96.316 438.111 Q98.1447 441.653 101.756 441.653 Q105.39 441.653 107.196 438.111 Q109.024 434.546 109.024 427.44 Q109.024 420.31 107.196 416.769 Q105.39 413.204 101.756 413.204 M101.756 409.5 Q107.566 409.5 110.621 414.107 Q113.7 418.69 113.7 427.44 Q113.7 436.167 110.621 440.773 Q107.566 445.356 101.756 445.356 Q95.9456 445.356 92.8669 440.773 Q89.8114 436.167 89.8114 427.44 Q89.8114 418.69 92.8669 414.107 Q95.9456 409.5 101.756 409.5 Z" fill="#000000" fill-rule="evenodd" fill-opacity="1" /><path clip-path="url(#clip160)" d="M121.918 438.805 L126.802 438.805 L126.802 444.685 L121.918 444.685 L121.918 438.805 Z" fill="#000000" fill-rule="evenodd" fill-opacity="1" /><path clip-path="url(#clip160)" d="M137.033 410.125 L155.39 410.125 L155.39 414.06 L141.316 414.06 L141.316 422.532 Q142.334 422.185 143.353 422.023 Q144.371 421.838 145.39 421.838 Q151.177 421.838 154.556 425.009 Q157.936 428.181 157.936 433.597 Q157.936 439.176 154.464 442.278 Q150.992 445.356 144.672 445.356 Q142.496 445.356 140.228 444.986 Q137.982 444.616 135.575 443.875 L135.575 439.176 Q137.658 440.31 139.881 440.866 Q142.103 441.421 144.58 441.421 Q148.584 441.421 150.922 439.315 Q153.26 437.208 153.26 433.597 Q153.26 429.986 150.922 427.88 Q148.584 425.773 144.58 425.773 Q142.705 425.773 140.83 426.19 Q138.978 426.606 137.033 427.486 L137.033 410.125 Z" fill="#000000" fill-rule="evenodd" fill-opacity="1" /><path clip-path="url(#clip160)" d="M91.5706 101.313 L99.2095 101.313 L99.2095 74.9469 L90.8993 76.6136 L90.8993 72.3543 L99.1632 70.6877 L103.839 70.6877 L103.839 101.313 L111.478 101.313 L111.478 105.248 L91.5706 105.248 L91.5706 101.313 Z" fill="#000000" fill-rule="evenodd" fill-opacity="1" /><path clip-path="url(#clip160)" d="M120.922 99.3681 L125.807 99.3681 L125.807 105.248 L120.922 105.248 L120.922 99.3681 Z" fill="#000000" fill-rule="evenodd" fill-opacity="1" /><path clip-path="url(#clip160)" d="M145.992 73.7664 Q142.381 73.7664 140.552 77.3312 Q138.746 80.8728 138.746 88.0024 Q138.746 95.1088 140.552 98.6736 Q142.381 102.215 145.992 102.215 Q149.626 102.215 151.431 98.6736 Q153.26 95.1088 153.26 88.0024 Q153.26 80.8728 151.431 77.3312 Q149.626 73.7664 145.992 73.7664 M145.992 70.0627 Q151.802 70.0627 154.857 74.6691 Q157.936 79.2524 157.936 88.0024 Q157.936 96.7292 154.857 101.336 Q151.802 105.919 145.992 105.919 Q140.181 105.919 137.103 101.336 Q134.047 96.7292 134.047 88.0024 Q134.047 79.2524 137.103 74.6691 Q140.181 70.0627 145.992 70.0627 Z" fill="#000000" fill-rule="evenodd" fill-opacity="1" /><polyline clip-path="url(#clip162)" style="stroke:#009af9; stroke-linecap:butt; stroke-linejoin:round; stroke-width:4; stroke-opacity:1; fill:none" points="
  255.035,766.842 261.664,752.958 268.294,739.079 298.945,675.158 329.596,612.055 360.247,550.336 390.898,490.551 409.318,455.777 427.737,422.007 446.157,389.35 
  464.577,357.912 480.151,332.358 495.725,307.807 511.299,284.315 526.872,261.937 543.79,238.95 560.707,217.401 577.625,197.348 594.542,178.846 610.139,163.206 
  625.735,148.964 641.332,136.152 656.928,124.8 673.649,114.28 690.37,105.497 707.091,98.4736 723.812,93.2282 743.185,89.3926 762.558,87.9763 781.931,88.9842 
  801.304,92.4129 818.52,97.4816 835.737,104.438 852.953,113.263 870.17,123.932 885.267,134.78 900.364,147 915.461,160.564 930.558,175.443 947.018,193.125 
  963.478,212.287 979.938,232.878 996.398,254.846 1012.96,278.276 1029.51,302.981 1046.07,328.896 1062.63,355.953 1080.94,387.114 1099.24,419.485 1117.55,452.964 
  1135.86,487.444 1170.69,555.425 1205.53,625.845 1277.98,776.539 1338.96,903.325 1376.19,978.634 1413.41,1051.15 1430.46,1083.17 1447.51,1114.32 1464.57,1144.5 
  1481.62,1173.64 1497.36,1199.56 1513.11,1224.45 1528.86,1248.26 1544.61,1270.94 1560.56,1292.7 1576.51,1313.18 1592.46,1332.35 1608.42,1350.14 1626.29,1368.4 
  1644.17,1384.83 1662.05,1399.38 1679.93,1412.01 1696.13,1421.76 1712.33,1429.87 1728.53,1436.33 1744.73,1441.11 1763.28,1444.52 1781.83,1445.72 1800.37,1444.69 
  1818.92,1441.44 1836.1,1436.46 1853.27,1429.6 1870.44,1420.88 1887.62,1410.33 1904.55,1398.16 1921.48,1384.27 1938.41,1368.69 1955.34,1351.47 1971.78,1333.22 
  1988.22,1313.52 2004.66,1292.41 2021.1,1269.95 2037.95,1245.59 2054.8,1219.93 2071.66,1193.04 2088.51,1165 2106.97,1133.06 2125.44,1099.92 2143.9,1065.7 
  2162.36,1030.51 2216,923.854 2269.65,812.904 2280.65,789.887 2291.66,766.842 
  "/>
<path clip-path="url(#clip160)" d="
M1988.5 198.898 L2280.8 198.898 L2280.8 95.2176 L1988.5 95.2176  Z
  " fill="#ffffff" fill-rule="evenodd" fill-opacity="1"/>
<polyline clip-path="url(#clip160)" style="stroke:#000000; stroke-linecap:butt; stroke-linejoin:round; stroke-width:4; stroke-opacity:1; fill:none" points="
  1988.5,198.898 2280.8,198.898 2280.8,95.2176 1988.5,95.2176 1988.5,198.898 
  "/>
<polyline clip-path="url(#clip160)" style="stroke:#009af9; stroke-linecap:butt; stroke-linejoin:round; stroke-width:4; stroke-opacity:1; fill:none" points="
  2012.48,147.058 2156.4,147.058 
  "/>
<path clip-path="url(#clip160)" d="M2194.23 166.745 Q2192.43 171.375 2190.72 172.787 Q2189 174.199 2186.13 174.199 L2182.73 174.199 L2182.73 170.634 L2185.23 170.634 Q2186.99 170.634 2187.96 169.8 Q2188.93 168.967 2190.11 165.865 L2190.88 163.921 L2180.39 138.412 L2184.91 138.412 L2193.01 158.689 L2201.11 138.412 L2205.62 138.412 L2194.23 166.745 Z" fill="#000000" fill-rule="evenodd" fill-opacity="1" /><path clip-path="url(#clip160)" d="M2212.91 160.402 L2220.55 160.402 L2220.55 134.037 L2212.24 135.703 L2212.24 131.444 L2220.51 129.778 L2225.18 129.778 L2225.18 160.402 L2232.82 160.402 L2232.82 164.338 L2212.91 164.338 L2212.91 160.402 Z" fill="#000000" fill-rule="evenodd" fill-opacity="1" /></svg>
