<?xml version="1.0" encoding="utf-8"?>
<svg xmlns="http://www.w3.org/2000/svg" xmlns:xlink="http://www.w3.org/1999/xlink" width="600" height="400" viewBox="0 0 2400 1600">
<defs>
  <clipPath id="clip360">
    <rect x="0" y="0" width="2400" height="1600"/>
  </clipPath>
</defs>
<path clip-path="url(#clip360)" d="
M0 1600 L2400 1600 L2400 0 L0 0  Z
  " fill="#ffffff" fill-rule="evenodd" fill-opacity="1"/>
<defs>
  <clipPath id="clip361">
    <rect x="480" y="0" width="1681" height="1600"/>
  </clipPath>
</defs>
<path clip-path="url(#clip360)" d="
M306.435 1486.45 L2352.76 1486.45 L2352.76 47.2441 L306.435 47.2441  Z
  " fill="#ffffff" fill-rule="evenodd" fill-opacity="1"/>
<defs>
  <clipPath id="clip362">
    <rect x="306" y="47" width="2047" height="1440"/>
  </clipPath>
</defs>
<polyline clip-path="url(#clip362)" style="stroke:#000000; stroke-linecap:butt; stroke-linejoin:round; stroke-width:2; stroke-opacity:0.1; fill:none" points="
  364.35,1486.45 364.35,47.2441 
  "/>
<polyline clip-path="url(#clip362)" style="stroke:#000000; stroke-linecap:butt; stroke-linejoin:round; stroke-width:2; stroke-opacity:0.1; fill:none" points="
  846.973,1486.45 846.973,47.2441 
  "/>
<polyline clip-path="url(#clip362)" style="stroke:#000000; stroke-linecap:butt; stroke-linejoin:round; stroke-width:2; stroke-opacity:0.1; fill:none" points="
  1329.6,1486.45 1329.6,47.2441 
  "/>
<polyline clip-path="url(#clip362)" style="stroke:#000000; stroke-linecap:butt; stroke-linejoin:round; stroke-width:2; stroke-opacity:0.1; fill:none" points="
  1812.22,1486.45 1812.22,47.2441 
  "/>
<polyline clip-path="url(#clip362)" style="stroke:#000000; stroke-linecap:butt; stroke-linejoin:round; stroke-width:2; stroke-opacity:0.1; fill:none" points="
  2294.84,1486.45 2294.84,47.2441 
  "/>
<polyline clip-path="url(#clip360)" style="stroke:#000000; stroke-linecap:butt; stroke-linejoin:round; stroke-width:4; stroke-opacity:1; fill:none" points="
  306.435,1486.45 2352.76,1486.45 
  "/>
<polyline clip-path="url(#clip360)" style="stroke:#000000; stroke-linecap:butt; stroke-linejoin:round; stroke-width:4; stroke-opacity:1; fill:none" points="
  364.35,1486.45 364.35,1467.55 
  "/>
<polyline clip-path="url(#clip360)" style="stroke:#000000; stroke-linecap:butt; stroke-linejoin:round; stroke-width:4; stroke-opacity:1; fill:none" points="
  846.973,1486.45 846.973,1467.55 
  "/>
<polyline clip-path="url(#clip360)" style="stroke:#000000; stroke-linecap:butt; stroke-linejoin:round; stroke-width:4; stroke-opacity:1; fill:none" points="
  1329.6,1486.45 1329.6,1467.55 
  "/>
<polyline clip-path="url(#clip360)" style="stroke:#000000; stroke-linecap:butt; stroke-linejoin:round; stroke-width:4; stroke-opacity:1; fill:none" points="
  1812.22,1486.45 1812.22,1467.55 
  "/>
<polyline clip-path="url(#clip360)" style="stroke:#000000; stroke-linecap:butt; stroke-linejoin:round; stroke-width:4; stroke-opacity:1; fill:none" points="
  2294.84,1486.45 2294.84,1467.55 
  "/>
<path clip-path="url(#clip360)" d="M341.735 1517.37 Q338.123 1517.37 336.295 1520.93 Q334.489 1524.47 334.489 1531.6 Q334.489 1538.71 336.295 1542.27 Q338.123 1545.82 341.735 1545.82 Q345.369 1545.82 347.174 1542.27 Q349.003 1538.71 349.003 1531.6 Q349.003 1524.47 347.174 1520.93 Q345.369 1517.37 341.735 1517.37 M341.735 1513.66 Q347.545 1513.66 350.6 1518.27 Q353.679 1522.85 353.679 1531.6 Q353.679 1540.33 350.6 1544.94 Q347.545 1549.52 341.735 1549.52 Q335.924 1549.52 332.846 1544.94 Q329.79 1540.33 329.79 1531.6 Q329.79 1522.85 332.846 1518.27 Q335.924 1513.66 341.735 1513.66 Z" fill="#000000" fill-rule="evenodd" fill-opacity="1" /><path clip-path="url(#clip360)" d="M361.896 1542.97 L366.781 1542.97 L366.781 1548.85 L361.896 1548.85 L361.896 1542.97 Z" fill="#000000" fill-rule="evenodd" fill-opacity="1" /><path clip-path="url(#clip360)" d="M386.966 1517.37 Q383.355 1517.37 381.526 1520.93 Q379.72 1524.47 379.72 1531.6 Q379.72 1538.71 381.526 1542.27 Q383.355 1545.82 386.966 1545.82 Q390.6 1545.82 392.406 1542.27 Q394.234 1538.71 394.234 1531.6 Q394.234 1524.47 392.406 1520.93 Q390.6 1517.37 386.966 1517.37 M386.966 1513.66 Q392.776 1513.66 395.831 1518.27 Q398.91 1522.85 398.91 1531.6 Q398.91 1540.33 395.831 1544.94 Q392.776 1549.52 386.966 1549.52 Q381.156 1549.52 378.077 1544.94 Q375.021 1540.33 375.021 1531.6 Q375.021 1522.85 378.077 1518.27 Q381.156 1513.66 386.966 1513.66 Z" fill="#000000" fill-rule="evenodd" fill-opacity="1" /><path clip-path="url(#clip360)" d="M818.709 1544.91 L835.029 1544.91 L835.029 1548.85 L813.084 1548.85 L813.084 1544.91 Q815.746 1542.16 820.33 1537.53 Q824.936 1532.88 826.117 1531.53 Q828.362 1529.01 829.242 1527.27 Q830.144 1525.51 830.144 1523.82 Q830.144 1521.07 828.2 1519.33 Q826.279 1517.6 823.177 1517.6 Q820.978 1517.6 818.524 1518.36 Q816.093 1519.13 813.316 1520.68 L813.316 1515.95 Q816.14 1514.82 818.593 1514.24 Q821.047 1513.66 823.084 1513.66 Q828.454 1513.66 831.649 1516.35 Q834.843 1519.03 834.843 1523.52 Q834.843 1525.65 834.033 1527.57 Q833.246 1529.47 831.14 1532.07 Q830.561 1532.74 827.459 1535.95 Q824.357 1539.15 818.709 1544.91 Z" fill="#000000" fill-rule="evenodd" fill-opacity="1" /><path clip-path="url(#clip360)" d="M844.843 1542.97 L849.728 1542.97 L849.728 1548.85 L844.843 1548.85 L844.843 1542.97 Z" fill="#000000" fill-rule="evenodd" fill-opacity="1" /><path clip-path="url(#clip360)" d="M859.959 1514.29 L878.315 1514.29 L878.315 1518.22 L864.241 1518.22 L864.241 1526.7 Q865.26 1526.35 866.278 1526.19 Q867.297 1526 868.315 1526 Q874.102 1526 877.482 1529.17 Q880.862 1532.34 880.862 1537.76 Q880.862 1543.34 877.389 1546.44 Q873.917 1549.52 867.598 1549.52 Q865.422 1549.52 863.153 1549.15 Q860.908 1548.78 858.501 1548.04 L858.501 1543.34 Q860.584 1544.47 862.806 1545.03 Q865.028 1545.58 867.505 1545.58 Q871.51 1545.58 873.848 1543.48 Q876.186 1541.37 876.186 1537.76 Q876.186 1534.15 873.848 1532.04 Q871.51 1529.94 867.505 1529.94 Q865.63 1529.94 863.755 1530.35 Q861.903 1530.77 859.959 1531.65 L859.959 1514.29 Z" fill="#000000" fill-rule="evenodd" fill-opacity="1" /><path clip-path="url(#clip360)" d="M1296.76 1514.29 L1315.12 1514.29 L1315.12 1518.22 L1301.04 1518.22 L1301.04 1526.7 Q1302.06 1526.35 1303.08 1526.19 Q1304.1 1526 1305.12 1526 Q1310.9 1526 1314.28 1529.17 Q1317.66 1532.34 1317.66 1537.76 Q1317.66 1543.34 1314.19 1546.44 Q1310.72 1549.52 1304.4 1549.52 Q1302.22 1549.52 1299.95 1549.15 Q1297.71 1548.78 1295.3 1548.04 L1295.3 1543.34 Q1297.39 1544.47 1299.61 1545.03 Q1301.83 1545.58 1304.31 1545.58 Q1308.31 1545.58 1310.65 1543.48 Q1312.99 1541.37 1312.99 1537.76 Q1312.99 1534.15 1310.65 1532.04 Q1308.31 1529.94 1304.31 1529.94 Q1302.43 1529.94 1300.56 1530.35 Q1298.7 1530.77 1296.76 1531.65 L1296.76 1514.29 Z" fill="#000000" fill-rule="evenodd" fill-opacity="1" /><path clip-path="url(#clip360)" d="M1326.88 1542.97 L1331.76 1542.97 L1331.76 1548.85 L1326.88 1548.85 L1326.88 1542.97 Z" fill="#000000" fill-rule="evenodd" fill-opacity="1" /><path clip-path="url(#clip360)" d="M1351.95 1517.37 Q1348.33 1517.37 1346.51 1520.93 Q1344.7 1524.47 1344.7 1531.6 Q1344.7 1538.71 1346.51 1542.27 Q1348.33 1545.82 1351.95 1545.82 Q1355.58 1545.82 1357.38 1542.27 Q1359.21 1538.71 1359.21 1531.6 Q1359.21 1524.47 1357.38 1520.93 Q1355.58 1517.37 1351.95 1517.37 M1351.95 1513.66 Q1357.76 1513.66 1360.81 1518.27 Q1363.89 1522.85 1363.89 1531.6 Q1363.89 1540.33 1360.81 1544.94 Q1357.76 1549.52 1351.95 1549.52 Q1346.13 1549.52 1343.06 1544.94 Q1340 1540.33 1340 1531.6 Q1340 1522.85 1343.06 1518.27 Q1346.13 1513.66 1351.95 1513.66 Z" fill="#000000" fill-rule="evenodd" fill-opacity="1" /><path clip-path="url(#clip360)" d="M1778.54 1514.29 L1800.76 1514.29 L1800.76 1516.28 L1788.21 1548.85 L1783.33 1548.85 L1795.14 1518.22 L1778.54 1518.22 L1778.54 1514.29 Z" fill="#000000" fill-rule="evenodd" fill-opacity="1" /><path clip-path="url(#clip360)" d="M1809.88 1542.97 L1814.76 1542.97 L1814.76 1548.85 L1809.88 1548.85 L1809.88 1542.97 Z" fill="#000000" fill-rule="evenodd" fill-opacity="1" /><path clip-path="url(#clip360)" d="M1825 1514.29 L1843.35 1514.29 L1843.35 1518.22 L1829.28 1518.22 L1829.28 1526.7 Q1830.3 1526.35 1831.32 1526.19 Q1832.33 1526 1833.35 1526 Q1839.14 1526 1842.52 1529.17 Q1845.9 1532.34 1845.9 1537.76 Q1845.9 1543.34 1842.43 1546.44 Q1838.95 1549.52 1832.63 1549.52 Q1830.46 1549.52 1828.19 1549.15 Q1825.95 1548.78 1823.54 1548.04 L1823.54 1543.34 Q1825.62 1544.47 1827.84 1545.03 Q1830.07 1545.58 1832.54 1545.58 Q1836.55 1545.58 1838.88 1543.48 Q1841.22 1541.37 1841.22 1537.76 Q1841.22 1534.15 1838.88 1532.04 Q1836.55 1529.94 1832.54 1529.94 Q1830.67 1529.94 1828.79 1530.35 Q1826.94 1530.77 1825 1531.65 L1825 1514.29 Z" fill="#000000" fill-rule="evenodd" fill-opacity="1" /><path clip-path="url(#clip360)" d="M2246.91 1544.91 L2254.55 1544.91 L2254.55 1518.55 L2246.24 1520.21 L2246.24 1515.95 L2254.51 1514.29 L2259.18 1514.29 L2259.18 1544.91 L2266.82 1544.91 L2266.82 1548.85 L2246.91 1548.85 L2246.91 1544.91 Z" fill="#000000" fill-rule="evenodd" fill-opacity="1" /><path clip-path="url(#clip360)" d="M2286.26 1517.37 Q2282.65 1517.37 2280.83 1520.93 Q2279.02 1524.47 2279.02 1531.6 Q2279.02 1538.71 2280.83 1542.27 Q2282.65 1545.82 2286.26 1545.82 Q2289.9 1545.82 2291.7 1542.27 Q2293.53 1538.71 2293.53 1531.6 Q2293.53 1524.47 2291.7 1520.93 Q2289.9 1517.37 2286.26 1517.37 M2286.26 1513.66 Q2292.07 1513.66 2295.13 1518.27 Q2298.21 1522.85 2298.21 1531.6 Q2298.21 1540.33 2295.13 1544.94 Q2292.07 1549.52 2286.26 1549.52 Q2280.45 1549.52 2277.38 1544.94 Q2274.32 1540.33 2274.32 1531.6 Q2274.32 1522.85 2277.38 1518.27 Q2280.45 1513.66 2286.26 1513.66 Z" fill="#000000" fill-rule="evenodd" fill-opacity="1" /><path clip-path="url(#clip360)" d="M2306.43 1542.97 L2311.31 1542.97 L2311.31 1548.85 L2306.43 1548.85 L2306.43 1542.97 Z" fill="#000000" fill-rule="evenodd" fill-opacity="1" /><path clip-path="url(#clip360)" d="M2331.5 1517.37 Q2327.88 1517.37 2326.06 1520.93 Q2324.25 1524.47 2324.25 1531.6 Q2324.25 1538.71 2326.06 1542.27 Q2327.88 1545.82 2331.5 1545.82 Q2335.13 1545.82 2336.94 1542.27 Q2338.76 1538.71 2338.76 1531.6 Q2338.76 1524.47 2336.94 1520.93 Q2335.13 1517.37 2331.5 1517.37 M2331.5 1513.66 Q2337.31 1513.66 2340.36 1518.27 Q2343.44 1522.85 2343.44 1531.6 Q2343.44 1540.33 2340.36 1544.94 Q2337.31 1549.52 2331.5 1549.52 Q2325.69 1549.52 2322.61 1544.94 Q2319.55 1540.33 2319.55 1531.6 Q2319.55 1522.85 2322.61 1518.27 Q2325.69 1513.66 2331.5 1513.66 Z" fill="#000000" fill-rule="evenodd" fill-opacity="1" /><polyline clip-path="url(#clip362)" style="stroke:#000000; stroke-linecap:butt; stroke-linejoin:round; stroke-width:2; stroke-opacity:0.1; fill:none" points="
  306.435,1445.78 2352.76,1445.78 
  "/>
<polyline clip-path="url(#clip362)" style="stroke:#000000; stroke-linecap:butt; stroke-linejoin:round; stroke-width:2; stroke-opacity:0.1; fill:none" points="
  306.435,1137.56 2352.76,1137.56 
  "/>
<polyline clip-path="url(#clip362)" style="stroke:#000000; stroke-linecap:butt; stroke-linejoin:round; stroke-width:2; stroke-opacity:0.1; fill:none" points="
  306.435,829.337 2352.76,829.337 
  "/>
<polyline clip-path="url(#clip362)" style="stroke:#000000; stroke-linecap:butt; stroke-linejoin:round; stroke-width:2; stroke-opacity:0.1; fill:none" points="
  306.435,521.116 2352.76,521.116 
  "/>
<polyline clip-path="url(#clip362)" style="stroke:#000000; stroke-linecap:butt; stroke-linejoin:round; stroke-width:2; stroke-opacity:0.1; fill:none" points="
  306.435,212.896 2352.76,212.896 
  "/>
<polyline clip-path="url(#clip360)" style="stroke:#000000; stroke-linecap:butt; stroke-linejoin:round; stroke-width:4; stroke-opacity:1; fill:none" points="
  306.435,1486.45 306.435,47.2441 
  "/>
<polyline clip-path="url(#clip360)" style="stroke:#000000; stroke-linecap:butt; stroke-linejoin:round; stroke-width:4; stroke-opacity:1; fill:none" points="
  306.435,1445.78 325.333,1445.78 
  "/>
<polyline clip-path="url(#clip360)" style="stroke:#000000; stroke-linecap:butt; stroke-linejoin:round; stroke-width:4; stroke-opacity:1; fill:none" points="
  306.435,1137.56 325.333,1137.56 
  "/>
<polyline clip-path="url(#clip360)" style="stroke:#000000; stroke-linecap:butt; stroke-linejoin:round; stroke-width:4; stroke-opacity:1; fill:none" points="
  306.435,829.337 325.333,829.337 
  "/>
<polyline clip-path="url(#clip360)" style="stroke:#000000; stroke-linecap:butt; stroke-linejoin:round; stroke-width:4; stroke-opacity:1; fill:none" points="
  306.435,521.116 325.333,521.116 
  "/>
<polyline clip-path="url(#clip360)" style="stroke:#000000; stroke-linecap:butt; stroke-linejoin:round; stroke-width:4; stroke-opacity:1; fill:none" points="
  306.435,212.896 325.333,212.896 
  "/>
<path clip-path="url(#clip360)" d="M258.491 1431.58 Q254.88 1431.58 253.051 1435.14 Q251.246 1438.68 251.246 1445.81 Q251.246 1452.92 253.051 1456.48 Q254.88 1460.02 258.491 1460.02 Q262.125 1460.02 263.931 1456.48 Q265.759 1452.92 265.759 1445.81 Q265.759 1438.68 263.931 1435.14 Q262.125 1431.58 258.491 1431.58 M258.491 1427.87 Q264.301 1427.87 267.357 1432.48 Q270.435 1437.06 270.435 1445.81 Q270.435 1454.54 267.357 1459.15 Q264.301 1463.73 258.491 1463.73 Q252.681 1463.73 249.602 1459.15 Q246.547 1454.54 246.547 1445.81 Q246.547 1437.06 249.602 1432.48 Q252.681 1427.87 258.491 1427.87 Z" fill="#000000" fill-rule="evenodd" fill-opacity="1" /><path clip-path="url(#clip360)" d="M54.6105 1126.72 L72.9668 1126.72 L72.9668 1130.66 L58.8928 1130.66 L58.8928 1139.13 Q59.9113 1138.78 60.9299 1138.62 Q61.9484 1138.44 62.9669 1138.44 Q68.7539 1138.44 72.1335 1141.61 Q75.5131 1144.78 75.5131 1150.2 Q75.5131 1155.78 72.0409 1158.88 Q68.5687 1161.96 62.2493 1161.96 Q60.0734 1161.96 57.8049 1161.59 Q55.5595 1161.22 53.1521 1160.47 L53.1521 1155.78 Q55.2354 1156.91 57.4577 1157.47 Q59.6799 1158.02 62.1567 1158.02 Q66.1613 1158.02 68.4993 1155.91 Q70.8372 1153.81 70.8372 1150.2 Q70.8372 1146.59 68.4993 1144.48 Q66.1613 1142.37 62.1567 1142.37 Q60.2817 1142.37 58.4067 1142.79 Q56.5549 1143.21 54.6105 1144.09 L54.6105 1126.72 Z" fill="#000000" fill-rule="evenodd" fill-opacity="1" /><path clip-path="url(#clip360)" d="M84.726 1155.4 L89.6103 1155.4 L89.6103 1161.28 L84.726 1161.28 L84.726 1155.4 Z" fill="#000000" fill-rule="evenodd" fill-opacity="1" /><path clip-path="url(#clip360)" d="M109.795 1129.8 Q106.184 1129.8 104.356 1133.37 Q102.55 1136.91 102.55 1144.04 Q102.55 1151.15 104.356 1154.71 Q106.184 1158.25 109.795 1158.25 Q113.43 1158.25 115.235 1154.71 Q117.064 1151.15 117.064 1144.04 Q117.064 1136.91 115.235 1133.37 Q113.43 1129.8 109.795 1129.8 M109.795 1126.1 Q115.605 1126.1 118.661 1130.71 Q121.74 1135.29 121.74 1144.04 Q121.74 1152.77 118.661 1157.37 Q115.605 1161.96 109.795 1161.96 Q103.985 1161.96 100.906 1157.37 Q97.851 1152.77 97.851 1144.04 Q97.851 1135.29 100.906 1130.71 Q103.985 1126.1 109.795 1126.1 Z" fill="#000000" fill-rule="evenodd" fill-opacity="1" /><path clip-path="url(#clip360)" d="M139.957 1129.8 Q136.346 1129.8 134.517 1133.37 Q132.712 1136.91 132.712 1144.04 Q132.712 1151.15 134.517 1154.71 Q136.346 1158.25 139.957 1158.25 Q143.591 1158.25 145.397 1154.71 Q147.226 1151.15 147.226 1144.04 Q147.226 1136.91 145.397 1133.37 Q143.591 1129.8 139.957 1129.8 M139.957 1126.1 Q145.767 1126.1 148.823 1130.71 Q151.902 1135.29 151.902 1144.04 Q151.902 1152.77 148.823 1157.37 Q145.767 1161.96 139.957 1161.96 Q134.147 1161.96 131.068 1157.37 Q128.013 1152.77 128.013 1144.04 Q128.013 1135.29 131.068 1130.71 Q134.147 1126.1 139.957 1126.1 Z" fill="#000000" fill-rule="evenodd" fill-opacity="1" /><path clip-path="url(#clip360)" d="M188.29 1135.82 L177.712 1146.45 L188.29 1157.03 L185.536 1159.83 L174.911 1149.2 L164.286 1159.83 L161.554 1157.03 L172.11 1146.45 L161.554 1135.82 L164.286 1133.02 L174.911 1143.65 L185.536 1133.02 L188.29 1135.82 Z" fill="#000000" fill-rule="evenodd" fill-opacity="1" /><path clip-path="url(#clip360)" d="M200.651 1157.35 L208.29 1157.35 L208.29 1130.98 L199.98 1132.65 L199.98 1128.39 L208.244 1126.72 L212.92 1126.72 L212.92 1157.35 L220.559 1157.35 L220.559 1161.28 L200.651 1161.28 L200.651 1157.35 Z" fill="#000000" fill-rule="evenodd" fill-opacity="1" /><path clip-path="url(#clip360)" d="M240.003 1129.8 Q236.392 1129.8 234.563 1133.37 Q232.758 1136.91 232.758 1144.04 Q232.758 1151.15 234.563 1154.71 Q236.392 1158.25 240.003 1158.25 Q243.637 1158.25 245.443 1154.71 Q247.271 1151.15 247.271 1144.04 Q247.271 1136.91 245.443 1133.37 Q243.637 1129.8 240.003 1129.8 M240.003 1126.1 Q245.813 1126.1 248.869 1130.71 Q251.947 1135.29 251.947 1144.04 Q251.947 1152.77 248.869 1157.37 Q245.813 1161.96 240.003 1161.96 Q234.193 1161.96 231.114 1157.37 Q228.059 1152.77 228.059 1144.04 Q228.059 1135.29 231.114 1130.71 Q234.193 1126.1 240.003 1126.1 Z" fill="#000000" fill-rule="evenodd" fill-opacity="1" /><path clip-path="url(#clip360)" d="M264.643 1118.73 Q267.37 1119.32 268.893 1121.16 Q270.435 1123 270.435 1125.71 Q270.435 1129.87 267.577 1132.14 Q264.718 1134.42 259.452 1134.42 Q257.684 1134.42 255.803 1134.06 Q253.941 1133.72 251.947 1133.03 L251.947 1129.36 Q253.527 1130.28 255.408 1130.75 Q257.289 1131.22 259.339 1131.22 Q262.912 1131.22 264.774 1129.81 Q266.655 1128.4 266.655 1125.71 Q266.655 1123.23 264.906 1121.84 Q263.176 1120.43 260.072 1120.43 L256.8 1120.43 L256.8 1117.3 L260.223 1117.3 Q263.025 1117.3 264.511 1116.19 Q265.997 1115.07 265.997 1112.96 Q265.997 1110.8 264.455 1109.65 Q262.931 1108.48 260.072 1108.48 Q258.511 1108.48 256.725 1108.82 Q254.938 1109.16 252.794 1109.88 L252.794 1106.49 Q254.957 1105.89 256.837 1105.59 Q258.737 1105.29 260.411 1105.29 Q264.737 1105.29 267.257 1107.26 Q269.777 1109.22 269.777 1112.56 Q269.777 1114.9 268.442 1116.51 Q267.106 1118.11 264.643 1118.73 Z" fill="#000000" fill-rule="evenodd" fill-opacity="1" /><path clip-path="url(#clip360)" d="M53.3995 849.129 L61.0384 849.129 L61.0384 822.763 L52.7282 824.43 L52.7282 820.171 L60.9921 818.504 L65.668 818.504 L65.668 849.129 L73.3068 849.129 L73.3068 853.064 L53.3995 853.064 L53.3995 849.129 Z" fill="#000000" fill-rule="evenodd" fill-opacity="1" /><path clip-path="url(#clip360)" d="M82.7512 847.185 L87.6354 847.185 L87.6354 853.064 L82.7512 853.064 L82.7512 847.185 Z" fill="#000000" fill-rule="evenodd" fill-opacity="1" /><path clip-path="url(#clip360)" d="M107.821 821.583 Q104.209 821.583 102.381 825.148 Q100.575 828.689 100.575 835.819 Q100.575 842.925 102.381 846.49 Q104.209 850.032 107.821 850.032 Q111.455 850.032 113.26 846.49 Q115.089 842.925 115.089 835.819 Q115.089 828.689 113.26 825.148 Q111.455 821.583 107.821 821.583 M107.821 817.879 Q113.631 817.879 116.686 822.486 Q119.765 827.069 119.765 835.819 Q119.765 844.546 116.686 849.152 Q113.631 853.736 107.821 853.736 Q102.01 853.736 98.9317 849.152 Q95.8761 844.546 95.8761 835.819 Q95.8761 827.069 98.9317 822.486 Q102.01 817.879 107.821 817.879 Z" fill="#000000" fill-rule="evenodd" fill-opacity="1" /><path clip-path="url(#clip360)" d="M137.982 821.583 Q134.371 821.583 132.543 825.148 Q130.737 828.689 130.737 835.819 Q130.737 842.925 132.543 846.49 Q134.371 850.032 137.982 850.032 Q141.617 850.032 143.422 846.49 Q145.251 842.925 145.251 835.819 Q145.251 828.689 143.422 825.148 Q141.617 821.583 137.982 821.583 M137.982 817.879 Q143.793 817.879 146.848 822.486 Q149.927 827.069 149.927 835.819 Q149.927 844.546 146.848 849.152 Q143.793 853.736 137.982 853.736 Q132.172 853.736 129.094 849.152 Q126.038 844.546 126.038 835.819 Q126.038 827.069 129.094 822.486 Q132.172 817.879 137.982 817.879 Z" fill="#000000" fill-rule="evenodd" fill-opacity="1" /><path clip-path="url(#clip360)" d="M186.315 827.601 L175.737 838.226 L186.315 848.805 L183.561 851.606 L172.936 840.981 L162.311 851.606 L159.58 848.805 L170.135 838.226 L159.58 827.601 L162.311 824.8 L172.936 835.425 L183.561 824.8 L186.315 827.601 Z" fill="#000000" fill-rule="evenodd" fill-opacity="1" /><path clip-path="url(#clip360)" d="M198.677 849.129 L206.315 849.129 L206.315 822.763 L198.005 824.43 L198.005 820.171 L206.269 818.504 L210.945 818.504 L210.945 849.129 L218.584 849.129 L218.584 853.064 L198.677 853.064 L198.677 849.129 Z" fill="#000000" fill-rule="evenodd" fill-opacity="1" /><path clip-path="url(#clip360)" d="M238.028 821.583 Q234.417 821.583 232.588 825.148 Q230.783 828.689 230.783 835.819 Q230.783 842.925 232.588 846.49 Q234.417 850.032 238.028 850.032 Q241.662 850.032 243.468 846.49 Q245.297 842.925 245.297 835.819 Q245.297 828.689 243.468 825.148 Q241.662 821.583 238.028 821.583 M238.028 817.879 Q243.838 817.879 246.894 822.486 Q249.973 827.069 249.973 835.819 Q249.973 844.546 246.894 849.152 Q243.838 853.736 238.028 853.736 Q232.218 853.736 229.139 849.152 Q226.084 844.546 226.084 835.819 Q226.084 827.069 229.139 822.486 Q232.218 817.879 238.028 817.879 Z" fill="#000000" fill-rule="evenodd" fill-opacity="1" /><path clip-path="url(#clip360)" d="M262.649 800.884 L253.057 815.874 L262.649 815.874 L262.649 800.884 M261.652 797.574 L266.429 797.574 L266.429 815.874 L270.435 815.874 L270.435 819.033 L266.429 819.033 L266.429 825.654 L262.649 825.654 L262.649 819.033 L249.973 819.033 L249.973 815.366 L261.652 797.574 Z" fill="#000000" fill-rule="evenodd" fill-opacity="1" /><path clip-path="url(#clip360)" d="M53.3995 540.909 L61.0384 540.909 L61.0384 514.543 L52.7282 516.21 L52.7282 511.951 L60.9921 510.284 L65.668 510.284 L65.668 540.909 L73.3068 540.909 L73.3068 544.844 L53.3995 544.844 L53.3995 540.909 Z" fill="#000000" fill-rule="evenodd" fill-opacity="1" /><path clip-path="url(#clip360)" d="M82.7512 538.964 L87.6354 538.964 L87.6354 544.844 L82.7512 544.844 L82.7512 538.964 Z" fill="#000000" fill-rule="evenodd" fill-opacity="1" /><path clip-path="url(#clip360)" d="M97.8669 510.284 L116.223 510.284 L116.223 514.219 L102.149 514.219 L102.149 522.691 Q103.168 522.344 104.186 522.182 Q105.205 521.997 106.223 521.997 Q112.01 521.997 115.39 525.168 Q118.77 528.339 118.77 533.756 Q118.77 539.335 115.297 542.436 Q111.825 545.515 105.506 545.515 Q103.33 545.515 101.061 545.145 Q98.8159 544.774 96.4085 544.034 L96.4085 539.335 Q98.4919 540.469 100.714 541.024 Q102.936 541.58 105.413 541.58 Q109.418 541.58 111.756 539.474 Q114.094 537.367 114.094 533.756 Q114.094 530.145 111.756 528.038 Q109.418 525.932 105.413 525.932 Q103.538 525.932 101.663 526.349 Q99.8113 526.765 97.8669 527.645 L97.8669 510.284 Z" fill="#000000" fill-rule="evenodd" fill-opacity="1" /><path clip-path="url(#clip360)" d="M137.982 513.363 Q134.371 513.363 132.543 516.927 Q130.737 520.469 130.737 527.599 Q130.737 534.705 132.543 538.27 Q134.371 541.811 137.982 541.811 Q141.617 541.811 143.422 538.27 Q145.251 534.705 145.251 527.599 Q145.251 520.469 143.422 516.927 Q141.617 513.363 137.982 513.363 M137.982 509.659 Q143.793 509.659 146.848 514.265 Q149.927 518.849 149.927 527.599 Q149.927 536.325 146.848 540.932 Q143.793 545.515 137.982 545.515 Q132.172 545.515 129.094 540.932 Q126.038 536.325 126.038 527.599 Q126.038 518.849 129.094 514.265 Q132.172 509.659 137.982 509.659 Z" fill="#000000" fill-rule="evenodd" fill-opacity="1" /><path clip-path="url(#clip360)" d="M186.315 519.381 L175.737 530.006 L186.315 540.585 L183.561 543.386 L172.936 532.761 L162.311 543.386 L159.58 540.585 L170.135 530.006 L159.58 519.381 L162.311 516.58 L172.936 527.205 L183.561 516.58 L186.315 519.381 Z" fill="#000000" fill-rule="evenodd" fill-opacity="1" /><path clip-path="url(#clip360)" d="M198.677 540.909 L206.315 540.909 L206.315 514.543 L198.005 516.21 L198.005 511.951 L206.269 510.284 L210.945 510.284 L210.945 540.909 L218.584 540.909 L218.584 544.844 L198.677 544.844 L198.677 540.909 Z" fill="#000000" fill-rule="evenodd" fill-opacity="1" /><path clip-path="url(#clip360)" d="M238.028 513.363 Q234.417 513.363 232.588 516.927 Q230.783 520.469 230.783 527.599 Q230.783 534.705 232.588 538.27 Q234.417 541.811 238.028 541.811 Q241.662 541.811 243.468 538.27 Q245.297 534.705 245.297 527.599 Q245.297 520.469 243.468 516.927 Q241.662 513.363 238.028 513.363 M238.028 509.659 Q243.838 509.659 246.894 514.265 Q249.973 518.849 249.973 527.599 Q249.973 536.325 246.894 540.932 Q243.838 545.515 238.028 545.515 Q232.218 545.515 229.139 540.932 Q226.084 536.325 226.084 527.599 Q226.084 518.849 229.139 514.265 Q232.218 509.659 238.028 509.659 Z" fill="#000000" fill-rule="evenodd" fill-opacity="1" /><path clip-path="url(#clip360)" d="M262.649 492.664 L253.057 507.653 L262.649 507.653 L262.649 492.664 M261.652 489.353 L266.429 489.353 L266.429 507.653 L270.435 507.653 L270.435 510.813 L266.429 510.813 L266.429 517.433 L262.649 517.433 L262.649 510.813 L249.973 510.813 L249.973 507.146 L261.652 489.353 Z" fill="#000000" fill-rule="evenodd" fill-opacity="1" /><path clip-path="url(#clip360)" d="M56.6171 232.688 L72.9365 232.688 L72.9365 236.623 L50.9921 236.623 L50.9921 232.688 Q53.6541 229.934 58.2375 225.304 Q62.8439 220.651 64.0245 219.309 Q66.2698 216.786 67.1494 215.05 Q68.0522 213.29 68.0522 211.6 Q68.0522 208.846 66.1078 207.11 Q64.1865 205.374 61.0847 205.374 Q58.8856 205.374 56.4319 206.138 Q54.0014 206.901 51.2236 208.452 L51.2236 203.73 Q54.0477 202.596 56.5014 202.017 Q58.955 201.438 60.9921 201.438 Q66.3624 201.438 69.5568 204.124 Q72.7513 206.809 72.7513 211.3 Q72.7513 213.429 71.9411 215.35 Q71.1541 217.249 69.0476 219.841 Q68.4689 220.512 65.367 223.73 Q62.2652 226.924 56.6171 232.688 Z" fill="#000000" fill-rule="evenodd" fill-opacity="1" /><path clip-path="url(#clip360)" d="M82.7512 230.744 L87.6354 230.744 L87.6354 236.623 L82.7512 236.623 L82.7512 230.744 Z" fill="#000000" fill-rule="evenodd" fill-opacity="1" /><path clip-path="url(#clip360)" d="M107.821 205.142 Q104.209 205.142 102.381 208.707 Q100.575 212.249 100.575 219.378 Q100.575 226.485 102.381 230.049 Q104.209 233.591 107.821 233.591 Q111.455 233.591 113.26 230.049 Q115.089 226.485 115.089 219.378 Q115.089 212.249 113.26 208.707 Q111.455 205.142 107.821 205.142 M107.821 201.438 Q113.631 201.438 116.686 206.045 Q119.765 210.628 119.765 219.378 Q119.765 228.105 116.686 232.711 Q113.631 237.295 107.821 237.295 Q102.01 237.295 98.9317 232.711 Q95.8761 228.105 95.8761 219.378 Q95.8761 210.628 98.9317 206.045 Q102.01 201.438 107.821 201.438 Z" fill="#000000" fill-rule="evenodd" fill-opacity="1" /><path clip-path="url(#clip360)" d="M137.982 205.142 Q134.371 205.142 132.543 208.707 Q130.737 212.249 130.737 219.378 Q130.737 226.485 132.543 230.049 Q134.371 233.591 137.982 233.591 Q141.617 233.591 143.422 230.049 Q145.251 226.485 145.251 219.378 Q145.251 212.249 143.422 208.707 Q141.617 205.142 137.982 205.142 M137.982 201.438 Q143.793 201.438 146.848 206.045 Q149.927 210.628 149.927 219.378 Q149.927 228.105 146.848 232.711 Q143.793 237.295 137.982 237.295 Q132.172 237.295 129.094 232.711 Q126.038 228.105 126.038 219.378 Q126.038 210.628 129.094 206.045 Q132.172 201.438 137.982 201.438 Z" fill="#000000" fill-rule="evenodd" fill-opacity="1" /><path clip-path="url(#clip360)" d="M186.315 211.161 L175.737 221.786 L186.315 232.364 L183.561 235.165 L172.936 224.54 L162.311 235.165 L159.58 232.364 L170.135 221.786 L159.58 211.161 L162.311 208.36 L172.936 218.985 L183.561 208.36 L186.315 211.161 Z" fill="#000000" fill-rule="evenodd" fill-opacity="1" /><path clip-path="url(#clip360)" d="M198.677 232.688 L206.315 232.688 L206.315 206.323 L198.005 207.989 L198.005 203.73 L206.269 202.063 L210.945 202.063 L210.945 232.688 L218.584 232.688 L218.584 236.623 L198.677 236.623 L198.677 232.688 Z" fill="#000000" fill-rule="evenodd" fill-opacity="1" /><path clip-path="url(#clip360)" d="M238.028 205.142 Q234.417 205.142 232.588 208.707 Q230.783 212.249 230.783 219.378 Q230.783 226.485 232.588 230.049 Q234.417 233.591 238.028 233.591 Q241.662 233.591 243.468 230.049 Q245.297 226.485 245.297 219.378 Q245.297 212.249 243.468 208.707 Q241.662 205.142 238.028 205.142 M238.028 201.438 Q243.838 201.438 246.894 206.045 Q249.973 210.628 249.973 219.378 Q249.973 228.105 246.894 232.711 Q243.838 237.295 238.028 237.295 Q232.218 237.295 229.139 232.711 Q226.084 228.105 226.084 219.378 Q226.084 210.628 229.139 206.045 Q232.218 201.438 238.028 201.438 Z" fill="#000000" fill-rule="evenodd" fill-opacity="1" /><path clip-path="url(#clip360)" d="M262.649 184.443 L253.057 199.433 L262.649 199.433 L262.649 184.443 M261.652 181.133 L266.429 181.133 L266.429 199.433 L270.435 199.433 L270.435 202.593 L266.429 202.593 L266.429 209.213 L262.649 209.213 L262.649 202.593 L249.973 202.593 L249.973 198.925 L261.652 181.133 Z" fill="#000000" fill-rule="evenodd" fill-opacity="1" /><polyline clip-path="url(#clip362)" style="stroke:#009af9; stroke-linecap:butt; stroke-linejoin:round; stroke-width:4; stroke-opacity:1; fill:none" points="
  364.35,1445.72 376.919,1445.71 493.133,1445.66 562.973,1445.6 622.022,1445.54 686.166,1445.45 745.3,1445.33 808.699,1445.16 882.152,1444.88 947.429,1444.51 
  1004.67,1444.08 1067.08,1443.43 1129.86,1442.53 1199.27,1441.12 1265.31,1439.22 1333.98,1436.42 1391.79,1433.15 1462.36,1427.58 1527.01,1420.34 1556.87,1416.08 
  1586.72,1411.12 1616.96,1405.24 1647.2,1398.37 1681.1,1389.27 1714.99,1378.42 1745.7,1366.81 1776.41,1353.19 1794,1344.36 1811.58,1334.69 1829.16,1324.1 
  1846.74,1312.5 1863.02,1300.77 1879.3,1288.01 1895.58,1274.13 1911.86,1259.03 1927.91,1242.84 1943.95,1225.25 1960,1206.13 1976.05,1185.36 1991.64,1163.47 
  2007.22,1139.73 2022.8,1114.01 2038.38,1086.12 2054.36,1055.09 2070.33,1021.39 2086.3,984.778 2102.28,945.01 2111.03,921.788 2119.78,897.49 2128.53,872.065 
  2137.28,845.461 2146.03,817.623 2154.78,788.494 2163.53,758.015 2172.28,726.122 2185,677.14 2197.71,624.823 2204.06,597.345 2210.42,568.946 2216.78,539.597 
  2223.13,509.266 2229.49,477.919 2235.84,445.523 2242.2,412.043 2248.55,377.442 2254.91,341.683 2261.27,304.727 2267.62,266.534 2273.98,227.063 2279.19,193.688 
  2284.41,159.398 2289.63,124.17 2294.84,87.9763 
  "/>
<path clip-path="url(#clip360)" d="
M2004.75 198.898 L2284.55 198.898 L2284.55 95.2176 L2004.75 95.2176  Z
  " fill="#ffffff" fill-rule="evenodd" fill-opacity="1"/>
<polyline clip-path="url(#clip360)" style="stroke:#000000; stroke-linecap:butt; stroke-linejoin:round; stroke-width:4; stroke-opacity:1; fill:none" points="
  2004.75,198.898 2284.55,198.898 2284.55,95.2176 2004.75,95.2176 2004.75,198.898 
  "/>
<polyline clip-path="url(#clip360)" style="stroke:#009af9; stroke-linecap:butt; stroke-linejoin:round; stroke-width:4; stroke-opacity:1; fill:none" points="
  2027.48,147.058 2163.9,147.058 
  "/>
<path clip-path="url(#clip360)" d="M2200.48 166.745 Q2198.68 171.375 2196.97 172.787 Q2195.25 174.199 2192.38 174.199 L2188.98 174.199 L2188.98 170.634 L2191.48 170.634 Q2193.24 170.634 2194.21 169.8 Q2195.18 168.967 2196.36 165.865 L2197.13 163.921 L2186.64 138.412 L2191.16 138.412 L2199.26 158.689 L2207.36 138.412 L2211.87 138.412 L2200.48 166.745 Z" fill="#000000" fill-rule="evenodd" fill-opacity="1" /><path clip-path="url(#clip360)" d="M2219.16 160.402 L2226.8 160.402 L2226.8 134.037 L2218.49 135.703 L2218.49 131.444 L2226.76 129.778 L2231.43 129.778 L2231.43 160.402 L2239.07 160.402 L2239.07 164.338 L2219.16 164.338 L2219.16 160.402 Z" fill="#000000" fill-rule="evenodd" fill-opacity="1" /></svg>
