<?xml version="1.0" encoding="utf-8"?>
<svg xmlns="http://www.w3.org/2000/svg" xmlns:xlink="http://www.w3.org/1999/xlink" width="600" height="400" viewBox="0 0 2400 1600">
<defs>
  <clipPath id="clip080">
    <rect x="0" y="0" width="2400" height="1600"/>
  </clipPath>
</defs>
<path clip-path="url(#clip080)" d="
M0 1600 L2400 1600 L2400 0 L0 0  Z
  " fill="#ffffff" fill-rule="evenodd" fill-opacity="1"/>
<defs>
  <clipPath id="clip081">
    <rect x="480" y="0" width="1681" height="1600"/>
  </clipPath>
</defs>
<path clip-path="url(#clip080)" d="
M193.936 1120.37 L2352.76 1120.37 L2352.76 47.2441 L193.936 47.2441  Z
  " fill="#ffffff" fill-rule="evenodd" fill-opacity="1"/>
<defs>
  <clipPath id="clip082">
    <rect x="193" y="47" width="2160" height="1074"/>
  </clipPath>
</defs>
<polyline clip-path="url(#clip082)" style="stroke:#000000; stroke-linecap:butt; stroke-linejoin:round; stroke-width:2; stroke-opacity:0.1; fill:none" points="
  255.035,1120.37 255.035,47.2441 
  "/>
<polyline clip-path="url(#clip082)" style="stroke:#000000; stroke-linecap:butt; stroke-linejoin:round; stroke-width:2; stroke-opacity:0.1; fill:none" points="
  417.104,1120.37 417.104,47.2441 
  "/>
<polyline clip-path="url(#clip082)" style="stroke:#000000; stroke-linecap:butt; stroke-linejoin:round; stroke-width:2; stroke-opacity:0.1; fill:none" points="
  579.173,1120.37 579.173,47.2441 
  "/>
<polyline clip-path="url(#clip082)" style="stroke:#000000; stroke-linecap:butt; stroke-linejoin:round; stroke-width:2; stroke-opacity:0.1; fill:none" points="
  741.242,1120.37 741.242,47.2441 
  "/>
<polyline clip-path="url(#clip082)" style="stroke:#000000; stroke-linecap:butt; stroke-linejoin:round; stroke-width:2; stroke-opacity:0.1; fill:none" points="
  903.312,1120.37 903.312,47.2441 
  "/>
<polyline clip-path="url(#clip082)" style="stroke:#000000; stroke-linecap:butt; stroke-linejoin:round; stroke-width:2; stroke-opacity:0.1; fill:none" points="
  1065.38,1120.37 1065.38,47.2441 
  "/>
<polyline clip-path="url(#clip082)" style="stroke:#000000; stroke-linecap:butt; stroke-linejoin:round; stroke-width:2; stroke-opacity:0.1; fill:none" points="
  1227.45,1120.37 1227.45,47.2441 
  "/>
<polyline clip-path="url(#clip082)" style="stroke:#000000; stroke-linecap:butt; stroke-linejoin:round; stroke-width:2; stroke-opacity:0.1; fill:none" points="
  1389.52,1120.37 1389.52,47.2441 
  "/>
<polyline clip-path="url(#clip082)" style="stroke:#000000; stroke-linecap:butt; stroke-linejoin:round; stroke-width:2; stroke-opacity:0.1; fill:none" points="
  1551.59,1120.37 1551.59,47.2441 
  "/>
<polyline clip-path="url(#clip082)" style="stroke:#000000; stroke-linecap:butt; stroke-linejoin:round; stroke-width:2; stroke-opacity:0.1; fill:none" points="
  1713.66,1120.37 1713.66,47.2441 
  "/>
<polyline clip-path="url(#clip082)" style="stroke:#000000; stroke-linecap:butt; stroke-linejoin:round; stroke-width:2; stroke-opacity:0.1; fill:none" points="
  1875.73,1120.37 1875.73,47.2441 
  "/>
<polyline clip-path="url(#clip082)" style="stroke:#000000; stroke-linecap:butt; stroke-linejoin:round; stroke-width:2; stroke-opacity:0.1; fill:none" points="
  2037.8,1120.37 2037.8,47.2441 
  "/>
<polyline clip-path="url(#clip082)" style="stroke:#000000; stroke-linecap:butt; stroke-linejoin:round; stroke-width:2; stroke-opacity:0.1; fill:none" points="
  2199.87,1120.37 2199.87,47.2441 
  "/>
<polyline clip-path="url(#clip080)" style="stroke:#000000; stroke-linecap:butt; stroke-linejoin:round; stroke-width:4; stroke-opacity:1; fill:none" points="
  193.936,1120.37 2352.76,1120.37 
  "/>
<polyline clip-path="url(#clip080)" style="stroke:#000000; stroke-linecap:butt; stroke-linejoin:round; stroke-width:4; stroke-opacity:1; fill:none" points="
  255.035,1120.37 255.035,1101.47 
  "/>
<polyline clip-path="url(#clip080)" style="stroke:#000000; stroke-linecap:butt; stroke-linejoin:round; stroke-width:4; stroke-opacity:1; fill:none" points="
  417.104,1120.37 417.104,1101.47 
  "/>
<polyline clip-path="url(#clip080)" style="stroke:#000000; stroke-linecap:butt; stroke-linejoin:round; stroke-width:4; stroke-opacity:1; fill:none" points="
  579.173,1120.37 579.173,1101.47 
  "/>
<polyline clip-path="url(#clip080)" style="stroke:#000000; stroke-linecap:butt; stroke-linejoin:round; stroke-width:4; stroke-opacity:1; fill:none" points="
  741.242,1120.37 741.242,1101.47 
  "/>
<polyline clip-path="url(#clip080)" style="stroke:#000000; stroke-linecap:butt; stroke-linejoin:round; stroke-width:4; stroke-opacity:1; fill:none" points="
  903.312,1120.37 903.312,1101.47 
  "/>
<polyline clip-path="url(#clip080)" style="stroke:#000000; stroke-linecap:butt; stroke-linejoin:round; stroke-width:4; stroke-opacity:1; fill:none" points="
  1065.38,1120.37 1065.38,1101.47 
  "/>
<polyline clip-path="url(#clip080)" style="stroke:#000000; stroke-linecap:butt; stroke-linejoin:round; stroke-width:4; stroke-opacity:1; fill:none" points="
  1227.45,1120.37 1227.45,1101.47 
  "/>
<polyline clip-path="url(#clip080)" style="stroke:#000000; stroke-linecap:butt; stroke-linejoin:round; stroke-width:4; stroke-opacity:1; fill:none" points="
  1389.52,1120.37 1389.52,1101.47 
  "/>
<polyline clip-path="url(#clip080)" style="stroke:#000000; stroke-linecap:butt; stroke-linejoin:round; stroke-width:4; stroke-opacity:1; fill:none" points="
  1551.59,1120.37 1551.59,1101.47 
  "/>
<polyline clip-path="url(#clip080)" style="stroke:#000000; stroke-linecap:butt; stroke-linejoin:round; stroke-width:4; stroke-opacity:1; fill:none" points="
  1713.66,1120.37 1713.66,1101.47 
  "/>
<polyline clip-path="url(#clip080)" style="stroke:#000000; stroke-linecap:butt; stroke-linejoin:round; stroke-width:4; stroke-opacity:1; fill:none" points="
  1875.73,1120.37 1875.73,1101.47 
  "/>
<polyline clip-path="url(#clip080)" style="stroke:#000000; stroke-linecap:butt; stroke-linejoin:round; stroke-width:4; stroke-opacity:1; fill:none" points="
  2037.8,1120.37 2037.8,1101.47 
  "/>
<polyline clip-path="url(#clip080)" style="stroke:#000000; stroke-linecap:butt; stroke-linejoin:round; stroke-width:4; stroke-opacity:1; fill:none" points="
  2199.87,1120.37 2199.87,1101.47 
  "/>
<path clip-path="url(#clip080)" d="M127.264 1312.61 Q121.622 1322.39 128.412 1332.9 Q135.176 1343.32 154.471 1354.46 Q173.703 1365.57 186.172 1366.25 Q198.614 1366.84 204.256 1357.06 Q209.935 1347.23 203.171 1336.81 Q196.381 1326.29 177.149 1315.19 Q157.854 1304.05 145.412 1303.46 Q132.943 1302.78 127.264 1312.61 M117.241 1306.83 Q126.319 1291.1 143.56 1290.03 Q160.775 1288.86 184.455 1302.53 Q208.072 1316.17 215.729 1331.7 Q223.358 1347.13 214.28 1362.85 Q205.202 1378.58 187.987 1379.75 Q170.746 1380.82 147.129 1367.18 Q123.448 1353.51 115.819 1338.08 Q108.163 1322.55 117.241 1306.83 Z" fill="#000000" fill-rule="evenodd" fill-opacity="1" /><path clip-path="url(#clip080)" d="M228.054 1298.05 L235.686 1284.83 L251.598 1294.02 L243.966 1307.24 L228.054 1298.05 Z" fill="#000000" fill-rule="evenodd" fill-opacity="1" /><path clip-path="url(#clip080)" d="M197.938 1190.2 Q192.296 1199.97 199.086 1210.49 Q205.85 1220.91 225.145 1232.05 Q244.377 1243.16 256.846 1243.84 Q269.288 1244.43 274.93 1234.65 Q280.609 1224.82 273.845 1214.4 Q267.055 1203.88 247.823 1192.77 Q228.528 1181.63 216.085 1181.05 Q203.617 1180.37 197.938 1190.2 M187.915 1184.41 Q196.993 1168.69 214.234 1167.62 Q231.448 1166.45 255.129 1180.12 Q278.746 1193.76 286.402 1209.29 Q294.032 1224.72 284.954 1240.44 Q275.875 1256.16 258.661 1257.34 Q241.42 1258.41 217.802 1244.77 Q194.122 1231.1 186.493 1215.67 Q178.836 1200.14 187.915 1184.41 Z" fill="#000000" fill-rule="evenodd" fill-opacity="1" /><path clip-path="url(#clip080)" d="M290.889 1309.92 Q285.247 1319.69 292.037 1330.21 Q298.8 1340.63 318.095 1351.77 Q337.328 1362.87 349.796 1363.56 Q362.239 1364.14 367.881 1354.37 Q373.56 1344.53 366.796 1334.11 Q360.006 1323.6 340.773 1312.49 Q321.478 1301.35 309.036 1300.77 Q296.567 1300.08 290.889 1309.92 M280.865 1304.13 Q289.944 1288.41 307.185 1287.34 Q324.399 1286.17 348.079 1299.84 Q371.697 1313.47 379.353 1329 Q386.983 1344.43 377.904 1360.16 Q368.826 1375.88 351.612 1377.05 Q334.371 1378.12 310.753 1364.49 Q287.073 1350.82 279.443 1335.39 Q271.787 1319.86 280.865 1304.13 Z" fill="#000000" fill-rule="evenodd" fill-opacity="1" /><path clip-path="url(#clip080)" d="M391.679 1295.36 L399.31 1282.14 L415.222 1291.33 L407.591 1304.54 L391.679 1295.36 Z" fill="#000000" fill-rule="evenodd" fill-opacity="1" /><path clip-path="url(#clip080)" d="M337.678 1209.64 L366.36 1159.96 L377.01 1166.11 L355.019 1204.19 L377.948 1217.43 Q378.599 1214.13 379.752 1211.12 Q380.843 1208.08 382.434 1205.32 Q391.476 1189.66 405.339 1185.47 Q419.203 1181.28 433.862 1189.74 Q448.96 1198.46 451.929 1212.7 Q454.835 1226.91 444.961 1244.01 Q441.561 1249.9 437.015 1255.46 Q432.504 1260.96 426.738 1266.32 L414.02 1258.97 Q420.345 1255.11 425.321 1249.96 Q430.297 1244.82 434.167 1238.11 Q440.424 1227.28 438.376 1217.66 Q436.329 1208.04 426.556 1202.4 Q416.783 1196.75 407.429 1199.79 Q398.075 1202.83 391.818 1213.66 Q388.888 1218.74 387.086 1224.46 Q385.32 1230.13 384.663 1236.76 L337.678 1209.64 Z" fill="#000000" fill-rule="evenodd" fill-opacity="1" /><path clip-path="url(#clip080)" d="M511.593 1380.52 L523.529 1359.85 L452.175 1318.65 L443.7 1343.75 L432.174 1337.09 L440.575 1312.12 L447.881 1299.47 L530.762 1347.32 L542.698 1326.65 L553.348 1332.8 L522.243 1386.67 L511.593 1380.52 Z" fill="#000000" fill-rule="evenodd" fill-opacity="1" /><path clip-path="url(#clip080)" d="M552.193 1298.05 L559.824 1284.83 L575.736 1294.02 L568.105 1307.24 L552.193 1298.05 Z" fill="#000000" fill-rule="evenodd" fill-opacity="1" /><path clip-path="url(#clip080)" d="M522.077 1190.2 Q516.434 1199.97 523.225 1210.49 Q529.988 1220.91 549.283 1232.05 Q568.516 1243.16 580.984 1243.84 Q593.427 1244.43 599.069 1234.65 Q604.747 1224.82 597.984 1214.4 Q591.193 1203.88 571.961 1192.77 Q552.666 1181.63 540.224 1181.05 Q527.755 1180.37 522.077 1190.2 M512.053 1184.41 Q521.132 1168.69 538.373 1167.62 Q555.587 1166.45 579.267 1180.12 Q602.885 1193.76 610.541 1209.29 Q618.171 1224.72 609.092 1240.44 Q600.014 1256.16 582.799 1257.34 Q565.559 1258.41 541.941 1244.77 Q518.261 1231.1 510.631 1215.67 Q502.975 1200.14 512.053 1184.41 Z" fill="#000000" fill-rule="evenodd" fill-opacity="1" /><path clip-path="url(#clip080)" d="M675.217 1377.83 L687.153 1357.16 L615.799 1315.96 L607.325 1341.05 L595.798 1334.4 L604.2 1309.43 L611.506 1296.78 L694.387 1344.63 L706.323 1323.95 L716.972 1330.1 L685.867 1383.98 L675.217 1377.83 Z" fill="#000000" fill-rule="evenodd" fill-opacity="1" /><path clip-path="url(#clip080)" d="M715.817 1295.36 L723.449 1282.14 L739.361 1291.33 L731.729 1304.54 L715.817 1295.36 Z" fill="#000000" fill-rule="evenodd" fill-opacity="1" /><path clip-path="url(#clip080)" d="M661.817 1209.64 L690.499 1159.96 L701.148 1166.11 L679.158 1204.19 L702.086 1217.43 Q702.738 1214.13 703.891 1211.12 Q704.981 1208.08 706.573 1205.32 Q715.615 1189.66 729.478 1185.47 Q743.341 1181.28 758 1189.74 Q773.098 1198.46 776.067 1212.7 Q778.974 1226.91 769.1 1244.01 Q765.7 1249.9 761.153 1255.46 Q756.642 1260.96 750.876 1266.32 L738.159 1258.97 Q744.484 1255.11 749.46 1249.96 Q754.435 1244.82 758.305 1238.11 Q764.563 1227.28 762.515 1217.66 Q760.467 1208.04 750.694 1202.4 Q740.921 1196.75 731.568 1199.79 Q722.214 1202.83 715.957 1213.66 Q713.027 1218.74 711.225 1224.46 Q709.459 1230.13 708.801 1236.76 L661.817 1209.64 Z" fill="#000000" fill-rule="evenodd" fill-opacity="1" /><path clip-path="url(#clip080)" d="M840.759 1371.82 L866.258 1327.65 L876.908 1333.8 L842.62 1393.19 L831.97 1387.04 Q828.674 1375.53 823.307 1355.89 Q817.912 1336.16 816.123 1330.86 Q812.803 1320.84 809.479 1315.75 Q806.129 1310.56 801.556 1307.92 Q794.101 1303.62 786.364 1306.16 Q778.664 1308.65 773.817 1317.05 Q770.381 1323 768.614 1330.83 Q766.884 1338.6 766.741 1348.54 L753.961 1341.17 Q755.304 1331.75 757.572 1324.21 Q759.84 1316.66 763.022 1311.15 Q771.414 1296.61 783.672 1292.16 Q795.93 1287.72 808.083 1294.73 Q813.847 1298.06 817.781 1303.25 Q821.688 1308.35 825.413 1318.1 Q826.325 1320.72 830.187 1334.14 Q833.985 1347.52 840.759 1371.82 Z" fill="#000000" fill-rule="evenodd" fill-opacity="1" /><path clip-path="url(#clip080)" d="M876.331 1298.05 L883.963 1284.83 L899.875 1294.02 L892.243 1307.24 L876.331 1298.05 Z" fill="#000000" fill-rule="evenodd" fill-opacity="1" /><path clip-path="url(#clip080)" d="M846.215 1190.2 Q840.573 1199.97 847.363 1210.49 Q854.127 1220.91 873.422 1232.05 Q892.654 1243.16 905.123 1243.84 Q917.565 1244.43 923.207 1234.65 Q928.886 1224.82 922.122 1214.4 Q915.332 1203.88 896.1 1192.77 Q876.805 1181.63 864.362 1181.05 Q851.894 1180.37 846.215 1190.2 M836.192 1184.41 Q845.27 1168.69 862.511 1167.62 Q879.725 1166.45 903.406 1180.12 Q927.023 1193.76 934.679 1209.29 Q942.309 1224.72 933.231 1240.44 Q924.152 1256.16 906.938 1257.34 Q889.697 1258.41 866.08 1244.77 Q842.399 1231.1 834.77 1215.67 Q827.113 1200.14 836.192 1184.41 Z" fill="#000000" fill-rule="evenodd" fill-opacity="1" /><path clip-path="url(#clip080)" d="M1004.38 1369.12 L1029.88 1324.96 L1040.53 1331.11 L1006.24 1390.49 L995.594 1384.35 Q992.299 1372.84 986.931 1353.2 Q981.537 1333.46 979.748 1328.17 Q976.428 1318.15 973.104 1313.06 Q969.753 1307.87 965.18 1305.23 Q957.725 1300.92 949.989 1303.47 Q942.288 1305.96 937.441 1314.35 Q934.005 1320.3 932.239 1328.14 Q930.508 1335.91 930.365 1345.85 L917.586 1338.47 Q918.929 1329.06 921.196 1321.51 Q923.464 1313.97 926.647 1308.45 Q935.038 1293.92 947.296 1289.47 Q959.555 1285.02 971.708 1292.04 Q977.471 1295.37 981.405 1300.56 Q985.312 1305.66 989.037 1315.41 Q989.95 1318.02 993.811 1331.44 Q997.61 1344.83 1004.38 1369.12 Z" fill="#000000" fill-rule="evenodd" fill-opacity="1" /><path clip-path="url(#clip080)" d="M1039.96 1295.36 L1047.59 1282.14 L1063.5 1291.33 L1055.87 1304.54 L1039.96 1295.36 Z" fill="#000000" fill-rule="evenodd" fill-opacity="1" /><path clip-path="url(#clip080)" d="M985.955 1209.64 L1014.64 1159.96 L1025.29 1166.11 L1003.3 1204.19 L1026.22 1217.43 Q1026.88 1214.13 1028.03 1211.12 Q1029.12 1208.08 1030.71 1205.32 Q1039.75 1189.66 1053.62 1185.47 Q1067.48 1181.28 1082.14 1189.74 Q1097.24 1198.46 1100.21 1212.7 Q1103.11 1226.91 1093.24 1244.01 Q1089.84 1249.9 1085.29 1255.46 Q1080.78 1260.96 1075.01 1266.32 L1062.3 1258.97 Q1068.62 1255.11 1073.6 1249.96 Q1078.57 1244.82 1082.44 1238.11 Q1088.7 1227.28 1086.65 1217.66 Q1084.61 1208.04 1074.83 1202.4 Q1065.06 1196.75 1055.71 1199.79 Q1046.35 1202.83 1040.1 1213.66 Q1037.17 1218.74 1035.36 1224.46 Q1033.6 1230.13 1032.94 1236.76 L985.955 1209.64 Z" fill="#000000" fill-rule="evenodd" fill-opacity="1" /><path clip-path="url(#clip080)" d="M1140.96 1321.41 Q1148.15 1313.45 1157.21 1311.92 Q1166.32 1310.33 1175.34 1315.53 Q1189.19 1323.53 1191.27 1337.43 Q1193.35 1351.32 1183.22 1368.87 Q1179.82 1374.75 1175.02 1380.33 Q1170.31 1385.88 1164.16 1391.18 L1151.94 1384.13 Q1158.05 1380.64 1163.23 1375.28 Q1168.41 1369.92 1172.36 1363.09 Q1179.23 1351.19 1178.11 1342.27 Q1177.03 1333.3 1168.07 1328.13 Q1159.8 1323.35 1151.8 1326.5 Q1143.78 1329.55 1137.81 1339.89 L1131.51 1350.79 L1121.12 1344.78 L1127.7 1333.38 Q1133.09 1324.05 1132.25 1316.97 Q1131.35 1309.85 1124.33 1305.8 Q1117.13 1301.64 1110.34 1304.57 Q1103.53 1307.4 1098.03 1316.92 Q1095.03 1322.12 1092.72 1328.72 Q1090.41 1335.33 1088.67 1343.84 L1077.39 1337.33 Q1079.54 1328.97 1082.16 1322.13 Q1084.81 1315.22 1088.03 1309.64 Q1096.35 1295.24 1107.77 1290.64 Q1119.13 1286.01 1130.29 1292.44 Q1138.05 1296.93 1140.87 1304.49 Q1143.63 1312.01 1140.96 1321.41 Z" fill="#000000" fill-rule="evenodd" fill-opacity="1" /><path clip-path="url(#clip080)" d="M1200.47 1298.05 L1208.1 1284.83 L1224.01 1294.02 L1216.38 1307.24 L1200.47 1298.05 Z" fill="#000000" fill-rule="evenodd" fill-opacity="1" /><path clip-path="url(#clip080)" d="M1170.35 1190.2 Q1164.71 1199.97 1171.5 1210.49 Q1178.27 1220.91 1197.56 1232.05 Q1216.79 1243.16 1229.26 1243.84 Q1241.7 1244.43 1247.35 1234.65 Q1253.02 1224.82 1246.26 1214.4 Q1239.47 1203.88 1220.24 1192.77 Q1200.94 1181.63 1188.5 1181.05 Q1176.03 1180.37 1170.35 1190.2 M1160.33 1184.41 Q1169.41 1168.69 1186.65 1167.62 Q1203.86 1166.45 1227.54 1180.12 Q1251.16 1193.76 1258.82 1209.29 Q1266.45 1224.72 1257.37 1240.44 Q1248.29 1256.16 1231.08 1257.34 Q1213.84 1258.41 1190.22 1244.77 Q1166.54 1231.1 1158.91 1215.67 Q1151.25 1200.14 1160.33 1184.41 Z" fill="#000000" fill-rule="evenodd" fill-opacity="1" /><path clip-path="url(#clip080)" d="M1304.58 1318.72 Q1311.77 1310.75 1320.84 1309.22 Q1329.94 1307.63 1338.97 1312.84 Q1352.81 1320.83 1354.89 1334.73 Q1356.98 1348.63 1346.85 1366.17 Q1343.45 1372.06 1338.64 1377.64 Q1333.93 1383.19 1327.78 1388.49 L1315.56 1381.44 Q1321.67 1377.95 1326.86 1372.59 Q1332.04 1367.23 1335.98 1360.4 Q1342.85 1348.5 1341.74 1339.58 Q1340.65 1330.6 1331.7 1325.43 Q1323.43 1320.66 1315.43 1323.81 Q1307.4 1326.86 1301.43 1337.19 L1295.14 1348.09 L1284.74 1342.09 L1291.32 1330.69 Q1296.71 1321.35 1295.87 1314.27 Q1294.97 1307.15 1287.96 1303.1 Q1280.75 1298.94 1273.96 1301.87 Q1267.15 1304.7 1261.65 1314.23 Q1258.65 1319.43 1256.34 1326.03 Q1254.03 1332.63 1252.29 1341.15 L1241.01 1334.64 Q1243.17 1326.28 1245.78 1319.43 Q1248.43 1312.53 1251.65 1306.95 Q1259.97 1292.54 1271.4 1287.95 Q1282.76 1283.31 1293.91 1289.75 Q1301.68 1294.24 1304.5 1301.79 Q1307.25 1309.32 1304.58 1318.72 Z" fill="#000000" fill-rule="evenodd" fill-opacity="1" /><path clip-path="url(#clip080)" d="M1364.09 1295.36 L1371.73 1282.14 L1387.64 1291.33 L1380.01 1304.54 L1364.09 1295.36 Z" fill="#000000" fill-rule="evenodd" fill-opacity="1" /><path clip-path="url(#clip080)" d="M1310.09 1209.64 L1338.78 1159.96 L1349.43 1166.11 L1327.43 1204.19 L1350.36 1217.43 Q1351.02 1214.13 1352.17 1211.12 Q1353.26 1208.08 1354.85 1205.32 Q1363.89 1189.66 1377.76 1185.47 Q1391.62 1181.28 1406.28 1189.74 Q1421.38 1198.46 1424.34 1212.7 Q1427.25 1226.91 1417.38 1244.01 Q1413.98 1249.9 1409.43 1255.46 Q1404.92 1260.96 1399.15 1266.32 L1386.44 1258.97 Q1392.76 1255.11 1397.74 1249.96 Q1402.71 1244.82 1406.58 1238.11 Q1412.84 1227.28 1410.79 1217.66 Q1408.74 1208.04 1398.97 1202.4 Q1389.2 1196.75 1379.84 1199.79 Q1370.49 1202.83 1364.23 1213.66 Q1361.3 1218.74 1359.5 1224.46 Q1357.74 1230.13 1357.08 1236.76 L1310.09 1209.64 Z" fill="#000000" fill-rule="evenodd" fill-opacity="1" /><path clip-path="url(#clip080)" d="M1430.96 1306.46 L1462.44 1367.24 L1480.89 1335.29 L1430.96 1306.46 M1418.02 1303.42 L1427.21 1287.5 L1488.16 1322.7 L1495.86 1309.35 L1506.39 1315.43 L1498.68 1328.77 L1520.74 1341.5 L1513.47 1354.1 L1491.41 1341.37 L1467.04 1383.59 L1454.82 1376.54 L1418.02 1303.42 Z" fill="#000000" fill-rule="evenodd" fill-opacity="1" /><path clip-path="url(#clip080)" d="M1524.61 1298.05 L1532.24 1284.83 L1548.15 1294.02 L1540.52 1307.24 L1524.61 1298.05 Z" fill="#000000" fill-rule="evenodd" fill-opacity="1" /><path clip-path="url(#clip080)" d="M1494.49 1190.2 Q1488.85 1199.97 1495.64 1210.49 Q1502.4 1220.91 1521.7 1232.05 Q1540.93 1243.16 1553.4 1243.84 Q1565.84 1244.43 1571.48 1234.65 Q1577.16 1224.82 1570.4 1214.4 Q1563.61 1203.88 1544.38 1192.77 Q1525.08 1181.63 1512.64 1181.05 Q1500.17 1180.37 1494.49 1190.2 M1484.47 1184.41 Q1493.55 1168.69 1510.79 1167.62 Q1528 1166.45 1551.68 1180.12 Q1575.3 1193.76 1582.96 1209.29 Q1590.59 1224.72 1581.51 1240.44 Q1572.43 1256.16 1555.22 1257.34 Q1537.97 1258.41 1514.36 1244.77 Q1490.68 1231.1 1483.05 1215.67 Q1475.39 1200.14 1484.47 1184.41 Z" fill="#000000" fill-rule="evenodd" fill-opacity="1" /><path clip-path="url(#clip080)" d="M1594.59 1303.77 L1626.07 1364.54 L1644.51 1332.6 L1594.59 1303.77 M1581.64 1300.72 L1590.83 1284.81 L1651.78 1320 L1659.49 1306.66 L1670.01 1312.74 L1662.31 1326.08 L1684.36 1338.81 L1677.09 1351.4 L1655.04 1338.67 L1630.66 1380.89 L1618.45 1373.84 L1581.64 1300.72 Z" fill="#000000" fill-rule="evenodd" fill-opacity="1" /><path clip-path="url(#clip080)" d="M1688.23 1295.36 L1695.86 1282.14 L1711.78 1291.33 L1704.14 1304.54 L1688.23 1295.36 Z" fill="#000000" fill-rule="evenodd" fill-opacity="1" /><path clip-path="url(#clip080)" d="M1634.23 1209.64 L1662.91 1159.96 L1673.56 1166.11 L1651.57 1204.19 L1674.5 1217.43 Q1675.15 1214.13 1676.31 1211.12 Q1677.4 1208.08 1678.99 1205.32 Q1688.03 1189.66 1701.89 1185.47 Q1715.76 1181.28 1730.42 1189.74 Q1745.51 1198.46 1748.48 1212.7 Q1751.39 1226.91 1741.52 1244.01 Q1738.12 1249.9 1733.57 1255.46 Q1729.06 1260.96 1723.29 1266.32 L1710.57 1258.97 Q1716.9 1255.11 1721.88 1249.96 Q1726.85 1244.82 1730.72 1238.11 Q1736.98 1227.28 1734.93 1217.66 Q1732.88 1208.04 1723.11 1202.4 Q1713.34 1196.75 1703.98 1199.79 Q1694.63 1202.83 1688.37 1213.66 Q1685.44 1218.74 1683.64 1224.46 Q1681.87 1230.13 1681.22 1236.76 L1634.23 1209.64 Z" fill="#000000" fill-rule="evenodd" fill-opacity="1" /><path clip-path="url(#clip080)" d="M1724.07 1334.74 L1752.75 1285.06 L1763.4 1291.21 L1741.41 1329.3 L1764.34 1342.54 Q1764.99 1339.24 1766.15 1336.23 Q1767.24 1333.18 1768.83 1330.43 Q1777.87 1314.76 1791.73 1310.57 Q1805.6 1306.38 1820.26 1314.85 Q1835.35 1323.56 1838.32 1337.81 Q1841.23 1352.01 1831.36 1369.12 Q1827.96 1375 1823.41 1380.56 Q1818.9 1386.06 1813.13 1391.42 L1800.41 1384.08 Q1806.74 1380.21 1811.72 1375.07 Q1816.69 1369.92 1820.56 1363.22 Q1826.82 1352.38 1824.77 1342.76 Q1822.72 1333.14 1812.95 1327.5 Q1803.18 1321.86 1793.82 1324.89 Q1784.47 1327.93 1778.21 1338.77 Q1775.28 1343.84 1773.48 1349.57 Q1771.71 1355.23 1771.06 1361.87 L1724.07 1334.74 Z" fill="#000000" fill-rule="evenodd" fill-opacity="1" /><path clip-path="url(#clip080)" d="M1848.75 1298.05 L1856.38 1284.83 L1872.29 1294.02 L1864.66 1307.24 L1848.75 1298.05 Z" fill="#000000" fill-rule="evenodd" fill-opacity="1" /><path clip-path="url(#clip080)" d="M1818.63 1190.2 Q1812.99 1199.97 1819.78 1210.49 Q1826.54 1220.91 1845.84 1232.05 Q1865.07 1243.16 1877.54 1243.84 Q1889.98 1244.43 1895.62 1234.65 Q1901.3 1224.82 1894.54 1214.4 Q1887.75 1203.88 1868.52 1192.77 Q1849.22 1181.63 1836.78 1181.05 Q1824.31 1180.37 1818.63 1190.2 M1808.61 1184.41 Q1817.69 1168.69 1834.93 1167.62 Q1852.14 1166.45 1875.82 1180.12 Q1899.44 1193.76 1907.1 1209.29 Q1914.72 1224.72 1905.65 1240.44 Q1896.57 1256.16 1879.35 1257.34 Q1862.11 1258.41 1838.5 1244.77 Q1814.81 1231.1 1807.19 1215.67 Q1799.53 1200.14 1808.61 1184.41 Z" fill="#000000" fill-rule="evenodd" fill-opacity="1" /><path clip-path="url(#clip080)" d="M1887.7 1332.05 L1916.38 1282.37 L1927.03 1288.52 L1905.04 1326.61 L1927.97 1339.84 Q1928.62 1336.54 1929.77 1333.53 Q1930.86 1330.49 1932.45 1327.73 Q1941.5 1312.07 1955.36 1307.88 Q1969.22 1303.69 1983.88 1312.15 Q1998.98 1320.87 2001.95 1335.11 Q2004.85 1349.32 1994.98 1366.42 Q1991.58 1372.31 1987.03 1377.87 Q1982.52 1383.37 1976.76 1388.73 L1964.04 1381.38 Q1970.36 1377.52 1975.34 1372.37 Q1980.32 1367.23 1984.19 1360.52 Q1990.44 1349.69 1988.4 1340.07 Q1986.35 1330.45 1976.57 1324.81 Q1966.8 1319.16 1957.45 1322.2 Q1948.09 1325.24 1941.84 1336.07 Q1938.91 1341.15 1937.11 1346.87 Q1935.34 1352.54 1934.68 1359.17 L1887.7 1332.05 Z" fill="#000000" fill-rule="evenodd" fill-opacity="1" /><path clip-path="url(#clip080)" d="M2012.37 1295.36 L2020 1282.14 L2035.92 1291.33 L2028.28 1304.54 L2012.37 1295.36 Z" fill="#000000" fill-rule="evenodd" fill-opacity="1" /><path clip-path="url(#clip080)" d="M1958.37 1209.64 L1987.05 1159.96 L1997.7 1166.11 L1975.71 1204.19 L1998.64 1217.43 Q1999.29 1214.13 2000.45 1211.12 Q2001.54 1208.08 2003.13 1205.32 Q2012.17 1189.66 2026.03 1185.47 Q2039.9 1181.28 2054.55 1189.74 Q2069.65 1198.46 2072.62 1212.7 Q2075.53 1226.91 2065.65 1244.01 Q2062.25 1249.9 2057.71 1255.46 Q2053.2 1260.96 2047.43 1266.32 L2034.71 1258.97 Q2041.04 1255.11 2046.01 1249.96 Q2050.99 1244.82 2054.86 1238.11 Q2061.12 1227.28 2059.07 1217.66 Q2057.02 1208.04 2047.25 1202.4 Q2037.48 1196.75 2028.12 1199.79 Q2018.77 1202.83 2012.51 1213.66 Q2009.58 1218.74 2007.78 1224.46 Q2006.01 1230.13 2005.36 1236.76 L1958.37 1209.64 Z" fill="#000000" fill-rule="evenodd" fill-opacity="1" /><path clip-path="url(#clip080)" d="M2106.39 1330.32 Q2101.47 1338.84 2104.4 1347.22 Q2107.37 1355.53 2117.52 1361.39 Q2127.61 1367.21 2136.35 1365.67 Q2145.07 1364.02 2149.99 1355.5 Q2154.91 1346.98 2151.94 1338.67 Q2148.95 1330.25 2138.86 1324.43 Q2128.71 1318.57 2119.99 1320.22 Q2111.31 1321.8 2106.39 1330.32 M2081.24 1282.31 L2092.77 1288.96 Q2087.76 1292.42 2083.75 1296.62 Q2079.77 1300.76 2077.03 1305.52 Q2069.79 1318.05 2074.42 1329.57 Q2079.08 1341.03 2095.64 1351.85 Q2092.32 1345 2092.66 1337.76 Q2092.93 1330.49 2096.8 1323.79 Q2104.94 1309.69 2118.22 1306.5 Q2131.48 1303.21 2146.2 1311.71 Q2160.61 1320.03 2164.4 1333.58 Q2168.19 1347.13 2160.02 1361.28 Q2150.65 1377.51 2133.29 1378.93 Q2115.87 1380.32 2092.25 1366.68 Q2070.07 1353.88 2062.99 1335.76 Q2055.85 1317.6 2066.09 1299.87 Q2068.84 1295.11 2072.56 1290.83 Q2076.32 1286.49 2081.24 1282.31 Z" fill="#000000" fill-rule="evenodd" fill-opacity="1" /><path clip-path="url(#clip080)" d="M2172.89 1298.05 L2180.52 1284.83 L2196.43 1294.02 L2188.8 1307.24 L2172.89 1298.05 Z" fill="#000000" fill-rule="evenodd" fill-opacity="1" /><path clip-path="url(#clip080)" d="M2142.77 1190.2 Q2137.13 1199.97 2143.92 1210.49 Q2150.68 1220.91 2169.98 1232.05 Q2189.21 1243.16 2201.68 1243.84 Q2214.12 1244.43 2219.76 1234.65 Q2225.44 1224.82 2218.68 1214.4 Q2211.89 1203.88 2192.65 1192.77 Q2173.36 1181.63 2160.92 1181.05 Q2148.45 1180.37 2142.77 1190.2 M2132.75 1184.41 Q2141.82 1168.69 2159.07 1167.62 Q2176.28 1166.45 2199.96 1180.12 Q2223.58 1193.76 2231.23 1209.29 Q2238.86 1224.72 2229.78 1240.44 Q2220.71 1256.16 2203.49 1257.34 Q2186.25 1258.41 2162.63 1244.77 Q2138.95 1231.1 2131.32 1215.67 Q2123.67 1200.14 2132.75 1184.41 Z" fill="#000000" fill-rule="evenodd" fill-opacity="1" /><polyline clip-path="url(#clip082)" style="stroke:#000000; stroke-linecap:butt; stroke-linejoin:round; stroke-width:2; stroke-opacity:0.1; fill:none" points="
  193.936,1090 2352.76,1090 
  "/>
<polyline clip-path="url(#clip082)" style="stroke:#000000; stroke-linecap:butt; stroke-linejoin:round; stroke-width:2; stroke-opacity:0.1; fill:none" points="
  193.936,836.899 2352.76,836.899 
  "/>
<polyline clip-path="url(#clip082)" style="stroke:#000000; stroke-linecap:butt; stroke-linejoin:round; stroke-width:2; stroke-opacity:0.1; fill:none" points="
  193.936,583.802 2352.76,583.802 
  "/>
<polyline clip-path="url(#clip082)" style="stroke:#000000; stroke-linecap:butt; stroke-linejoin:round; stroke-width:2; stroke-opacity:0.1; fill:none" points="
  193.936,330.706 2352.76,330.706 
  "/>
<polyline clip-path="url(#clip082)" style="stroke:#000000; stroke-linecap:butt; stroke-linejoin:round; stroke-width:2; stroke-opacity:0.1; fill:none" points="
  193.936,77.6091 2352.76,77.6091 
  "/>
<polyline clip-path="url(#clip080)" style="stroke:#000000; stroke-linecap:butt; stroke-linejoin:round; stroke-width:4; stroke-opacity:1; fill:none" points="
  193.936,1120.37 193.936,47.2441 
  "/>
<polyline clip-path="url(#clip080)" style="stroke:#000000; stroke-linecap:butt; stroke-linejoin:round; stroke-width:4; stroke-opacity:1; fill:none" points="
  193.936,1090 212.834,1090 
  "/>
<polyline clip-path="url(#clip080)" style="stroke:#000000; stroke-linecap:butt; stroke-linejoin:round; stroke-width:4; stroke-opacity:1; fill:none" points="
  193.936,836.899 212.834,836.899 
  "/>
<polyline clip-path="url(#clip080)" style="stroke:#000000; stroke-linecap:butt; stroke-linejoin:round; stroke-width:4; stroke-opacity:1; fill:none" points="
  193.936,583.802 212.834,583.802 
  "/>
<polyline clip-path="url(#clip080)" style="stroke:#000000; stroke-linecap:butt; stroke-linejoin:round; stroke-width:4; stroke-opacity:1; fill:none" points="
  193.936,330.706 212.834,330.706 
  "/>
<polyline clip-path="url(#clip080)" style="stroke:#000000; stroke-linecap:butt; stroke-linejoin:round; stroke-width:4; stroke-opacity:1; fill:none" points="
  193.936,77.6091 212.834,77.6091 
  "/>
<path clip-path="url(#clip080)" d="M50.9921 1090.45 L80.6679 1090.45 L80.6679 1094.38 L50.9921 1094.38 L50.9921 1090.45 Z" fill="#000000" fill-rule="evenodd" fill-opacity="1" /><path clip-path="url(#clip080)" d="M91.5706 1103.34 L99.2095 1103.34 L99.2095 1076.97 L90.8993 1078.64 L90.8993 1074.38 L99.1632 1072.72 L103.839 1072.72 L103.839 1103.34 L111.478 1103.34 L111.478 1107.28 L91.5706 1107.28 L91.5706 1103.34 Z" fill="#000000" fill-rule="evenodd" fill-opacity="1" /><path clip-path="url(#clip080)" d="M120.922 1101.4 L125.807 1101.4 L125.807 1107.28 L120.922 1107.28 L120.922 1101.4 Z" fill="#000000" fill-rule="evenodd" fill-opacity="1" /><path clip-path="url(#clip080)" d="M145.992 1075.79 Q142.381 1075.79 140.552 1079.36 Q138.746 1082.9 138.746 1090.03 Q138.746 1097.14 140.552 1100.7 Q142.381 1104.24 145.992 1104.24 Q149.626 1104.24 151.431 1100.7 Q153.26 1097.14 153.26 1090.03 Q153.26 1082.9 151.431 1079.36 Q149.626 1075.79 145.992 1075.79 M145.992 1072.09 Q151.802 1072.09 154.857 1076.7 Q157.936 1081.28 157.936 1090.03 Q157.936 1098.76 154.857 1103.36 Q151.802 1107.95 145.992 1107.95 Q140.181 1107.95 137.103 1103.36 Q134.047 1098.76 134.047 1090.03 Q134.047 1081.28 137.103 1076.7 Q140.181 1072.09 145.992 1072.09 Z" fill="#000000" fill-rule="evenodd" fill-opacity="1" /><path clip-path="url(#clip080)" d="M51.9875 837.35 L81.6633 837.35 L81.6633 841.286 L51.9875 841.286 L51.9875 837.35 Z" fill="#000000" fill-rule="evenodd" fill-opacity="1" /><path clip-path="url(#clip080)" d="M101.756 822.698 Q98.1447 822.698 96.316 826.263 Q94.5104 829.804 94.5104 836.934 Q94.5104 844.04 96.316 847.605 Q98.1447 851.147 101.756 851.147 Q105.39 851.147 107.196 847.605 Q109.024 844.04 109.024 836.934 Q109.024 829.804 107.196 826.263 Q105.39 822.698 101.756 822.698 M101.756 818.994 Q107.566 818.994 110.621 823.601 Q113.7 828.184 113.7 836.934 Q113.7 845.661 110.621 850.267 Q107.566 854.85 101.756 854.85 Q95.9456 854.85 92.8669 850.267 Q89.8114 845.661 89.8114 836.934 Q89.8114 828.184 92.8669 823.601 Q95.9456 818.994 101.756 818.994 Z" fill="#000000" fill-rule="evenodd" fill-opacity="1" /><path clip-path="url(#clip080)" d="M121.918 848.299 L126.802 848.299 L126.802 854.179 L121.918 854.179 L121.918 848.299 Z" fill="#000000" fill-rule="evenodd" fill-opacity="1" /><path clip-path="url(#clip080)" d="M137.033 819.619 L155.39 819.619 L155.39 823.554 L141.316 823.554 L141.316 832.026 Q142.334 831.679 143.353 831.517 Q144.371 831.332 145.39 831.332 Q151.177 831.332 154.556 834.503 Q157.936 837.675 157.936 843.091 Q157.936 848.67 154.464 851.772 Q150.992 854.85 144.672 854.85 Q142.496 854.85 140.228 854.48 Q137.982 854.11 135.575 853.369 L135.575 848.67 Q137.658 849.804 139.881 850.36 Q142.103 850.915 144.58 850.915 Q148.584 850.915 150.922 848.809 Q153.26 846.702 153.26 843.091 Q153.26 839.48 150.922 837.374 Q148.584 835.267 144.58 835.267 Q142.705 835.267 140.83 835.684 Q138.978 836.1 137.033 836.98 L137.033 819.619 Z" fill="#000000" fill-rule="evenodd" fill-opacity="1" /><path clip-path="url(#clip080)" d="M100.76 569.601 Q97.1493 569.601 95.3206 573.166 Q93.515 576.708 93.515 583.837 Q93.515 590.944 95.3206 594.508 Q97.1493 598.05 100.76 598.05 Q104.395 598.05 106.2 594.508 Q108.029 590.944 108.029 583.837 Q108.029 576.708 106.2 573.166 Q104.395 569.601 100.76 569.601 M100.76 565.897 Q106.571 565.897 109.626 570.504 Q112.705 575.087 112.705 583.837 Q112.705 592.564 109.626 597.17 Q106.571 601.754 100.76 601.754 Q94.9502 601.754 91.8715 597.17 Q88.816 592.564 88.816 583.837 Q88.816 575.087 91.8715 570.504 Q94.9502 565.897 100.76 565.897 Z" fill="#000000" fill-rule="evenodd" fill-opacity="1" /><path clip-path="url(#clip080)" d="M120.922 595.203 L125.807 595.203 L125.807 601.082 L120.922 601.082 L120.922 595.203 Z" fill="#000000" fill-rule="evenodd" fill-opacity="1" /><path clip-path="url(#clip080)" d="M145.992 569.601 Q142.381 569.601 140.552 573.166 Q138.746 576.708 138.746 583.837 Q138.746 590.944 140.552 594.508 Q142.381 598.05 145.992 598.05 Q149.626 598.05 151.431 594.508 Q153.26 590.944 153.26 583.837 Q153.26 576.708 151.431 573.166 Q149.626 569.601 145.992 569.601 M145.992 565.897 Q151.802 565.897 154.857 570.504 Q157.936 575.087 157.936 583.837 Q157.936 592.564 154.857 597.17 Q151.802 601.754 145.992 601.754 Q140.181 601.754 137.103 597.17 Q134.047 592.564 134.047 583.837 Q134.047 575.087 137.103 570.504 Q140.181 565.897 145.992 565.897 Z" fill="#000000" fill-rule="evenodd" fill-opacity="1" /><path clip-path="url(#clip080)" d="M101.756 316.504 Q98.1447 316.504 96.316 320.069 Q94.5104 323.611 94.5104 330.74 Q94.5104 337.847 96.316 341.412 Q98.1447 344.953 101.756 344.953 Q105.39 344.953 107.196 341.412 Q109.024 337.847 109.024 330.74 Q109.024 323.611 107.196 320.069 Q105.39 316.504 101.756 316.504 M101.756 312.801 Q107.566 312.801 110.621 317.407 Q113.7 321.99 113.7 330.74 Q113.7 339.467 110.621 344.074 Q107.566 348.657 101.756 348.657 Q95.9456 348.657 92.8669 344.074 Q89.8114 339.467 89.8114 330.74 Q89.8114 321.99 92.8669 317.407 Q95.9456 312.801 101.756 312.801 Z" fill="#000000" fill-rule="evenodd" fill-opacity="1" /><path clip-path="url(#clip080)" d="M121.918 342.106 L126.802 342.106 L126.802 347.986 L121.918 347.986 L121.918 342.106 Z" fill="#000000" fill-rule="evenodd" fill-opacity="1" /><path clip-path="url(#clip080)" d="M137.033 313.426 L155.39 313.426 L155.39 317.361 L141.316 317.361 L141.316 325.833 Q142.334 325.486 143.353 325.324 Q144.371 325.139 145.39 325.139 Q151.177 325.139 154.556 328.31 Q157.936 331.481 157.936 336.898 Q157.936 342.476 154.464 345.578 Q150.992 348.657 144.672 348.657 Q142.496 348.657 140.228 348.287 Q137.982 347.916 135.575 347.176 L135.575 342.476 Q137.658 343.611 139.881 344.166 Q142.103 344.722 144.58 344.722 Q148.584 344.722 150.922 342.615 Q153.26 340.509 153.26 336.898 Q153.26 333.287 150.922 331.18 Q148.584 329.074 144.58 329.074 Q142.705 329.074 140.83 329.49 Q138.978 329.907 137.033 330.787 L137.033 313.426 Z" fill="#000000" fill-rule="evenodd" fill-opacity="1" /><path clip-path="url(#clip080)" d="M91.5706 90.9539 L99.2095 90.9539 L99.2095 64.5883 L90.8993 66.2549 L90.8993 61.9957 L99.1632 60.3291 L103.839 60.3291 L103.839 90.9539 L111.478 90.9539 L111.478 94.8891 L91.5706 94.8891 L91.5706 90.9539 Z" fill="#000000" fill-rule="evenodd" fill-opacity="1" /><path clip-path="url(#clip080)" d="M120.922 89.0095 L125.807 89.0095 L125.807 94.8891 L120.922 94.8891 L120.922 89.0095 Z" fill="#000000" fill-rule="evenodd" fill-opacity="1" /><path clip-path="url(#clip080)" d="M145.992 63.4077 Q142.381 63.4077 140.552 66.9725 Q138.746 70.5142 138.746 77.6438 Q138.746 84.7502 140.552 88.315 Q142.381 91.8567 145.992 91.8567 Q149.626 91.8567 151.431 88.315 Q153.26 84.7502 153.26 77.6438 Q153.26 70.5142 151.431 66.9725 Q149.626 63.4077 145.992 63.4077 M145.992 59.7041 Q151.802 59.7041 154.857 64.3105 Q157.936 68.8938 157.936 77.6438 Q157.936 86.3706 154.857 90.977 Q151.802 95.5603 145.992 95.5603 Q140.181 95.5603 137.103 90.977 Q134.047 86.3706 134.047 77.6438 Q134.047 68.8938 137.103 64.3105 Q140.181 59.7041 145.992 59.7041 Z" fill="#000000" fill-rule="evenodd" fill-opacity="1" /><polyline clip-path="url(#clip082)" style="stroke:#009af9; stroke-linecap:butt; stroke-linejoin:round; stroke-width:4; stroke-opacity:1; fill:none" points="
  255.035,583.802 261.664,573.45 268.294,563.101 298.945,515.439 329.596,468.387 360.247,422.367 390.898,377.789 409.318,351.861 427.737,326.681 446.157,302.331 
  464.577,278.89 480.151,259.835 495.725,241.529 511.299,224.013 526.872,207.327 543.79,190.187 560.707,174.119 577.625,159.167 594.542,145.371 610.139,133.71 
  625.735,123.09 641.332,113.537 656.928,105.072 673.649,97.2287 690.37,90.6797 707.091,85.4427 723.812,81.5315 743.185,78.6715 762.558,77.6155 781.931,78.367 
  801.304,80.9235 818.52,84.703 835.737,89.8901 852.953,96.4703 870.17,104.425 885.267,112.514 900.364,121.625 915.461,131.739 930.558,142.833 947.018,156.018 
  963.478,170.306 979.938,185.659 996.398,202.039 1012.96,219.51 1029.51,237.931 1046.07,257.254 1062.63,277.429 1080.94,300.663 1099.24,324.8 1117.55,349.763 
  1135.86,375.473 1170.69,426.162 1205.53,478.67 1277.98,591.032 1338.96,685.569 1376.19,741.722 1413.41,795.794 1430.46,819.67 1447.51,842.893 1464.57,865.399 
  1481.62,887.127 1497.36,906.45 1513.11,925.011 1528.86,942.767 1544.61,959.676 1560.56,975.9 1576.51,991.175 1592.46,1005.46 1608.42,1018.73 1626.29,1032.34 
  1644.17,1044.6 1662.05,1055.45 1679.93,1064.86 1696.13,1072.13 1712.33,1078.18 1728.53,1082.99 1744.73,1086.56 1763.28,1089.11 1781.83,1089.99 1800.37,1089.23 
  1818.92,1086.8 1836.1,1083.09 1853.27,1077.98 1870.44,1071.48 1887.62,1063.61 1904.55,1054.54 1921.48,1044.18 1938.41,1032.56 1955.34,1019.72 1971.78,1006.12 
  1988.22,991.424 2004.66,975.686 2021.1,958.939 2037.95,940.771 2054.8,921.637 2071.66,901.591 2088.51,880.686 2106.97,856.864 2125.44,832.155 2143.9,806.641 
  2162.36,780.405 2216,700.876 2269.65,618.148 2280.65,600.985 2291.66,583.802 
  "/>
<path clip-path="url(#clip080)" d="
M1988.5 186.695 L2280.8 186.695 L2280.8 83.0148 L1988.5 83.0148  Z
  " fill="#ffffff" fill-rule="evenodd" fill-opacity="1"/>
<polyline clip-path="url(#clip080)" style="stroke:#000000; stroke-linecap:butt; stroke-linejoin:round; stroke-width:4; stroke-opacity:1; fill:none" points="
  1988.5,186.695 2280.8,186.695 2280.8,83.0148 1988.5,83.0148 1988.5,186.695 
  "/>
<polyline clip-path="url(#clip080)" style="stroke:#009af9; stroke-linecap:butt; stroke-linejoin:round; stroke-width:4; stroke-opacity:1; fill:none" points="
  2012.48,134.855 2156.4,134.855 
  "/>
<path clip-path="url(#clip080)" d="M2194.23 154.542 Q2192.43 159.172 2190.72 160.584 Q2189 161.996 2186.13 161.996 L2182.73 161.996 L2182.73 158.431 L2185.23 158.431 Q2186.99 158.431 2187.96 157.598 Q2188.93 156.764 2190.11 153.663 L2190.88 151.718 L2180.39 126.209 L2184.91 126.209 L2193.01 146.487 L2201.11 126.209 L2205.62 126.209 L2194.23 154.542 Z" fill="#000000" fill-rule="evenodd" fill-opacity="1" /><path clip-path="url(#clip080)" d="M2212.91 148.2 L2220.55 148.2 L2220.55 121.834 L2212.24 123.501 L2212.24 119.241 L2220.51 117.575 L2225.18 117.575 L2225.18 148.2 L2232.82 148.2 L2232.82 152.135 L2212.91 152.135 L2212.91 148.2 Z" fill="#000000" fill-rule="evenodd" fill-opacity="1" /></svg>
