<?xml version="1.0" encoding="utf-8"?>
<svg xmlns="http://www.w3.org/2000/svg" xmlns:xlink="http://www.w3.org/1999/xlink" width="600" height="400" viewBox="0 0 2400 1600">
<defs>
  <clipPath id="clip120">
    <rect x="0" y="0" width="2400" height="1600"/>
  </clipPath>
</defs>
<path clip-path="url(#clip120)" d="
M0 1600 L2400 1600 L2400 0 L0 0  Z
  " fill="#ffffff" fill-rule="evenodd" fill-opacity="1"/>
<defs>
  <clipPath id="clip121">
    <rect x="480" y="0" width="1681" height="1600"/>
  </clipPath>
</defs>
<path clip-path="url(#clip120)" d="
M138.832 1438.55 L2352.76 1438.55 L2352.76 47.2441 L138.832 47.2441  Z
  " fill="#ffffff" fill-rule="evenodd" fill-opacity="1"/>
<defs>
  <clipPath id="clip122">
    <rect x="138" y="47" width="2215" height="1392"/>
  </clipPath>
</defs>
<polyline clip-path="url(#clip122)" style="stroke:#000000; stroke-linecap:butt; stroke-linejoin:round; stroke-width:2; stroke-opacity:0.1; fill:none" points="
  201.49,1438.55 201.49,47.2441 
  "/>
<polyline clip-path="url(#clip122)" style="stroke:#000000; stroke-linecap:butt; stroke-linejoin:round; stroke-width:2; stroke-opacity:0.1; fill:none" points="
  367.696,1438.55 367.696,47.2441 
  "/>
<polyline clip-path="url(#clip122)" style="stroke:#000000; stroke-linecap:butt; stroke-linejoin:round; stroke-width:2; stroke-opacity:0.1; fill:none" points="
  533.903,1438.55 533.903,47.2441 
  "/>
<polyline clip-path="url(#clip122)" style="stroke:#000000; stroke-linecap:butt; stroke-linejoin:round; stroke-width:2; stroke-opacity:0.1; fill:none" points="
  700.109,1438.55 700.109,47.2441 
  "/>
<polyline clip-path="url(#clip122)" style="stroke:#000000; stroke-linecap:butt; stroke-linejoin:round; stroke-width:2; stroke-opacity:0.1; fill:none" points="
  866.315,1438.55 866.315,47.2441 
  "/>
<polyline clip-path="url(#clip122)" style="stroke:#000000; stroke-linecap:butt; stroke-linejoin:round; stroke-width:2; stroke-opacity:0.1; fill:none" points="
  1032.52,1438.55 1032.52,47.2441 
  "/>
<polyline clip-path="url(#clip122)" style="stroke:#000000; stroke-linecap:butt; stroke-linejoin:round; stroke-width:2; stroke-opacity:0.1; fill:none" points="
  1198.73,1438.55 1198.73,47.2441 
  "/>
<polyline clip-path="url(#clip122)" style="stroke:#000000; stroke-linecap:butt; stroke-linejoin:round; stroke-width:2; stroke-opacity:0.1; fill:none" points="
  1364.93,1438.55 1364.93,47.2441 
  "/>
<polyline clip-path="url(#clip122)" style="stroke:#000000; stroke-linecap:butt; stroke-linejoin:round; stroke-width:2; stroke-opacity:0.1; fill:none" points="
  1531.14,1438.55 1531.14,47.2441 
  "/>
<polyline clip-path="url(#clip122)" style="stroke:#000000; stroke-linecap:butt; stroke-linejoin:round; stroke-width:2; stroke-opacity:0.1; fill:none" points="
  1697.35,1438.55 1697.35,47.2441 
  "/>
<polyline clip-path="url(#clip122)" style="stroke:#000000; stroke-linecap:butt; stroke-linejoin:round; stroke-width:2; stroke-opacity:0.1; fill:none" points="
  1863.55,1438.55 1863.55,47.2441 
  "/>
<polyline clip-path="url(#clip122)" style="stroke:#000000; stroke-linecap:butt; stroke-linejoin:round; stroke-width:2; stroke-opacity:0.1; fill:none" points="
  2029.76,1438.55 2029.76,47.2441 
  "/>
<polyline clip-path="url(#clip122)" style="stroke:#000000; stroke-linecap:butt; stroke-linejoin:round; stroke-width:2; stroke-opacity:0.1; fill:none" points="
  2195.96,1438.55 2195.96,47.2441 
  "/>
<polyline clip-path="url(#clip120)" style="stroke:#000000; stroke-linecap:butt; stroke-linejoin:round; stroke-width:4; stroke-opacity:1; fill:none" points="
  138.832,1438.55 2352.76,1438.55 
  "/>
<polyline clip-path="url(#clip120)" style="stroke:#000000; stroke-linecap:butt; stroke-linejoin:round; stroke-width:4; stroke-opacity:1; fill:none" points="
  201.49,1438.55 201.49,1419.65 
  "/>
<polyline clip-path="url(#clip120)" style="stroke:#000000; stroke-linecap:butt; stroke-linejoin:round; stroke-width:4; stroke-opacity:1; fill:none" points="
  367.696,1438.55 367.696,1419.65 
  "/>
<polyline clip-path="url(#clip120)" style="stroke:#000000; stroke-linecap:butt; stroke-linejoin:round; stroke-width:4; stroke-opacity:1; fill:none" points="
  533.903,1438.55 533.903,1419.65 
  "/>
<polyline clip-path="url(#clip120)" style="stroke:#000000; stroke-linecap:butt; stroke-linejoin:round; stroke-width:4; stroke-opacity:1; fill:none" points="
  700.109,1438.55 700.109,1419.65 
  "/>
<polyline clip-path="url(#clip120)" style="stroke:#000000; stroke-linecap:butt; stroke-linejoin:round; stroke-width:4; stroke-opacity:1; fill:none" points="
  866.315,1438.55 866.315,1419.65 
  "/>
<polyline clip-path="url(#clip120)" style="stroke:#000000; stroke-linecap:butt; stroke-linejoin:round; stroke-width:4; stroke-opacity:1; fill:none" points="
  1032.52,1438.55 1032.52,1419.65 
  "/>
<polyline clip-path="url(#clip120)" style="stroke:#000000; stroke-linecap:butt; stroke-linejoin:round; stroke-width:4; stroke-opacity:1; fill:none" points="
  1198.73,1438.55 1198.73,1419.65 
  "/>
<polyline clip-path="url(#clip120)" style="stroke:#000000; stroke-linecap:butt; stroke-linejoin:round; stroke-width:4; stroke-opacity:1; fill:none" points="
  1364.93,1438.55 1364.93,1419.65 
  "/>
<polyline clip-path="url(#clip120)" style="stroke:#000000; stroke-linecap:butt; stroke-linejoin:round; stroke-width:4; stroke-opacity:1; fill:none" points="
  1531.14,1438.55 1531.14,1419.65 
  "/>
<polyline clip-path="url(#clip120)" style="stroke:#000000; stroke-linecap:butt; stroke-linejoin:round; stroke-width:4; stroke-opacity:1; fill:none" points="
  1697.35,1438.55 1697.35,1419.65 
  "/>
<polyline clip-path="url(#clip120)" style="stroke:#000000; stroke-linecap:butt; stroke-linejoin:round; stroke-width:4; stroke-opacity:1; fill:none" points="
  1863.55,1438.55 1863.55,1419.65 
  "/>
<polyline clip-path="url(#clip120)" style="stroke:#000000; stroke-linecap:butt; stroke-linejoin:round; stroke-width:4; stroke-opacity:1; fill:none" points="
  2029.76,1438.55 2029.76,1419.65 
  "/>
<polyline clip-path="url(#clip120)" style="stroke:#000000; stroke-linecap:butt; stroke-linejoin:round; stroke-width:4; stroke-opacity:1; fill:none" points="
  2195.96,1438.55 2195.96,1419.65 
  "/>
<path clip-path="url(#clip120)" d="M139.122 1550.33 Q137.317 1553.46 139.49 1556.82 Q141.654 1560.16 147.829 1563.72 Q153.983 1567.28 157.973 1567.5 Q161.954 1567.68 163.76 1564.56 Q165.577 1561.41 163.413 1558.07 Q161.24 1554.71 155.085 1551.15 Q148.911 1547.59 144.93 1547.4 Q140.94 1547.18 139.122 1550.33 M135.915 1548.48 Q138.82 1543.45 144.337 1543.1 Q149.846 1542.73 157.423 1547.1 Q164.981 1551.47 167.431 1556.44 Q169.873 1561.38 166.967 1566.41 Q164.062 1571.44 158.554 1571.81 Q153.037 1572.16 145.479 1567.79 Q137.901 1563.42 135.46 1558.48 Q133.01 1553.51 135.915 1548.48 Z" fill="#000000" fill-rule="evenodd" fill-opacity="1" /><path clip-path="url(#clip120)" d="M171.375 1545.67 L173.817 1541.44 L178.909 1544.38 L176.467 1548.61 L171.375 1545.67 Z" fill="#000000" fill-rule="evenodd" fill-opacity="1" /><path clip-path="url(#clip120)" d="M161.738 1511.16 Q159.933 1514.29 162.105 1517.65 Q164.27 1520.99 170.444 1524.55 Q176.599 1528.11 180.589 1528.32 Q184.57 1528.51 186.376 1525.38 Q188.193 1522.24 186.028 1518.9 Q183.855 1515.54 177.701 1511.98 Q171.527 1508.42 167.545 1508.23 Q163.555 1508.01 161.738 1511.16 M158.531 1509.31 Q161.436 1504.28 166.953 1503.93 Q172.461 1503.56 180.039 1507.93 Q187.597 1512.3 190.047 1517.27 Q192.488 1522.2 189.583 1527.24 Q186.678 1532.27 181.169 1532.64 Q175.652 1532.98 168.095 1528.62 Q160.517 1524.25 158.075 1519.31 Q155.626 1514.34 158.531 1509.31 Z" fill="#000000" fill-rule="evenodd" fill-opacity="1" /><path clip-path="url(#clip120)" d="M200.921 1480.19 Q198.34 1484.66 198.367 1486.97 Q198.394 1489.29 200.86 1490.71 Q202.825 1491.85 204.728 1491.24 Q206.623 1490.59 207.908 1488.37 Q209.679 1485.3 208.578 1482.21 Q207.47 1479.08 203.861 1477 L203.039 1476.52 L200.921 1480.19 M203.645 1471.95 L216.455 1479.35 L214.326 1483.04 L210.918 1481.07 Q212.233 1483.51 212.128 1485.97 Q212.002 1488.41 210.428 1491.13 Q208.437 1494.58 205.332 1495.51 Q202.219 1496.42 198.971 1494.54 Q195.182 1492.35 194.716 1488.72 Q194.261 1485.06 197.166 1480.03 L200.153 1474.85 L199.792 1474.65 Q197.246 1473.18 194.89 1474.06 Q192.526 1474.92 190.779 1477.94 Q189.668 1479.87 189.075 1481.96 Q188.483 1484.05 188.433 1486.26 L185.025 1484.3 Q185.412 1481.82 186.131 1479.7 Q186.83 1477.56 187.871 1475.76 Q190.684 1470.88 194.599 1469.94 Q198.513 1468.99 203.645 1471.95 Z" fill="#000000" fill-rule="evenodd" fill-opacity="1" /><path clip-path="url(#clip120)" d="M305.329 1550.33 Q303.523 1553.46 305.696 1556.82 Q307.86 1560.16 314.035 1563.72 Q320.189 1567.28 324.179 1567.5 Q328.161 1567.68 329.966 1564.56 Q331.783 1561.41 329.619 1558.07 Q327.446 1554.71 321.292 1551.15 Q315.117 1547.59 311.136 1547.4 Q307.146 1547.18 305.329 1550.33 M302.121 1548.48 Q305.026 1543.45 310.543 1543.1 Q316.052 1542.73 323.63 1547.1 Q331.187 1551.47 333.637 1556.44 Q336.079 1561.38 333.174 1566.41 Q330.268 1571.44 324.76 1571.81 Q319.243 1572.16 311.685 1567.79 Q304.107 1563.42 301.666 1558.48 Q299.216 1553.51 302.121 1548.48 Z" fill="#000000" fill-rule="evenodd" fill-opacity="1" /><path clip-path="url(#clip120)" d="M337.581 1545.67 L340.023 1541.44 L345.115 1544.38 L342.673 1548.61 L337.581 1545.67 Z" fill="#000000" fill-rule="evenodd" fill-opacity="1" /><path clip-path="url(#clip120)" d="M320.301 1518.24 L329.479 1502.34 L332.887 1504.31 L325.85 1516.5 L333.187 1520.74 Q333.396 1519.68 333.765 1518.72 Q334.114 1517.74 334.623 1516.86 Q337.517 1511.85 341.953 1510.51 Q346.389 1509.17 351.08 1511.87 Q355.911 1514.66 356.861 1519.22 Q357.791 1523.77 354.632 1529.24 Q353.544 1531.12 352.089 1532.9 Q350.645 1534.66 348.8 1536.38 L344.731 1534.03 Q346.755 1532.79 348.347 1531.14 Q349.939 1529.5 351.178 1527.35 Q353.18 1523.88 352.525 1520.81 Q351.869 1517.73 348.742 1515.92 Q345.615 1514.12 342.621 1515.09 Q339.628 1516.06 337.626 1519.53 Q336.688 1521.15 336.112 1522.98 Q335.547 1524.8 335.336 1526.92 L320.301 1518.24 Z" fill="#000000" fill-rule="evenodd" fill-opacity="1" /><path clip-path="url(#clip120)" d="M367.127 1480.19 Q364.546 1484.66 364.573 1486.97 Q364.6 1489.29 367.066 1490.71 Q369.031 1491.85 370.934 1491.24 Q372.829 1490.59 374.114 1488.37 Q375.885 1485.3 374.784 1482.21 Q373.676 1479.08 370.067 1477 L369.245 1476.52 L367.127 1480.19 M369.851 1471.95 L382.661 1479.35 L380.532 1483.04 L377.124 1481.07 Q378.439 1483.51 378.334 1485.97 Q378.208 1488.41 376.634 1491.13 Q374.643 1494.58 371.538 1495.51 Q368.425 1496.42 365.177 1494.54 Q361.388 1492.35 360.922 1488.72 Q360.467 1485.06 363.373 1480.03 L366.359 1474.85 L365.998 1474.65 Q363.452 1473.18 361.096 1474.06 Q358.733 1474.92 356.985 1477.94 Q355.874 1479.87 355.282 1481.96 Q354.689 1484.05 354.639 1486.26 L351.231 1484.3 Q351.619 1481.82 352.337 1479.7 Q353.036 1477.56 354.077 1475.76 Q356.89 1470.88 360.805 1469.94 Q364.719 1468.99 369.851 1471.95 Z" fill="#000000" fill-rule="evenodd" fill-opacity="1" /><path clip-path="url(#clip120)" d="M490.795 1572.06 L494.615 1565.45 L471.782 1552.26 L469.07 1560.29 L465.381 1558.16 L468.07 1550.17 L470.408 1546.13 L496.93 1561.44 L500.749 1554.82 L504.157 1556.79 L494.203 1574.03 L490.795 1572.06 Z" fill="#000000" fill-rule="evenodd" fill-opacity="1" /><path clip-path="url(#clip120)" d="M503.787 1545.67 L506.229 1541.44 L511.321 1544.38 L508.879 1548.61 L503.787 1545.67 Z" fill="#000000" fill-rule="evenodd" fill-opacity="1" /><path clip-path="url(#clip120)" d="M494.15 1511.16 Q492.345 1514.29 494.518 1517.65 Q496.682 1520.99 502.856 1524.55 Q509.011 1528.11 513.001 1528.32 Q516.982 1528.51 518.788 1525.38 Q520.605 1522.24 518.44 1518.9 Q516.268 1515.54 510.113 1511.98 Q503.939 1508.42 499.957 1508.23 Q495.967 1508.01 494.15 1511.16 M490.943 1509.31 Q493.848 1504.28 499.365 1503.93 Q504.874 1503.56 512.451 1507.93 Q520.009 1512.3 522.459 1517.27 Q524.9 1522.2 521.995 1527.24 Q519.09 1532.27 513.582 1532.64 Q508.064 1532.98 500.507 1528.62 Q492.929 1524.25 490.488 1519.31 Q488.038 1514.34 490.943 1509.31 Z" fill="#000000" fill-rule="evenodd" fill-opacity="1" /><path clip-path="url(#clip120)" d="M533.333 1480.19 Q530.752 1484.66 530.779 1486.97 Q530.806 1489.29 533.272 1490.71 Q535.237 1491.85 537.14 1491.24 Q539.035 1490.59 540.32 1488.37 Q542.091 1485.3 540.991 1482.21 Q539.882 1479.08 536.273 1477 L535.451 1476.52 L533.333 1480.19 M536.058 1471.95 L548.867 1479.35 L546.738 1483.04 L543.33 1481.07 Q544.645 1483.51 544.54 1485.97 Q544.414 1488.41 542.84 1491.13 Q540.849 1494.58 537.744 1495.51 Q534.631 1496.42 531.383 1494.54 Q527.594 1492.35 527.128 1488.72 Q526.674 1485.06 529.579 1480.03 L532.565 1474.85 L532.204 1474.65 Q529.658 1473.18 527.303 1474.06 Q524.939 1474.92 523.191 1477.94 Q522.08 1479.87 521.488 1481.96 Q520.896 1484.05 520.845 1486.26 L517.437 1484.3 Q517.825 1481.82 518.543 1479.7 Q519.242 1477.56 520.284 1475.76 Q523.096 1470.88 527.011 1469.94 Q530.926 1468.99 536.058 1471.95 Z" fill="#000000" fill-rule="evenodd" fill-opacity="1" /><path clip-path="url(#clip120)" d="M657.002 1572.06 L660.821 1565.45 L637.988 1552.26 L635.276 1560.29 L631.587 1558.16 L634.276 1550.17 L636.614 1546.13 L663.136 1561.44 L666.955 1554.82 L670.363 1556.79 L660.409 1574.03 L657.002 1572.06 Z" fill="#000000" fill-rule="evenodd" fill-opacity="1" /><path clip-path="url(#clip120)" d="M669.993 1545.67 L672.436 1541.44 L677.527 1544.38 L675.085 1548.61 L669.993 1545.67 Z" fill="#000000" fill-rule="evenodd" fill-opacity="1" /><path clip-path="url(#clip120)" d="M652.713 1518.24 L661.892 1502.34 L665.299 1504.31 L658.262 1516.5 L665.6 1520.74 Q665.808 1519.68 666.177 1518.72 Q666.526 1517.74 667.035 1516.86 Q669.929 1511.85 674.365 1510.51 Q678.801 1509.17 683.492 1511.87 Q688.323 1514.66 689.274 1519.22 Q690.204 1523.77 687.044 1529.24 Q685.956 1531.12 684.501 1532.9 Q683.058 1534.66 681.212 1536.38 L677.143 1534.03 Q679.167 1532.79 680.759 1531.14 Q682.351 1529.5 683.59 1527.35 Q685.592 1523.88 684.937 1520.81 Q684.281 1517.73 681.154 1515.92 Q678.027 1514.12 675.034 1515.09 Q672.04 1516.06 670.038 1519.53 Q669.101 1521.15 668.524 1522.98 Q667.959 1524.8 667.748 1526.92 L652.713 1518.24 Z" fill="#000000" fill-rule="evenodd" fill-opacity="1" /><path clip-path="url(#clip120)" d="M699.54 1480.19 Q696.959 1484.66 696.986 1486.97 Q697.013 1489.29 699.478 1490.71 Q701.443 1491.85 703.346 1491.24 Q705.241 1490.59 706.526 1488.37 Q708.297 1485.3 707.197 1482.21 Q706.088 1479.08 702.48 1477 L701.658 1476.52 L699.54 1480.19 M702.264 1471.95 L715.074 1479.35 L712.944 1483.04 L709.536 1481.07 Q710.852 1483.51 710.746 1485.97 Q710.62 1488.41 709.046 1491.13 Q707.055 1494.58 703.95 1495.51 Q700.837 1496.42 697.589 1494.54 Q693.8 1492.35 693.334 1488.72 Q692.88 1485.06 695.785 1480.03 L698.771 1474.85 L698.41 1474.65 Q695.864 1473.18 693.509 1474.06 Q691.145 1474.92 689.397 1477.94 Q688.286 1479.87 687.694 1481.96 Q687.102 1484.05 687.052 1486.26 L683.644 1484.3 Q684.031 1481.82 684.749 1479.7 Q685.448 1477.56 686.49 1475.76 Q689.302 1470.88 693.217 1469.94 Q697.132 1468.99 702.264 1471.95 Z" fill="#000000" fill-rule="evenodd" fill-opacity="1" /><path clip-path="url(#clip120)" d="M824.816 1569.28 L832.976 1555.14 L836.384 1557.11 L825.412 1576.11 L822.004 1574.15 Q820.949 1570.46 819.232 1564.18 Q817.505 1557.86 816.933 1556.17 Q815.871 1552.97 814.807 1551.34 Q813.735 1549.67 812.271 1548.83 Q809.886 1547.45 807.41 1548.27 Q804.946 1549.06 803.395 1551.75 Q802.295 1553.65 801.73 1556.16 Q801.176 1558.65 801.131 1561.83 L797.041 1559.47 Q797.471 1556.45 798.197 1554.04 Q798.922 1551.63 799.941 1549.86 Q802.626 1545.21 806.549 1543.79 Q810.471 1542.36 814.36 1544.61 Q816.205 1545.67 817.463 1547.34 Q818.714 1548.97 819.906 1552.09 Q820.198 1552.92 821.433 1557.22 Q822.649 1561.5 824.816 1569.28 Z" fill="#000000" fill-rule="evenodd" fill-opacity="1" /><path clip-path="url(#clip120)" d="M836.2 1545.67 L838.642 1541.44 L843.734 1544.38 L841.291 1548.61 L836.2 1545.67 Z" fill="#000000" fill-rule="evenodd" fill-opacity="1" /><path clip-path="url(#clip120)" d="M826.562 1511.16 Q824.757 1514.29 826.93 1517.65 Q829.094 1520.99 835.269 1524.55 Q841.423 1528.11 845.413 1528.32 Q849.394 1528.51 851.2 1525.38 Q853.017 1522.24 850.853 1518.9 Q848.68 1515.54 842.525 1511.98 Q836.351 1508.42 832.37 1508.23 Q828.38 1508.01 826.562 1511.16 M823.355 1509.31 Q826.26 1504.28 831.777 1503.93 Q837.286 1503.56 844.863 1507.93 Q852.421 1512.3 854.871 1517.27 Q857.313 1522.2 854.407 1527.24 Q851.502 1532.27 845.994 1532.64 Q840.477 1532.98 832.919 1528.62 Q825.341 1524.25 822.9 1519.31 Q820.45 1514.34 823.355 1509.31 Z" fill="#000000" fill-rule="evenodd" fill-opacity="1" /><path clip-path="url(#clip120)" d="M865.746 1480.19 Q863.165 1484.66 863.192 1486.97 Q863.219 1489.29 865.684 1490.71 Q867.649 1491.85 869.552 1491.24 Q871.447 1490.59 872.732 1488.37 Q874.503 1485.3 873.403 1482.21 Q872.294 1479.08 868.686 1477 L867.864 1476.52 L865.746 1480.19 M868.47 1471.95 L881.28 1479.35 L879.15 1483.04 L875.742 1481.07 Q877.058 1483.51 876.952 1485.97 Q876.826 1488.41 875.252 1491.13 Q873.261 1494.58 870.156 1495.51 Q867.043 1496.42 863.795 1494.54 Q860.007 1492.35 859.54 1488.72 Q859.086 1485.06 861.991 1480.03 L864.977 1474.85 L864.616 1474.65 Q862.07 1473.18 859.715 1474.06 Q857.351 1474.92 855.603 1477.94 Q854.492 1479.87 853.9 1481.96 Q853.308 1484.05 853.258 1486.26 L849.85 1484.3 Q850.237 1481.82 850.955 1479.7 Q851.654 1477.56 852.696 1475.76 Q855.508 1470.88 859.423 1469.94 Q863.338 1468.99 868.47 1471.95 Z" fill="#000000" fill-rule="evenodd" fill-opacity="1" /><path clip-path="url(#clip120)" d="M991.022 1569.28 L999.182 1555.14 L1002.59 1557.11 L991.618 1576.11 L988.21 1574.15 Q987.155 1570.46 985.438 1564.18 Q983.712 1557.86 983.139 1556.17 Q982.077 1552.97 981.013 1551.34 Q979.941 1549.67 978.477 1548.83 Q976.092 1547.45 973.616 1548.27 Q971.152 1549.06 969.601 1551.75 Q968.502 1553.65 967.936 1556.16 Q967.383 1558.65 967.337 1561.83 L963.247 1559.47 Q963.677 1556.45 964.403 1554.04 Q965.128 1551.63 966.147 1549.86 Q968.832 1545.21 972.755 1543.79 Q976.677 1542.36 980.566 1544.61 Q982.411 1545.67 983.669 1547.34 Q984.92 1548.97 986.112 1552.09 Q986.404 1552.92 987.639 1557.22 Q988.855 1561.5 991.022 1569.28 Z" fill="#000000" fill-rule="evenodd" fill-opacity="1" /><path clip-path="url(#clip120)" d="M1002.41 1545.67 L1004.85 1541.44 L1009.94 1544.38 L1007.5 1548.61 L1002.41 1545.67 Z" fill="#000000" fill-rule="evenodd" fill-opacity="1" /><path clip-path="url(#clip120)" d="M985.126 1518.24 L994.304 1502.34 L997.712 1504.31 L990.675 1516.5 L998.012 1520.74 Q998.22 1519.68 998.589 1518.72 Q998.938 1517.74 999.447 1516.86 Q1002.34 1511.85 1006.78 1510.51 Q1011.21 1509.17 1015.9 1511.87 Q1020.74 1514.66 1021.69 1519.22 Q1022.62 1523.77 1019.46 1529.24 Q1018.37 1531.12 1016.91 1532.9 Q1015.47 1534.66 1013.62 1536.38 L1009.56 1534.03 Q1011.58 1532.79 1013.17 1531.14 Q1014.76 1529.5 1016 1527.35 Q1018 1523.88 1017.35 1520.81 Q1016.69 1517.73 1013.57 1515.92 Q1010.44 1514.12 1007.45 1515.09 Q1004.45 1516.06 1002.45 1519.53 Q1001.51 1521.15 1000.94 1522.98 Q1000.37 1524.8 1000.16 1526.92 L985.126 1518.24 Z" fill="#000000" fill-rule="evenodd" fill-opacity="1" /><path clip-path="url(#clip120)" d="M1031.95 1480.19 Q1029.37 1484.66 1029.4 1486.97 Q1029.42 1489.29 1031.89 1490.71 Q1033.86 1491.85 1035.76 1491.24 Q1037.65 1490.59 1038.94 1488.37 Q1040.71 1485.3 1039.61 1482.21 Q1038.5 1479.08 1034.89 1477 L1034.07 1476.52 L1031.95 1480.19 M1034.68 1471.95 L1047.49 1479.35 L1045.36 1483.04 L1041.95 1481.07 Q1043.26 1483.51 1043.16 1485.97 Q1043.03 1488.41 1041.46 1491.13 Q1039.47 1494.58 1036.36 1495.51 Q1033.25 1496.42 1030 1494.54 Q1026.21 1492.35 1025.75 1488.72 Q1025.29 1485.06 1028.2 1480.03 L1031.18 1474.85 L1030.82 1474.65 Q1028.28 1473.18 1025.92 1474.06 Q1023.56 1474.92 1021.81 1477.94 Q1020.7 1479.87 1020.11 1481.96 Q1019.51 1484.05 1019.46 1486.26 L1016.06 1484.3 Q1016.44 1481.82 1017.16 1479.7 Q1017.86 1477.56 1018.9 1475.76 Q1021.71 1470.88 1025.63 1469.94 Q1029.54 1468.99 1034.68 1471.95 Z" fill="#000000" fill-rule="evenodd" fill-opacity="1" /><path clip-path="url(#clip120)" d="M1149.57 1553.15 Q1151.87 1550.6 1154.77 1550.11 Q1157.68 1549.6 1160.57 1551.27 Q1165 1553.82 1165.67 1558.27 Q1166.33 1562.72 1163.09 1568.33 Q1162 1570.22 1160.47 1572 Q1158.96 1573.78 1156.99 1575.47 L1153.08 1573.22 Q1155.04 1572.1 1156.7 1570.38 Q1158.35 1568.67 1159.62 1566.48 Q1161.81 1562.68 1161.46 1559.82 Q1161.11 1556.95 1158.24 1555.29 Q1155.6 1553.77 1153.04 1554.78 Q1150.47 1555.75 1148.56 1559.06 L1146.55 1562.55 L1143.22 1560.63 L1145.32 1556.98 Q1147.05 1553.99 1146.78 1551.72 Q1146.49 1549.45 1144.25 1548.15 Q1141.94 1546.82 1139.77 1547.76 Q1137.59 1548.66 1135.83 1551.71 Q1134.87 1553.37 1134.13 1555.49 Q1133.39 1557.6 1132.83 1560.32 L1129.23 1558.24 Q1129.92 1555.57 1130.75 1553.38 Q1131.6 1551.17 1132.63 1549.38 Q1135.29 1544.77 1138.95 1543.3 Q1142.58 1541.82 1146.15 1543.88 Q1148.64 1545.31 1149.54 1547.73 Q1150.42 1550.14 1149.57 1553.15 Z" fill="#000000" fill-rule="evenodd" fill-opacity="1" /><path clip-path="url(#clip120)" d="M1168.61 1545.67 L1171.05 1541.44 L1176.15 1544.38 L1173.7 1548.61 L1168.61 1545.67 Z" fill="#000000" fill-rule="evenodd" fill-opacity="1" /><path clip-path="url(#clip120)" d="M1158.97 1511.16 Q1157.17 1514.29 1159.34 1517.65 Q1161.51 1520.99 1167.68 1524.55 Q1173.84 1528.11 1177.83 1528.32 Q1181.81 1528.51 1183.61 1525.38 Q1185.43 1522.24 1183.26 1518.9 Q1181.09 1515.54 1174.94 1511.98 Q1168.76 1508.42 1164.78 1508.23 Q1160.79 1508.01 1158.97 1511.16 M1155.77 1509.31 Q1158.67 1504.28 1164.19 1503.93 Q1169.7 1503.56 1177.28 1507.93 Q1184.83 1512.3 1187.28 1517.27 Q1189.72 1522.2 1186.82 1527.24 Q1183.91 1532.27 1178.41 1532.64 Q1172.89 1532.98 1165.33 1528.62 Q1157.75 1524.25 1155.31 1519.31 Q1152.86 1514.34 1155.77 1509.31 Z" fill="#000000" fill-rule="evenodd" fill-opacity="1" /><path clip-path="url(#clip120)" d="M1198.16 1480.19 Q1195.58 1484.66 1195.6 1486.97 Q1195.63 1489.29 1198.1 1490.71 Q1200.06 1491.85 1201.96 1491.24 Q1203.86 1490.59 1205.14 1488.37 Q1206.92 1485.3 1205.81 1482.21 Q1204.71 1479.08 1201.1 1477 L1200.28 1476.52 L1198.16 1480.19 M1200.88 1471.95 L1213.69 1479.35 L1211.56 1483.04 L1208.15 1481.07 Q1209.47 1483.51 1209.36 1485.97 Q1209.24 1488.41 1207.66 1491.13 Q1205.67 1494.58 1202.57 1495.51 Q1199.46 1496.42 1196.21 1494.54 Q1192.42 1492.35 1191.95 1488.72 Q1191.5 1485.06 1194.4 1480.03 L1197.39 1474.85 L1197.03 1474.65 Q1194.48 1473.18 1192.13 1474.06 Q1189.76 1474.92 1188.02 1477.94 Q1186.9 1479.87 1186.31 1481.96 Q1185.72 1484.05 1185.67 1486.26 L1182.26 1484.3 Q1182.65 1481.82 1183.37 1479.7 Q1184.07 1477.56 1185.11 1475.76 Q1187.92 1470.88 1191.84 1469.94 Q1195.75 1468.99 1200.88 1471.95 Z" fill="#000000" fill-rule="evenodd" fill-opacity="1" /><path clip-path="url(#clip120)" d="M1315.77 1553.15 Q1318.07 1550.6 1320.98 1550.11 Q1323.89 1549.6 1326.78 1551.27 Q1331.21 1553.82 1331.87 1558.27 Q1332.54 1562.72 1329.3 1568.33 Q1328.21 1570.22 1326.67 1572 Q1325.17 1573.78 1323.2 1575.47 L1319.29 1573.22 Q1321.24 1572.1 1322.9 1570.38 Q1324.56 1568.67 1325.82 1566.48 Q1328.02 1562.68 1327.66 1559.82 Q1327.32 1556.95 1324.45 1555.29 Q1321.8 1553.77 1319.24 1554.78 Q1316.68 1555.75 1314.77 1559.06 L1312.75 1562.55 L1309.42 1560.63 L1311.53 1556.98 Q1313.26 1553.99 1312.99 1551.72 Q1312.7 1549.45 1310.45 1548.15 Q1308.15 1546.82 1305.98 1547.76 Q1303.8 1548.66 1302.04 1551.71 Q1301.08 1553.37 1300.34 1555.49 Q1299.6 1557.6 1299.04 1560.32 L1295.43 1558.24 Q1296.12 1555.57 1296.96 1553.38 Q1297.81 1551.17 1298.84 1549.38 Q1301.5 1544.77 1305.15 1543.3 Q1308.79 1541.82 1312.36 1543.88 Q1314.84 1545.31 1315.75 1547.73 Q1316.63 1550.14 1315.77 1553.15 Z" fill="#000000" fill-rule="evenodd" fill-opacity="1" /><path clip-path="url(#clip120)" d="M1334.82 1545.67 L1337.26 1541.44 L1342.35 1544.38 L1339.91 1548.61 L1334.82 1545.67 Z" fill="#000000" fill-rule="evenodd" fill-opacity="1" /><path clip-path="url(#clip120)" d="M1317.54 1518.24 L1326.72 1502.34 L1330.12 1504.31 L1323.09 1516.5 L1330.42 1520.74 Q1330.63 1519.68 1331 1518.72 Q1331.35 1517.74 1331.86 1516.86 Q1334.75 1511.85 1339.19 1510.51 Q1343.63 1509.17 1348.32 1511.87 Q1353.15 1514.66 1354.1 1519.22 Q1355.03 1523.77 1351.87 1529.24 Q1350.78 1531.12 1349.33 1532.9 Q1347.88 1534.66 1346.04 1536.38 L1341.97 1534.03 Q1343.99 1532.79 1345.58 1531.14 Q1347.18 1529.5 1348.41 1527.35 Q1350.42 1523.88 1349.76 1520.81 Q1349.11 1517.73 1345.98 1515.92 Q1342.85 1514.12 1339.86 1515.09 Q1336.86 1516.06 1334.86 1519.53 Q1333.92 1521.15 1333.35 1522.98 Q1332.78 1524.8 1332.57 1526.92 L1317.54 1518.24 Z" fill="#000000" fill-rule="evenodd" fill-opacity="1" /><path clip-path="url(#clip120)" d="M1364.36 1480.19 Q1361.78 1484.66 1361.81 1486.97 Q1361.84 1489.29 1364.3 1490.71 Q1366.27 1491.85 1368.17 1491.24 Q1370.07 1490.59 1371.35 1488.37 Q1373.12 1485.3 1372.02 1482.21 Q1370.91 1479.08 1367.3 1477 L1366.48 1476.52 L1364.36 1480.19 M1367.09 1471.95 L1379.9 1479.35 L1377.77 1483.04 L1374.36 1481.07 Q1375.68 1483.51 1375.57 1485.97 Q1375.44 1488.41 1373.87 1491.13 Q1371.88 1494.58 1368.77 1495.51 Q1365.66 1496.42 1362.41 1494.54 Q1358.62 1492.35 1358.16 1488.72 Q1357.7 1485.06 1360.61 1480.03 L1363.6 1474.85 L1363.23 1474.65 Q1360.69 1473.18 1358.33 1474.06 Q1355.97 1474.92 1354.22 1477.94 Q1353.11 1479.87 1352.52 1481.96 Q1351.93 1484.05 1351.88 1486.26 L1348.47 1484.3 Q1348.86 1481.82 1349.57 1479.7 Q1350.27 1477.56 1351.31 1475.76 Q1354.13 1470.88 1358.04 1469.94 Q1361.96 1468.99 1367.09 1471.95 Z" fill="#000000" fill-rule="evenodd" fill-opacity="1" /><path clip-path="url(#clip120)" d="M1471.06 1548.36 L1481.13 1567.81 L1487.03 1557.59 L1471.06 1548.36 M1466.92 1547.39 L1469.85 1542.3 L1489.36 1553.56 L1491.83 1549.29 L1495.19 1551.23 L1492.73 1555.5 L1499.78 1559.58 L1497.46 1563.61 L1490.4 1559.53 L1482.6 1573.04 L1478.69 1570.79 L1466.92 1547.39 Z" fill="#000000" fill-rule="evenodd" fill-opacity="1" /><path clip-path="url(#clip120)" d="M1501.02 1545.67 L1503.47 1541.44 L1508.56 1544.38 L1506.12 1548.61 L1501.02 1545.67 Z" fill="#000000" fill-rule="evenodd" fill-opacity="1" /><path clip-path="url(#clip120)" d="M1491.39 1511.16 Q1489.58 1514.29 1491.75 1517.65 Q1493.92 1520.99 1500.09 1524.55 Q1506.25 1528.11 1510.24 1528.32 Q1514.22 1528.51 1516.02 1525.38 Q1517.84 1522.24 1515.68 1518.9 Q1513.5 1515.54 1507.35 1511.98 Q1501.18 1508.42 1497.19 1508.23 Q1493.2 1508.01 1491.39 1511.16 M1488.18 1509.31 Q1491.08 1504.28 1496.6 1503.93 Q1502.11 1503.56 1509.69 1507.93 Q1517.25 1512.3 1519.7 1517.27 Q1522.14 1522.2 1519.23 1527.24 Q1516.33 1532.27 1510.82 1532.64 Q1505.3 1532.98 1497.74 1528.62 Q1490.17 1524.25 1487.72 1519.31 Q1485.27 1514.34 1488.18 1509.31 Z" fill="#000000" fill-rule="evenodd" fill-opacity="1" /><path clip-path="url(#clip120)" d="M1530.57 1480.19 Q1527.99 1484.66 1528.02 1486.97 Q1528.04 1489.29 1530.51 1490.71 Q1532.47 1491.85 1534.38 1491.24 Q1536.27 1490.59 1537.56 1488.37 Q1539.33 1485.3 1538.23 1482.21 Q1537.12 1479.08 1533.51 1477 L1532.69 1476.52 L1530.57 1480.19 M1533.29 1471.95 L1546.1 1479.35 L1543.97 1483.04 L1540.57 1481.07 Q1541.88 1483.51 1541.78 1485.97 Q1541.65 1488.41 1540.08 1491.13 Q1538.09 1494.58 1534.98 1495.51 Q1531.87 1496.42 1528.62 1494.54 Q1524.83 1492.35 1524.36 1488.72 Q1523.91 1485.06 1526.82 1480.03 L1529.8 1474.85 L1529.44 1474.65 Q1526.89 1473.18 1524.54 1474.06 Q1522.18 1474.92 1520.43 1477.94 Q1519.32 1479.87 1518.72 1481.96 Q1518.13 1484.05 1518.08 1486.26 L1514.67 1484.3 Q1515.06 1481.82 1515.78 1479.7 Q1516.48 1477.56 1517.52 1475.76 Q1520.33 1470.88 1524.25 1469.94 Q1528.16 1468.99 1533.29 1471.95 Z" fill="#000000" fill-rule="evenodd" fill-opacity="1" /><path clip-path="url(#clip120)" d="M1637.26 1548.36 L1647.34 1567.81 L1653.24 1557.59 L1637.26 1548.36 M1633.12 1547.39 L1636.06 1542.3 L1655.57 1553.56 L1658.03 1549.29 L1661.4 1551.23 L1658.93 1555.5 L1665.99 1559.58 L1663.66 1563.61 L1656.61 1559.53 L1648.81 1573.04 L1644.9 1570.79 L1633.12 1547.39 Z" fill="#000000" fill-rule="evenodd" fill-opacity="1" /><path clip-path="url(#clip120)" d="M1667.23 1545.67 L1669.67 1541.44 L1674.76 1544.38 L1672.32 1548.61 L1667.23 1545.67 Z" fill="#000000" fill-rule="evenodd" fill-opacity="1" /><path clip-path="url(#clip120)" d="M1649.95 1518.24 L1659.13 1502.34 L1662.54 1504.31 L1655.5 1516.5 L1662.84 1520.74 Q1663.04 1519.68 1663.41 1518.72 Q1663.76 1517.74 1664.27 1516.86 Q1667.17 1511.85 1671.6 1510.51 Q1676.04 1509.17 1680.73 1511.87 Q1685.56 1514.66 1686.51 1519.22 Q1687.44 1523.77 1684.28 1529.24 Q1683.19 1531.12 1681.74 1532.9 Q1680.29 1534.66 1678.45 1536.38 L1674.38 1534.03 Q1676.4 1532.79 1678 1531.14 Q1679.59 1529.5 1680.83 1527.35 Q1682.83 1523.88 1682.17 1520.81 Q1681.52 1517.73 1678.39 1515.92 Q1675.26 1514.12 1672.27 1515.09 Q1669.28 1516.06 1667.27 1519.53 Q1666.34 1521.15 1665.76 1522.98 Q1665.2 1524.8 1664.98 1526.92 L1649.95 1518.24 Z" fill="#000000" fill-rule="evenodd" fill-opacity="1" /><path clip-path="url(#clip120)" d="M1696.78 1480.19 Q1694.2 1484.66 1694.22 1486.97 Q1694.25 1489.29 1696.71 1490.71 Q1698.68 1491.85 1700.58 1491.24 Q1702.48 1490.59 1703.76 1488.37 Q1705.53 1485.3 1704.43 1482.21 Q1703.32 1479.08 1699.72 1477 L1698.89 1476.52 L1696.78 1480.19 M1699.5 1471.95 L1712.31 1479.35 L1710.18 1483.04 L1706.77 1481.07 Q1708.09 1483.51 1707.98 1485.97 Q1707.86 1488.41 1706.28 1491.13 Q1704.29 1494.58 1701.19 1495.51 Q1698.07 1496.42 1694.83 1494.54 Q1691.04 1492.35 1690.57 1488.72 Q1690.12 1485.06 1693.02 1480.03 L1696.01 1474.85 L1695.65 1474.65 Q1693.1 1473.18 1690.75 1474.06 Q1688.38 1474.92 1686.63 1477.94 Q1685.52 1479.87 1684.93 1481.96 Q1684.34 1484.05 1684.29 1486.26 L1680.88 1484.3 Q1681.27 1481.82 1681.99 1479.7 Q1682.68 1477.56 1683.73 1475.76 Q1686.54 1470.88 1690.45 1469.94 Q1694.37 1468.99 1699.5 1471.95 Z" fill="#000000" fill-rule="evenodd" fill-opacity="1" /><path clip-path="url(#clip120)" d="M1793.54 1557.41 L1802.72 1541.51 L1806.13 1543.48 L1799.09 1555.67 L1806.43 1559.91 Q1806.64 1558.85 1807 1557.89 Q1807.35 1556.91 1807.86 1556.03 Q1810.76 1551.02 1815.19 1549.68 Q1819.63 1548.34 1824.32 1551.05 Q1829.15 1553.83 1830.1 1558.39 Q1831.03 1562.94 1827.87 1568.41 Q1826.78 1570.3 1825.33 1572.08 Q1823.88 1573.83 1822.04 1575.55 L1817.97 1573.2 Q1819.99 1571.96 1821.59 1570.32 Q1823.18 1568.67 1824.42 1566.52 Q1826.42 1563.06 1825.76 1559.98 Q1825.11 1556.9 1821.98 1555.09 Q1818.85 1553.29 1815.86 1554.26 Q1812.87 1555.23 1810.87 1558.7 Q1809.93 1560.32 1809.35 1562.16 Q1808.79 1563.97 1808.58 1566.09 L1793.54 1557.41 Z" fill="#000000" fill-rule="evenodd" fill-opacity="1" /><path clip-path="url(#clip120)" d="M1833.44 1545.67 L1835.88 1541.44 L1840.97 1544.38 L1838.53 1548.61 L1833.44 1545.67 Z" fill="#000000" fill-rule="evenodd" fill-opacity="1" /><path clip-path="url(#clip120)" d="M1823.8 1511.16 Q1821.99 1514.29 1824.17 1517.65 Q1826.33 1520.99 1832.51 1524.55 Q1838.66 1528.11 1842.65 1528.32 Q1846.63 1528.51 1848.44 1525.38 Q1850.25 1522.24 1848.09 1518.9 Q1845.92 1515.54 1839.76 1511.98 Q1833.59 1508.42 1829.61 1508.23 Q1825.62 1508.01 1823.8 1511.16 M1820.59 1509.31 Q1823.5 1504.28 1829.01 1503.93 Q1834.52 1503.56 1842.1 1507.93 Q1849.66 1512.3 1852.11 1517.27 Q1854.55 1522.2 1851.64 1527.24 Q1848.74 1532.27 1843.23 1532.64 Q1837.71 1532.98 1830.16 1528.62 Q1822.58 1524.25 1820.14 1519.31 Q1817.69 1514.34 1820.59 1509.31 Z" fill="#000000" fill-rule="evenodd" fill-opacity="1" /><path clip-path="url(#clip120)" d="M1862.98 1480.19 Q1860.4 1484.66 1860.43 1486.97 Q1860.46 1489.29 1862.92 1490.71 Q1864.89 1491.85 1866.79 1491.24 Q1868.68 1490.59 1869.97 1488.37 Q1871.74 1485.3 1870.64 1482.21 Q1869.53 1479.08 1865.92 1477 L1865.1 1476.52 L1862.98 1480.19 M1865.71 1471.95 L1878.52 1479.35 L1876.39 1483.04 L1872.98 1481.07 Q1874.29 1483.51 1874.19 1485.97 Q1874.06 1488.41 1872.49 1491.13 Q1870.5 1494.58 1867.39 1495.51 Q1864.28 1496.42 1861.03 1494.54 Q1857.24 1492.35 1856.78 1488.72 Q1856.32 1485.06 1859.23 1480.03 L1862.21 1474.85 L1861.85 1474.65 Q1859.31 1473.18 1856.95 1474.06 Q1854.59 1474.92 1852.84 1477.94 Q1851.73 1479.87 1851.14 1481.96 Q1850.54 1484.05 1850.49 1486.26 L1847.09 1484.3 Q1847.47 1481.82 1848.19 1479.7 Q1848.89 1477.56 1849.93 1475.76 Q1852.74 1470.88 1856.66 1469.94 Q1860.57 1468.99 1865.71 1471.95 Z" fill="#000000" fill-rule="evenodd" fill-opacity="1" /><path clip-path="url(#clip120)" d="M1959.75 1557.41 L1968.92 1541.51 L1972.33 1543.48 L1965.3 1555.67 L1972.63 1559.91 Q1972.84 1558.85 1973.21 1557.89 Q1973.56 1556.91 1974.07 1556.03 Q1976.96 1551.02 1981.4 1549.68 Q1985.83 1548.34 1990.53 1551.05 Q1995.36 1553.83 1996.31 1558.39 Q1997.24 1562.94 1994.08 1568.41 Q1992.99 1570.3 1991.53 1572.08 Q1990.09 1573.83 1988.25 1575.55 L1984.18 1573.2 Q1986.2 1571.96 1987.79 1570.32 Q1989.38 1568.67 1990.62 1566.52 Q1992.63 1563.06 1991.97 1559.98 Q1991.31 1556.9 1988.19 1555.09 Q1985.06 1553.29 1982.07 1554.26 Q1979.07 1555.23 1977.07 1558.7 Q1976.13 1560.32 1975.56 1562.16 Q1974.99 1563.97 1974.78 1566.09 L1959.75 1557.41 Z" fill="#000000" fill-rule="evenodd" fill-opacity="1" /><path clip-path="url(#clip120)" d="M1999.64 1545.67 L2002.08 1541.44 L2007.18 1544.38 L2004.73 1548.61 L1999.64 1545.67 Z" fill="#000000" fill-rule="evenodd" fill-opacity="1" /><path clip-path="url(#clip120)" d="M1982.36 1518.24 L1991.54 1502.34 L1994.95 1504.31 L1987.91 1516.5 L1995.25 1520.74 Q1995.46 1519.68 1995.83 1518.72 Q1996.17 1517.74 1996.68 1516.86 Q1999.58 1511.85 2004.01 1510.51 Q2008.45 1509.17 2013.14 1511.87 Q2017.97 1514.66 2018.92 1519.22 Q2019.85 1523.77 2016.69 1529.24 Q2015.6 1531.12 2014.15 1532.9 Q2012.71 1534.66 2010.86 1536.38 L2006.79 1534.03 Q2008.82 1532.79 2010.41 1531.14 Q2012 1529.5 2013.24 1527.35 Q2015.24 1523.88 2014.59 1520.81 Q2013.93 1517.73 2010.8 1515.92 Q2007.68 1514.12 2004.68 1515.09 Q2001.69 1516.06 1999.69 1519.53 Q1998.75 1521.15 1998.17 1522.98 Q1997.61 1524.8 1997.4 1526.92 L1982.36 1518.24 Z" fill="#000000" fill-rule="evenodd" fill-opacity="1" /><path clip-path="url(#clip120)" d="M2029.19 1480.19 Q2026.61 1484.66 2026.63 1486.97 Q2026.66 1489.29 2029.13 1490.71 Q2031.09 1491.85 2033 1491.24 Q2034.89 1490.59 2036.17 1488.37 Q2037.95 1485.3 2036.85 1482.21 Q2035.74 1479.08 2032.13 1477 L2031.31 1476.52 L2029.19 1480.19 M2031.91 1471.95 L2044.72 1479.35 L2042.59 1483.04 L2039.18 1481.07 Q2040.5 1483.51 2040.39 1485.97 Q2040.27 1488.41 2038.69 1491.13 Q2036.7 1494.58 2033.6 1495.51 Q2030.49 1496.42 2027.24 1494.54 Q2023.45 1492.35 2022.98 1488.72 Q2022.53 1485.06 2025.43 1480.03 L2028.42 1474.85 L2028.06 1474.65 Q2025.51 1473.18 2023.16 1474.06 Q2020.79 1474.92 2019.05 1477.94 Q2017.93 1479.87 2017.34 1481.96 Q2016.75 1484.05 2016.7 1486.26 L2013.29 1484.3 Q2013.68 1481.82 2014.4 1479.7 Q2015.1 1477.56 2016.14 1475.76 Q2018.95 1470.88 2022.87 1469.94 Q2026.78 1468.99 2031.91 1471.95 Z" fill="#000000" fill-rule="evenodd" fill-opacity="1" /><path clip-path="url(#clip120)" d="M2144.57 1556 Q2143 1558.72 2143.93 1561.41 Q2144.88 1564.07 2148.13 1565.94 Q2151.36 1567.8 2154.16 1567.31 Q2156.95 1566.78 2158.52 1564.05 Q2160.1 1561.33 2159.15 1558.67 Q2158.19 1555.98 2154.96 1554.11 Q2151.71 1552.24 2148.92 1552.76 Q2146.14 1553.27 2144.57 1556 M2136.52 1540.63 L2140.21 1542.76 Q2138.61 1543.87 2137.33 1545.21 Q2136.05 1546.54 2135.17 1548.06 Q2132.86 1552.07 2134.34 1555.76 Q2135.83 1559.43 2141.13 1562.89 Q2140.07 1560.7 2140.17 1558.38 Q2140.26 1556.05 2141.5 1553.91 Q2144.11 1549.4 2148.36 1548.38 Q2152.6 1547.32 2157.31 1550.04 Q2161.92 1552.71 2163.13 1557.04 Q2164.35 1561.38 2161.73 1565.91 Q2158.73 1571.1 2153.18 1571.55 Q2147.6 1572 2140.04 1567.63 Q2132.95 1563.54 2130.68 1557.74 Q2128.4 1551.93 2131.67 1546.25 Q2132.55 1544.73 2133.74 1543.36 Q2134.95 1541.97 2136.52 1540.63 Z" fill="#000000" fill-rule="evenodd" fill-opacity="1" /><path clip-path="url(#clip120)" d="M2165.85 1545.67 L2168.29 1541.44 L2173.38 1544.38 L2170.94 1548.61 L2165.85 1545.67 Z" fill="#000000" fill-rule="evenodd" fill-opacity="1" /><path clip-path="url(#clip120)" d="M2156.21 1511.16 Q2154.41 1514.29 2156.58 1517.65 Q2158.74 1520.99 2164.92 1524.55 Q2171.07 1528.11 2175.06 1528.32 Q2179.04 1528.51 2180.85 1525.38 Q2182.67 1522.24 2180.5 1518.9 Q2178.33 1515.54 2172.17 1511.98 Q2166 1508.42 2162.02 1508.23 Q2158.03 1508.01 2156.21 1511.16 M2153 1509.31 Q2155.91 1504.28 2161.43 1503.93 Q2166.93 1503.56 2174.51 1507.93 Q2182.07 1512.3 2184.52 1517.27 Q2186.96 1522.2 2184.06 1527.24 Q2181.15 1532.27 2175.64 1532.64 Q2170.13 1532.98 2162.57 1528.62 Q2154.99 1524.25 2152.55 1519.31 Q2150.1 1514.34 2153 1509.31 Z" fill="#000000" fill-rule="evenodd" fill-opacity="1" /><path clip-path="url(#clip120)" d="M2195.39 1480.19 Q2192.81 1484.66 2192.84 1486.97 Q2192.87 1489.29 2195.33 1490.71 Q2197.3 1491.85 2199.2 1491.24 Q2201.1 1490.59 2202.38 1488.37 Q2204.15 1485.3 2203.05 1482.21 Q2201.94 1479.08 2198.33 1477 L2197.51 1476.52 L2195.39 1480.19 M2198.12 1471.95 L2210.93 1479.35 L2208.8 1483.04 L2205.39 1481.07 Q2206.71 1483.51 2206.6 1485.97 Q2206.48 1488.41 2204.9 1491.13 Q2202.91 1494.58 2199.81 1495.51 Q2196.69 1496.42 2193.44 1494.54 Q2189.66 1492.35 2189.19 1488.72 Q2188.73 1485.06 2191.64 1480.03 L2194.63 1474.85 L2194.26 1474.65 Q2191.72 1473.18 2189.36 1474.06 Q2187 1474.92 2185.25 1477.94 Q2184.14 1479.87 2183.55 1481.96 Q2182.96 1484.05 2182.91 1486.26 L2179.5 1484.3 Q2179.89 1481.82 2180.6 1479.7 Q2181.3 1477.56 2182.34 1475.76 Q2185.16 1470.88 2189.07 1469.94 Q2192.99 1468.99 2198.12 1471.95 Z" fill="#000000" fill-rule="evenodd" fill-opacity="1" /><polyline clip-path="url(#clip122)" style="stroke:#000000; stroke-linecap:butt; stroke-linejoin:round; stroke-width:2; stroke-opacity:0.1; fill:none" points="
  138.832,1399.17 2352.76,1399.17 
  "/>
<polyline clip-path="url(#clip122)" style="stroke:#000000; stroke-linecap:butt; stroke-linejoin:round; stroke-width:2; stroke-opacity:0.1; fill:none" points="
  138.832,1267.92 2352.76,1267.92 
  "/>
<polyline clip-path="url(#clip122)" style="stroke:#000000; stroke-linecap:butt; stroke-linejoin:round; stroke-width:2; stroke-opacity:0.1; fill:none" points="
  138.832,1136.66 2352.76,1136.66 
  "/>
<polyline clip-path="url(#clip122)" style="stroke:#000000; stroke-linecap:butt; stroke-linejoin:round; stroke-width:2; stroke-opacity:0.1; fill:none" points="
  138.832,1005.41 2352.76,1005.41 
  "/>
<polyline clip-path="url(#clip122)" style="stroke:#000000; stroke-linecap:butt; stroke-linejoin:round; stroke-width:2; stroke-opacity:0.1; fill:none" points="
  138.832,874.149 2352.76,874.149 
  "/>
<polyline clip-path="url(#clip122)" style="stroke:#000000; stroke-linecap:butt; stroke-linejoin:round; stroke-width:2; stroke-opacity:0.1; fill:none" points="
  138.832,742.893 2352.76,742.893 
  "/>
<polyline clip-path="url(#clip122)" style="stroke:#000000; stroke-linecap:butt; stroke-linejoin:round; stroke-width:2; stroke-opacity:0.1; fill:none" points="
  138.832,611.637 2352.76,611.637 
  "/>
<polyline clip-path="url(#clip122)" style="stroke:#000000; stroke-linecap:butt; stroke-linejoin:round; stroke-width:2; stroke-opacity:0.1; fill:none" points="
  138.832,480.381 2352.76,480.381 
  "/>
<polyline clip-path="url(#clip122)" style="stroke:#000000; stroke-linecap:butt; stroke-linejoin:round; stroke-width:2; stroke-opacity:0.1; fill:none" points="
  138.832,349.125 2352.76,349.125 
  "/>
<polyline clip-path="url(#clip122)" style="stroke:#000000; stroke-linecap:butt; stroke-linejoin:round; stroke-width:2; stroke-opacity:0.1; fill:none" points="
  138.832,217.868 2352.76,217.868 
  "/>
<polyline clip-path="url(#clip122)" style="stroke:#000000; stroke-linecap:butt; stroke-linejoin:round; stroke-width:2; stroke-opacity:0.1; fill:none" points="
  138.832,86.6123 2352.76,86.6123 
  "/>
<polyline clip-path="url(#clip120)" style="stroke:#000000; stroke-linecap:butt; stroke-linejoin:round; stroke-width:4; stroke-opacity:1; fill:none" points="
  138.832,1438.55 138.832,47.2441 
  "/>
<polyline clip-path="url(#clip120)" style="stroke:#000000; stroke-linecap:butt; stroke-linejoin:round; stroke-width:4; stroke-opacity:1; fill:none" points="
  138.832,1399.17 157.73,1399.17 
  "/>
<polyline clip-path="url(#clip120)" style="stroke:#000000; stroke-linecap:butt; stroke-linejoin:round; stroke-width:4; stroke-opacity:1; fill:none" points="
  138.832,1267.92 157.73,1267.92 
  "/>
<polyline clip-path="url(#clip120)" style="stroke:#000000; stroke-linecap:butt; stroke-linejoin:round; stroke-width:4; stroke-opacity:1; fill:none" points="
  138.832,1136.66 157.73,1136.66 
  "/>
<polyline clip-path="url(#clip120)" style="stroke:#000000; stroke-linecap:butt; stroke-linejoin:round; stroke-width:4; stroke-opacity:1; fill:none" points="
  138.832,1005.41 157.73,1005.41 
  "/>
<polyline clip-path="url(#clip120)" style="stroke:#000000; stroke-linecap:butt; stroke-linejoin:round; stroke-width:4; stroke-opacity:1; fill:none" points="
  138.832,874.149 157.73,874.149 
  "/>
<polyline clip-path="url(#clip120)" style="stroke:#000000; stroke-linecap:butt; stroke-linejoin:round; stroke-width:4; stroke-opacity:1; fill:none" points="
  138.832,742.893 157.73,742.893 
  "/>
<polyline clip-path="url(#clip120)" style="stroke:#000000; stroke-linecap:butt; stroke-linejoin:round; stroke-width:4; stroke-opacity:1; fill:none" points="
  138.832,611.637 157.73,611.637 
  "/>
<polyline clip-path="url(#clip120)" style="stroke:#000000; stroke-linecap:butt; stroke-linejoin:round; stroke-width:4; stroke-opacity:1; fill:none" points="
  138.832,480.381 157.73,480.381 
  "/>
<polyline clip-path="url(#clip120)" style="stroke:#000000; stroke-linecap:butt; stroke-linejoin:round; stroke-width:4; stroke-opacity:1; fill:none" points="
  138.832,349.125 157.73,349.125 
  "/>
<polyline clip-path="url(#clip120)" style="stroke:#000000; stroke-linecap:butt; stroke-linejoin:round; stroke-width:4; stroke-opacity:1; fill:none" points="
  138.832,217.868 157.73,217.868 
  "/>
<polyline clip-path="url(#clip120)" style="stroke:#000000; stroke-linecap:butt; stroke-linejoin:round; stroke-width:4; stroke-opacity:1; fill:none" points="
  138.832,86.6123 157.73,86.6123 
  "/>
<path clip-path="url(#clip120)" d="M77.3635 1452.65 L77.3635 1422.97 L81.2987 1422.97 L81.2987 1452.65 L77.3635 1452.65 Z" fill="#000000" fill-rule="evenodd" fill-opacity="1" /><path clip-path="url(#clip120)" d="M90.257 1412.07 L90.257 1404.43 L63.8914 1404.43 L65.558 1412.74 L61.2988 1412.74 L59.6321 1404.47 L59.6321 1399.8 L90.257 1399.8 L90.257 1392.16 L94.1921 1392.16 L94.1921 1412.07 L90.257 1412.07 Z" fill="#000000" fill-rule="evenodd" fill-opacity="1" /><path clip-path="url(#clip120)" d="M88.3125 1382.72 L88.3125 1377.83 L94.1921 1377.83 L94.1921 1382.72 L88.3125 1382.72 Z" fill="#000000" fill-rule="evenodd" fill-opacity="1" /><path clip-path="url(#clip120)" d="M62.7108 1357.65 Q62.7108 1361.26 66.2756 1363.09 Q69.8173 1364.89 76.9468 1364.89 Q84.0533 1364.89 87.6181 1363.09 Q91.1597 1361.26 91.1597 1357.65 Q91.1597 1354.01 87.6181 1352.21 Q84.0533 1350.38 76.9468 1350.38 Q69.8173 1350.38 66.2756 1352.21 Q62.7108 1354.01 62.7108 1357.65 M59.0071 1357.65 Q59.0071 1351.84 63.6136 1348.78 Q68.1969 1345.7 76.9468 1345.7 Q85.6737 1345.7 90.2801 1348.78 Q94.8634 1351.84 94.8634 1357.65 Q94.8634 1363.46 90.2801 1366.54 Q85.6737 1369.59 76.9468 1369.59 Q68.1969 1369.59 63.6136 1366.54 Q59.0071 1363.46 59.0071 1357.65 Z" fill="#000000" fill-rule="evenodd" fill-opacity="1" /><path clip-path="url(#clip120)" d="M77.3635 1321.34 L77.3635 1291.67 L81.2987 1291.67 L81.2987 1321.34 L77.3635 1321.34 Z" fill="#000000" fill-rule="evenodd" fill-opacity="1" /><path clip-path="url(#clip120)" d="M62.7108 1271.58 Q62.7108 1275.19 66.2756 1277.01 Q69.8173 1278.82 76.9468 1278.82 Q84.0533 1278.82 87.6181 1277.01 Q91.1597 1275.19 91.1597 1271.58 Q91.1597 1267.94 87.6181 1266.14 Q84.0533 1264.31 76.9468 1264.31 Q69.8173 1264.31 66.2756 1266.14 Q62.7108 1267.94 62.7108 1271.58 M59.0071 1271.58 Q59.0071 1265.77 63.6136 1262.71 Q68.1969 1259.63 76.9468 1259.63 Q85.6737 1259.63 90.2801 1262.71 Q94.8634 1265.77 94.8634 1271.58 Q94.8634 1277.39 90.2801 1280.46 Q85.6737 1283.52 76.9468 1283.52 Q68.1969 1283.52 63.6136 1280.46 Q59.0071 1277.39 59.0071 1271.58 Z" fill="#000000" fill-rule="evenodd" fill-opacity="1" /><path clip-path="url(#clip120)" d="M88.3125 1251.41 L88.3125 1246.53 L94.1921 1246.53 L94.1921 1251.41 L88.3125 1251.41 Z" fill="#000000" fill-rule="evenodd" fill-opacity="1" /><path clip-path="url(#clip120)" d="M77.7802 1226.34 Q77.7802 1229.68 79.5626 1231.6 Q81.345 1233.5 84.47 1233.5 Q87.5949 1233.5 89.3773 1231.6 Q91.1597 1229.68 91.1597 1226.34 Q91.1597 1223.01 89.3773 1221.09 Q87.5718 1219.17 84.47 1219.17 Q81.345 1219.17 79.5626 1221.09 Q77.7802 1222.99 77.7802 1226.34 M75.7894 1231.02 Q75.0487 1234.03 72.9885 1235.72 Q70.9284 1237.39 67.9654 1237.39 Q63.8219 1237.39 61.4145 1234.45 Q59.0071 1231.48 59.0071 1226.34 Q59.0071 1221.18 61.4145 1218.24 Q63.8219 1215.3 67.9654 1215.3 Q70.9284 1215.3 72.9885 1216.99 Q75.0487 1218.66 75.7894 1221.64 Q76.5765 1218.27 78.8681 1216.39 Q81.1598 1214.49 84.47 1214.49 Q89.4931 1214.49 92.1782 1217.57 Q94.8634 1220.63 94.8634 1226.34 Q94.8634 1232.06 92.1782 1235.14 Q89.4931 1238.2 84.47 1238.2 Q81.1598 1238.2 78.8681 1236.3 Q76.5765 1234.4 75.7894 1231.02 M68.4052 1232.73 Q71.0904 1232.73 72.595 1231.07 Q74.0996 1229.38 74.0996 1226.34 Q74.0996 1223.33 72.595 1221.64 Q71.0904 1219.93 68.4052 1219.93 Q65.7201 1219.93 64.2154 1221.64 Q62.7108 1223.33 62.7108 1226.34 Q62.7108 1229.38 64.2154 1231.07 Q65.7201 1232.73 68.4052 1232.73 Z" fill="#000000" fill-rule="evenodd" fill-opacity="1" /><path clip-path="url(#clip120)" d="M77.3635 1190.21 L77.3635 1160.54 L81.2987 1160.54 L81.2987 1190.21 L77.3635 1190.21 Z" fill="#000000" fill-rule="evenodd" fill-opacity="1" /><path clip-path="url(#clip120)" d="M62.7108 1140.45 Q62.7108 1144.06 66.2756 1145.89 Q69.8173 1147.69 76.9468 1147.69 Q84.0533 1147.69 87.6181 1145.89 Q91.1597 1144.06 91.1597 1140.45 Q91.1597 1136.81 87.6181 1135.01 Q84.0533 1133.18 76.9468 1133.18 Q69.8173 1133.18 66.2756 1135.01 Q62.7108 1136.81 62.7108 1140.45 M59.0071 1140.45 Q59.0071 1134.64 63.6136 1131.58 Q68.1969 1128.5 76.9468 1128.5 Q85.6737 1128.5 90.2801 1131.58 Q94.8634 1134.64 94.8634 1140.45 Q94.8634 1146.26 90.2801 1149.34 Q85.6737 1152.39 76.9468 1152.39 Q68.1969 1152.39 63.6136 1149.34 Q59.0071 1146.26 59.0071 1140.45 Z" fill="#000000" fill-rule="evenodd" fill-opacity="1" /><path clip-path="url(#clip120)" d="M88.3125 1120.28 L88.3125 1115.4 L94.1921 1115.4 L94.1921 1120.28 L88.3125 1120.28 Z" fill="#000000" fill-rule="evenodd" fill-opacity="1" /><path clip-path="url(#clip120)" d="M75.0487 1094.64 Q75.0487 1097.78 77.2015 1099.64 Q79.3542 1101.47 83.1042 1101.47 Q86.8311 1101.47 89.007 1099.64 Q91.1597 1097.78 91.1597 1094.64 Q91.1597 1091.49 89.007 1089.66 Q86.8311 1087.81 83.1042 1087.81 Q79.3542 1087.81 77.2015 1089.66 Q75.0487 1091.49 75.0487 1094.64 M60.396 1085.35 L64.6552 1085.35 Q63.8219 1087.11 63.3821 1088.92 Q62.9423 1090.7 62.9423 1092.46 Q62.9423 1097.09 66.0673 1099.54 Q69.1923 1101.97 75.5117 1102.32 Q73.4978 1100.96 72.433 1098.9 Q71.345 1096.84 71.345 1094.36 Q71.345 1089.15 74.5163 1086.14 Q77.6644 1083.11 83.1042 1083.11 Q88.4283 1083.11 91.6458 1086.26 Q94.8634 1089.4 94.8634 1094.64 Q94.8634 1100.63 90.2801 1103.8 Q85.6737 1106.97 76.9468 1106.97 Q68.7524 1106.97 63.8914 1103.09 Q59.0071 1099.2 59.0071 1092.65 Q59.0071 1090.89 59.3543 1089.1 Q59.7016 1087.3 60.396 1085.35 Z" fill="#000000" fill-rule="evenodd" fill-opacity="1" /><path clip-path="url(#clip120)" d="M77.3635 1059.12 L77.3635 1029.44 L81.2987 1029.44 L81.2987 1059.12 L77.3635 1059.12 Z" fill="#000000" fill-rule="evenodd" fill-opacity="1" /><path clip-path="url(#clip120)" d="M62.7108 1009.35 Q62.7108 1012.96 66.2756 1014.79 Q69.8173 1016.6 76.9468 1016.6 Q84.0533 1016.6 87.6181 1014.79 Q91.1597 1012.96 91.1597 1009.35 Q91.1597 1005.72 87.6181 1003.91 Q84.0533 1002.08 76.9468 1002.08 Q69.8173 1002.08 66.2756 1003.91 Q62.7108 1005.72 62.7108 1009.35 M59.0071 1009.35 Q59.0071 1003.54 63.6136 1000.49 Q68.1969 997.408 76.9468 997.408 Q85.6737 997.408 90.2801 1000.49 Q94.8634 1003.54 94.8634 1009.35 Q94.8634 1015.16 90.2801 1018.24 Q85.6737 1021.3 76.9468 1021.3 Q68.1969 1021.3 63.6136 1018.24 Q59.0071 1015.16 59.0071 1009.35 Z" fill="#000000" fill-rule="evenodd" fill-opacity="1" /><path clip-path="url(#clip120)" d="M88.3125 989.19 L88.3125 984.306 L94.1921 984.306 L94.1921 989.19 L88.3125 989.19 Z" fill="#000000" fill-rule="evenodd" fill-opacity="1" /><path clip-path="url(#clip120)" d="M63.7062 961.274 L82.1552 973.079 L82.1552 961.274 L63.7062 961.274 M59.6321 962.501 L59.6321 956.621 L82.1552 956.621 L82.1552 951.691 L86.044 951.691 L86.044 956.621 L94.1921 956.621 L94.1921 961.274 L86.044 961.274 L86.044 976.876 L81.5302 976.876 L59.6321 962.501 Z" fill="#000000" fill-rule="evenodd" fill-opacity="1" /><path clip-path="url(#clip120)" d="M77.3635 926.823 L77.3635 897.147 L81.2987 897.147 L81.2987 926.823 L77.3635 926.823 Z" fill="#000000" fill-rule="evenodd" fill-opacity="1" /><path clip-path="url(#clip120)" d="M62.7108 877.054 Q62.7108 880.665 66.2756 882.494 Q69.8173 884.3 76.9468 884.3 Q84.0533 884.3 87.6181 882.494 Q91.1597 880.665 91.1597 877.054 Q91.1597 873.42 87.6181 871.615 Q84.0533 869.786 76.9468 869.786 Q69.8173 869.786 66.2756 871.615 Q62.7108 873.42 62.7108 877.054 M59.0071 877.054 Q59.0071 871.244 63.6136 868.189 Q68.1969 865.11 76.9468 865.11 Q85.6737 865.11 90.2801 868.189 Q94.8634 871.244 94.8634 877.054 Q94.8634 882.865 90.2801 885.943 Q85.6737 888.999 76.9468 888.999 Q68.1969 888.999 63.6136 885.943 Q59.0071 882.865 59.0071 877.054 Z" fill="#000000" fill-rule="evenodd" fill-opacity="1" /><path clip-path="url(#clip120)" d="M88.3125 856.892 L88.3125 852.008 L94.1921 852.008 L94.1921 856.892 L88.3125 856.892 Z" fill="#000000" fill-rule="evenodd" fill-opacity="1" /><path clip-path="url(#clip120)" d="M90.257 837.795 L90.257 821.476 L94.1921 821.476 L94.1921 843.42 L90.257 843.42 Q87.5023 840.758 82.8727 836.175 Q78.22 831.569 76.8774 830.388 Q74.3543 828.143 72.6182 827.263 Q70.8589 826.36 69.1691 826.36 Q66.4145 826.36 64.6784 828.305 Q62.9423 830.226 62.9423 833.328 Q62.9423 835.527 63.7062 837.981 Q64.4701 840.411 66.021 843.189 L61.2988 843.189 Q60.1645 840.365 59.5858 837.911 Q59.0071 835.457 59.0071 833.42 Q59.0071 828.05 61.6923 824.856 Q64.3775 821.661 68.8682 821.661 Q70.9978 821.661 72.9191 822.471 Q74.8172 823.258 77.4098 825.365 Q78.0811 825.944 81.2987 829.045 Q84.4931 832.147 90.257 837.795 Z" fill="#000000" fill-rule="evenodd" fill-opacity="1" /><path clip-path="url(#clip120)" d="M62.7108 765.509 Q62.7108 769.12 66.2756 770.949 Q69.8173 772.754 76.9468 772.754 Q84.0533 772.754 87.6181 770.949 Q91.1597 769.12 91.1597 765.509 Q91.1597 761.875 87.6181 760.069 Q84.0533 758.24 76.9468 758.24 Q69.8173 758.24 66.2756 760.069 Q62.7108 761.875 62.7108 765.509 M59.0071 765.509 Q59.0071 759.699 63.6136 756.643 Q68.1969 753.564 76.9468 753.564 Q85.6737 753.564 90.2801 756.643 Q94.8634 759.699 94.8634 765.509 Q94.8634 771.319 90.2801 774.398 Q85.6737 777.453 76.9468 777.453 Q68.1969 777.453 63.6136 774.398 Q59.0071 771.319 59.0071 765.509 Z" fill="#000000" fill-rule="evenodd" fill-opacity="1" /><path clip-path="url(#clip120)" d="M88.3125 745.347 L88.3125 740.463 L94.1921 740.463 L94.1921 745.347 L88.3125 745.347 Z" fill="#000000" fill-rule="evenodd" fill-opacity="1" /><path clip-path="url(#clip120)" d="M62.7108 720.278 Q62.7108 723.889 66.2756 725.717 Q69.8173 727.523 76.9468 727.523 Q84.0533 727.523 87.6181 725.717 Q91.1597 723.889 91.1597 720.278 Q91.1597 716.643 87.6181 714.838 Q84.0533 713.009 76.9468 713.009 Q69.8173 713.009 66.2756 714.838 Q62.7108 716.643 62.7108 720.278 M59.0071 720.278 Q59.0071 714.467 63.6136 711.412 Q68.1969 708.333 76.9468 708.333 Q85.6737 708.333 90.2801 711.412 Q94.8634 714.467 94.8634 720.278 Q94.8634 726.088 90.2801 729.166 Q85.6737 732.222 76.9468 732.222 Q68.1969 732.222 63.6136 729.166 Q59.0071 726.088 59.0071 720.278 Z" fill="#000000" fill-rule="evenodd" fill-opacity="1" /><path clip-path="url(#clip120)" d="M62.7108 633.454 Q62.7108 637.065 66.2756 638.894 Q69.8173 640.699 76.9468 640.699 Q84.0533 640.699 87.6181 638.894 Q91.1597 637.065 91.1597 633.454 Q91.1597 629.82 87.6181 628.014 Q84.0533 626.186 76.9468 626.186 Q69.8173 626.186 66.2756 628.014 Q62.7108 629.82 62.7108 633.454 M59.0071 633.454 Q59.0071 627.644 63.6136 624.588 Q68.1969 621.51 76.9468 621.51 Q85.6737 621.51 90.2801 624.588 Q94.8634 627.644 94.8634 633.454 Q94.8634 639.264 90.2801 642.343 Q85.6737 645.398 76.9468 645.398 Q68.1969 645.398 63.6136 642.343 Q59.0071 639.264 59.0071 633.454 Z" fill="#000000" fill-rule="evenodd" fill-opacity="1" /><path clip-path="url(#clip120)" d="M88.3125 613.292 L88.3125 608.408 L94.1921 608.408 L94.1921 613.292 L88.3125 613.292 Z" fill="#000000" fill-rule="evenodd" fill-opacity="1" /><path clip-path="url(#clip120)" d="M90.257 594.195 L90.257 577.876 L94.1921 577.876 L94.1921 599.82 L90.257 599.82 Q87.5023 597.158 82.8727 592.575 Q78.22 587.968 76.8774 586.788 Q74.3543 584.542 72.6182 583.663 Q70.8589 582.76 69.1691 582.76 Q66.4145 582.76 64.6784 584.704 Q62.9423 586.626 62.9423 589.727 Q62.9423 591.926 63.7062 594.38 Q64.4701 596.811 66.021 599.588 L61.2988 599.588 Q60.1645 596.764 59.5858 594.311 Q59.0071 591.857 59.0071 589.82 Q59.0071 584.45 61.6923 581.255 Q64.3775 578.061 68.8682 578.061 Q70.9978 578.061 72.9191 578.871 Q74.8172 579.658 77.4098 581.764 Q78.0811 582.343 81.2987 585.445 Q84.4931 588.547 90.257 594.195 Z" fill="#000000" fill-rule="evenodd" fill-opacity="1" /><path clip-path="url(#clip120)" d="M62.7108 503.24 Q62.7108 506.851 66.2756 508.679 Q69.8173 510.485 76.9468 510.485 Q84.0533 510.485 87.6181 508.679 Q91.1597 506.851 91.1597 503.24 Q91.1597 499.605 87.6181 497.8 Q84.0533 495.971 76.9468 495.971 Q69.8173 495.971 66.2756 497.8 Q62.7108 499.605 62.7108 503.24 M59.0071 503.24 Q59.0071 497.429 63.6136 494.374 Q68.1969 491.295 76.9468 491.295 Q85.6737 491.295 90.2801 494.374 Q94.8634 497.429 94.8634 503.24 Q94.8634 509.05 90.2801 512.128 Q85.6737 515.184 76.9468 515.184 Q68.1969 515.184 63.6136 512.128 Q59.0071 509.05 59.0071 503.24 Z" fill="#000000" fill-rule="evenodd" fill-opacity="1" /><path clip-path="url(#clip120)" d="M88.3125 483.078 L88.3125 478.193 L94.1921 478.193 L94.1921 483.078 L88.3125 483.078 Z" fill="#000000" fill-rule="evenodd" fill-opacity="1" /><path clip-path="url(#clip120)" d="M63.7062 455.161 L82.1552 466.967 L82.1552 455.161 L63.7062 455.161 M59.6321 456.388 L59.6321 450.508 L82.1552 450.508 L82.1552 445.578 L86.044 445.578 L86.044 450.508 L94.1921 450.508 L94.1921 455.161 L86.044 455.161 L86.044 470.763 L81.5302 470.763 L59.6321 456.388 Z" fill="#000000" fill-rule="evenodd" fill-opacity="1" /><path clip-path="url(#clip120)" d="M62.7108 371.821 Q62.7108 375.432 66.2756 377.261 Q69.8173 379.067 76.9468 379.067 Q84.0533 379.067 87.6181 377.261 Q91.1597 375.432 91.1597 371.821 Q91.1597 368.187 87.6181 366.382 Q84.0533 364.553 76.9468 364.553 Q69.8173 364.553 66.2756 366.382 Q62.7108 368.187 62.7108 371.821 M59.0071 371.821 Q59.0071 366.011 63.6136 362.956 Q68.1969 359.877 76.9468 359.877 Q85.6737 359.877 90.2801 362.956 Q94.8634 366.011 94.8634 371.821 Q94.8634 377.631 90.2801 380.71 Q85.6737 383.766 76.9468 383.766 Q68.1969 383.766 63.6136 380.71 Q59.0071 377.631 59.0071 371.821 Z" fill="#000000" fill-rule="evenodd" fill-opacity="1" /><path clip-path="url(#clip120)" d="M88.3125 351.659 L88.3125 346.775 L94.1921 346.775 L94.1921 351.659 L88.3125 351.659 Z" fill="#000000" fill-rule="evenodd" fill-opacity="1" /><path clip-path="url(#clip120)" d="M75.0487 326.011 Q75.0487 329.159 77.2015 331.011 Q79.3542 332.84 83.1042 332.84 Q86.8311 332.84 89.007 331.011 Q91.1597 329.159 91.1597 326.011 Q91.1597 322.863 89.007 321.035 Q86.8311 319.183 83.1042 319.183 Q79.3542 319.183 77.2015 321.035 Q75.0487 322.863 75.0487 326.011 M60.396 316.729 L64.6552 316.729 Q63.8219 318.488 63.3821 320.294 Q62.9423 322.076 62.9423 323.835 Q62.9423 328.465 66.0673 330.919 Q69.1923 333.349 75.5117 333.697 Q73.4978 332.331 72.433 330.271 Q71.345 328.21 71.345 325.734 Q71.345 320.525 74.5163 317.516 Q77.6644 314.484 83.1042 314.484 Q88.4283 314.484 91.6458 317.632 Q94.8634 320.78 94.8634 326.011 Q94.8634 332.007 90.2801 335.178 Q85.6737 338.349 76.9468 338.349 Q68.7524 338.349 63.8914 334.46 Q59.0071 330.572 59.0071 324.021 Q59.0071 322.261 59.3543 320.479 Q59.7016 318.673 60.396 316.729 Z" fill="#000000" fill-rule="evenodd" fill-opacity="1" /><path clip-path="url(#clip120)" d="M62.7108 240.438 Q62.7108 244.049 66.2756 245.878 Q69.8173 247.683 76.9468 247.683 Q84.0533 247.683 87.6181 245.878 Q91.1597 244.049 91.1597 240.438 Q91.1597 236.804 87.6181 234.998 Q84.0533 233.169 76.9468 233.169 Q69.8173 233.169 66.2756 234.998 Q62.7108 236.804 62.7108 240.438 M59.0071 240.438 Q59.0071 234.628 63.6136 231.572 Q68.1969 228.493 76.9468 228.493 Q85.6737 228.493 90.2801 231.572 Q94.8634 234.628 94.8634 240.438 Q94.8634 246.248 90.2801 249.327 Q85.6737 252.382 76.9468 252.382 Q68.1969 252.382 63.6136 249.327 Q59.0071 246.248 59.0071 240.438 Z" fill="#000000" fill-rule="evenodd" fill-opacity="1" /><path clip-path="url(#clip120)" d="M88.3125 220.276 L88.3125 215.392 L94.1921 215.392 L94.1921 220.276 L88.3125 220.276 Z" fill="#000000" fill-rule="evenodd" fill-opacity="1" /><path clip-path="url(#clip120)" d="M77.7802 195.207 Q77.7802 198.54 79.5626 200.461 Q81.345 202.359 84.47 202.359 Q87.5949 202.359 89.3773 200.461 Q91.1597 198.54 91.1597 195.207 Q91.1597 191.873 89.3773 189.952 Q87.5718 188.031 84.47 188.031 Q81.345 188.031 79.5626 189.952 Q77.7802 191.85 77.7802 195.207 M75.7894 199.882 Q75.0487 202.892 72.9885 204.582 Q70.9284 206.248 67.9654 206.248 Q63.8219 206.248 61.4145 203.308 Q59.0071 200.345 59.0071 195.207 Q59.0071 190.045 61.4145 187.105 Q63.8219 184.165 67.9654 184.165 Q70.9284 184.165 72.9885 185.855 Q75.0487 187.521 75.7894 190.508 Q76.5765 187.128 78.8681 185.253 Q81.1598 183.355 84.47 183.355 Q89.4931 183.355 92.1782 186.433 Q94.8634 189.489 94.8634 195.207 Q94.8634 200.924 92.1782 204.003 Q89.4931 207.058 84.47 207.058 Q81.1598 207.058 78.8681 205.16 Q76.5765 203.262 75.7894 199.882 M68.4052 201.595 Q71.0904 201.595 72.595 199.929 Q74.0996 198.239 74.0996 195.207 Q74.0996 192.197 72.595 190.508 Q71.0904 188.795 68.4052 188.795 Q65.7201 188.795 64.2154 190.508 Q62.7108 192.197 62.7108 195.207 Q62.7108 198.239 64.2154 199.929 Q65.7201 201.595 68.4052 201.595 Z" fill="#000000" fill-rule="evenodd" fill-opacity="1" /><path clip-path="url(#clip120)" d="M90.257 119.459 L90.257 111.821 L63.8914 111.821 L65.558 120.131 L61.2988 120.131 L59.6321 111.867 L59.6321 107.191 L90.257 107.191 L90.257 99.5521 L94.1921 99.5521 L94.1921 119.459 L90.257 119.459 Z" fill="#000000" fill-rule="evenodd" fill-opacity="1" /><path clip-path="url(#clip120)" d="M88.3125 90.1077 L88.3125 85.2234 L94.1921 85.2234 L94.1921 90.1077 L88.3125 90.1077 Z" fill="#000000" fill-rule="evenodd" fill-opacity="1" /><path clip-path="url(#clip120)" d="M62.7108 65.0384 Q62.7108 68.6495 66.2756 70.4782 Q69.8173 72.2837 76.9468 72.2837 Q84.0533 72.2837 87.6181 70.4782 Q91.1597 68.6495 91.1597 65.0384 Q91.1597 61.4041 87.6181 59.5986 Q84.0533 57.7699 76.9468 57.7699 Q69.8173 57.7699 66.2756 59.5986 Q62.7108 61.4041 62.7108 65.0384 M59.0071 65.0384 Q59.0071 59.2282 63.6136 56.1727 Q68.1969 53.094 76.9468 53.094 Q85.6737 53.094 90.2801 56.1727 Q94.8634 59.2282 94.8634 65.0384 Q94.8634 70.8485 90.2801 73.9272 Q85.6737 76.9828 76.9468 76.9828 Q68.1969 76.9828 63.6136 73.9272 Q59.0071 70.8485 59.0071 65.0384 Z" fill="#000000" fill-rule="evenodd" fill-opacity="1" /><polyline clip-path="url(#clip122)" style="stroke:#009af9; stroke-linecap:butt; stroke-linejoin:round; stroke-width:4; stroke-opacity:1; fill:none" points="
  201.49,742.893 208.289,729.471 215.088,716.054 246.522,654.26 277.955,593.257 309.388,533.592 340.821,475.797 359.711,442.18 378.601,409.534 397.491,377.964 
  416.381,347.573 432.353,322.869 448.324,299.135 464.295,276.425 480.267,254.791 497.616,232.57 514.965,211.738 532.315,192.352 549.664,174.466 565.658,159.347 
  581.653,145.579 597.648,133.193 613.642,122.219 630.79,112.049 647.938,103.558 665.086,96.7686 682.233,91.6978 702.101,87.9899 721.968,86.6207 741.836,87.5951 
  761.703,90.9096 779.359,95.8096 797.015,102.535 814.671,111.066 832.326,121.379 847.809,131.867 863.292,143.68 878.774,156.792 894.257,171.176 911.137,188.27 
  928.017,206.794 944.897,226.7 961.777,247.937 978.758,270.587 995.738,294.47 1012.72,319.522 1029.7,345.679 1048.47,375.802 1067.25,407.096 1086.02,439.461 
  1104.8,472.793 1140.52,538.512 1176.25,606.588 1250.54,752.267 1313.08,874.834 1351.26,947.636 1389.44,1017.74 1406.92,1048.7 1424.41,1078.8 1441.89,1107.98 
  1459.38,1136.15 1475.53,1161.21 1491.68,1185.27 1507.83,1208.29 1523.98,1230.21 1540.34,1251.25 1556.7,1271.05 1573.06,1289.58 1589.42,1306.78 1607.75,1324.43 
  1626.09,1340.31 1644.42,1354.38 1662.75,1366.59 1679.37,1376.01 1695.98,1383.85 1712.6,1390.1 1729.21,1394.72 1748.23,1398.02 1767.25,1399.17 1786.27,1398.18 
  1805.3,1395.04 1822.91,1390.22 1840.52,1383.59 1858.13,1375.17 1875.74,1364.97 1893.11,1353.2 1910.47,1339.77 1927.84,1324.71 1945.2,1308.06 1962.06,1290.42 
  1978.92,1271.38 1995.78,1250.97 2012.63,1229.26 2029.92,1205.7 2047.2,1180.9 2064.48,1154.91 2081.76,1127.8 2100.7,1096.92 2119.63,1064.88 2138.57,1031.8 
  2157.5,997.788 2212.51,894.679 2267.53,787.422 2278.81,765.17 2290.1,742.893 
  "/>
<path clip-path="url(#clip120)" d="
M1980.54 197.301 L2278.96 197.301 L2278.96 93.6209 L1980.54 93.6209  Z
  " fill="#ffffff" fill-rule="evenodd" fill-opacity="1"/>
<polyline clip-path="url(#clip120)" style="stroke:#000000; stroke-linecap:butt; stroke-linejoin:round; stroke-width:4; stroke-opacity:1; fill:none" points="
  1980.54,197.301 2278.96,197.301 2278.96,93.6209 1980.54,93.6209 1980.54,197.301 
  "/>
<polyline clip-path="url(#clip120)" style="stroke:#009af9; stroke-linecap:butt; stroke-linejoin:round; stroke-width:4; stroke-opacity:1; fill:none" points="
  2005.14,145.461 2152.73,145.461 
  "/>
<path clip-path="url(#clip120)" d="M2191.17 165.148 Q2189.37 169.778 2187.65 171.19 Q2185.94 172.602 2183.07 172.602 L2179.67 172.602 L2179.67 169.037 L2182.17 169.037 Q2183.93 169.037 2184.9 168.204 Q2185.87 167.371 2187.05 164.269 L2187.82 162.324 L2177.33 136.815 L2181.84 136.815 L2189.95 157.093 L2198.05 136.815 L2202.56 136.815 L2191.17 165.148 Z" fill="#000000" fill-rule="evenodd" fill-opacity="1" /><path clip-path="url(#clip120)" d="M2209.85 158.806 L2217.49 158.806 L2217.49 132.44 L2209.18 134.107 L2209.18 129.848 L2217.45 128.181 L2222.12 128.181 L2222.12 158.806 L2229.76 158.806 L2229.76 162.741 L2209.85 162.741 L2209.85 158.806 Z" fill="#000000" fill-rule="evenodd" fill-opacity="1" /></svg>
