<?xml version="1.0" encoding="utf-8"?>
<svg xmlns="http://www.w3.org/2000/svg" xmlns:xlink="http://www.w3.org/1999/xlink" width="600" height="400" viewBox="0 0 2400 1600">
<defs>
  <clipPath id="clip240">
    <rect x="0" y="0" width="2400" height="1600"/>
  </clipPath>
</defs>
<path clip-path="url(#clip240)" d="
M0 1600 L2400 1600 L2400 0 L0 0  Z
  " fill="#ffffff" fill-rule="evenodd" fill-opacity="1"/>
<defs>
  <clipPath id="clip241">
    <rect x="480" y="0" width="1681" height="1600"/>
  </clipPath>
</defs>
<path clip-path="url(#clip240)" d="
M148.867 1474.16 L2352.76 1474.16 L2352.76 123.472 L148.867 123.472  Z
  " fill="#ffffff" fill-rule="evenodd" fill-opacity="1"/>
<defs>
  <clipPath id="clip242">
    <rect x="148" y="123" width="2205" height="1352"/>
  </clipPath>
</defs>
<polyline clip-path="url(#clip242)" style="stroke:#000000; stroke-linecap:butt; stroke-linejoin:round; stroke-width:2; stroke-opacity:0.1; fill:none" points="
  904.288,1474.16 904.288,123.472 
  "/>
<polyline clip-path="url(#clip242)" style="stroke:#000000; stroke-linecap:butt; stroke-linejoin:round; stroke-width:2; stroke-opacity:0.1; fill:none" points="
  1943.86,1474.16 1943.86,123.472 
  "/>
<polyline clip-path="url(#clip240)" style="stroke:#000000; stroke-linecap:butt; stroke-linejoin:round; stroke-width:4; stroke-opacity:1; fill:none" points="
  148.867,1474.16 2352.76,1474.16 
  "/>
<polyline clip-path="url(#clip240)" style="stroke:#000000; stroke-linecap:butt; stroke-linejoin:round; stroke-width:4; stroke-opacity:1; fill:none" points="
  904.288,1474.16 904.288,1455.27 
  "/>
<polyline clip-path="url(#clip240)" style="stroke:#000000; stroke-linecap:butt; stroke-linejoin:round; stroke-width:4; stroke-opacity:1; fill:none" points="
  1943.86,1474.16 1943.86,1455.27 
  "/>
<path clip-path="url(#clip240)" d="M854.168 1548.29 L861.807 1548.29 L861.807 1521.92 L853.497 1523.59 L853.497 1519.33 L861.761 1517.66 L866.437 1517.66 L866.437 1548.29 L874.075 1548.29 L874.075 1552.22 L854.168 1552.22 L854.168 1548.29 Z" fill="#000000" fill-rule="evenodd" fill-opacity="1" /><path clip-path="url(#clip240)" d="M893.52 1520.74 Q889.909 1520.74 888.08 1524.31 Q886.274 1527.85 886.274 1534.98 Q886.274 1542.09 888.08 1545.65 Q889.909 1549.19 893.52 1549.19 Q897.154 1549.19 898.96 1545.65 Q900.788 1542.09 900.788 1534.98 Q900.788 1527.85 898.96 1524.31 Q897.154 1520.74 893.52 1520.74 M893.52 1517.04 Q899.33 1517.04 902.385 1521.65 Q905.464 1526.23 905.464 1534.98 Q905.464 1543.71 902.385 1548.31 Q899.33 1552.9 893.52 1552.9 Q887.71 1552.9 884.631 1548.31 Q881.575 1543.71 881.575 1534.98 Q881.575 1526.23 884.631 1521.65 Q887.71 1517.04 893.52 1517.04 Z" fill="#000000" fill-rule="evenodd" fill-opacity="1" /><path clip-path="url(#clip240)" d="M905.464 1511.14 L929.576 1511.14 L929.576 1514.34 L905.464 1514.34 L905.464 1511.14 Z" fill="#000000" fill-rule="evenodd" fill-opacity="1" /><path clip-path="url(#clip240)" d="M949.286 1509.67 Q952.013 1510.26 953.537 1512.1 Q955.079 1513.94 955.079 1516.65 Q955.079 1520.81 952.22 1523.08 Q949.361 1525.36 944.095 1525.36 Q942.327 1525.36 940.447 1525 Q938.585 1524.66 936.591 1523.97 L936.591 1520.3 Q938.171 1521.22 940.052 1521.69 Q941.932 1522.16 943.982 1522.16 Q947.556 1522.16 949.418 1520.75 Q951.299 1519.34 951.299 1516.65 Q951.299 1514.17 949.55 1512.78 Q947.819 1511.37 944.716 1511.37 L941.443 1511.37 L941.443 1508.24 L944.866 1508.24 Q947.669 1508.24 949.155 1507.13 Q950.64 1506.01 950.64 1503.9 Q950.64 1501.74 949.098 1500.59 Q947.575 1499.42 944.716 1499.42 Q943.155 1499.42 941.368 1499.76 Q939.581 1500.1 937.437 1500.82 L937.437 1497.43 Q939.6 1496.83 941.481 1496.53 Q943.381 1496.23 945.054 1496.23 Q949.38 1496.23 951.9 1498.2 Q954.421 1500.16 954.421 1503.51 Q954.421 1505.84 953.085 1507.45 Q951.75 1509.05 949.286 1509.67 Z" fill="#000000" fill-rule="evenodd" fill-opacity="1" /><path clip-path="url(#clip240)" d="M1908.84 1548.29 L1916.48 1548.29 L1916.48 1521.92 L1908.17 1523.59 L1908.17 1519.33 L1916.43 1517.66 L1921.11 1517.66 L1921.11 1548.29 L1928.75 1548.29 L1928.75 1552.22 L1908.84 1552.22 L1908.84 1548.29 Z" fill="#000000" fill-rule="evenodd" fill-opacity="1" /><path clip-path="url(#clip240)" d="M1948.19 1520.74 Q1944.58 1520.74 1942.75 1524.31 Q1940.95 1527.85 1940.95 1534.98 Q1940.95 1542.09 1942.75 1545.65 Q1944.58 1549.19 1948.19 1549.19 Q1951.83 1549.19 1953.63 1545.65 Q1955.46 1542.09 1955.46 1534.98 Q1955.46 1527.85 1953.63 1524.31 Q1951.83 1520.74 1948.19 1520.74 M1948.19 1517.04 Q1954 1517.04 1957.06 1521.65 Q1960.14 1526.23 1960.14 1534.98 Q1960.14 1543.71 1957.06 1548.31 Q1954 1552.9 1948.19 1552.9 Q1942.38 1552.9 1939.3 1548.31 Q1936.25 1543.71 1936.25 1534.98 Q1936.25 1526.23 1939.3 1521.65 Q1942.38 1517.04 1948.19 1517.04 Z" fill="#000000" fill-rule="evenodd" fill-opacity="1" /><path clip-path="url(#clip240)" d="M1969.84 1499.24 Q1966.91 1499.24 1965.42 1502.13 Q1963.96 1505.01 1963.96 1510.8 Q1963.96 1516.58 1965.42 1519.47 Q1966.91 1522.35 1969.84 1522.35 Q1972.79 1522.35 1974.26 1519.47 Q1975.75 1516.58 1975.75 1510.8 Q1975.75 1505.01 1974.26 1502.13 Q1972.79 1499.24 1969.84 1499.24 M1969.84 1496.23 Q1974.56 1496.23 1977.05 1499.97 Q1979.55 1503.69 1979.55 1510.8 Q1979.55 1517.89 1977.05 1521.64 Q1974.56 1525.36 1969.84 1525.36 Q1965.12 1525.36 1962.62 1521.64 Q1960.14 1517.89 1960.14 1510.8 Q1960.14 1503.69 1962.62 1499.97 Q1965.12 1496.23 1969.84 1496.23 Z" fill="#000000" fill-rule="evenodd" fill-opacity="1" /><polyline clip-path="url(#clip242)" style="stroke:#000000; stroke-linecap:butt; stroke-linejoin:round; stroke-width:2; stroke-opacity:0.1; fill:none" points="
  148.867,1204.16 2352.76,1204.16 
  "/>
<polyline clip-path="url(#clip242)" style="stroke:#000000; stroke-linecap:butt; stroke-linejoin:round; stroke-width:2; stroke-opacity:0.1; fill:none" points="
  148.867,927.467 2352.76,927.467 
  "/>
<polyline clip-path="url(#clip242)" style="stroke:#000000; stroke-linecap:butt; stroke-linejoin:round; stroke-width:2; stroke-opacity:0.1; fill:none" points="
  148.867,650.77 2352.76,650.77 
  "/>
<polyline clip-path="url(#clip242)" style="stroke:#000000; stroke-linecap:butt; stroke-linejoin:round; stroke-width:2; stroke-opacity:0.1; fill:none" points="
  148.867,374.072 2352.76,374.072 
  "/>
<polyline clip-path="url(#clip240)" style="stroke:#000000; stroke-linecap:butt; stroke-linejoin:round; stroke-width:4; stroke-opacity:1; fill:none" points="
  148.867,1474.16 148.867,123.472 
  "/>
<polyline clip-path="url(#clip240)" style="stroke:#000000; stroke-linecap:butt; stroke-linejoin:round; stroke-width:4; stroke-opacity:1; fill:none" points="
  148.867,1204.16 167.764,1204.16 
  "/>
<polyline clip-path="url(#clip240)" style="stroke:#000000; stroke-linecap:butt; stroke-linejoin:round; stroke-width:4; stroke-opacity:1; fill:none" points="
  148.867,927.467 167.764,927.467 
  "/>
<polyline clip-path="url(#clip240)" style="stroke:#000000; stroke-linecap:butt; stroke-linejoin:round; stroke-width:4; stroke-opacity:1; fill:none" points="
  148.867,650.77 167.764,650.77 
  "/>
<polyline clip-path="url(#clip240)" style="stroke:#000000; stroke-linecap:butt; stroke-linejoin:round; stroke-width:4; stroke-opacity:1; fill:none" points="
  148.867,374.072 167.764,374.072 
  "/>
<path clip-path="url(#clip240)" d="M51.3393 1204.62 L81.0151 1204.62 L81.0151 1208.55 L51.3393 1208.55 L51.3393 1204.62 Z" fill="#000000" fill-rule="evenodd" fill-opacity="1" /><path clip-path="url(#clip240)" d="M91.2465 1220.73 L91.2465 1216.47 Q93.0058 1217.3 94.8113 1217.74 Q96.6169 1218.18 98.353 1218.18 Q102.983 1218.18 105.413 1215.08 Q107.867 1211.95 108.214 1205.61 Q106.871 1207.6 104.811 1208.67 Q102.751 1209.73 100.251 1209.73 Q95.066 1209.73 92.0336 1206.61 Q89.0243 1203.46 89.0243 1198.02 Q89.0243 1192.69 92.1725 1189.48 Q95.3206 1186.26 100.552 1186.26 Q106.547 1186.26 109.696 1190.87 Q112.867 1195.45 112.867 1204.2 Q112.867 1212.37 108.978 1217.25 Q105.112 1222.12 98.5613 1222.12 Q96.8021 1222.12 94.9965 1221.77 Q93.191 1221.42 91.2465 1220.73 M100.552 1206.07 Q103.7 1206.07 105.529 1203.92 Q107.381 1201.77 107.381 1198.02 Q107.381 1194.29 105.529 1192.14 Q103.7 1189.96 100.552 1189.96 Q97.4039 1189.96 95.5521 1192.14 Q93.7234 1194.29 93.7234 1198.02 Q93.7234 1201.77 95.5521 1203.92 Q97.4039 1206.07 100.552 1206.07 Z" fill="#000000" fill-rule="evenodd" fill-opacity="1" /><path clip-path="url(#clip240)" d="M50.9921 927.918 L80.6679 927.918 L80.6679 931.854 L50.9921 931.854 L50.9921 927.918 Z" fill="#000000" fill-rule="evenodd" fill-opacity="1" /><path clip-path="url(#clip240)" d="M101.339 925.604 Q98.1909 925.604 96.3391 927.756 Q94.5104 929.909 94.5104 933.659 Q94.5104 937.386 96.3391 939.562 Q98.1909 941.715 101.339 941.715 Q104.487 941.715 106.316 939.562 Q108.168 937.386 108.168 933.659 Q108.168 929.909 106.316 927.756 Q104.487 925.604 101.339 925.604 M110.621 910.951 L110.621 915.21 Q108.862 914.377 107.057 913.937 Q105.274 913.497 103.515 913.497 Q98.8854 913.497 96.4317 916.622 Q94.0012 919.747 93.6539 926.067 Q95.0197 924.053 97.0798 922.988 Q99.14 921.9 101.617 921.9 Q106.825 921.9 109.834 925.071 Q112.867 928.219 112.867 933.659 Q112.867 938.983 109.719 942.201 Q106.571 945.418 101.339 945.418 Q95.3437 945.418 92.1725 940.835 Q89.0012 936.228 89.0012 927.502 Q89.0012 919.307 92.89 914.446 Q96.7789 909.562 103.33 909.562 Q105.089 909.562 106.871 909.909 Q108.677 910.256 110.621 910.951 Z" fill="#000000" fill-rule="evenodd" fill-opacity="1" /><path clip-path="url(#clip240)" d="M51.8023 651.221 L81.4781 651.221 L81.4781 655.156 L51.8023 655.156 L51.8023 651.221 Z" fill="#000000" fill-rule="evenodd" fill-opacity="1" /><path clip-path="url(#clip240)" d="M105.737 649.415 Q109.094 650.133 110.969 652.402 Q112.867 654.67 112.867 658.003 Q112.867 663.119 109.348 665.92 Q105.83 668.721 99.3483 668.721 Q97.1724 668.721 94.8576 668.281 Q92.566 667.864 90.1123 667.008 L90.1123 662.494 Q92.0567 663.628 94.3715 664.207 Q96.6863 664.786 99.2095 664.786 Q103.608 664.786 105.899 663.05 Q108.214 661.314 108.214 658.003 Q108.214 654.948 106.061 653.235 Q103.932 651.499 100.112 651.499 L96.0845 651.499 L96.0845 647.656 L100.297 647.656 Q103.746 647.656 105.575 646.29 Q107.404 644.902 107.404 642.309 Q107.404 639.647 105.506 638.235 Q103.631 636.8 100.112 636.8 Q98.1909 636.8 95.9919 637.216 Q93.7928 637.633 91.1539 638.513 L91.1539 634.346 Q93.816 633.605 96.1308 633.235 Q98.4687 632.865 100.529 632.865 Q105.853 632.865 108.955 635.295 Q112.057 637.703 112.057 641.823 Q112.057 644.693 110.413 646.684 Q108.77 648.652 105.737 649.415 Z" fill="#000000" fill-rule="evenodd" fill-opacity="1" /><path clip-path="url(#clip240)" d="M100.922 359.871 Q97.3113 359.871 95.4826 363.436 Q93.6771 366.977 93.6771 374.107 Q93.6771 381.213 95.4826 384.778 Q97.3113 388.32 100.922 388.32 Q104.557 388.32 106.362 384.778 Q108.191 381.213 108.191 374.107 Q108.191 366.977 106.362 363.436 Q104.557 359.871 100.922 359.871 M100.922 356.167 Q106.733 356.167 109.788 360.774 Q112.867 365.357 112.867 374.107 Q112.867 382.834 109.788 387.44 Q106.733 392.024 100.922 392.024 Q95.1123 392.024 92.0336 387.44 Q88.978 382.834 88.978 374.107 Q88.978 365.357 92.0336 360.774 Q95.1123 356.167 100.922 356.167 Z" fill="#000000" fill-rule="evenodd" fill-opacity="1" /><path clip-path="url(#clip240)" d="M1099.81 28.5427 L1099.81 35.5912 Q1096.65 33.9709 1093.25 33.1607 Q1089.85 32.3505 1086.2 32.3505 Q1080.65 32.3505 1077.86 34.0519 Q1075.1 35.7533 1075.1 39.156 Q1075.1 41.7486 1077.09 43.2475 Q1079.07 44.7058 1085.07 46.0426 L1087.62 46.6097 Q1095.56 48.3111 1098.88 51.4303 Q1102.24 54.509 1102.24 60.0587 Q1102.24 66.3781 1097.22 70.0644 Q1092.24 73.7508 1083.49 73.7508 Q1079.84 73.7508 1075.87 73.0216 Q1071.94 72.3329 1067.57 70.9151 L1067.57 63.2184 Q1071.7 65.3654 1075.71 66.4591 Q1079.72 67.5124 1083.65 67.5124 Q1088.92 67.5124 1091.75 65.73 Q1094.59 63.9071 1094.59 60.6258 Q1094.59 57.5877 1092.52 55.9673 Q1090.5 54.3469 1083.57 52.8481 L1080.98 52.2405 Q1074.05 50.7821 1070.97 47.7845 Q1067.89 44.7463 1067.89 39.4801 Q1067.89 33.0797 1072.43 29.5959 Q1076.97 26.1121 1085.31 26.1121 Q1089.44 26.1121 1093.09 26.7198 Q1096.74 27.3274 1099.81 28.5427 Z" fill="#000000" fill-rule="evenodd" fill-opacity="1" /><path clip-path="url(#clip240)" d="M1152.92 48.0275 L1152.92 51.6733 L1118.65 51.6733 Q1119.14 59.3701 1123.27 63.421 Q1127.44 67.4314 1134.85 67.4314 Q1139.15 67.4314 1143.16 66.3781 Q1147.21 65.3249 1151.18 63.2184 L1151.18 70.267 Q1147.17 71.9684 1142.96 72.8596 Q1138.74 73.7508 1134.41 73.7508 Q1123.55 73.7508 1117.19 67.4314 Q1110.87 61.1119 1110.87 50.3365 Q1110.87 39.1965 1116.87 32.6746 Q1122.9 26.1121 1133.11 26.1121 Q1142.27 26.1121 1147.57 32.0264 Q1152.92 37.9003 1152.92 48.0275 M1145.47 45.84 Q1145.39 39.7232 1142.02 36.0774 Q1138.7 32.4315 1133.19 32.4315 Q1126.95 32.4315 1123.19 35.9558 Q1119.46 39.4801 1118.89 45.8805 L1145.47 45.84 Z" fill="#000000" fill-rule="evenodd" fill-opacity="1" /><path clip-path="url(#clip240)" d="M1200.48 35.9153 Q1203.27 30.8922 1207.16 28.5022 Q1211.05 26.1121 1216.32 26.1121 Q1223.41 26.1121 1227.26 31.0947 Q1231.1 36.0368 1231.1 45.1919 L1231.1 72.576 L1223.61 72.576 L1223.61 45.4349 Q1223.61 38.913 1221.3 35.7533 Q1218.99 32.5936 1214.25 32.5936 Q1208.46 32.5936 1205.1 36.4419 Q1201.73 40.2903 1201.73 46.9338 L1201.73 72.576 L1194.24 72.576 L1194.24 45.4349 Q1194.24 38.8725 1191.93 35.7533 Q1189.62 32.5936 1184.8 32.5936 Q1179.09 32.5936 1175.73 36.4824 Q1172.37 40.3308 1172.37 46.9338 L1172.37 72.576 L1164.87 72.576 L1164.87 27.2059 L1172.37 27.2059 L1172.37 34.2544 Q1174.92 30.082 1178.48 28.0971 Q1182.05 26.1121 1186.95 26.1121 Q1191.89 26.1121 1195.33 28.6237 Q1198.82 31.1352 1200.48 35.9153 Z" fill="#000000" fill-rule="evenodd" fill-opacity="1" /><path clip-path="url(#clip240)" d="M1245.97 27.2059 L1253.42 27.2059 L1253.42 72.576 L1245.97 72.576 L1245.97 27.2059 M1245.97 9.54393 L1253.42 9.54393 L1253.42 18.9825 L1245.97 18.9825 L1245.97 9.54393 Z" fill="#000000" fill-rule="evenodd" fill-opacity="1" /><path clip-path="url(#clip240)" d="M1269.02 9.54393 L1276.47 9.54393 L1276.47 72.576 L1269.02 72.576 L1269.02 9.54393 Z" fill="#000000" fill-rule="evenodd" fill-opacity="1" /><path clip-path="url(#clip240)" d="M1309.65 32.4315 Q1303.66 32.4315 1300.17 37.1306 Q1296.69 41.7891 1296.69 49.9314 Q1296.69 58.0738 1300.13 62.7728 Q1303.61 67.4314 1309.65 67.4314 Q1315.61 67.4314 1319.09 62.7323 Q1322.57 58.0333 1322.57 49.9314 Q1322.57 41.8701 1319.09 37.1711 Q1315.61 32.4315 1309.65 32.4315 M1309.65 26.1121 Q1319.37 26.1121 1324.92 32.4315 Q1330.47 38.7509 1330.47 49.9314 Q1330.47 61.0714 1324.92 67.4314 Q1319.37 73.7508 1309.65 73.7508 Q1299.89 73.7508 1294.34 67.4314 Q1288.83 61.0714 1288.83 49.9314 Q1288.83 38.7509 1294.34 32.4315 Q1299.89 26.1121 1309.65 26.1121 Z" fill="#000000" fill-rule="evenodd" fill-opacity="1" /><path clip-path="url(#clip240)" d="M1372.68 49.3643 Q1372.68 41.2625 1369.32 36.8065 Q1366 32.3505 1359.96 32.3505 Q1353.97 32.3505 1350.61 36.8065 Q1347.28 41.2625 1347.28 49.3643 Q1347.28 57.4256 1350.61 61.8816 Q1353.97 66.3376 1359.96 66.3376 Q1366 66.3376 1369.32 61.8816 Q1372.68 57.4256 1372.68 49.3643 M1380.14 66.9452 Q1380.14 78.5308 1374.99 84.1616 Q1369.85 89.8329 1359.23 89.8329 Q1355.3 89.8329 1351.82 89.2252 Q1348.34 88.6581 1345.06 87.4428 L1345.06 80.1917 Q1348.34 81.9741 1351.54 82.8248 Q1354.74 83.6755 1358.06 83.6755 Q1365.39 83.6755 1369.04 79.8271 Q1372.68 76.0193 1372.68 68.282 L1372.68 64.5957 Q1370.37 68.6061 1366.77 70.5911 Q1363.16 72.576 1358.14 72.576 Q1349.8 72.576 1344.69 66.2161 Q1339.59 59.8562 1339.59 49.3643 Q1339.59 38.832 1344.69 32.472 Q1349.8 26.1121 1358.14 26.1121 Q1363.16 26.1121 1366.77 28.0971 Q1370.37 30.082 1372.68 34.0924 L1372.68 27.2059 L1380.14 27.2059 L1380.14 66.9452 Z" fill="#000000" fill-rule="evenodd" fill-opacity="1" /><path clip-path="url(#clip240)" d="M1433.2 27.2059 L1416.8 49.2833 L1434.05 72.576 L1425.26 72.576 L1412.06 54.752 L1398.85 72.576 L1390.06 72.576 L1407.68 48.8377 L1391.56 27.2059 L1400.35 27.2059 L1412.38 43.369 L1424.41 27.2059 L1433.2 27.2059 Z" fill="#000000" fill-rule="evenodd" fill-opacity="1" /><polyline clip-path="url(#clip242)" style="stroke:#009af9; stroke-linecap:butt; stroke-linejoin:round; stroke-width:4; stroke-opacity:1; fill:none" points="
  211.241,1435.94 224.777,1427.64 349.94,1350.93 425.158,1304.83 488.754,1265.86 557.836,1223.52 621.525,1184.49 689.805,1142.64 768.915,1094.16 839.218,1051.07 
  900.867,1013.29 968.082,972.094 1035.7,930.656 1110.45,884.84 1181.58,841.248 1255.54,795.922 1317.79,757.767 1393.8,711.184 1463.43,668.512 1527.74,629.1 
  1592.88,589.177 1665.88,544.435 1732.04,503.892 1807.78,457.472 1877.91,414.492 1947.05,372.118 2014.18,330.977 2082.99,288.802 2158.39,242.594 2267.91,175.47 
  2290.38,161.699 
  "/>
</svg>
