<?xml version="1.0" encoding="utf-8"?>
<svg xmlns="http://www.w3.org/2000/svg" xmlns:xlink="http://www.w3.org/1999/xlink" width="600" height="400" viewBox="0 0 2400 1600">
<defs>
  <clipPath id="clip200">
    <rect x="0" y="0" width="2400" height="1600"/>
  </clipPath>
</defs>
<path clip-path="url(#clip200)" d="
M0 1600 L2400 1600 L2400 0 L0 0  Z
  " fill="#ffffff" fill-rule="evenodd" fill-opacity="1"/>
<defs>
  <clipPath id="clip201">
    <rect x="480" y="0" width="1681" height="1600"/>
  </clipPath>
</defs>
<path clip-path="url(#clip200)" d="
M188.104 1486.45 L2352.76 1486.45 L2352.76 123.472 L188.104 123.472  Z
  " fill="#ffffff" fill-rule="evenodd" fill-opacity="1"/>
<defs>
  <clipPath id="clip202">
    <rect x="188" y="123" width="2166" height="1364"/>
  </clipPath>
</defs>
<polyline clip-path="url(#clip202)" style="stroke:#000000; stroke-linecap:butt; stroke-linejoin:round; stroke-width:2; stroke-opacity:0.1; fill:none" points="
  453.58,1486.45 453.58,123.472 
  "/>
<polyline clip-path="url(#clip202)" style="stroke:#000000; stroke-linecap:butt; stroke-linejoin:round; stroke-width:2; stroke-opacity:0.1; fill:none" points="
  862.005,1486.45 862.005,123.472 
  "/>
<polyline clip-path="url(#clip202)" style="stroke:#000000; stroke-linecap:butt; stroke-linejoin:round; stroke-width:2; stroke-opacity:0.1; fill:none" points="
  1270.43,1486.45 1270.43,123.472 
  "/>
<polyline clip-path="url(#clip202)" style="stroke:#000000; stroke-linecap:butt; stroke-linejoin:round; stroke-width:2; stroke-opacity:0.1; fill:none" points="
  1678.85,1486.45 1678.85,123.472 
  "/>
<polyline clip-path="url(#clip202)" style="stroke:#000000; stroke-linecap:butt; stroke-linejoin:round; stroke-width:2; stroke-opacity:0.1; fill:none" points="
  2087.28,1486.45 2087.28,123.472 
  "/>
<polyline clip-path="url(#clip200)" style="stroke:#000000; stroke-linecap:butt; stroke-linejoin:round; stroke-width:4; stroke-opacity:1; fill:none" points="
  188.104,1486.45 2352.76,1486.45 
  "/>
<polyline clip-path="url(#clip200)" style="stroke:#000000; stroke-linecap:butt; stroke-linejoin:round; stroke-width:4; stroke-opacity:1; fill:none" points="
  453.58,1486.45 453.58,1467.55 
  "/>
<polyline clip-path="url(#clip200)" style="stroke:#000000; stroke-linecap:butt; stroke-linejoin:round; stroke-width:4; stroke-opacity:1; fill:none" points="
  862.005,1486.45 862.005,1467.55 
  "/>
<polyline clip-path="url(#clip200)" style="stroke:#000000; stroke-linecap:butt; stroke-linejoin:round; stroke-width:4; stroke-opacity:1; fill:none" points="
  1270.43,1486.45 1270.43,1467.55 
  "/>
<polyline clip-path="url(#clip200)" style="stroke:#000000; stroke-linecap:butt; stroke-linejoin:round; stroke-width:4; stroke-opacity:1; fill:none" points="
  1678.85,1486.45 1678.85,1467.55 
  "/>
<polyline clip-path="url(#clip200)" style="stroke:#000000; stroke-linecap:butt; stroke-linejoin:round; stroke-width:4; stroke-opacity:1; fill:none" points="
  2087.28,1486.45 2087.28,1467.55 
  "/>
<path clip-path="url(#clip200)" d="M422.481 1532.02 L452.157 1532.02 L452.157 1535.95 L422.481 1535.95 L422.481 1532.02 Z" fill="#000000" fill-rule="evenodd" fill-opacity="1" /><path clip-path="url(#clip200)" d="M475.096 1518.36 L463.291 1536.81 L475.096 1536.81 L475.096 1518.36 M473.87 1514.29 L479.749 1514.29 L479.749 1536.81 L484.68 1536.81 L484.68 1540.7 L479.749 1540.7 L479.749 1548.85 L475.096 1548.85 L475.096 1540.7 L459.495 1540.7 L459.495 1536.19 L473.87 1514.29 Z" fill="#000000" fill-rule="evenodd" fill-opacity="1" /><path clip-path="url(#clip200)" d="M831.947 1532.02 L861.623 1532.02 L861.623 1535.95 L831.947 1535.95 L831.947 1532.02 Z" fill="#000000" fill-rule="evenodd" fill-opacity="1" /><path clip-path="url(#clip200)" d="M875.744 1544.91 L892.063 1544.91 L892.063 1548.85 L870.119 1548.85 L870.119 1544.91 Q872.781 1542.16 877.364 1537.53 Q881.97 1532.88 883.151 1531.53 Q885.396 1529.01 886.276 1527.27 Q887.179 1525.51 887.179 1523.82 Q887.179 1521.07 885.234 1519.33 Q883.313 1517.6 880.211 1517.6 Q878.012 1517.6 875.558 1518.36 Q873.128 1519.13 870.35 1520.68 L870.35 1515.95 Q873.174 1514.82 875.628 1514.24 Q878.081 1513.66 880.118 1513.66 Q885.489 1513.66 888.683 1516.35 Q891.878 1519.03 891.878 1523.52 Q891.878 1525.65 891.068 1527.57 Q890.28 1529.47 888.174 1532.07 Q887.595 1532.74 884.493 1535.95 Q881.392 1539.15 875.744 1544.91 Z" fill="#000000" fill-rule="evenodd" fill-opacity="1" /><path clip-path="url(#clip200)" d="M1270.43 1517.37 Q1266.82 1517.37 1264.99 1520.93 Q1263.18 1524.47 1263.18 1531.6 Q1263.18 1538.71 1264.99 1542.27 Q1266.82 1545.82 1270.43 1545.82 Q1274.06 1545.82 1275.87 1542.27 Q1277.7 1538.71 1277.7 1531.6 Q1277.7 1524.47 1275.87 1520.93 Q1274.06 1517.37 1270.43 1517.37 M1270.43 1513.66 Q1276.24 1513.66 1279.3 1518.27 Q1282.37 1522.85 1282.37 1531.6 Q1282.37 1540.33 1279.3 1544.94 Q1276.24 1549.52 1270.43 1549.52 Q1264.62 1549.52 1261.54 1544.94 Q1258.49 1540.33 1258.49 1531.6 Q1258.49 1522.85 1261.54 1518.27 Q1264.62 1513.66 1270.43 1513.66 Z" fill="#000000" fill-rule="evenodd" fill-opacity="1" /><path clip-path="url(#clip200)" d="M1673.51 1544.91 L1689.83 1544.91 L1689.83 1548.85 L1667.88 1548.85 L1667.88 1544.91 Q1670.54 1542.16 1675.13 1537.53 Q1679.73 1532.88 1680.92 1531.53 Q1683.16 1529.01 1684.04 1527.27 Q1684.94 1525.51 1684.94 1523.82 Q1684.94 1521.07 1683 1519.33 Q1681.08 1517.6 1677.98 1517.6 Q1675.78 1517.6 1673.32 1518.36 Q1670.89 1519.13 1668.11 1520.68 L1668.11 1515.95 Q1670.94 1514.82 1673.39 1514.24 Q1675.85 1513.66 1677.88 1513.66 Q1683.25 1513.66 1686.45 1516.35 Q1689.64 1519.03 1689.64 1523.52 Q1689.64 1525.65 1688.83 1527.57 Q1688.04 1529.47 1685.94 1532.07 Q1685.36 1532.74 1682.26 1535.95 Q1679.16 1539.15 1673.51 1544.91 Z" fill="#000000" fill-rule="evenodd" fill-opacity="1" /><path clip-path="url(#clip200)" d="M2090.29 1518.36 L2078.48 1536.81 L2090.29 1536.81 L2090.29 1518.36 M2089.06 1514.29 L2094.94 1514.29 L2094.94 1536.81 L2099.87 1536.81 L2099.87 1540.7 L2094.94 1540.7 L2094.94 1548.85 L2090.29 1548.85 L2090.29 1540.7 L2074.69 1540.7 L2074.69 1536.19 L2089.06 1514.29 Z" fill="#000000" fill-rule="evenodd" fill-opacity="1" /><polyline clip-path="url(#clip202)" style="stroke:#000000; stroke-linecap:butt; stroke-linejoin:round; stroke-width:2; stroke-opacity:0.1; fill:none" points="
  188.104,1397.1 2352.76,1397.1 
  "/>
<polyline clip-path="url(#clip202)" style="stroke:#000000; stroke-linecap:butt; stroke-linejoin:round; stroke-width:2; stroke-opacity:0.1; fill:none" points="
  188.104,1101.03 2352.76,1101.03 
  "/>
<polyline clip-path="url(#clip202)" style="stroke:#000000; stroke-linecap:butt; stroke-linejoin:round; stroke-width:2; stroke-opacity:0.1; fill:none" points="
  188.104,804.96 2352.76,804.96 
  "/>
<polyline clip-path="url(#clip202)" style="stroke:#000000; stroke-linecap:butt; stroke-linejoin:round; stroke-width:2; stroke-opacity:0.1; fill:none" points="
  188.104,508.888 2352.76,508.888 
  "/>
<polyline clip-path="url(#clip202)" style="stroke:#000000; stroke-linecap:butt; stroke-linejoin:round; stroke-width:2; stroke-opacity:0.1; fill:none" points="
  188.104,212.815 2352.76,212.815 
  "/>
<polyline clip-path="url(#clip200)" style="stroke:#000000; stroke-linecap:butt; stroke-linejoin:round; stroke-width:4; stroke-opacity:1; fill:none" points="
  188.104,1486.45 188.104,123.472 
  "/>
<polyline clip-path="url(#clip200)" style="stroke:#000000; stroke-linecap:butt; stroke-linejoin:round; stroke-width:4; stroke-opacity:1; fill:none" points="
  188.104,1397.1 207.002,1397.1 
  "/>
<polyline clip-path="url(#clip200)" style="stroke:#000000; stroke-linecap:butt; stroke-linejoin:round; stroke-width:4; stroke-opacity:1; fill:none" points="
  188.104,1101.03 207.002,1101.03 
  "/>
<polyline clip-path="url(#clip200)" style="stroke:#000000; stroke-linecap:butt; stroke-linejoin:round; stroke-width:4; stroke-opacity:1; fill:none" points="
  188.104,804.96 207.002,804.96 
  "/>
<polyline clip-path="url(#clip200)" style="stroke:#000000; stroke-linecap:butt; stroke-linejoin:round; stroke-width:4; stroke-opacity:1; fill:none" points="
  188.104,508.888 207.002,508.888 
  "/>
<polyline clip-path="url(#clip200)" style="stroke:#000000; stroke-linecap:butt; stroke-linejoin:round; stroke-width:4; stroke-opacity:1; fill:none" points="
  188.104,212.815 207.002,212.815 
  "/>
<path clip-path="url(#clip200)" d="M51.9643 1416.9 L59.6032 1416.9 L59.6032 1390.53 L51.2931 1392.2 L51.2931 1387.94 L59.5569 1386.27 L64.2328 1386.27 L64.2328 1416.9 L71.8716 1416.9 L71.8716 1420.83 L51.9643 1420.83 L51.9643 1416.9 Z" fill="#000000" fill-rule="evenodd" fill-opacity="1" /><path clip-path="url(#clip200)" d="M91.316 1389.35 Q87.7049 1389.35 85.8762 1392.92 Q84.0707 1396.46 84.0707 1403.59 Q84.0707 1410.69 85.8762 1414.26 Q87.7049 1417.8 91.316 1417.8 Q94.9502 1417.8 96.7558 1414.26 Q98.5845 1410.69 98.5845 1403.59 Q98.5845 1396.46 96.7558 1392.92 Q94.9502 1389.35 91.316 1389.35 M91.316 1385.65 Q97.1261 1385.65 100.182 1390.25 Q103.26 1394.84 103.26 1403.59 Q103.26 1412.31 100.182 1416.92 Q97.1261 1421.5 91.316 1421.5 Q85.5058 1421.5 82.4271 1416.92 Q79.3716 1412.31 79.3716 1403.59 Q79.3716 1394.84 82.4271 1390.25 Q85.5058 1385.65 91.316 1385.65 Z" fill="#000000" fill-rule="evenodd" fill-opacity="1" /><path clip-path="url(#clip200)" d="M103.26 1379.75 L127.372 1379.75 L127.372 1382.95 L103.26 1382.95 L103.26 1379.75 Z" fill="#000000" fill-rule="evenodd" fill-opacity="1" /><path clip-path="url(#clip200)" d="M138.845 1390.22 L152.104 1390.22 L152.104 1393.42 L134.274 1393.42 L134.274 1390.22 Q136.437 1387.99 140.161 1384.23 Q143.904 1380.44 144.863 1379.35 Q146.688 1377.3 147.402 1375.89 Q148.136 1374.46 148.136 1373.09 Q148.136 1370.85 146.556 1369.44 Q144.995 1368.03 142.475 1368.03 Q140.688 1368.03 138.694 1368.65 Q136.719 1369.27 134.462 1370.53 L134.462 1366.7 Q136.757 1365.77 138.751 1365.3 Q140.744 1364.83 142.399 1364.83 Q146.763 1364.83 149.358 1367.02 Q151.954 1369.2 151.954 1372.85 Q151.954 1374.58 151.295 1376.14 Q150.656 1377.68 148.944 1379.79 Q148.474 1380.33 145.954 1382.95 Q143.434 1385.54 138.845 1390.22 Z" fill="#000000" fill-rule="evenodd" fill-opacity="1" /><path clip-path="url(#clip200)" d="M51.6634 1120.82 L59.3023 1120.82 L59.3023 1094.46 L50.9921 1096.13 L50.9921 1091.87 L59.256 1090.2 L63.9319 1090.2 L63.9319 1120.82 L71.5707 1120.82 L71.5707 1124.76 L51.6634 1124.76 L51.6634 1120.82 Z" fill="#000000" fill-rule="evenodd" fill-opacity="1" /><path clip-path="url(#clip200)" d="M91.0151 1093.28 Q87.404 1093.28 85.5753 1096.84 Q83.7697 1100.39 83.7697 1107.51 Q83.7697 1114.62 85.5753 1118.19 Q87.404 1121.73 91.0151 1121.73 Q94.6493 1121.73 96.4548 1118.19 Q98.2835 1114.62 98.2835 1107.51 Q98.2835 1100.39 96.4548 1096.84 Q94.6493 1093.28 91.0151 1093.28 M91.0151 1089.58 Q96.8252 1089.58 99.8808 1094.18 Q102.959 1098.76 102.959 1107.51 Q102.959 1116.24 99.8808 1120.85 Q96.8252 1125.43 91.0151 1125.43 Q85.2049 1125.43 82.1262 1120.85 Q79.0707 1116.24 79.0707 1107.51 Q79.0707 1098.76 82.1262 1094.18 Q85.2049 1089.58 91.0151 1089.58 Z" fill="#000000" fill-rule="evenodd" fill-opacity="1" /><path clip-path="url(#clip200)" d="M102.959 1083.68 L127.071 1083.68 L127.071 1086.87 L102.959 1086.87 L102.959 1083.68 Z" fill="#000000" fill-rule="evenodd" fill-opacity="1" /><path clip-path="url(#clip200)" d="M135.929 1094.15 L142.136 1094.15 L142.136 1072.73 L135.384 1074.08 L135.384 1070.62 L142.098 1069.27 L145.898 1069.27 L145.898 1094.15 L152.104 1094.15 L152.104 1097.35 L135.929 1097.35 L135.929 1094.15 Z" fill="#000000" fill-rule="evenodd" fill-opacity="1" /><path clip-path="url(#clip200)" d="M81.3985 824.752 L89.0374 824.752 L89.0374 798.387 L80.7272 800.053 L80.7272 795.794 L88.9911 794.128 L93.667 794.128 L93.667 824.752 L101.306 824.752 L101.306 828.688 L81.3985 828.688 L81.3985 824.752 Z" fill="#000000" fill-rule="evenodd" fill-opacity="1" /><path clip-path="url(#clip200)" d="M120.75 797.206 Q117.139 797.206 115.31 800.771 Q113.505 804.313 113.505 811.442 Q113.505 818.549 115.31 822.114 Q117.139 825.655 120.75 825.655 Q124.384 825.655 126.19 822.114 Q128.019 818.549 128.019 811.442 Q128.019 804.313 126.19 800.771 Q124.384 797.206 120.75 797.206 M120.75 793.503 Q126.56 793.503 129.616 798.109 Q132.695 802.692 132.695 811.442 Q132.695 820.169 129.616 824.776 Q126.56 829.359 120.75 829.359 Q114.94 829.359 111.861 824.776 Q108.806 820.169 108.806 811.442 Q108.806 802.692 111.861 798.109 Q114.94 793.503 120.75 793.503 Z" fill="#000000" fill-rule="evenodd" fill-opacity="1" /><path clip-path="url(#clip200)" d="M142.399 775.699 Q139.465 775.699 137.98 778.595 Q136.513 781.473 136.513 787.265 Q136.513 793.039 137.98 795.936 Q139.465 798.813 142.399 798.813 Q145.352 798.813 146.819 795.936 Q148.305 793.039 148.305 787.265 Q148.305 781.473 146.819 778.595 Q145.352 775.699 142.399 775.699 M142.399 772.689 Q147.12 772.689 149.603 776.432 Q152.104 780.156 152.104 787.265 Q152.104 794.356 149.603 798.099 Q147.12 801.823 142.399 801.823 Q137.679 801.823 135.177 798.099 Q132.695 794.356 132.695 787.265 Q132.695 780.156 135.177 776.432 Q137.679 772.689 142.399 772.689 Z" fill="#000000" fill-rule="evenodd" fill-opacity="1" /><path clip-path="url(#clip200)" d="M84.088 528.68 L91.7269 528.68 L91.7269 502.314 L83.4167 503.981 L83.4167 499.722 L91.6806 498.055 L96.3565 498.055 L96.3565 528.68 L103.995 528.68 L103.995 532.615 L84.088 532.615 L84.088 528.68 Z" fill="#000000" fill-rule="evenodd" fill-opacity="1" /><path clip-path="url(#clip200)" d="M123.44 501.134 Q119.829 501.134 118 504.699 Q116.194 508.24 116.194 515.37 Q116.194 522.476 118 526.041 Q119.829 529.583 123.44 529.583 Q127.074 529.583 128.879 526.041 Q130.708 522.476 130.708 515.37 Q130.708 508.24 128.879 504.699 Q127.074 501.134 123.44 501.134 M123.44 497.43 Q129.25 497.43 132.305 502.037 Q135.384 506.62 135.384 515.37 Q135.384 524.097 132.305 528.703 Q129.25 533.286 123.44 533.286 Q117.63 533.286 114.551 528.703 Q111.495 524.097 111.495 515.37 Q111.495 506.62 114.551 502.037 Q117.63 497.43 123.44 497.43 Z" fill="#000000" fill-rule="evenodd" fill-opacity="1" /><path clip-path="url(#clip200)" d="M135.929 502.007 L142.136 502.007 L142.136 480.585 L135.384 481.94 L135.384 478.479 L142.098 477.125 L145.898 477.125 L145.898 502.007 L152.104 502.007 L152.104 505.205 L135.929 505.205 L135.929 502.007 Z" fill="#000000" fill-rule="evenodd" fill-opacity="1" /><path clip-path="url(#clip200)" d="M82.9784 232.608 L90.6172 232.608 L90.6172 206.242 L82.3071 207.909 L82.3071 203.649 L90.5709 201.983 L95.2468 201.983 L95.2468 232.608 L102.886 232.608 L102.886 236.543 L82.9784 236.543 L82.9784 232.608 Z" fill="#000000" fill-rule="evenodd" fill-opacity="1" /><path clip-path="url(#clip200)" d="M122.33 205.061 Q118.719 205.061 116.89 208.626 Q115.085 212.168 115.085 219.297 Q115.085 226.404 116.89 229.969 Q118.719 233.51 122.33 233.51 Q125.964 233.51 127.77 229.969 Q129.598 226.404 129.598 219.297 Q129.598 212.168 127.77 208.626 Q125.964 205.061 122.33 205.061 M122.33 201.358 Q128.14 201.358 131.196 205.964 Q134.274 210.548 134.274 219.297 Q134.274 228.024 131.196 232.631 Q128.14 237.214 122.33 237.214 Q116.52 237.214 113.441 232.631 Q110.386 228.024 110.386 219.297 Q110.386 210.548 113.441 205.964 Q116.52 201.358 122.33 201.358 Z" fill="#000000" fill-rule="evenodd" fill-opacity="1" /><path clip-path="url(#clip200)" d="M138.845 205.935 L152.104 205.935 L152.104 209.132 L134.274 209.132 L134.274 205.935 Q136.437 203.697 140.161 199.935 Q143.904 196.155 144.863 195.064 Q146.688 193.014 147.402 191.604 Q148.136 190.174 148.136 188.801 Q148.136 186.563 146.556 185.152 Q144.995 183.742 142.475 183.742 Q140.688 183.742 138.694 184.363 Q136.719 184.983 134.462 186.243 L134.462 182.407 Q136.757 181.485 138.751 181.015 Q140.744 180.545 142.399 180.545 Q146.763 180.545 149.358 182.726 Q151.954 184.908 151.954 188.557 Q151.954 190.287 151.295 191.848 Q150.656 193.39 148.944 195.497 Q148.474 196.042 145.954 198.656 Q143.434 201.252 138.845 205.935 Z" fill="#000000" fill-rule="evenodd" fill-opacity="1" /><path clip-path="url(#clip200)" d="M1119.31 28.5427 L1119.31 35.5912 Q1116.15 33.9709 1112.75 33.1607 Q1109.35 32.3505 1105.7 32.3505 Q1100.15 32.3505 1097.36 34.0519 Q1094.6 35.7533 1094.6 39.156 Q1094.6 41.7486 1096.59 43.2475 Q1098.57 44.7058 1104.57 46.0426 L1107.12 46.6097 Q1115.06 48.3111 1118.38 51.4303 Q1121.74 54.509 1121.74 60.0587 Q1121.74 66.3781 1116.72 70.0644 Q1111.74 73.7508 1102.99 73.7508 Q1099.34 73.7508 1095.37 73.0216 Q1091.44 72.3329 1087.07 70.9151 L1087.07 63.2184 Q1091.2 65.3654 1095.21 66.4591 Q1099.22 67.5124 1103.15 67.5124 Q1108.41 67.5124 1111.25 65.73 Q1114.09 63.9071 1114.09 60.6258 Q1114.09 57.5877 1112.02 55.9673 Q1109.99 54.3469 1103.07 52.8481 L1100.47 52.2405 Q1093.55 50.7821 1090.47 47.7845 Q1087.39 44.7463 1087.39 39.4801 Q1087.39 33.0797 1091.93 29.5959 Q1096.46 26.1121 1104.81 26.1121 Q1108.94 26.1121 1112.59 26.7198 Q1116.23 27.3274 1119.31 28.5427 Z" fill="#000000" fill-rule="evenodd" fill-opacity="1" /><path clip-path="url(#clip200)" d="M1172.42 48.0275 L1172.42 51.6733 L1138.15 51.6733 Q1138.63 59.3701 1142.77 63.421 Q1146.94 67.4314 1154.35 67.4314 Q1158.65 67.4314 1162.66 66.3781 Q1166.71 65.3249 1170.68 63.2184 L1170.68 70.267 Q1166.67 71.9684 1162.45 72.8596 Q1158.24 73.7508 1153.91 73.7508 Q1143.05 73.7508 1136.69 67.4314 Q1130.37 61.1119 1130.37 50.3365 Q1130.37 39.1965 1136.37 32.6746 Q1142.4 26.1121 1152.61 26.1121 Q1161.76 26.1121 1167.07 32.0264 Q1172.42 37.9003 1172.42 48.0275 M1164.96 45.84 Q1164.88 39.7232 1161.52 36.0774 Q1158.2 32.4315 1152.69 32.4315 Q1146.45 32.4315 1142.68 35.9558 Q1138.96 39.4801 1138.39 45.8805 L1164.96 45.84 Z" fill="#000000" fill-rule="evenodd" fill-opacity="1" /><path clip-path="url(#clip200)" d="M1219.98 35.9153 Q1222.77 30.8922 1226.66 28.5022 Q1230.55 26.1121 1235.82 26.1121 Q1242.9 26.1121 1246.75 31.0947 Q1250.6 36.0368 1250.6 45.1919 L1250.6 72.576 L1243.11 72.576 L1243.11 45.4349 Q1243.11 38.913 1240.8 35.7533 Q1238.49 32.5936 1233.75 32.5936 Q1227.96 32.5936 1224.59 36.4419 Q1221.23 40.2903 1221.23 46.9338 L1221.23 72.576 L1213.74 72.576 L1213.74 45.4349 Q1213.74 38.8725 1211.43 35.7533 Q1209.12 32.5936 1204.3 32.5936 Q1198.59 32.5936 1195.22 36.4824 Q1191.86 40.3308 1191.86 46.9338 L1191.86 72.576 L1184.37 72.576 L1184.37 27.2059 L1191.86 27.2059 L1191.86 34.2544 Q1194.41 30.082 1197.98 28.0971 Q1201.54 26.1121 1206.45 26.1121 Q1211.39 26.1121 1214.83 28.6237 Q1218.32 31.1352 1219.98 35.9153 Z" fill="#000000" fill-rule="evenodd" fill-opacity="1" /><path clip-path="url(#clip200)" d="M1265.47 27.2059 L1272.92 27.2059 L1272.92 72.576 L1265.47 72.576 L1265.47 27.2059 M1265.47 9.54393 L1272.92 9.54393 L1272.92 18.9825 L1265.47 18.9825 L1265.47 9.54393 Z" fill="#000000" fill-rule="evenodd" fill-opacity="1" /><path clip-path="url(#clip200)" d="M1288.52 9.54393 L1295.97 9.54393 L1295.97 72.576 L1288.52 72.576 L1288.52 9.54393 Z" fill="#000000" fill-rule="evenodd" fill-opacity="1" /><path clip-path="url(#clip200)" d="M1329.15 32.4315 Q1323.15 32.4315 1319.67 37.1306 Q1316.18 41.7891 1316.18 49.9314 Q1316.18 58.0738 1319.63 62.7728 Q1323.11 67.4314 1329.15 67.4314 Q1335.1 67.4314 1338.59 62.7323 Q1342.07 58.0333 1342.07 49.9314 Q1342.07 41.8701 1338.59 37.1711 Q1335.1 32.4315 1329.15 32.4315 M1329.15 26.1121 Q1338.87 26.1121 1344.42 32.4315 Q1349.97 38.7509 1349.97 49.9314 Q1349.97 61.0714 1344.42 67.4314 Q1338.87 73.7508 1329.15 73.7508 Q1319.39 73.7508 1313.84 67.4314 Q1308.33 61.0714 1308.33 49.9314 Q1308.33 38.7509 1313.84 32.4315 Q1319.39 26.1121 1329.15 26.1121 Z" fill="#000000" fill-rule="evenodd" fill-opacity="1" /><path clip-path="url(#clip200)" d="M1392.18 49.3643 Q1392.18 41.2625 1388.82 36.8065 Q1385.5 32.3505 1379.46 32.3505 Q1373.46 32.3505 1370.1 36.8065 Q1366.78 41.2625 1366.78 49.3643 Q1366.78 57.4256 1370.1 61.8816 Q1373.46 66.3376 1379.46 66.3376 Q1385.5 66.3376 1388.82 61.8816 Q1392.18 57.4256 1392.18 49.3643 M1399.63 66.9452 Q1399.63 78.5308 1394.49 84.1616 Q1389.34 89.8329 1378.73 89.8329 Q1374.8 89.8329 1371.32 89.2252 Q1367.83 88.6581 1364.55 87.4428 L1364.55 80.1917 Q1367.83 81.9741 1371.03 82.8248 Q1374.23 83.6755 1377.56 83.6755 Q1384.89 83.6755 1388.53 79.8271 Q1392.18 76.0193 1392.18 68.282 L1392.18 64.5957 Q1389.87 68.6061 1386.27 70.5911 Q1382.66 72.576 1377.64 72.576 Q1369.29 72.576 1364.19 66.2161 Q1359.08 59.8562 1359.08 49.3643 Q1359.08 38.832 1364.19 32.472 Q1369.29 26.1121 1377.64 26.1121 Q1382.66 26.1121 1386.27 28.0971 Q1389.87 30.082 1392.18 34.0924 L1392.18 27.2059 L1399.63 27.2059 L1399.63 66.9452 Z" fill="#000000" fill-rule="evenodd" fill-opacity="1" /><path clip-path="url(#clip200)" d="M1433.86 76.7889 Q1430.7 84.8907 1427.71 87.3618 Q1424.71 89.8329 1419.69 89.8329 L1413.73 89.8329 L1413.73 83.5945 L1418.11 83.5945 Q1421.18 83.5945 1422.89 82.1361 Q1424.59 80.6778 1426.65 75.2496 L1427.99 71.8468 L1409.64 27.2059 L1417.54 27.2059 L1431.72 62.6918 L1445.89 27.2059 L1453.79 27.2059 L1433.86 76.7889 Z" fill="#000000" fill-rule="evenodd" fill-opacity="1" /><polyline clip-path="url(#clip202)" style="stroke:#009af9; stroke-linecap:butt; stroke-linejoin:round; stroke-width:4; stroke-opacity:1; fill:none" points="
  249.368,1447.87 262.663,1439.5 385.598,1362.1 459.476,1315.58 521.94,1276.25 589.793,1233.52 652.347,1194.14 719.412,1151.91 797.113,1102.98 866.164,1059.51 
  926.716,1021.38 992.734,979.811 1059.14,937.996 1132.57,891.764 1202.43,847.775 1275.07,802.037 1336.22,763.535 1410.87,716.529 1479.26,673.468 1542.42,633.698 
  1606.41,593.413 1678.11,548.264 1743.09,507.351 1817.48,460.51 1886.36,417.138 1954.27,374.379 2020.2,332.864 2087.79,290.305 2161.85,243.678 2269.42,175.943 
  2291.49,162.047 
  "/>
</svg>
