<?xml version="1.0" encoding="utf-8"?>
<svg xmlns="http://www.w3.org/2000/svg" xmlns:xlink="http://www.w3.org/1999/xlink" width="600" height="400" viewBox="0 0 2400 1600">
<defs>
  <clipPath id="clip280">
    <rect x="0" y="0" width="2400" height="1600"/>
  </clipPath>
</defs>
<path clip-path="url(#clip280)" d="
M0 1600 L2400 1600 L2400 0 L0 0  Z
  " fill="#ffffff" fill-rule="evenodd" fill-opacity="1"/>
<defs>
  <clipPath id="clip281">
    <rect x="480" y="0" width="1681" height="1600"/>
  </clipPath>
</defs>
<path clip-path="url(#clip280)" d="
M188.574 1474.16 L2352.76 1474.16 L2352.76 123.472 L188.574 123.472  Z
  " fill="#ffffff" fill-rule="evenodd" fill-opacity="1"/>
<defs>
  <clipPath id="clip282">
    <rect x="188" y="123" width="2165" height="1352"/>
  </clipPath>
</defs>
<polyline clip-path="url(#clip282)" style="stroke:#000000; stroke-linecap:butt; stroke-linejoin:round; stroke-width:2; stroke-opacity:0.1; fill:none" points="
  837,1474.16 837,123.472 
  "/>
<polyline clip-path="url(#clip282)" style="stroke:#000000; stroke-linecap:butt; stroke-linejoin:round; stroke-width:2; stroke-opacity:0.1; fill:none" points="
  2011.35,1474.16 2011.35,123.472 
  "/>
<polyline clip-path="url(#clip280)" style="stroke:#000000; stroke-linecap:butt; stroke-linejoin:round; stroke-width:4; stroke-opacity:1; fill:none" points="
  188.574,1474.16 2352.76,1474.16 
  "/>
<polyline clip-path="url(#clip280)" style="stroke:#000000; stroke-linecap:butt; stroke-linejoin:round; stroke-width:4; stroke-opacity:1; fill:none" points="
  837,1474.16 837,1455.27 
  "/>
<polyline clip-path="url(#clip280)" style="stroke:#000000; stroke-linecap:butt; stroke-linejoin:round; stroke-width:4; stroke-opacity:1; fill:none" points="
  2011.35,1474.16 2011.35,1455.27 
  "/>
<path clip-path="url(#clip280)" d="M787.266 1548.29 L794.905 1548.29 L794.905 1521.92 L786.595 1523.59 L786.595 1519.33 L794.859 1517.66 L799.535 1517.66 L799.535 1548.29 L807.173 1548.29 L807.173 1552.22 L787.266 1552.22 L787.266 1548.29 Z" fill="#000000" fill-rule="evenodd" fill-opacity="1" /><path clip-path="url(#clip280)" d="M826.618 1520.74 Q823.007 1520.74 821.178 1524.31 Q819.372 1527.85 819.372 1534.98 Q819.372 1542.09 821.178 1545.65 Q823.007 1549.19 826.618 1549.19 Q830.252 1549.19 832.058 1545.65 Q833.886 1542.09 833.886 1534.98 Q833.886 1527.85 832.058 1524.31 Q830.252 1520.74 826.618 1520.74 M826.618 1517.04 Q832.428 1517.04 835.483 1521.65 Q838.562 1526.23 838.562 1534.98 Q838.562 1543.71 835.483 1548.31 Q832.428 1552.9 826.618 1552.9 Q820.808 1552.9 817.729 1548.31 Q814.673 1543.71 814.673 1534.98 Q814.673 1526.23 817.729 1521.65 Q820.808 1517.04 826.618 1517.04 Z" fill="#000000" fill-rule="evenodd" fill-opacity="1" /><path clip-path="url(#clip280)" d="M838.562 1511.14 L862.674 1511.14 L862.674 1514.34 L838.562 1514.34 L838.562 1511.14 Z" fill="#000000" fill-rule="evenodd" fill-opacity="1" /><path clip-path="url(#clip280)" d="M874.146 1521.62 L887.406 1521.62 L887.406 1524.81 L869.576 1524.81 L869.576 1521.62 Q871.739 1519.38 875.463 1515.62 Q879.206 1511.84 880.165 1510.75 Q881.989 1508.7 882.704 1507.29 Q883.437 1505.86 883.437 1504.48 Q883.437 1502.24 881.858 1500.83 Q880.297 1499.42 877.776 1499.42 Q875.99 1499.42 873.996 1500.04 Q872.021 1500.67 869.764 1501.93 L869.764 1498.09 Q872.059 1497.17 874.052 1496.7 Q876.046 1496.23 877.701 1496.23 Q882.064 1496.23 884.66 1498.41 Q887.255 1500.59 887.255 1504.24 Q887.255 1505.97 886.597 1507.53 Q885.958 1509.07 884.246 1511.18 Q883.776 1511.72 881.256 1514.34 Q878.736 1516.93 874.146 1521.62 Z" fill="#000000" fill-rule="evenodd" fill-opacity="1" /><path clip-path="url(#clip280)" d="M1976.33 1548.29 L1983.97 1548.29 L1983.97 1521.92 L1975.66 1523.59 L1975.66 1519.33 L1983.93 1517.66 L1988.6 1517.66 L1988.6 1548.29 L1996.24 1548.29 L1996.24 1552.22 L1976.33 1552.22 L1976.33 1548.29 Z" fill="#000000" fill-rule="evenodd" fill-opacity="1" /><path clip-path="url(#clip280)" d="M2015.69 1520.74 Q2012.07 1520.74 2010.25 1524.31 Q2008.44 1527.85 2008.44 1534.98 Q2008.44 1542.09 2010.25 1545.65 Q2012.07 1549.19 2015.69 1549.19 Q2019.32 1549.19 2021.13 1545.65 Q2022.95 1542.09 2022.95 1534.98 Q2022.95 1527.85 2021.13 1524.31 Q2019.32 1520.74 2015.69 1520.74 M2015.69 1517.04 Q2021.5 1517.04 2024.55 1521.65 Q2027.63 1526.23 2027.63 1534.98 Q2027.63 1543.71 2024.55 1548.31 Q2021.5 1552.9 2015.69 1552.9 Q2009.88 1552.9 2006.8 1548.31 Q2003.74 1543.71 2003.74 1534.98 Q2003.74 1526.23 2006.8 1521.65 Q2009.88 1517.04 2015.69 1517.04 Z" fill="#000000" fill-rule="evenodd" fill-opacity="1" /><path clip-path="url(#clip280)" d="M2037.34 1499.24 Q2034.4 1499.24 2032.92 1502.13 Q2031.45 1505.01 2031.45 1510.8 Q2031.45 1516.58 2032.92 1519.47 Q2034.4 1522.35 2037.34 1522.35 Q2040.29 1522.35 2041.76 1519.47 Q2043.24 1516.58 2043.24 1510.8 Q2043.24 1505.01 2041.76 1502.13 Q2040.29 1499.24 2037.34 1499.24 M2037.34 1496.23 Q2042.06 1496.23 2044.54 1499.97 Q2047.04 1503.69 2047.04 1510.8 Q2047.04 1517.89 2044.54 1521.64 Q2042.06 1525.36 2037.34 1525.36 Q2032.61 1525.36 2030.11 1521.64 Q2027.63 1517.89 2027.63 1510.8 Q2027.63 1503.69 2030.11 1499.97 Q2032.61 1496.23 2037.34 1496.23 Z" fill="#000000" fill-rule="evenodd" fill-opacity="1" /><polyline clip-path="url(#clip282)" style="stroke:#000000; stroke-linecap:butt; stroke-linejoin:round; stroke-width:2; stroke-opacity:0.1; fill:none" points="
  188.574,983.247 2352.76,983.247 
  "/>
<polyline clip-path="url(#clip282)" style="stroke:#000000; stroke-linecap:butt; stroke-linejoin:round; stroke-width:2; stroke-opacity:0.1; fill:none" points="
  188.574,336.547 2352.76,336.547 
  "/>
<polyline clip-path="url(#clip280)" style="stroke:#000000; stroke-linecap:butt; stroke-linejoin:round; stroke-width:4; stroke-opacity:1; fill:none" points="
  188.574,1474.16 188.574,123.472 
  "/>
<polyline clip-path="url(#clip280)" style="stroke:#000000; stroke-linecap:butt; stroke-linejoin:round; stroke-width:4; stroke-opacity:1; fill:none" points="
  188.574,983.247 207.472,983.247 
  "/>
<polyline clip-path="url(#clip280)" style="stroke:#000000; stroke-linecap:butt; stroke-linejoin:round; stroke-width:4; stroke-opacity:1; fill:none" points="
  188.574,336.547 207.472,336.547 
  "/>
<path clip-path="url(#clip280)" d="M51.6634 1003.04 L59.3023 1003.04 L59.3023 976.674 L50.9921 978.341 L50.9921 974.081 L59.256 972.415 L63.9319 972.415 L63.9319 1003.04 L71.5707 1003.04 L71.5707 1006.97 L51.6634 1006.97 L51.6634 1003.04 Z" fill="#000000" fill-rule="evenodd" fill-opacity="1" /><path clip-path="url(#clip280)" d="M91.0151 975.494 Q87.404 975.494 85.5753 979.058 Q83.7697 982.6 83.7697 989.73 Q83.7697 996.836 85.5753 1000.4 Q87.404 1003.94 91.0151 1003.94 Q94.6493 1003.94 96.4548 1000.4 Q98.2835 996.836 98.2835 989.73 Q98.2835 982.6 96.4548 979.058 Q94.6493 975.494 91.0151 975.494 M91.0151 971.79 Q96.8252 971.79 99.8808 976.396 Q102.959 980.98 102.959 989.73 Q102.959 998.456 99.8808 1003.06 Q96.8252 1007.65 91.0151 1007.65 Q85.2049 1007.65 82.1262 1003.06 Q79.0707 998.456 79.0707 989.73 Q79.0707 980.98 82.1262 976.396 Q85.2049 971.79 91.0151 971.79 Z" fill="#000000" fill-rule="evenodd" fill-opacity="1" /><path clip-path="url(#clip280)" d="M102.959 965.891 L127.071 965.891 L127.071 969.089 L102.959 969.089 L102.959 965.891 Z" fill="#000000" fill-rule="evenodd" fill-opacity="1" /><path clip-path="url(#clip280)" d="M146.782 964.424 Q149.509 965.007 151.032 966.85 Q152.574 968.694 152.574 971.402 Q152.574 975.558 149.716 977.834 Q146.857 980.11 141.591 980.11 Q139.823 980.11 137.942 979.753 Q136.08 979.414 134.086 978.718 L134.086 975.051 Q135.666 975.972 137.547 976.442 Q139.428 976.913 141.478 976.913 Q145.051 976.913 146.913 975.502 Q148.794 974.091 148.794 971.402 Q148.794 968.919 147.045 967.527 Q145.315 966.117 142.211 966.117 L138.939 966.117 L138.939 962.995 L142.362 962.995 Q145.164 962.995 146.65 961.885 Q148.136 960.757 148.136 958.65 Q148.136 956.487 146.593 955.34 Q145.07 954.174 142.211 954.174 Q140.65 954.174 138.863 954.512 Q137.077 954.851 134.933 955.566 L134.933 952.18 Q137.096 951.578 138.976 951.278 Q140.876 950.977 142.55 950.977 Q146.876 950.977 149.396 952.951 Q151.916 954.907 151.916 958.255 Q151.916 960.587 150.581 962.205 Q149.245 963.804 146.782 964.424 Z" fill="#000000" fill-rule="evenodd" fill-opacity="1" /><path clip-path="url(#clip280)" d="M81.8687 356.339 L89.5075 356.339 L89.5075 329.974 L81.1974 331.64 L81.1974 327.381 L89.4612 325.714 L94.1371 325.714 L94.1371 356.339 L101.776 356.339 L101.776 360.274 L81.8687 360.274 L81.8687 356.339 Z" fill="#000000" fill-rule="evenodd" fill-opacity="1" /><path clip-path="url(#clip280)" d="M121.22 328.793 Q117.609 328.793 115.781 332.358 Q113.975 335.9 113.975 343.029 Q113.975 350.136 115.781 353.7 Q117.609 357.242 121.22 357.242 Q124.855 357.242 126.66 353.7 Q128.489 350.136 128.489 343.029 Q128.489 335.9 126.66 332.358 Q124.855 328.793 121.22 328.793 M121.22 325.089 Q127.03 325.089 130.086 329.696 Q133.165 334.279 133.165 343.029 Q133.165 351.756 130.086 356.362 Q127.03 360.946 121.22 360.946 Q115.41 360.946 112.331 356.362 Q109.276 351.756 109.276 343.029 Q109.276 334.279 112.331 329.696 Q115.41 325.089 121.22 325.089 Z" fill="#000000" fill-rule="evenodd" fill-opacity="1" /><path clip-path="url(#clip280)" d="M142.87 307.285 Q139.936 307.285 138.45 310.182 Q136.983 313.059 136.983 318.852 Q136.983 324.626 138.45 327.523 Q139.936 330.4 142.87 330.4 Q145.822 330.4 147.289 327.523 Q148.775 324.626 148.775 318.852 Q148.775 313.059 147.289 310.182 Q145.822 307.285 142.87 307.285 M142.87 304.276 Q147.59 304.276 150.073 308.019 Q152.574 311.743 152.574 318.852 Q152.574 325.943 150.073 329.686 Q147.59 333.409 142.87 333.409 Q138.149 333.409 135.647 329.686 Q133.165 325.943 133.165 318.852 Q133.165 311.743 135.647 308.019 Q138.149 304.276 142.87 304.276 Z" fill="#000000" fill-rule="evenodd" fill-opacity="1" /><path clip-path="url(#clip280)" d="M1136.9 9.54393 L1144.36 9.54393 L1144.36 72.576 L1136.9 72.576 L1136.9 9.54393 Z" fill="#000000" fill-rule="evenodd" fill-opacity="1" /><path clip-path="url(#clip280)" d="M1177.53 32.4315 Q1171.54 32.4315 1168.06 37.1306 Q1164.57 41.7891 1164.57 49.9314 Q1164.57 58.0738 1168.02 62.7728 Q1171.5 67.4314 1177.53 67.4314 Q1183.49 67.4314 1186.97 62.7323 Q1190.46 58.0333 1190.46 49.9314 Q1190.46 41.8701 1186.97 37.1711 Q1183.49 32.4315 1177.53 32.4315 M1177.53 26.1121 Q1187.26 26.1121 1192.81 32.4315 Q1198.36 38.7509 1198.36 49.9314 Q1198.36 61.0714 1192.81 67.4314 Q1187.26 73.7508 1177.53 73.7508 Q1167.77 73.7508 1162.22 67.4314 Q1156.71 61.0714 1156.71 49.9314 Q1156.71 38.7509 1162.22 32.4315 Q1167.77 26.1121 1177.53 26.1121 Z" fill="#000000" fill-rule="evenodd" fill-opacity="1" /><path clip-path="url(#clip280)" d="M1240.57 49.3643 Q1240.57 41.2625 1237.2 36.8065 Q1233.88 32.3505 1227.85 32.3505 Q1221.85 32.3505 1218.49 36.8065 Q1215.17 41.2625 1215.17 49.3643 Q1215.17 57.4256 1218.49 61.8816 Q1221.85 66.3376 1227.85 66.3376 Q1233.88 66.3376 1237.2 61.8816 Q1240.57 57.4256 1240.57 49.3643 M1248.02 66.9452 Q1248.02 78.5308 1242.88 84.1616 Q1237.73 89.8329 1227.12 89.8329 Q1223.19 89.8329 1219.7 89.2252 Q1216.22 88.6581 1212.94 87.4428 L1212.94 80.1917 Q1216.22 81.9741 1219.42 82.8248 Q1222.62 83.6755 1225.94 83.6755 Q1233.28 83.6755 1236.92 79.8271 Q1240.57 76.0193 1240.57 68.282 L1240.57 64.5957 Q1238.26 68.6061 1234.65 70.5911 Q1231.05 72.576 1226.02 72.576 Q1217.68 72.576 1212.58 66.2161 Q1207.47 59.8562 1207.47 49.3643 Q1207.47 38.832 1212.58 32.472 Q1217.68 26.1121 1226.02 26.1121 Q1231.05 26.1121 1234.65 28.0971 Q1238.26 30.082 1240.57 34.0924 L1240.57 27.2059 L1248.02 27.2059 L1248.02 66.9452 Z" fill="#000000" fill-rule="evenodd" fill-opacity="1" /><path clip-path="url(#clip280)" d="M1259.61 46.5287 L1281.44 46.5287 L1281.44 53.1722 L1259.61 53.1722 L1259.61 46.5287 Z" fill="#000000" fill-rule="evenodd" fill-opacity="1" /><path clip-path="url(#clip280)" d="M1293.31 9.54393 L1300.76 9.54393 L1300.76 72.576 L1293.31 72.576 L1293.31 9.54393 Z" fill="#000000" fill-rule="evenodd" fill-opacity="1" /><path clip-path="url(#clip280)" d="M1333.94 32.4315 Q1327.94 32.4315 1324.46 37.1306 Q1320.98 41.7891 1320.98 49.9314 Q1320.98 58.0738 1324.42 62.7728 Q1327.9 67.4314 1333.94 67.4314 Q1339.9 67.4314 1343.38 62.7323 Q1346.86 58.0333 1346.86 49.9314 Q1346.86 41.8701 1343.38 37.1711 Q1339.9 32.4315 1333.94 32.4315 M1333.94 26.1121 Q1343.66 26.1121 1349.21 32.4315 Q1354.76 38.7509 1354.76 49.9314 Q1354.76 61.0714 1349.21 67.4314 Q1343.66 73.7508 1333.94 73.7508 Q1324.18 73.7508 1318.63 67.4314 Q1313.12 61.0714 1313.12 49.9314 Q1313.12 38.7509 1318.63 32.4315 Q1324.18 26.1121 1333.94 26.1121 Z" fill="#000000" fill-rule="evenodd" fill-opacity="1" /><path clip-path="url(#clip280)" d="M1396.97 49.3643 Q1396.97 41.2625 1393.61 36.8065 Q1390.29 32.3505 1384.25 32.3505 Q1378.26 32.3505 1374.89 36.8065 Q1371.57 41.2625 1371.57 49.3643 Q1371.57 57.4256 1374.89 61.8816 Q1378.26 66.3376 1384.25 66.3376 Q1390.29 66.3376 1393.61 61.8816 Q1396.97 57.4256 1396.97 49.3643 M1404.43 66.9452 Q1404.43 78.5308 1399.28 84.1616 Q1394.14 89.8329 1383.52 89.8329 Q1379.59 89.8329 1376.11 89.2252 Q1372.63 88.6581 1369.35 87.4428 L1369.35 80.1917 Q1372.63 81.9741 1375.83 82.8248 Q1379.03 83.6755 1382.35 83.6755 Q1389.68 83.6755 1393.33 79.8271 Q1396.97 76.0193 1396.97 68.282 L1396.97 64.5957 Q1394.66 68.6061 1391.06 70.5911 Q1387.45 72.576 1382.43 72.576 Q1374.08 72.576 1368.98 66.2161 Q1363.88 59.8562 1363.88 49.3643 Q1363.88 38.832 1368.98 32.472 Q1374.08 26.1121 1382.43 26.1121 Q1387.45 26.1121 1391.06 28.0971 Q1394.66 30.082 1396.97 34.0924 L1396.97 27.2059 L1404.43 27.2059 L1404.43 66.9452 Z" fill="#000000" fill-rule="evenodd" fill-opacity="1" /><polyline clip-path="url(#clip282)" style="stroke:#009af9; stroke-linecap:butt; stroke-linejoin:round; stroke-width:4; stroke-opacity:1; fill:none" points="
  249.825,1435.94 263.117,1427.64 386.025,1350.93 459.888,1304.83 522.338,1265.86 590.176,1223.52 652.716,1184.49 719.767,1142.64 797.451,1094.16 866.487,1051.07 
  927.026,1013.29 993.03,972.094 1059.43,930.656 1132.83,884.84 1202.68,841.248 1275.31,795.922 1336.44,757.767 1411.08,711.184 1479.45,668.512 1542.6,629.1 
  1606.57,589.177 1678.26,544.435 1743.22,503.892 1817.6,457.472 1886.46,414.492 1954.36,372.118 2020.28,330.977 2087.85,288.802 2161.89,242.594 2269.44,175.47 
  2291.51,161.699 
  "/>
</svg>
