<?xml version="1.0" encoding="utf-8"?>
<svg xmlns="http://www.w3.org/2000/svg" xmlns:xlink="http://www.w3.org/1999/xlink" width="600" height="400" viewBox="0 0 2400 1600">
<defs>
  <clipPath id="clip480">
    <rect x="0" y="0" width="2400" height="1600"/>
  </clipPath>
</defs>
<path clip-path="url(#clip480)" d="
M0 1600 L2400 1600 L2400 0 L0 0  Z
  " fill="#ffffff" fill-rule="evenodd" fill-opacity="1"/>
<defs>
  <clipPath id="clip481">
    <rect x="480" y="0" width="1681" height="1600"/>
  </clipPath>
</defs>
<defs>
  <clipPath id="clip482">
    <rect x="138" y="47" width="2215" height="1440"/>
  </clipPath>
</defs>
<path clip-path="url(#clip480)" d="
M598.232 1247.87 L2352.76 1247.87 L2352.76 456.265 L598.232 456.265  Z
  " fill="#ffffff" fill-rule="evenodd" fill-opacity="1"/>
<defs>
  <clipPath id="clip483">
    <rect x="598" y="456" width="1756" height="793"/>
  </clipPath>
</defs>
<polyline clip-path="url(#clip483)" style="stroke:#000000; stroke-linecap:butt; stroke-linejoin:round; stroke-width:2; stroke-opacity:0.1; fill:none" points="
  598.232,1247.87 598.232,456.265 
  "/>
<polyline clip-path="url(#clip483)" style="stroke:#000000; stroke-linecap:butt; stroke-linejoin:round; stroke-width:2; stroke-opacity:0.1; fill:none" points="
  737.853,1247.87 737.853,456.265 
  "/>
<polyline clip-path="url(#clip483)" style="stroke:#000000; stroke-linecap:butt; stroke-linejoin:round; stroke-width:2; stroke-opacity:0.1; fill:none" points="
  877.473,1247.87 877.473,456.265 
  "/>
<polyline clip-path="url(#clip483)" style="stroke:#000000; stroke-linecap:butt; stroke-linejoin:round; stroke-width:2; stroke-opacity:0.1; fill:none" points="
  1017.09,1247.87 1017.09,456.265 
  "/>
<polyline clip-path="url(#clip483)" style="stroke:#000000; stroke-linecap:butt; stroke-linejoin:round; stroke-width:2; stroke-opacity:0.1; fill:none" points="
  1156.71,1247.87 1156.71,456.265 
  "/>
<polyline clip-path="url(#clip483)" style="stroke:#000000; stroke-linecap:butt; stroke-linejoin:round; stroke-width:2; stroke-opacity:0.1; fill:none" points="
  1296.33,1247.87 1296.33,456.265 
  "/>
<polyline clip-path="url(#clip483)" style="stroke:#000000; stroke-linecap:butt; stroke-linejoin:round; stroke-width:2; stroke-opacity:0.1; fill:none" points="
  1435.96,1247.87 1435.96,456.265 
  "/>
<polyline clip-path="url(#clip483)" style="stroke:#000000; stroke-linecap:butt; stroke-linejoin:round; stroke-width:2; stroke-opacity:0.1; fill:none" points="
  1575.58,1247.87 1575.58,456.265 
  "/>
<polyline clip-path="url(#clip483)" style="stroke:#000000; stroke-linecap:butt; stroke-linejoin:round; stroke-width:2; stroke-opacity:0.1; fill:none" points="
  1715.2,1247.87 1715.2,456.265 
  "/>
<polyline clip-path="url(#clip483)" style="stroke:#000000; stroke-linecap:butt; stroke-linejoin:round; stroke-width:2; stroke-opacity:0.1; fill:none" points="
  1854.82,1247.87 1854.82,456.265 
  "/>
<polyline clip-path="url(#clip483)" style="stroke:#000000; stroke-linecap:butt; stroke-linejoin:round; stroke-width:2; stroke-opacity:0.1; fill:none" points="
  1994.44,1247.87 1994.44,456.265 
  "/>
<polyline clip-path="url(#clip483)" style="stroke:#000000; stroke-linecap:butt; stroke-linejoin:round; stroke-width:2; stroke-opacity:0.1; fill:none" points="
  2134.06,1247.87 2134.06,456.265 
  "/>
<polyline clip-path="url(#clip483)" style="stroke:#000000; stroke-linecap:butt; stroke-linejoin:round; stroke-width:2; stroke-opacity:0.1; fill:none" points="
  2273.68,1247.87 2273.68,456.265 
  "/>
<polyline clip-path="url(#clip480)" style="stroke:#000000; stroke-linecap:butt; stroke-linejoin:round; stroke-width:4; stroke-opacity:1; fill:none" points="
  598.232,1247.87 2352.76,1247.87 
  "/>
<polyline clip-path="url(#clip480)" style="stroke:#000000; stroke-linecap:butt; stroke-linejoin:round; stroke-width:4; stroke-opacity:1; fill:none" points="
  598.232,1247.87 598.232,1228.97 
  "/>
<polyline clip-path="url(#clip480)" style="stroke:#000000; stroke-linecap:butt; stroke-linejoin:round; stroke-width:4; stroke-opacity:1; fill:none" points="
  737.853,1247.87 737.853,1228.97 
  "/>
<polyline clip-path="url(#clip480)" style="stroke:#000000; stroke-linecap:butt; stroke-linejoin:round; stroke-width:4; stroke-opacity:1; fill:none" points="
  877.473,1247.87 877.473,1228.97 
  "/>
<polyline clip-path="url(#clip480)" style="stroke:#000000; stroke-linecap:butt; stroke-linejoin:round; stroke-width:4; stroke-opacity:1; fill:none" points="
  1017.09,1247.87 1017.09,1228.97 
  "/>
<polyline clip-path="url(#clip480)" style="stroke:#000000; stroke-linecap:butt; stroke-linejoin:round; stroke-width:4; stroke-opacity:1; fill:none" points="
  1156.71,1247.87 1156.71,1228.97 
  "/>
<polyline clip-path="url(#clip480)" style="stroke:#000000; stroke-linecap:butt; stroke-linejoin:round; stroke-width:4; stroke-opacity:1; fill:none" points="
  1296.33,1247.87 1296.33,1228.97 
  "/>
<polyline clip-path="url(#clip480)" style="stroke:#000000; stroke-linecap:butt; stroke-linejoin:round; stroke-width:4; stroke-opacity:1; fill:none" points="
  1435.96,1247.87 1435.96,1228.97 
  "/>
<polyline clip-path="url(#clip480)" style="stroke:#000000; stroke-linecap:butt; stroke-linejoin:round; stroke-width:4; stroke-opacity:1; fill:none" points="
  1575.58,1247.87 1575.58,1228.97 
  "/>
<polyline clip-path="url(#clip480)" style="stroke:#000000; stroke-linecap:butt; stroke-linejoin:round; stroke-width:4; stroke-opacity:1; fill:none" points="
  1715.2,1247.87 1715.2,1228.97 
  "/>
<polyline clip-path="url(#clip480)" style="stroke:#000000; stroke-linecap:butt; stroke-linejoin:round; stroke-width:4; stroke-opacity:1; fill:none" points="
  1854.82,1247.87 1854.82,1228.97 
  "/>
<polyline clip-path="url(#clip480)" style="stroke:#000000; stroke-linecap:butt; stroke-linejoin:round; stroke-width:4; stroke-opacity:1; fill:none" points="
  1994.44,1247.87 1994.44,1228.97 
  "/>
<polyline clip-path="url(#clip480)" style="stroke:#000000; stroke-linecap:butt; stroke-linejoin:round; stroke-width:4; stroke-opacity:1; fill:none" points="
  2134.06,1247.87 2134.06,1228.97 
  "/>
<polyline clip-path="url(#clip480)" style="stroke:#000000; stroke-linecap:butt; stroke-linejoin:round; stroke-width:4; stroke-opacity:1; fill:none" points="
  2273.68,1247.87 2273.68,1228.97 
  "/>
<path clip-path="url(#clip480)" d="M541.319 1315.59 Q541.319 1302.37 544.656 1295.17 Q549.312 1284.45 560.291 1284.45 Q562.618 1284.45 565.034 1285.11 Q567.493 1285.73 570.567 1288.14 Q573.686 1290.56 575.574 1294.51 Q579.175 1302.15 579.175 1315.59 Q579.175 1328.72 575.838 1335.88 Q570.963 1346.33 560.203 1346.33 Q556.163 1346.33 552.034 1344.27 Q547.95 1342.2 545.359 1337.24 Q541.319 1329.82 541.319 1315.59 M548.785 1314.49 Q548.785 1328.06 549.751 1333.46 Q550.849 1339.3 553.835 1341.85 Q556.865 1344.36 560.203 1344.36 Q563.804 1344.36 566.791 1341.68 Q569.821 1338.95 570.743 1333.11 Q571.753 1327.36 571.709 1314.49 Q571.709 1301.98 570.831 1296.97 Q569.645 1291.13 566.483 1288.8 Q563.365 1286.43 560.203 1286.43 Q559.017 1286.43 557.744 1286.78 Q556.514 1287.13 554.713 1288.14 Q552.913 1289.15 551.507 1291.65 Q550.146 1294.16 549.487 1297.93 Q548.785 1302.81 548.785 1314.49 Z" fill="#000000" fill-rule="evenodd" fill-opacity="1" /><path clip-path="url(#clip480)" d="M587.219 1342.91 Q585.858 1341.46 585.858 1339.57 Q585.858 1337.68 587.219 1336.32 Q588.581 1334.91 590.645 1334.91 Q592.621 1334.91 593.938 1336.23 Q595.3 1337.5 595.3 1339.61 Q595.3 1341.68 593.851 1343.04 Q592.445 1344.36 590.645 1344.36 Q588.581 1344.36 587.219 1342.91 Z" fill="#000000" fill-rule="evenodd" fill-opacity="1" /><path clip-path="url(#clip480)" d="M610.606 1315.59 Q610.606 1302.37 613.944 1295.17 Q618.599 1284.45 629.579 1284.45 Q631.906 1284.45 634.322 1285.11 Q636.781 1285.73 639.855 1288.14 Q642.973 1290.56 644.862 1294.51 Q648.463 1302.15 648.463 1315.59 Q648.463 1328.72 645.125 1335.88 Q640.251 1346.33 629.491 1346.33 Q625.45 1346.33 621.322 1344.27 Q617.238 1342.2 614.647 1337.24 Q610.606 1329.82 610.606 1315.59 M618.072 1314.49 Q618.072 1328.06 619.039 1333.46 Q620.137 1339.3 623.123 1341.85 Q626.153 1344.36 629.491 1344.36 Q633.092 1344.36 636.078 1341.68 Q639.109 1338.95 640.031 1333.11 Q641.041 1327.36 640.997 1314.49 Q640.997 1301.98 640.119 1296.97 Q638.933 1291.13 635.771 1288.8 Q632.653 1286.43 629.491 1286.43 Q628.305 1286.43 627.031 1286.78 Q625.802 1287.13 624.001 1288.14 Q622.201 1289.15 620.795 1291.65 Q619.434 1294.16 618.775 1297.93 Q618.072 1302.81 618.072 1314.49 Z" fill="#000000" fill-rule="evenodd" fill-opacity="1" /><path clip-path="url(#clip480)" d="M680.939 1315.59 Q680.939 1302.37 684.277 1295.17 Q688.932 1284.45 699.911 1284.45 Q702.239 1284.45 704.654 1285.11 Q707.114 1285.73 710.188 1288.14 Q713.306 1290.56 715.195 1294.51 Q718.796 1302.15 718.796 1315.59 Q718.796 1328.72 715.458 1335.88 Q710.583 1346.33 699.824 1346.33 Q695.783 1346.33 691.655 1344.27 Q687.571 1342.2 684.98 1337.24 Q680.939 1329.82 680.939 1315.59 M688.405 1314.49 Q688.405 1328.06 689.371 1333.46 Q690.469 1339.3 693.456 1341.85 Q696.486 1344.36 699.824 1344.36 Q703.425 1344.36 706.411 1341.68 Q709.441 1338.95 710.364 1333.11 Q711.374 1327.36 711.33 1314.49 Q711.33 1301.98 710.452 1296.97 Q709.266 1291.13 706.104 1288.8 Q702.986 1286.43 699.824 1286.43 Q698.638 1286.43 697.364 1286.78 Q696.135 1287.13 694.334 1288.14 Q692.533 1289.15 691.128 1291.65 Q689.767 1294.16 689.108 1297.93 Q688.405 1302.81 688.405 1314.49 Z" fill="#000000" fill-rule="evenodd" fill-opacity="1" /><path clip-path="url(#clip480)" d="M726.84 1342.91 Q725.478 1341.46 725.478 1339.57 Q725.478 1337.68 726.84 1336.32 Q728.201 1334.91 730.265 1334.91 Q732.242 1334.91 733.559 1336.23 Q734.92 1337.5 734.92 1339.61 Q734.92 1341.68 733.471 1343.04 Q732.066 1344.36 730.265 1344.36 Q728.201 1344.36 726.84 1342.91 Z" fill="#000000" fill-rule="evenodd" fill-opacity="1" /><path clip-path="url(#clip480)" d="M750.227 1329.86 Q750.227 1327.18 751.676 1326.17 Q753.126 1325.12 754.663 1325.12 Q756.727 1325.12 757.913 1326.44 Q759.142 1327.71 759.142 1329.51 Q759.142 1331.31 757.913 1332.63 Q756.727 1333.9 754.663 1333.9 Q753.653 1333.9 753.126 1333.73 Q754.311 1337.86 757.913 1340.84 Q761.558 1343.83 766.345 1343.83 Q772.361 1343.83 775.962 1337.99 Q778.114 1334.21 778.114 1325.65 Q778.114 1318.09 776.489 1314.32 Q773.986 1308.56 768.848 1308.56 Q761.558 1308.56 757.254 1314.84 Q756.727 1315.63 756.112 1315.68 Q755.234 1315.68 755.014 1315.19 Q754.838 1314.67 754.838 1313.31 L754.838 1286.69 Q754.838 1284.54 755.717 1284.54 Q756.068 1284.54 756.815 1284.8 Q762.48 1287.31 768.76 1287.35 Q775.216 1287.35 781.013 1284.72 Q781.452 1284.45 781.716 1284.45 Q782.594 1284.45 782.638 1285.46 Q782.638 1285.81 781.891 1286.87 Q781.189 1287.88 779.652 1289.24 Q778.114 1290.56 776.138 1291.83 Q774.162 1293.1 771.263 1293.98 Q768.409 1294.82 765.247 1294.82 Q761.47 1294.82 757.605 1293.63 L757.605 1311.15 Q762.26 1306.59 769.024 1306.59 Q776.226 1306.59 781.189 1312.38 Q786.151 1318.18 786.151 1326.26 Q786.151 1334.74 780.266 1340.53 Q774.425 1346.33 766.52 1346.33 Q759.318 1346.33 754.751 1341.19 Q750.227 1336.05 750.227 1329.86 Z" fill="#000000" fill-rule="evenodd" fill-opacity="1" /><path clip-path="url(#clip480)" d="M825.122 1293.02 L825.122 1290.21 Q835.926 1290.21 841.503 1284.45 Q843.04 1284.45 843.304 1284.8 Q843.567 1285.15 843.567 1286.78 L843.567 1337.24 Q843.567 1339.92 844.885 1340.75 Q846.203 1341.59 851.956 1341.59 L854.81 1341.59 L854.81 1344.36 Q851.648 1344.09 840.23 1344.09 Q828.811 1344.09 825.693 1344.36 L825.693 1341.59 L828.548 1341.59 Q834.213 1341.59 835.575 1340.8 Q836.936 1339.96 836.936 1337.24 L836.936 1290.64 Q832.237 1293.02 825.122 1293.02 Z" fill="#000000" fill-rule="evenodd" fill-opacity="1" /><path clip-path="url(#clip480)" d="M861.898 1342.91 Q860.536 1341.46 860.536 1339.57 Q860.536 1337.68 861.898 1336.32 Q863.259 1334.91 865.323 1334.91 Q867.3 1334.91 868.617 1336.23 Q869.979 1337.5 869.979 1339.61 Q869.979 1341.68 868.529 1343.04 Q867.124 1344.36 865.323 1344.36 Q863.259 1344.36 861.898 1342.91 Z" fill="#000000" fill-rule="evenodd" fill-opacity="1" /><path clip-path="url(#clip480)" d="M885.285 1315.59 Q885.285 1302.37 888.623 1295.17 Q893.278 1284.45 904.257 1284.45 Q906.585 1284.45 909 1285.11 Q911.46 1285.73 914.534 1288.14 Q917.652 1290.56 919.54 1294.51 Q923.142 1302.15 923.142 1315.59 Q923.142 1328.72 919.804 1335.88 Q914.929 1346.33 904.169 1346.33 Q900.129 1346.33 896.001 1344.27 Q891.917 1342.2 889.325 1337.24 Q885.285 1329.82 885.285 1315.59 M892.751 1314.49 Q892.751 1328.06 893.717 1333.46 Q894.815 1339.3 897.801 1341.85 Q900.832 1344.36 904.169 1344.36 Q907.771 1344.36 910.757 1341.68 Q913.787 1338.95 914.71 1333.11 Q915.72 1327.36 915.676 1314.49 Q915.676 1301.98 914.797 1296.97 Q913.612 1291.13 910.45 1288.8 Q907.332 1286.43 904.169 1286.43 Q902.984 1286.43 901.71 1286.78 Q900.48 1287.13 898.68 1288.14 Q896.879 1289.15 895.474 1291.65 Q894.112 1294.16 893.454 1297.93 Q892.751 1302.81 892.751 1314.49 Z" fill="#000000" fill-rule="evenodd" fill-opacity="1" /><path clip-path="url(#clip480)" d="M964.743 1293.02 L964.743 1290.21 Q975.546 1290.21 981.124 1284.45 Q982.661 1284.45 982.925 1284.8 Q983.188 1285.15 983.188 1286.78 L983.188 1337.24 Q983.188 1339.92 984.506 1340.75 Q985.823 1341.59 991.576 1341.59 L994.431 1341.59 L994.431 1344.36 Q991.269 1344.09 979.85 1344.09 Q968.432 1344.09 965.314 1344.36 L965.314 1341.59 L968.168 1341.59 Q973.834 1341.59 975.195 1340.8 Q976.557 1339.96 976.557 1337.24 L976.557 1290.64 Q971.857 1293.02 964.743 1293.02 Z" fill="#000000" fill-rule="evenodd" fill-opacity="1" /><path clip-path="url(#clip480)" d="M1001.52 1342.91 Q1000.16 1341.46 1000.16 1339.57 Q1000.16 1337.68 1001.52 1336.32 Q1002.88 1334.91 1004.94 1334.91 Q1006.92 1334.91 1008.24 1336.23 Q1009.6 1337.5 1009.6 1339.61 Q1009.6 1341.68 1008.15 1343.04 Q1006.74 1344.36 1004.94 1344.36 Q1002.88 1344.36 1001.52 1342.91 Z" fill="#000000" fill-rule="evenodd" fill-opacity="1" /><path clip-path="url(#clip480)" d="M1024.91 1329.86 Q1024.91 1327.18 1026.35 1326.17 Q1027.8 1325.12 1029.34 1325.12 Q1031.41 1325.12 1032.59 1326.44 Q1033.82 1327.71 1033.82 1329.51 Q1033.82 1331.31 1032.59 1332.63 Q1031.41 1333.9 1029.34 1333.9 Q1028.33 1333.9 1027.8 1333.73 Q1028.99 1337.86 1032.59 1340.84 Q1036.24 1343.83 1041.02 1343.83 Q1047.04 1343.83 1050.64 1337.99 Q1052.79 1334.21 1052.79 1325.65 Q1052.79 1318.09 1051.17 1314.32 Q1048.66 1308.56 1043.53 1308.56 Q1036.24 1308.56 1031.93 1314.84 Q1031.41 1315.63 1030.79 1315.68 Q1029.91 1315.68 1029.69 1315.19 Q1029.52 1314.67 1029.52 1313.31 L1029.52 1286.69 Q1029.52 1284.54 1030.4 1284.54 Q1030.75 1284.54 1031.49 1284.8 Q1037.16 1287.31 1043.44 1287.35 Q1049.89 1287.35 1055.69 1284.72 Q1056.13 1284.45 1056.39 1284.45 Q1057.27 1284.45 1057.32 1285.46 Q1057.32 1285.81 1056.57 1286.87 Q1055.87 1287.88 1054.33 1289.24 Q1052.79 1290.56 1050.82 1291.83 Q1048.84 1293.1 1045.94 1293.98 Q1043.09 1294.82 1039.93 1294.82 Q1036.15 1294.82 1032.28 1293.63 L1032.28 1311.15 Q1036.94 1306.59 1043.7 1306.59 Q1050.9 1306.59 1055.87 1312.38 Q1060.83 1318.18 1060.83 1326.26 Q1060.83 1334.74 1054.94 1340.53 Q1049.1 1346.33 1041.2 1346.33 Q1034 1346.33 1029.43 1341.19 Q1024.91 1336.05 1024.91 1329.86 Z" fill="#000000" fill-rule="evenodd" fill-opacity="1" /><path clip-path="url(#clip480)" d="M1099.8 1344.36 Q1099.8 1342.73 1099.93 1342.25 Q1100.11 1341.76 1100.81 1341.02 L1118.07 1321.78 Q1127.51 1311.15 1127.51 1301.89 Q1127.51 1295.87 1124.35 1291.57 Q1121.23 1287.26 1115.48 1287.26 Q1111.53 1287.26 1108.19 1289.68 Q1104.85 1292.09 1103.31 1296.4 Q1103.58 1296.31 1104.5 1296.31 Q1106.74 1296.31 1107.97 1297.72 Q1109.24 1299.12 1109.24 1301.01 Q1109.24 1303.42 1107.66 1304.61 Q1106.13 1305.75 1104.59 1305.75 Q1103.97 1305.75 1103.14 1305.62 Q1102.35 1305.49 1101.07 1304.26 Q1099.8 1302.99 1099.8 1300.75 Q1099.8 1294.47 1104.54 1289.46 Q1109.33 1284.45 1116.62 1284.45 Q1124.88 1284.45 1130.28 1289.37 Q1135.73 1294.25 1135.73 1301.89 Q1135.73 1304.57 1134.89 1307.03 Q1134.1 1309.44 1133 1311.33 Q1131.95 1313.22 1129.05 1316.25 Q1126.15 1319.28 1123.82 1321.43 Q1121.5 1323.58 1116.27 1328.15 L1106.74 1337.42 L1122.95 1337.42 Q1130.85 1337.42 1131.47 1336.71 Q1132.34 1335.44 1133.44 1328.72 L1135.73 1328.72 L1133.18 1344.36 L1099.8 1344.36 Z" fill="#000000" fill-rule="evenodd" fill-opacity="1" /><path clip-path="url(#clip480)" d="M1145.7 1342.91 Q1144.34 1341.46 1144.34 1339.57 Q1144.34 1337.68 1145.7 1336.32 Q1147.06 1334.91 1149.13 1334.91 Q1151.1 1334.91 1152.42 1336.23 Q1153.78 1337.5 1153.78 1339.61 Q1153.78 1341.68 1152.33 1343.04 Q1150.93 1344.36 1149.13 1344.36 Q1147.06 1344.36 1145.7 1342.91 Z" fill="#000000" fill-rule="evenodd" fill-opacity="1" /><path clip-path="url(#clip480)" d="M1169.09 1315.59 Q1169.09 1302.37 1172.43 1295.17 Q1177.08 1284.45 1188.06 1284.45 Q1190.39 1284.45 1192.8 1285.11 Q1195.26 1285.73 1198.34 1288.14 Q1201.46 1290.56 1203.34 1294.51 Q1206.95 1302.15 1206.95 1315.59 Q1206.95 1328.72 1203.61 1335.88 Q1198.73 1346.33 1187.97 1346.33 Q1183.93 1346.33 1179.8 1344.27 Q1175.72 1342.2 1173.13 1337.24 Q1169.09 1329.82 1169.09 1315.59 M1176.55 1314.49 Q1176.55 1328.06 1177.52 1333.46 Q1178.62 1339.3 1181.61 1341.85 Q1184.64 1344.36 1187.97 1344.36 Q1191.57 1344.36 1194.56 1341.68 Q1197.59 1338.95 1198.51 1333.11 Q1199.52 1327.36 1199.48 1314.49 Q1199.48 1301.98 1198.6 1296.97 Q1197.42 1291.13 1194.25 1288.8 Q1191.14 1286.43 1187.97 1286.43 Q1186.79 1286.43 1185.51 1286.78 Q1184.28 1287.13 1182.48 1288.14 Q1180.68 1289.15 1179.28 1291.65 Q1177.92 1294.16 1177.26 1297.93 Q1176.55 1302.81 1176.55 1314.49 Z" fill="#000000" fill-rule="evenodd" fill-opacity="1" /><path clip-path="url(#clip480)" d="M1239.42 1344.36 Q1239.42 1342.73 1239.55 1342.25 Q1239.73 1341.76 1240.43 1341.02 L1257.69 1321.78 Q1267.13 1311.15 1267.13 1301.89 Q1267.13 1295.87 1263.97 1291.57 Q1260.85 1287.26 1255.1 1287.26 Q1251.15 1287.26 1247.81 1289.68 Q1244.47 1292.09 1242.93 1296.4 Q1243.2 1296.31 1244.12 1296.31 Q1246.36 1296.31 1247.59 1297.72 Q1248.86 1299.12 1248.86 1301.01 Q1248.86 1303.42 1247.28 1304.61 Q1245.75 1305.75 1244.21 1305.75 Q1243.59 1305.75 1242.76 1305.62 Q1241.97 1305.49 1240.7 1304.26 Q1239.42 1302.99 1239.42 1300.75 Q1239.42 1294.47 1244.16 1289.46 Q1248.95 1284.45 1256.24 1284.45 Q1264.5 1284.45 1269.9 1289.37 Q1275.35 1294.25 1275.35 1301.89 Q1275.35 1304.57 1274.51 1307.03 Q1273.72 1309.44 1272.62 1311.33 Q1271.57 1313.22 1268.67 1316.25 Q1265.77 1319.28 1263.44 1321.43 Q1261.12 1323.58 1255.89 1328.15 L1246.36 1337.42 L1262.57 1337.42 Q1270.47 1337.42 1271.09 1336.71 Q1271.96 1335.44 1273.06 1328.72 L1275.35 1328.72 L1272.8 1344.36 L1239.42 1344.36 Z" fill="#000000" fill-rule="evenodd" fill-opacity="1" /><path clip-path="url(#clip480)" d="M1285.32 1342.91 Q1283.96 1341.46 1283.96 1339.57 Q1283.96 1337.68 1285.32 1336.32 Q1286.68 1334.91 1288.75 1334.91 Q1290.72 1334.91 1292.04 1336.23 Q1293.4 1337.5 1293.4 1339.61 Q1293.4 1341.68 1291.95 1343.04 Q1290.55 1344.36 1288.75 1344.36 Q1286.68 1344.36 1285.32 1342.91 Z" fill="#000000" fill-rule="evenodd" fill-opacity="1" /><path clip-path="url(#clip480)" d="M1308.71 1329.86 Q1308.71 1327.18 1310.16 1326.17 Q1311.61 1325.12 1313.14 1325.12 Q1315.21 1325.12 1316.39 1326.44 Q1317.62 1327.71 1317.62 1329.51 Q1317.62 1331.31 1316.39 1332.63 Q1315.21 1333.9 1313.14 1333.9 Q1312.13 1333.9 1311.61 1333.73 Q1312.79 1337.86 1316.39 1340.84 Q1320.04 1343.83 1324.83 1343.83 Q1330.84 1343.83 1334.44 1337.99 Q1336.6 1334.21 1336.6 1325.65 Q1336.6 1318.09 1334.97 1314.32 Q1332.47 1308.56 1327.33 1308.56 Q1320.04 1308.56 1315.74 1314.84 Q1315.21 1315.63 1314.59 1315.68 Q1313.72 1315.68 1313.5 1315.19 Q1313.32 1314.67 1313.32 1313.31 L1313.32 1286.69 Q1313.32 1284.54 1314.2 1284.54 Q1314.55 1284.54 1315.3 1284.8 Q1320.96 1287.31 1327.24 1287.35 Q1333.7 1287.35 1339.5 1284.72 Q1339.93 1284.45 1340.2 1284.45 Q1341.08 1284.45 1341.12 1285.46 Q1341.12 1285.81 1340.37 1286.87 Q1339.67 1287.88 1338.13 1289.24 Q1336.6 1290.56 1334.62 1291.83 Q1332.64 1293.1 1329.75 1293.98 Q1326.89 1294.82 1323.73 1294.82 Q1319.95 1294.82 1316.09 1293.63 L1316.09 1311.15 Q1320.74 1306.59 1327.51 1306.59 Q1334.71 1306.59 1339.67 1312.38 Q1344.63 1318.18 1344.63 1326.26 Q1344.63 1334.74 1338.75 1340.53 Q1332.91 1346.33 1325 1346.33 Q1317.8 1346.33 1313.23 1341.19 Q1308.71 1336.05 1308.71 1329.86 Z" fill="#000000" fill-rule="evenodd" fill-opacity="1" /><path clip-path="url(#clip480)" d="M1379.04 1332.23 Q1379.04 1329.56 1380.58 1328.28 Q1382.12 1327.01 1384.09 1327.01 Q1386.16 1327.01 1387.61 1328.37 Q1389.1 1329.69 1389.1 1332.01 Q1389.1 1334.52 1387.34 1335.92 Q1385.63 1337.33 1383.17 1336.98 Q1385.32 1340.58 1389.27 1342.2 Q1393.27 1343.83 1396.96 1343.83 Q1400.82 1343.83 1403.94 1340.49 Q1407.11 1337.15 1407.11 1328.98 Q1407.11 1322.05 1404.38 1318.05 Q1401.7 1314.05 1396.39 1314.05 L1392.44 1314.05 Q1391.08 1314.05 1390.68 1313.92 Q1390.28 1313.79 1390.28 1313.04 Q1390.28 1312.16 1391.65 1311.99 Q1393.01 1311.99 1395.16 1311.72 Q1400.39 1311.55 1403.15 1307.03 Q1405.66 1302.81 1405.66 1296.79 Q1405.66 1291.3 1403.02 1289.02 Q1400.43 1286.69 1397.05 1286.69 Q1393.89 1286.69 1390.42 1288.01 Q1386.95 1289.33 1385.06 1292.27 Q1390.64 1292.27 1390.64 1296.79 Q1390.64 1298.77 1389.36 1300.09 Q1388.13 1301.36 1386.07 1301.36 Q1384.09 1301.36 1382.78 1300.13 Q1381.46 1298.86 1381.46 1296.71 Q1381.46 1291.57 1386.02 1288.01 Q1390.64 1284.45 1397.4 1284.45 Q1404.07 1284.45 1408.99 1287.97 Q1413.96 1291.48 1413.96 1296.88 Q1413.96 1302.19 1410.44 1306.54 Q1406.93 1310.89 1401.35 1312.69 Q1408.2 1314.05 1412.29 1318.71 Q1416.37 1323.32 1416.37 1328.98 Q1416.37 1336.01 1410.84 1341.19 Q1405.3 1346.33 1397.22 1346.33 Q1389.76 1346.33 1384.4 1342.29 Q1379.04 1338.25 1379.04 1332.23 Z" fill="#000000" fill-rule="evenodd" fill-opacity="1" /><path clip-path="url(#clip480)" d="M1424.94 1342.91 Q1423.58 1341.46 1423.58 1339.57 Q1423.58 1337.68 1424.94 1336.32 Q1426.3 1334.91 1428.37 1334.91 Q1430.34 1334.91 1431.66 1336.23 Q1433.02 1337.5 1433.02 1339.61 Q1433.02 1341.68 1431.57 1343.04 Q1430.17 1344.36 1428.37 1344.36 Q1426.3 1344.36 1424.94 1342.91 Z" fill="#000000" fill-rule="evenodd" fill-opacity="1" /><path clip-path="url(#clip480)" d="M1448.33 1315.59 Q1448.33 1302.37 1451.67 1295.17 Q1456.32 1284.45 1467.3 1284.45 Q1469.63 1284.45 1472.05 1285.11 Q1474.5 1285.73 1477.58 1288.14 Q1480.7 1290.56 1482.59 1294.51 Q1486.19 1302.15 1486.19 1315.59 Q1486.19 1328.72 1482.85 1335.88 Q1477.97 1346.33 1467.21 1346.33 Q1463.17 1346.33 1459.05 1344.27 Q1454.96 1342.2 1452.37 1337.24 Q1448.33 1329.82 1448.33 1315.59 M1455.8 1314.49 Q1455.8 1328.06 1456.76 1333.46 Q1457.86 1339.3 1460.85 1341.85 Q1463.88 1344.36 1467.21 1344.36 Q1470.82 1344.36 1473.8 1341.68 Q1476.83 1338.95 1477.75 1333.11 Q1478.76 1327.36 1478.72 1314.49 Q1478.72 1301.98 1477.84 1296.97 Q1476.66 1291.13 1473.49 1288.8 Q1470.38 1286.43 1467.21 1286.43 Q1466.03 1286.43 1464.75 1286.78 Q1463.53 1287.13 1461.72 1288.14 Q1459.92 1289.15 1458.52 1291.65 Q1457.16 1294.16 1456.5 1297.93 Q1455.8 1302.81 1455.8 1314.49 Z" fill="#000000" fill-rule="evenodd" fill-opacity="1" /><path clip-path="url(#clip480)" d="M1518.66 1332.23 Q1518.66 1329.56 1520.2 1328.28 Q1521.74 1327.01 1523.71 1327.01 Q1525.78 1327.01 1527.23 1328.37 Q1528.72 1329.69 1528.72 1332.01 Q1528.72 1334.52 1526.96 1335.92 Q1525.25 1337.33 1522.79 1336.98 Q1524.94 1340.58 1528.9 1342.2 Q1532.89 1343.83 1536.58 1343.83 Q1540.45 1343.83 1543.56 1340.49 Q1546.73 1337.15 1546.73 1328.98 Q1546.73 1322.05 1544 1318.05 Q1541.32 1314.05 1536.01 1314.05 L1532.06 1314.05 Q1530.7 1314.05 1530.3 1313.92 Q1529.91 1313.79 1529.91 1313.04 Q1529.91 1312.16 1531.27 1311.99 Q1532.63 1311.99 1534.78 1311.72 Q1540.01 1311.55 1542.77 1307.03 Q1545.28 1302.81 1545.28 1296.79 Q1545.28 1291.3 1542.64 1289.02 Q1540.05 1286.69 1536.67 1286.69 Q1533.51 1286.69 1530.04 1288.01 Q1526.57 1289.33 1524.68 1292.27 Q1530.26 1292.27 1530.26 1296.79 Q1530.26 1298.77 1528.98 1300.09 Q1527.75 1301.36 1525.69 1301.36 Q1523.71 1301.36 1522.4 1300.13 Q1521.08 1298.86 1521.08 1296.71 Q1521.08 1291.57 1525.65 1288.01 Q1530.26 1284.45 1537.02 1284.45 Q1543.7 1284.45 1548.61 1287.97 Q1553.58 1291.48 1553.58 1296.88 Q1553.58 1302.19 1550.06 1306.54 Q1546.55 1310.89 1540.97 1312.69 Q1547.82 1314.05 1551.91 1318.71 Q1555.99 1323.32 1555.99 1328.98 Q1555.99 1336.01 1550.46 1341.19 Q1544.93 1346.33 1536.84 1346.33 Q1529.38 1346.33 1524.02 1342.29 Q1518.66 1338.25 1518.66 1332.23 Z" fill="#000000" fill-rule="evenodd" fill-opacity="1" /><path clip-path="url(#clip480)" d="M1564.56 1342.91 Q1563.2 1341.46 1563.2 1339.57 Q1563.2 1337.68 1564.56 1336.32 Q1565.92 1334.91 1567.99 1334.91 Q1569.96 1334.91 1571.28 1336.23 Q1572.64 1337.5 1572.64 1339.61 Q1572.64 1341.68 1571.19 1343.04 Q1569.79 1344.36 1567.99 1344.36 Q1565.92 1344.36 1564.56 1342.91 Z" fill="#000000" fill-rule="evenodd" fill-opacity="1" /><path clip-path="url(#clip480)" d="M1587.95 1329.86 Q1587.95 1327.18 1589.4 1326.17 Q1590.85 1325.12 1592.39 1325.12 Q1594.45 1325.12 1595.64 1326.44 Q1596.87 1327.71 1596.87 1329.51 Q1596.87 1331.31 1595.64 1332.63 Q1594.45 1333.9 1592.39 1333.9 Q1591.38 1333.9 1590.85 1333.73 Q1592.03 1337.86 1595.64 1340.84 Q1599.28 1343.83 1604.07 1343.83 Q1610.08 1343.83 1613.69 1337.99 Q1615.84 1334.21 1615.84 1325.65 Q1615.84 1318.09 1614.21 1314.32 Q1611.71 1308.56 1606.57 1308.56 Q1599.28 1308.56 1594.98 1314.84 Q1594.45 1315.63 1593.84 1315.68 Q1592.96 1315.68 1592.74 1315.19 Q1592.56 1314.67 1592.56 1313.31 L1592.56 1286.69 Q1592.56 1284.54 1593.44 1284.54 Q1593.79 1284.54 1594.54 1284.8 Q1600.2 1287.31 1606.48 1287.35 Q1612.94 1287.35 1618.74 1284.72 Q1619.18 1284.45 1619.44 1284.45 Q1620.32 1284.45 1620.36 1285.46 Q1620.36 1285.81 1619.61 1286.87 Q1618.91 1287.88 1617.37 1289.24 Q1615.84 1290.56 1613.86 1291.83 Q1611.89 1293.1 1608.99 1293.98 Q1606.13 1294.82 1602.97 1294.82 Q1599.19 1294.82 1595.33 1293.63 L1595.33 1311.15 Q1599.98 1306.59 1606.75 1306.59 Q1613.95 1306.59 1618.91 1312.38 Q1623.87 1318.18 1623.87 1326.26 Q1623.87 1334.74 1617.99 1340.53 Q1612.15 1346.33 1604.24 1346.33 Q1597.04 1346.33 1592.47 1341.19 Q1587.95 1336.05 1587.95 1329.86 Z" fill="#000000" fill-rule="evenodd" fill-opacity="1" /><path clip-path="url(#clip480)" d="M1658.28 1330.01 L1658.28 1327.24 L1685.91 1285.04 Q1686.61 1283.94 1687.71 1283.99 Q1688.72 1283.99 1688.94 1284.38 Q1689.16 1284.78 1689.16 1286.31 L1689.16 1327.24 L1698.16 1327.24 L1698.16 1330.01 L1689.16 1330.01 L1689.16 1337.83 Q1689.16 1340.42 1690.21 1341.25 Q1691.31 1342.09 1695.96 1342.09 L1697.85 1342.09 L1697.85 1344.86 Q1694.16 1344.59 1685.64 1344.59 Q1677.17 1344.59 1673.48 1344.86 L1673.48 1342.09 L1675.37 1342.09 Q1680.02 1342.09 1681.12 1341.3 Q1682.22 1340.46 1682.22 1337.83 L1682.22 1330.01 L1658.28 1330.01 M1660.83 1327.24 L1682.75 1327.24 L1682.75 1293.69 L1660.83 1327.24 Z" fill="#000000" fill-rule="evenodd" fill-opacity="1" /><path clip-path="url(#clip480)" d="M1704.18 1343.41 Q1702.82 1341.96 1702.82 1340.07 Q1702.82 1338.18 1704.18 1336.82 Q1705.55 1335.41 1707.61 1335.41 Q1709.59 1335.41 1710.9 1336.73 Q1712.26 1338 1712.26 1340.11 Q1712.26 1342.18 1710.82 1343.54 Q1709.41 1344.86 1707.61 1344.86 Q1705.55 1344.86 1704.18 1343.41 Z" fill="#000000" fill-rule="evenodd" fill-opacity="1" /><path clip-path="url(#clip480)" d="M1727.57 1316.09 Q1727.57 1302.87 1730.91 1295.67 Q1735.56 1284.95 1746.54 1284.95 Q1748.87 1284.95 1751.29 1285.61 Q1753.75 1286.23 1756.82 1288.64 Q1759.94 1291.06 1761.83 1295.01 Q1765.43 1302.65 1765.43 1316.09 Q1765.43 1329.22 1762.09 1336.38 Q1757.22 1346.83 1746.46 1346.83 Q1742.42 1346.83 1738.29 1344.77 Q1734.2 1342.7 1731.61 1337.74 Q1727.57 1330.32 1727.57 1316.09 M1735.04 1314.99 Q1735.04 1328.56 1736 1333.96 Q1737.1 1339.8 1740.09 1342.35 Q1743.12 1344.86 1746.46 1344.86 Q1750.06 1344.86 1753.04 1342.18 Q1756.07 1339.45 1757 1333.61 Q1758.01 1327.86 1757.96 1314.99 Q1757.96 1302.48 1757.08 1297.47 Q1755.9 1291.63 1752.74 1289.3 Q1749.62 1286.93 1746.46 1286.93 Q1745.27 1286.93 1744 1287.28 Q1742.77 1287.63 1740.97 1288.64 Q1739.17 1289.65 1737.76 1292.15 Q1736.4 1294.66 1735.74 1298.43 Q1735.04 1303.31 1735.04 1314.99 Z" fill="#000000" fill-rule="evenodd" fill-opacity="1" /><path clip-path="url(#clip480)" d="M1797.9 1330.01 L1797.9 1327.24 L1825.53 1285.04 Q1826.23 1283.94 1827.33 1283.99 Q1828.34 1283.99 1828.56 1284.38 Q1828.78 1284.78 1828.78 1286.31 L1828.78 1327.24 L1837.78 1327.24 L1837.78 1330.01 L1828.78 1330.01 L1828.78 1337.83 Q1828.78 1340.42 1829.83 1341.25 Q1830.93 1342.09 1835.58 1342.09 L1837.47 1342.09 L1837.47 1344.86 Q1833.78 1344.59 1825.26 1344.59 Q1816.79 1344.59 1813.1 1344.86 L1813.1 1342.09 L1814.99 1342.09 Q1819.64 1342.09 1820.74 1341.3 Q1821.84 1340.46 1821.84 1337.83 L1821.84 1330.01 L1797.9 1330.01 M1800.45 1327.24 L1822.37 1327.24 L1822.37 1293.69 L1800.45 1327.24 Z" fill="#000000" fill-rule="evenodd" fill-opacity="1" /><path clip-path="url(#clip480)" d="M1843.8 1343.41 Q1842.44 1341.96 1842.44 1340.07 Q1842.44 1338.18 1843.8 1336.82 Q1845.17 1335.41 1847.23 1335.41 Q1849.21 1335.41 1850.52 1336.73 Q1851.89 1338 1851.89 1340.11 Q1851.89 1342.18 1850.44 1343.54 Q1849.03 1344.86 1847.23 1344.86 Q1845.17 1344.86 1843.8 1343.41 Z" fill="#000000" fill-rule="evenodd" fill-opacity="1" /><path clip-path="url(#clip480)" d="M1867.19 1330.36 Q1867.19 1327.68 1868.64 1326.67 Q1870.09 1325.62 1871.63 1325.62 Q1873.69 1325.62 1874.88 1326.94 Q1876.11 1328.21 1876.11 1330.01 Q1876.11 1331.81 1874.88 1333.13 Q1873.69 1334.4 1871.63 1334.4 Q1870.62 1334.4 1870.09 1334.23 Q1871.28 1338.36 1874.88 1341.34 Q1878.52 1344.33 1883.31 1344.33 Q1889.33 1344.33 1892.93 1338.49 Q1895.08 1334.71 1895.08 1326.15 Q1895.08 1318.59 1893.45 1314.82 Q1890.95 1309.06 1885.81 1309.06 Q1878.52 1309.06 1874.22 1315.34 Q1873.69 1316.13 1873.08 1316.18 Q1872.2 1316.18 1871.98 1315.69 Q1871.8 1315.17 1871.8 1313.81 L1871.8 1287.19 Q1871.8 1285.04 1872.68 1285.04 Q1873.03 1285.04 1873.78 1285.3 Q1879.44 1287.81 1885.72 1287.85 Q1892.18 1287.85 1897.98 1285.22 Q1898.42 1284.95 1898.68 1284.95 Q1899.56 1284.95 1899.6 1285.96 Q1899.6 1286.31 1898.86 1287.37 Q1898.15 1288.38 1896.62 1289.74 Q1895.08 1291.06 1893.1 1292.33 Q1891.13 1293.6 1888.23 1294.48 Q1885.37 1295.32 1882.21 1295.32 Q1878.43 1295.32 1874.57 1294.13 L1874.57 1311.65 Q1879.22 1307.09 1885.99 1307.09 Q1893.19 1307.09 1898.15 1312.88 Q1903.12 1318.68 1903.12 1326.76 Q1903.12 1335.24 1897.23 1341.03 Q1891.39 1346.83 1883.48 1346.83 Q1876.28 1346.83 1871.72 1341.69 Q1867.19 1336.55 1867.19 1330.36 Z" fill="#000000" fill-rule="evenodd" fill-opacity="1" /><path clip-path="url(#clip480)" d="M1937.52 1329.86 Q1937.52 1327.18 1938.97 1326.17 Q1940.42 1325.12 1941.96 1325.12 Q1944.02 1325.12 1945.21 1326.44 Q1946.44 1327.71 1946.44 1329.51 Q1946.44 1331.31 1945.21 1332.63 Q1944.02 1333.9 1941.96 1333.9 Q1940.95 1333.9 1940.42 1333.73 Q1941.61 1337.86 1945.21 1340.84 Q1948.85 1343.83 1953.64 1343.83 Q1959.66 1343.83 1963.26 1337.99 Q1965.41 1334.21 1965.41 1325.65 Q1965.41 1318.09 1963.79 1314.32 Q1961.28 1308.56 1956.15 1308.56 Q1948.85 1308.56 1944.55 1314.84 Q1944.02 1315.63 1943.41 1315.68 Q1942.53 1315.68 1942.31 1315.19 Q1942.14 1314.67 1942.14 1313.31 L1942.14 1286.69 Q1942.14 1284.54 1943.01 1284.54 Q1943.37 1284.54 1944.11 1284.8 Q1949.78 1287.31 1956.06 1287.35 Q1962.51 1287.35 1968.31 1284.72 Q1968.75 1284.45 1969.01 1284.45 Q1969.89 1284.45 1969.94 1285.46 Q1969.94 1285.81 1969.19 1286.87 Q1968.49 1287.88 1966.95 1289.24 Q1965.41 1290.56 1963.44 1291.83 Q1961.46 1293.1 1958.56 1293.98 Q1955.71 1294.82 1952.54 1294.82 Q1948.77 1294.82 1944.9 1293.63 L1944.9 1311.15 Q1949.56 1306.59 1956.32 1306.59 Q1963.52 1306.59 1968.49 1312.38 Q1973.45 1318.18 1973.45 1326.26 Q1973.45 1334.74 1967.56 1340.53 Q1961.72 1346.33 1953.82 1346.33 Q1946.62 1346.33 1942.05 1341.19 Q1937.52 1336.05 1937.52 1329.86 Z" fill="#000000" fill-rule="evenodd" fill-opacity="1" /><path clip-path="url(#clip480)" d="M1983.42 1342.91 Q1982.06 1341.46 1982.06 1339.57 Q1982.06 1337.68 1983.42 1336.32 Q1984.79 1334.91 1986.85 1334.91 Q1988.83 1334.91 1990.14 1336.23 Q1991.51 1337.5 1991.51 1339.61 Q1991.51 1341.68 1990.06 1343.04 Q1988.65 1344.36 1986.85 1344.36 Q1984.79 1344.36 1983.42 1342.91 Z" fill="#000000" fill-rule="evenodd" fill-opacity="1" /><path clip-path="url(#clip480)" d="M2006.81 1315.59 Q2006.81 1302.37 2010.15 1295.17 Q2014.81 1284.45 2025.78 1284.45 Q2028.11 1284.45 2030.53 1285.11 Q2032.99 1285.73 2036.06 1288.14 Q2039.18 1290.56 2041.07 1294.51 Q2044.67 1302.15 2044.67 1315.59 Q2044.67 1328.72 2041.33 1335.88 Q2036.46 1346.33 2025.7 1346.33 Q2021.66 1346.33 2017.53 1344.27 Q2013.44 1342.2 2010.85 1337.24 Q2006.81 1329.82 2006.81 1315.59 M2014.28 1314.49 Q2014.28 1328.06 2015.24 1333.46 Q2016.34 1339.3 2019.33 1341.85 Q2022.36 1344.36 2025.7 1344.36 Q2029.3 1344.36 2032.28 1341.68 Q2035.31 1338.95 2036.24 1333.11 Q2037.25 1327.36 2037.2 1314.49 Q2037.2 1301.98 2036.32 1296.97 Q2035.14 1291.13 2031.98 1288.8 Q2028.86 1286.43 2025.7 1286.43 Q2024.51 1286.43 2023.24 1286.78 Q2022.01 1287.13 2020.21 1288.14 Q2018.41 1289.15 2017 1291.65 Q2015.64 1294.16 2014.98 1297.93 Q2014.28 1302.81 2014.28 1314.49 Z" fill="#000000" fill-rule="evenodd" fill-opacity="1" /><path clip-path="url(#clip480)" d="M2077.14 1329.86 Q2077.14 1327.18 2078.59 1326.17 Q2080.04 1325.12 2081.58 1325.12 Q2083.64 1325.12 2084.83 1326.44 Q2086.06 1327.71 2086.06 1329.51 Q2086.06 1331.31 2084.83 1332.63 Q2083.64 1333.9 2081.58 1333.9 Q2080.57 1333.9 2080.04 1333.73 Q2081.23 1337.86 2084.83 1340.84 Q2088.48 1343.83 2093.26 1343.83 Q2099.28 1343.83 2102.88 1337.99 Q2105.03 1334.21 2105.03 1325.65 Q2105.03 1318.09 2103.41 1314.32 Q2100.9 1308.56 2095.77 1308.56 Q2088.48 1308.56 2084.17 1314.84 Q2083.64 1315.63 2083.03 1315.68 Q2082.15 1315.68 2081.93 1315.19 Q2081.76 1314.67 2081.76 1313.31 L2081.76 1286.69 Q2081.76 1284.54 2082.63 1284.54 Q2082.99 1284.54 2083.73 1284.8 Q2089.4 1287.31 2095.68 1287.35 Q2102.13 1287.35 2107.93 1284.72 Q2108.37 1284.45 2108.63 1284.45 Q2109.51 1284.45 2109.56 1285.46 Q2109.56 1285.81 2108.81 1286.87 Q2108.11 1287.88 2106.57 1289.24 Q2105.03 1290.56 2103.06 1291.83 Q2101.08 1293.1 2098.18 1293.98 Q2095.33 1294.82 2092.16 1294.82 Q2088.39 1294.82 2084.52 1293.63 L2084.52 1311.15 Q2089.18 1306.59 2095.94 1306.59 Q2103.14 1306.59 2108.11 1312.38 Q2113.07 1318.18 2113.07 1326.26 Q2113.07 1334.74 2107.18 1340.53 Q2101.34 1346.33 2093.44 1346.33 Q2086.24 1346.33 2081.67 1341.19 Q2077.14 1336.05 2077.14 1329.86 Z" fill="#000000" fill-rule="evenodd" fill-opacity="1" /><path clip-path="url(#clip480)" d="M2123.05 1342.91 Q2121.68 1341.46 2121.68 1339.57 Q2121.68 1337.68 2123.05 1336.32 Q2124.41 1334.91 2126.47 1334.91 Q2128.45 1334.91 2129.76 1336.23 Q2131.13 1337.5 2131.13 1339.61 Q2131.13 1341.68 2129.68 1343.04 Q2128.27 1344.36 2126.47 1344.36 Q2124.41 1344.36 2123.05 1342.91 Z" fill="#000000" fill-rule="evenodd" fill-opacity="1" /><path clip-path="url(#clip480)" d="M2146.43 1329.86 Q2146.43 1327.18 2147.88 1326.17 Q2149.33 1325.12 2150.87 1325.12 Q2152.93 1325.12 2154.12 1326.44 Q2155.35 1327.71 2155.35 1329.51 Q2155.35 1331.31 2154.12 1332.63 Q2152.93 1333.9 2150.87 1333.9 Q2149.86 1333.9 2149.33 1333.73 Q2150.52 1337.86 2154.12 1340.84 Q2157.76 1343.83 2162.55 1343.83 Q2168.57 1343.83 2172.17 1337.99 Q2174.32 1334.21 2174.32 1325.65 Q2174.32 1318.09 2172.7 1314.32 Q2170.19 1308.56 2165.05 1308.56 Q2157.76 1308.56 2153.46 1314.84 Q2152.93 1315.63 2152.32 1315.68 Q2151.44 1315.68 2151.22 1315.19 Q2151.04 1314.67 2151.04 1313.31 L2151.04 1286.69 Q2151.04 1284.54 2151.92 1284.54 Q2152.27 1284.54 2153.02 1284.8 Q2158.69 1287.31 2164.97 1287.35 Q2171.42 1287.35 2177.22 1284.72 Q2177.66 1284.45 2177.92 1284.45 Q2178.8 1284.45 2178.84 1285.46 Q2178.84 1285.81 2178.1 1286.87 Q2177.39 1287.88 2175.86 1289.24 Q2174.32 1290.56 2172.34 1291.83 Q2170.37 1293.1 2167.47 1293.98 Q2164.61 1294.82 2161.45 1294.82 Q2157.68 1294.82 2153.81 1293.63 L2153.81 1311.15 Q2158.47 1306.59 2165.23 1306.59 Q2172.43 1306.59 2177.39 1312.38 Q2182.36 1318.18 2182.36 1326.26 Q2182.36 1334.74 2176.47 1340.53 Q2170.63 1346.33 2162.73 1346.33 Q2155.52 1346.33 2150.96 1341.19 Q2146.43 1336.05 2146.43 1329.86 Z" fill="#000000" fill-rule="evenodd" fill-opacity="1" /><path clip-path="url(#clip480)" d="M2216.77 1315.94 Q2216.77 1301.8 2223.97 1293.15 Q2231.17 1284.45 2240.44 1284.45 Q2245.84 1284.45 2248.82 1287.22 Q2251.86 1289.94 2251.86 1294.16 Q2251.86 1296.49 2250.49 1297.5 Q2249.13 1298.51 2247.73 1298.51 Q2246.1 1298.51 2244.83 1297.41 Q2243.55 1296.31 2243.55 1294.33 Q2243.55 1290.29 2248.52 1290.29 Q2246.19 1286.69 2240.61 1286.69 Q2238.9 1286.69 2237.14 1287.22 Q2235.39 1287.7 2233.1 1289.37 Q2230.82 1291.04 2229.06 1293.67 Q2227.31 1296.31 2226.08 1301.27 Q2224.85 1306.24 2224.85 1312.69 L2224.85 1314.84 Q2228.54 1305.93 2236.09 1305.97 Q2243.64 1305.97 2248.87 1311.72 Q2254.1 1317.48 2254.1 1326 Q2254.1 1334.74 2248.65 1340.53 Q2243.2 1346.33 2235.56 1346.33 Q2232.14 1346.33 2229.02 1344.88 Q2225.94 1343.48 2223.05 1340.23 Q2220.19 1336.98 2218.48 1330.74 Q2216.77 1324.5 2216.77 1315.94 M2225.02 1324.02 Q2225.02 1332.85 2226.65 1337.06 Q2226.91 1337.77 2227.48 1338.73 Q2228.1 1339.7 2229.11 1340.97 Q2230.16 1342.2 2231.87 1343.04 Q2233.59 1343.83 2235.56 1343.83 Q2241.58 1343.83 2244.48 1337.99 Q2246.01 1334.74 2246.01 1325.91 Q2246.01 1316.91 2244.39 1313.61 Q2241.62 1308.04 2236 1308.04 Q2232.22 1308.04 2229.59 1310.63 Q2227 1313.22 2225.99 1316.69 Q2225.02 1320.16 2225.02 1324.02 Z" fill="#000000" fill-rule="evenodd" fill-opacity="1" /><path clip-path="url(#clip480)" d="M2262.67 1342.91 Q2261.3 1341.46 2261.3 1339.57 Q2261.3 1337.68 2262.67 1336.32 Q2264.03 1334.91 2266.09 1334.91 Q2268.07 1334.91 2269.39 1336.23 Q2270.75 1337.5 2270.75 1339.61 Q2270.75 1341.68 2269.3 1343.04 Q2267.89 1344.36 2266.09 1344.36 Q2264.03 1344.36 2262.67 1342.91 Z" fill="#000000" fill-rule="evenodd" fill-opacity="1" /><path clip-path="url(#clip480)" d="M2286.05 1315.59 Q2286.05 1302.37 2289.39 1295.17 Q2294.05 1284.45 2305.03 1284.45 Q2307.35 1284.45 2309.77 1285.11 Q2312.23 1285.73 2315.3 1288.14 Q2318.42 1290.56 2320.31 1294.51 Q2323.91 1302.15 2323.91 1315.59 Q2323.91 1328.72 2320.57 1335.88 Q2315.7 1346.33 2304.94 1346.33 Q2300.9 1346.33 2296.77 1344.27 Q2292.68 1342.2 2290.09 1337.24 Q2286.05 1329.82 2286.05 1315.59 M2293.52 1314.49 Q2293.52 1328.06 2294.49 1333.46 Q2295.58 1339.3 2298.57 1341.85 Q2301.6 1344.36 2304.94 1344.36 Q2308.54 1344.36 2311.53 1341.68 Q2314.56 1338.95 2315.48 1333.11 Q2316.49 1327.36 2316.44 1314.49 Q2316.44 1301.98 2315.57 1296.97 Q2314.38 1291.13 2311.22 1288.8 Q2308.1 1286.43 2304.94 1286.43 Q2303.75 1286.43 2302.48 1286.78 Q2301.25 1287.13 2299.45 1288.14 Q2297.65 1289.15 2296.24 1291.65 Q2294.88 1294.16 2294.22 1297.93 Q2293.52 1302.81 2293.52 1314.49 Z" fill="#000000" fill-rule="evenodd" fill-opacity="1" /><path clip-path="url(#clip480)" d="M1514.15 1429.56 Q1514.15 1434.48 1511.07 1437.29 Q1508 1440.01 1504.49 1440.01 Q1501.15 1440.01 1499.39 1438.08 Q1497.63 1436.15 1497.63 1433.69 Q1497.63 1430.35 1500.09 1427.45 Q1502.55 1424.56 1506.24 1423.94 Q1502.64 1421.66 1497.28 1421.66 Q1493.77 1421.66 1490.7 1423.5 Q1487.71 1425.35 1485.86 1427.72 Q1484.11 1430.09 1482.53 1433.52 Q1481.03 1436.85 1480.42 1438.87 Q1479.89 1440.81 1479.45 1442.91 L1473.3 1467.51 Q1470.32 1479.19 1470.32 1483.32 Q1470.32 1488.41 1472.78 1491.84 Q1475.24 1495.17 1480.16 1495.17 Q1482.09 1495.17 1484.28 1494.65 Q1486.48 1494.03 1489.29 1492.45 Q1492.19 1490.78 1494.74 1488.32 Q1497.37 1485.78 1499.92 1481.47 Q1502.47 1477.17 1504.13 1471.64 Q1504.66 1469.7 1506.42 1469.7 Q1508.61 1469.7 1508.61 1471.46 Q1508.61 1472.95 1507.38 1476.11 Q1506.24 1479.19 1503.7 1483.23 Q1501.24 1487.18 1497.99 1490.78 Q1494.74 1494.3 1489.91 1496.76 Q1485.07 1499.22 1479.8 1499.22 Q1472.25 1499.22 1467.24 1495.17 Q1462.24 1491.13 1460.39 1485.51 Q1459.95 1486.3 1459.34 1487.36 Q1458.72 1488.41 1456.88 1490.78 Q1455.12 1493.07 1453.1 1494.82 Q1451.08 1496.49 1447.92 1497.81 Q1444.85 1499.22 1441.51 1499.22 Q1437.29 1499.22 1433.52 1497.99 Q1429.83 1496.76 1427.19 1493.95 Q1424.56 1491.13 1424.56 1487.27 Q1424.56 1482.97 1427.46 1479.98 Q1430.44 1476.91 1434.48 1476.91 Q1437.03 1476.91 1439.05 1478.4 Q1441.16 1479.89 1441.16 1483.14 Q1441.16 1486.74 1438.7 1489.47 Q1436.24 1492.19 1432.73 1492.89 Q1436.33 1495.17 1441.68 1495.17 Q1447.48 1495.17 1452.05 1490.08 Q1456.62 1484.99 1458.81 1476.47 Q1464.26 1456 1466.37 1446.87 Q1468.47 1437.64 1468.47 1433.69 Q1468.47 1430 1467.51 1427.45 Q1466.54 1424.91 1464.87 1423.77 Q1463.29 1422.54 1461.8 1422.1 Q1460.39 1421.66 1458.81 1421.66 Q1456.18 1421.66 1453.19 1422.71 Q1450.29 1423.77 1446.78 1426.22 Q1443.35 1428.6 1440.1 1433.52 Q1436.85 1438.43 1434.66 1445.2 Q1434.22 1447.22 1432.29 1447.22 Q1430.18 1447.13 1430.18 1445.37 Q1430.18 1443.88 1431.32 1440.81 Q1432.55 1437.64 1435.01 1433.69 Q1437.56 1429.74 1440.81 1426.22 Q1444.14 1422.62 1448.97 1420.16 Q1453.89 1417.7 1459.16 1417.7 Q1461.53 1417.7 1463.82 1418.23 Q1466.19 1418.67 1469 1419.99 Q1471.9 1421.31 1474.45 1424.2 Q1476.99 1427.1 1478.57 1431.32 Q1479.63 1429.3 1481.03 1427.37 Q1482.53 1425.43 1484.81 1423.06 Q1487.18 1420.6 1490.43 1419.2 Q1493.77 1417.7 1497.46 1417.7 Q1501.06 1417.7 1504.57 1418.67 Q1508.09 1419.55 1511.07 1422.45 Q1514.15 1425.26 1514.15 1429.56 Z" fill="#000000" fill-rule="evenodd" fill-opacity="1" /><polyline clip-path="url(#clip483)" style="stroke:#000000; stroke-linecap:butt; stroke-linejoin:round; stroke-width:2; stroke-opacity:0.1; fill:none" points="
  598.232,1247.87 2352.76,1247.87 
  "/>
<polyline clip-path="url(#clip483)" style="stroke:#000000; stroke-linecap:butt; stroke-linejoin:round; stroke-width:2; stroke-opacity:0.1; fill:none" points="
  598.232,1049.97 2352.76,1049.97 
  "/>
<polyline clip-path="url(#clip483)" style="stroke:#000000; stroke-linecap:butt; stroke-linejoin:round; stroke-width:2; stroke-opacity:0.1; fill:none" points="
  598.232,852.066 2352.76,852.066 
  "/>
<polyline clip-path="url(#clip483)" style="stroke:#000000; stroke-linecap:butt; stroke-linejoin:round; stroke-width:2; stroke-opacity:0.1; fill:none" points="
  598.232,654.165 2352.76,654.165 
  "/>
<polyline clip-path="url(#clip483)" style="stroke:#000000; stroke-linecap:butt; stroke-linejoin:round; stroke-width:2; stroke-opacity:0.1; fill:none" points="
  598.232,456.265 2352.76,456.265 
  "/>
<polyline clip-path="url(#clip480)" style="stroke:#000000; stroke-linecap:butt; stroke-linejoin:round; stroke-width:4; stroke-opacity:1; fill:none" points="
  598.232,1247.87 598.232,456.265 
  "/>
<polyline clip-path="url(#clip480)" style="stroke:#000000; stroke-linecap:butt; stroke-linejoin:round; stroke-width:4; stroke-opacity:1; fill:none" points="
  598.232,1247.87 617.13,1247.87 
  "/>
<polyline clip-path="url(#clip480)" style="stroke:#000000; stroke-linecap:butt; stroke-linejoin:round; stroke-width:4; stroke-opacity:1; fill:none" points="
  598.232,1049.97 617.13,1049.97 
  "/>
<polyline clip-path="url(#clip480)" style="stroke:#000000; stroke-linecap:butt; stroke-linejoin:round; stroke-width:4; stroke-opacity:1; fill:none" points="
  598.232,852.066 617.13,852.066 
  "/>
<polyline clip-path="url(#clip480)" style="stroke:#000000; stroke-linecap:butt; stroke-linejoin:round; stroke-width:4; stroke-opacity:1; fill:none" points="
  598.232,654.165 617.13,654.165 
  "/>
<polyline clip-path="url(#clip480)" style="stroke:#000000; stroke-linecap:butt; stroke-linejoin:round; stroke-width:4; stroke-opacity:1; fill:none" points="
  598.232,456.265 617.13,456.265 
  "/>
<path clip-path="url(#clip480)" d="M294.872 1249 L369.062 1249 L369.062 1258.83 L294.872 1258.83 L294.872 1249 Z" fill="#000000" fill-rule="evenodd" fill-opacity="1" /><path clip-path="url(#clip480)" d="M396.319 1281.23 L415.416 1281.23 L415.416 1215.32 L394.64 1219.48 L394.64 1208.83 L415.3 1204.67 L426.99 1204.67 L426.99 1281.23 L446.087 1281.23 L446.087 1291.07 L396.319 1291.07 L396.319 1281.23 Z" fill="#000000" fill-rule="evenodd" fill-opacity="1" /><path clip-path="url(#clip480)" d="M469.698 1276.37 L481.908 1276.37 L481.908 1291.07 L469.698 1291.07 L469.698 1276.37 Z" fill="#000000" fill-rule="evenodd" fill-opacity="1" /><path clip-path="url(#clip480)" d="M532.371 1212.36 Q523.343 1212.36 518.772 1221.28 Q514.258 1230.13 514.258 1247.95 Q514.258 1265.72 518.772 1274.63 Q523.343 1283.49 532.371 1283.49 Q541.457 1283.49 545.971 1274.63 Q550.542 1265.72 550.542 1247.95 Q550.542 1230.13 545.971 1221.28 Q541.457 1212.36 532.371 1212.36 M532.371 1203.11 Q546.897 1203.11 554.535 1214.62 Q562.232 1226.08 562.232 1247.95 Q562.232 1269.77 554.535 1281.29 Q546.897 1292.75 532.371 1292.75 Q517.846 1292.75 510.149 1281.29 Q502.51 1269.77 502.51 1247.95 Q502.51 1226.08 510.149 1214.62 Q517.846 1203.11 532.371 1203.11 Z" fill="#000000" fill-rule="evenodd" fill-opacity="1" /><path clip-path="url(#clip480)" d="M297.361 1051.1 L371.55 1051.1 L371.55 1060.93 L297.361 1060.93 L297.361 1051.1 Z" fill="#000000" fill-rule="evenodd" fill-opacity="1" /><path clip-path="url(#clip480)" d="M421.781 1014.46 Q412.754 1014.46 408.182 1023.38 Q403.668 1032.23 403.668 1050.05 Q403.668 1067.82 408.182 1076.73 Q412.754 1085.59 421.781 1085.59 Q430.867 1085.59 435.381 1076.73 Q439.953 1067.82 439.953 1050.05 Q439.953 1032.23 435.381 1023.38 Q430.867 1014.46 421.781 1014.46 M421.781 1005.2 Q436.307 1005.2 443.946 1016.72 Q451.642 1028.18 451.642 1050.05 Q451.642 1071.87 443.946 1083.39 Q436.307 1094.85 421.781 1094.85 Q407.256 1094.85 399.559 1083.39 Q391.921 1071.87 391.921 1050.05 Q391.921 1028.18 399.559 1016.72 Q407.256 1005.2 421.781 1005.2 Z" fill="#000000" fill-rule="evenodd" fill-opacity="1" /><path clip-path="url(#clip480)" d="M472.186 1078.47 L484.397 1078.47 L484.397 1093.17 L472.186 1093.17 L472.186 1078.47 Z" fill="#000000" fill-rule="evenodd" fill-opacity="1" /><path clip-path="url(#clip480)" d="M509.975 1006.77 L555.866 1006.77 L555.866 1016.6 L520.681 1016.6 L520.681 1037.79 Q523.228 1036.92 525.774 1036.51 Q528.32 1036.05 530.867 1036.05 Q545.334 1036.05 553.783 1043.98 Q562.232 1051.91 562.232 1065.45 Q562.232 1079.39 553.552 1087.15 Q544.871 1094.85 529.073 1094.85 Q523.633 1094.85 517.962 1093.92 Q512.348 1092.99 506.33 1091.14 L506.33 1079.39 Q511.538 1082.23 517.093 1083.62 Q522.649 1085.01 528.841 1085.01 Q538.853 1085.01 544.697 1079.74 Q550.542 1074.47 550.542 1065.45 Q550.542 1056.42 544.697 1051.15 Q538.853 1045.89 528.841 1045.89 Q524.154 1045.89 519.466 1046.93 Q514.837 1047.97 509.975 1050.17 L509.975 1006.77 Z" fill="#000000" fill-rule="evenodd" fill-opacity="1" /><path clip-path="url(#clip480)" d="M419.293 816.563 Q410.265 816.563 405.694 825.475 Q401.18 834.329 401.18 852.153 Q401.18 869.919 405.694 878.831 Q410.265 887.685 419.293 887.685 Q428.379 887.685 432.893 878.831 Q437.464 869.919 437.464 852.153 Q437.464 834.329 432.893 825.475 Q428.379 816.563 419.293 816.563 M419.293 807.304 Q433.818 807.304 441.457 818.82 Q449.154 830.278 449.154 852.153 Q449.154 873.97 441.457 885.486 Q433.818 896.944 419.293 896.944 Q404.768 896.944 397.071 885.486 Q389.432 873.97 389.432 852.153 Q389.432 830.278 397.071 818.82 Q404.768 807.304 419.293 807.304 Z" fill="#000000" fill-rule="evenodd" fill-opacity="1" /><path clip-path="url(#clip480)" d="M469.698 880.567 L481.908 880.567 L481.908 895.266 L469.698 895.266 L469.698 880.567 Z" fill="#000000" fill-rule="evenodd" fill-opacity="1" /><path clip-path="url(#clip480)" d="M532.371 816.563 Q523.343 816.563 518.772 825.475 Q514.258 834.329 514.258 852.153 Q514.258 869.919 518.772 878.831 Q523.343 887.685 532.371 887.685 Q541.457 887.685 545.971 878.831 Q550.542 869.919 550.542 852.153 Q550.542 834.329 545.971 825.475 Q541.457 816.563 532.371 816.563 M532.371 807.304 Q546.897 807.304 554.535 818.82 Q562.232 830.278 562.232 852.153 Q562.232 873.97 554.535 885.486 Q546.897 896.944 532.371 896.944 Q517.846 896.944 510.149 885.486 Q502.51 873.97 502.51 852.153 Q502.51 830.278 510.149 818.82 Q517.846 807.304 532.371 807.304 Z" fill="#000000" fill-rule="evenodd" fill-opacity="1" /><path clip-path="url(#clip480)" d="M421.781 618.662 Q412.754 618.662 408.182 627.574 Q403.668 636.428 403.668 654.252 Q403.668 672.018 408.182 680.93 Q412.754 689.784 421.781 689.784 Q430.867 689.784 435.381 680.93 Q439.953 672.018 439.953 654.252 Q439.953 636.428 435.381 627.574 Q430.867 618.662 421.781 618.662 M421.781 609.403 Q436.307 609.403 443.946 620.919 Q451.642 632.377 451.642 654.252 Q451.642 676.069 443.946 687.585 Q436.307 699.044 421.781 699.044 Q407.256 699.044 399.559 687.585 Q391.921 676.069 391.921 654.252 Q391.921 632.377 399.559 620.919 Q407.256 609.403 421.781 609.403 Z" fill="#000000" fill-rule="evenodd" fill-opacity="1" /><path clip-path="url(#clip480)" d="M472.186 682.666 L484.397 682.666 L484.397 697.365 L472.186 697.365 L472.186 682.666 Z" fill="#000000" fill-rule="evenodd" fill-opacity="1" /><path clip-path="url(#clip480)" d="M509.975 610.965 L555.866 610.965 L555.866 620.803 L520.681 620.803 L520.681 641.984 Q523.228 641.116 525.774 640.711 Q528.32 640.248 530.867 640.248 Q545.334 640.248 553.783 648.176 Q562.232 656.104 562.232 669.646 Q562.232 683.592 553.552 691.347 Q544.871 699.044 529.073 699.044 Q523.633 699.044 517.962 698.118 Q512.348 697.192 506.33 695.34 L506.33 683.592 Q511.538 686.428 517.093 687.817 Q522.649 689.206 528.841 689.206 Q538.853 689.206 544.697 683.94 Q550.542 678.673 550.542 669.646 Q550.542 660.618 544.697 655.352 Q538.853 650.086 528.841 650.086 Q524.154 650.086 519.466 651.127 Q514.837 652.169 509.975 654.368 L509.975 610.965 Z" fill="#000000" fill-rule="evenodd" fill-opacity="1" /><path clip-path="url(#clip480)" d="M396.319 489.627 L415.416 489.627 L415.416 423.713 L394.64 427.879 L394.64 417.231 L415.3 413.065 L426.99 413.065 L426.99 489.627 L446.087 489.627 L446.087 499.465 L396.319 499.465 L396.319 489.627 Z" fill="#000000" fill-rule="evenodd" fill-opacity="1" /><path clip-path="url(#clip480)" d="M469.698 484.766 L481.908 484.766 L481.908 499.465 L469.698 499.465 L469.698 484.766 Z" fill="#000000" fill-rule="evenodd" fill-opacity="1" /><path clip-path="url(#clip480)" d="M532.371 420.761 Q523.343 420.761 518.772 429.673 Q514.258 438.527 514.258 456.351 Q514.258 474.117 518.772 483.029 Q523.343 491.884 532.371 491.884 Q541.457 491.884 545.971 483.029 Q550.542 474.117 550.542 456.351 Q550.542 438.527 545.971 429.673 Q541.457 420.761 532.371 420.761 M532.371 411.502 Q546.897 411.502 554.535 423.018 Q562.232 434.476 562.232 456.351 Q562.232 478.168 554.535 489.685 Q546.897 501.143 532.371 501.143 Q517.846 501.143 510.149 489.685 Q502.51 478.168 502.51 456.351 Q502.51 434.476 510.149 423.018 Q517.846 411.502 532.371 411.502 Z" fill="#000000" fill-rule="evenodd" fill-opacity="1" /><path clip-path="url(#clip480)" d="M238.971 848.999 Q250.545 853.513 254.075 857.795 Q257.605 862.078 257.605 869.254 L257.605 877.76 L248.693 877.76 L248.693 871.51 Q248.693 867.112 246.61 864.682 Q244.526 862.251 236.772 859.3 L231.911 857.39 L168.138 883.605 L168.138 872.321 L218.832 852.066 L168.138 831.812 L168.138 820.527 L238.971 848.999 Z" fill="#000000" fill-rule="evenodd" fill-opacity="1" /><path clip-path="url(#clip480)" d="M1071.2 118.059 Q1071.2 119.698 1070.15 123.563 L1047.19 215.145 Q1042.16 235.522 1025.76 249.81 Q1009.48 264.098 990.98 264.098 Q979.854 264.098 972.711 258.125 Q965.567 252.269 965.567 243.252 Q965.567 235.288 969.783 231.423 Q973.999 227.676 979.035 227.676 Q980.674 227.676 982.431 228.144 Q984.188 228.613 986.061 230.604 Q987.935 232.595 987.935 235.991 Q987.935 241.495 983.134 245.828 Q980.791 247.819 978.566 248.288 Q976.458 248.756 972.828 248.756 Q974.233 252.035 976.809 254.26 Q979.386 256.485 982.314 257.305 Q985.242 258.242 987.115 258.476 Q989.106 258.828 990.98 258.828 Q1005.97 258.828 1017.45 243.72 Q1020.84 239.153 1023.3 234.585 Q1025.88 230.135 1027.75 224.631 Q1029.63 219.244 1030.45 216.316 Q1031.38 213.388 1033.02 206.713 Q1022.13 217.604 1008.78 217.604 Q1003.16 217.604 998.124 216.082 Q993.205 214.559 988.872 211.397 Q984.539 208.118 981.962 202.38 Q979.503 196.641 979.503 189.029 Q979.503 180.948 982.665 169.94 Q985.827 158.931 993.439 138.671 Q997.538 127.311 997.538 121.806 Q997.538 119.113 996.953 117.473 Q996.367 115.717 995.196 115.131 Q994.025 114.428 993.322 114.311 Q992.737 114.194 991.566 114.194 Q984.656 114.194 978.215 121.221 Q971.774 128.248 967.323 143.941 Q966.386 146.868 965.801 147.571 Q965.215 148.274 963.459 148.274 Q960.531 148.157 960.531 145.814 Q960.531 144.878 961.585 141.247 Q962.639 137.499 965.098 131.995 Q967.675 126.374 971.188 121.338 Q974.701 116.185 980.206 112.555 Q985.827 108.924 992.268 108.924 Q1001.05 108.924 1006.44 114.663 Q1011.94 120.284 1011.94 128.599 Q1011.94 131.995 1011.01 135.04 Q1010.19 137.968 1007.14 145.814 Q994.845 177.435 994.845 192.894 Q994.845 196.641 995.43 199.803 Q996.133 202.848 997.655 205.893 Q999.178 208.821 1002.22 210.577 Q1005.38 212.217 1009.72 212.217 Q1015.22 212.217 1020.38 209.641 Q1025.65 206.947 1028.92 203.317 Q1032.32 199.686 1034.31 196.641 Q1036.42 193.479 1036.89 191.84 L1047.66 148.742 L1052.46 129.536 Q1054.69 119.113 1055.74 116.536 Q1057.15 114.077 1059.61 112.789 Q1062.07 111.501 1064.18 111.501 Q1067.1 111.501 1069.09 113.257 Q1071.2 115.014 1071.2 118.059 Z" fill="#000000" fill-rule="evenodd" fill-opacity="1" /><path clip-path="url(#clip480)" d="M1143.42 178.489 Q1143.65 175.561 1148.22 175.561 L1295.2 175.561 Q1302.1 175.561 1302.22 178.254 Q1302.22 181.182 1295.66 181.065 L1149.86 181.065 Q1143.42 181.182 1143.42 178.489 M1143.42 131.644 Q1143.42 128.716 1148.45 128.833 L1294.96 128.833 Q1302.1 128.833 1302.22 131.644 Q1302.22 134.337 1296.13 134.337 L1148.22 134.337 Q1143.42 134.337 1143.42 131.644 Z" fill="#000000" fill-rule="evenodd" fill-opacity="1" /><path clip-path="url(#clip480)" d="M1394.74 211.749 L1394.74 180.128 Q1394.74 177.435 1394.86 176.498 Q1394.98 175.561 1395.68 174.858 Q1396.38 174.156 1397.79 174.156 Q1399.43 174.156 1400.01 174.858 Q1400.72 175.561 1401.18 178.254 Q1404.81 194.767 1412.54 203.551 Q1420.39 212.217 1434.56 212.217 Q1448.03 212.217 1454.82 206.244 Q1461.61 200.272 1461.61 190.434 Q1461.61 172.867 1436.67 168.417 Q1422.26 165.489 1416.29 163.615 Q1410.32 161.625 1405.05 157.291 Q1394.74 148.859 1394.74 136.914 Q1394.74 124.968 1403.76 116.185 Q1412.9 107.402 1433.04 107.402 Q1446.51 107.402 1455.64 114.194 Q1458.34 112.086 1459.74 110.329 Q1462.9 107.402 1464.54 107.402 Q1466.42 107.402 1466.77 108.69 Q1467.12 109.861 1467.12 113.257 L1467.12 137.382 Q1467.12 140.076 1467 141.013 Q1466.88 141.95 1466.18 142.652 Q1465.48 143.238 1463.96 143.238 Q1461.26 143.238 1461.15 141.013 Q1459.27 111.969 1433.04 111.969 Q1418.87 111.969 1412.54 117.473 Q1406.22 122.86 1406.22 130.238 Q1406.22 134.337 1408.09 137.499 Q1410.09 140.544 1412.54 142.418 Q1415.12 144.175 1419.81 145.932 Q1424.49 147.571 1427.3 148.157 Q1430.23 148.742 1435.73 149.913 Q1454.94 153.544 1463.02 161.39 Q1473.09 171.462 1473.09 184.227 Q1473.09 198.398 1463.49 208.001 Q1453.88 217.604 1434.56 217.604 Q1418.99 217.604 1408.09 207.181 Q1406.69 208.587 1405.63 209.875 Q1404.58 211.046 1404.11 211.514 Q1403.76 211.983 1403.64 212.334 Q1403.53 212.568 1403.29 212.803 Q1398.49 217.604 1397.32 217.604 Q1395.45 217.604 1395.09 216.316 Q1394.74 215.145 1394.74 211.749 Z" fill="#000000" fill-rule="evenodd" fill-opacity="1" /><path clip-path="url(#clip480)" d="M1482.48 214.911 L1482.48 207.533 Q1495.24 207.533 1498.17 206.01 Q1501.1 204.371 1501.1 196.641 L1501.1 132.112 Q1501.1 123.212 1498.05 121.104 Q1495.13 118.996 1483.41 118.996 L1483.41 111.501 L1516.91 108.924 L1516.91 196.875 Q1516.91 204.019 1519.48 205.776 Q1522.06 207.533 1533.77 207.533 L1533.77 214.911 Q1509.3 214.208 1508.83 214.208 Q1505.55 214.208 1482.48 214.911 M1492.55 67.115 Q1492.55 62.3134 1496.18 58.4487 Q1499.93 54.4669 1505.2 54.4669 Q1510.47 54.4669 1514.21 58.0974 Q1517.96 61.6107 1517.96 67.2321 Q1517.96 72.7364 1514.21 76.3669 Q1510.47 79.8802 1505.2 79.8802 Q1499.69 79.8802 1496.06 76.0155 Q1492.55 72.1508 1492.55 67.115 Z" fill="#000000" fill-rule="evenodd" fill-opacity="1" /><path clip-path="url(#clip480)" d="M1550.17 214.911 L1550.17 207.533 Q1562.93 207.533 1565.86 206.01 Q1568.79 204.371 1568.79 196.641 L1568.79 132.347 Q1568.79 123.446 1565.63 121.221 Q1562.58 118.996 1550.17 118.996 L1550.17 111.501 L1583.9 108.924 L1583.9 134.103 Q1595.14 108.924 1619.38 108.924 Q1637.42 108.924 1644.56 117.825 Q1649.83 123.797 1650.88 130.473 Q1652.06 137.148 1652.06 154.481 L1652.06 200.272 Q1652.29 205.307 1656.15 206.479 Q1660.02 207.533 1670.79 207.533 L1670.79 214.911 Q1646.32 214.208 1643.86 214.208 Q1641.98 214.208 1616.8 214.911 L1616.8 207.533 Q1629.57 207.533 1632.5 206.01 Q1635.54 204.371 1635.54 196.641 L1635.54 140.779 Q1635.54 128.599 1631.79 121.455 Q1628.05 114.194 1617.74 114.194 Q1605.33 114.194 1595.37 124.617 Q1585.42 135.04 1585.42 152.607 L1585.42 196.641 Q1585.42 204.371 1588.35 206.01 Q1591.39 207.533 1604.04 207.533 L1604.04 214.911 Q1579.56 214.208 1577.22 214.208 Q1575.35 214.208 1550.17 214.911 Z" fill="#000000" fill-rule="evenodd" fill-opacity="1" /><path clip-path="url(#clip480)" d="M1681.94 154.949 Q1681.94 114.428 1697.05 81.754 Q1703.49 68.0519 1712.51 56.5749 Q1721.52 45.0979 1727.5 40.0621 Q1733.47 35.0263 1735.11 35.0263 Q1737.45 35.0263 1737.57 37.3685 Q1737.57 38.5396 1734.41 41.4674 Q1695.76 80.8171 1695.88 154.949 Q1695.88 229.315 1733.47 267.143 Q1737.57 271.242 1737.57 272.53 Q1737.57 274.872 1735.11 274.872 Q1733.47 274.872 1727.73 270.07 Q1721.99 265.269 1713.09 254.26 Q1704.19 243.252 1697.75 229.784 Q1681.94 197.11 1681.94 154.949 Z" fill="#000000" fill-rule="evenodd" fill-opacity="1" /><path clip-path="url(#clip480)" d="M1875.26 124.734 Q1875.26 131.292 1871.16 135.04 Q1867.06 138.671 1862.37 138.671 Q1857.92 138.671 1855.58 136.094 Q1853.24 133.518 1853.24 130.238 Q1853.24 125.788 1856.52 121.924 Q1859.8 118.059 1864.72 117.239 Q1859.92 114.194 1852.77 114.194 Q1848.09 114.194 1843.99 116.653 Q1840.01 119.113 1837.55 122.275 Q1835.2 125.437 1833.1 130.004 Q1831.11 134.455 1830.29 137.148 Q1829.58 139.725 1829 142.535 L1820.8 175.327 Q1816.82 190.903 1816.82 196.407 Q1816.82 203.199 1820.1 207.767 Q1823.38 212.217 1829.93 212.217 Q1832.51 212.217 1835.44 211.514 Q1838.37 210.695 1842.11 208.587 Q1845.98 206.361 1849.38 203.082 Q1852.89 199.686 1856.28 193.948 Q1859.68 188.209 1861.91 180.831 Q1862.61 178.254 1864.95 178.254 Q1867.88 178.254 1867.88 180.597 Q1867.88 182.588 1866.24 186.804 Q1864.72 190.903 1861.32 196.29 Q1858.04 201.56 1853.71 206.361 Q1849.38 211.046 1842.93 214.325 Q1836.49 217.604 1829.47 217.604 Q1819.39 217.604 1812.72 212.217 Q1806.04 206.83 1803.58 199.335 Q1803 200.389 1802.18 201.794 Q1801.36 203.199 1798.9 206.361 Q1796.56 209.406 1793.86 211.749 Q1791.17 213.974 1786.95 215.73 Q1782.86 217.604 1778.41 217.604 Q1772.78 217.604 1767.75 215.965 Q1762.83 214.325 1759.32 210.577 Q1755.8 206.83 1755.8 201.677 Q1755.8 195.938 1759.67 191.957 Q1763.65 187.858 1769.04 187.858 Q1772.43 187.858 1775.13 189.849 Q1777.94 191.84 1777.94 196.173 Q1777.94 200.974 1774.66 204.605 Q1771.38 208.235 1766.69 209.172 Q1771.5 212.217 1778.64 212.217 Q1786.37 212.217 1792.46 205.425 Q1798.55 198.632 1801.48 187.272 Q1808.74 159.985 1811.55 147.805 Q1814.36 135.509 1814.36 130.238 Q1814.36 125.32 1813.07 121.924 Q1811.78 118.527 1809.56 117.005 Q1807.45 115.365 1805.46 114.78 Q1803.58 114.194 1801.48 114.194 Q1797.96 114.194 1793.98 115.599 Q1790.12 117.005 1785.43 120.284 Q1780.86 123.446 1776.53 130.004 Q1772.2 136.563 1769.27 145.58 Q1768.68 148.274 1766.11 148.274 Q1763.3 148.157 1763.3 145.814 Q1763.3 143.824 1764.82 139.725 Q1766.46 135.509 1769.74 130.238 Q1773.14 124.968 1777.47 120.284 Q1781.92 115.482 1788.36 112.203 Q1794.92 108.924 1801.94 108.924 Q1805.11 108.924 1808.15 109.627 Q1811.31 110.212 1815.06 111.969 Q1818.93 113.726 1822.32 117.59 Q1825.72 121.455 1827.83 127.076 Q1829.23 124.383 1831.11 121.806 Q1833.1 119.23 1836.14 116.068 Q1839.3 112.789 1843.64 110.915 Q1848.09 108.924 1853.01 108.924 Q1857.81 108.924 1862.49 110.212 Q1867.18 111.383 1871.16 115.248 Q1875.26 118.996 1875.26 124.734 Z" fill="#000000" fill-rule="evenodd" fill-opacity="1" /><path clip-path="url(#clip480)" d="M1898.36 272.53 Q1898.36 271.359 1901.4 268.431 Q1940.05 229.081 1940.05 154.949 Q1940.05 80.5829 1902.92 42.9899 Q1898.36 38.6567 1898.36 37.3685 Q1898.36 35.0263 1900.7 35.0263 Q1902.34 35.0263 1908.08 39.8279 Q1913.93 44.6295 1922.71 55.638 Q1931.62 66.6466 1938.17 80.1145 Q1953.98 112.789 1953.98 154.949 Q1953.98 195.47 1938.88 228.144 Q1932.43 241.846 1923.42 253.323 Q1914.4 264.8 1908.43 269.836 Q1902.45 274.872 1900.7 274.872 Q1898.36 274.872 1898.36 272.53 Z" fill="#000000" fill-rule="evenodd" fill-opacity="1" /><polyline clip-path="url(#clip483)" style="stroke:#009af9; stroke-linecap:butt; stroke-linejoin:round; stroke-width:4; stroke-opacity:1; fill:none" points="
  598.232,852.066 603.944,843.971 609.655,835.88 636.06,798.612 662.466,761.821 688.871,725.837 715.276,690.981 731.145,670.707 747.013,651.018 762.882,631.978 
  778.75,613.649 792.167,598.751 805.584,584.437 819,570.74 832.417,557.693 846.991,544.291 861.565,531.727 876.139,520.036 890.714,509.249 904.15,500.131 
  917.586,491.827 931.022,484.357 944.458,477.739 958.863,471.606 973.268,466.485 987.673,462.39 1002.08,459.332 1018.77,457.095 1035.46,456.27 1052.15,456.857 
  1068.84,458.856 1083.67,461.811 1098.5,465.867 1113.33,471.013 1128.16,477.232 1141.17,483.557 1154.17,490.682 1167.18,498.59 1180.19,507.265 1194.37,517.574 
  1208.55,528.746 1222.73,540.751 1236.91,553.559 1251.17,567.219 1265.44,581.623 1279.7,596.732 1293.96,612.507 1309.74,630.674 1325.51,649.548 1341.28,669.067 
  1357.05,689.169 1387.06,728.804 1417.07,769.861 1479.48,857.719 1532.02,931.639 1564.09,975.546 1596.16,1017.83 1610.85,1036.49 1625.54,1054.65 1640.23,1072.25 
  1654.92,1089.24 1668.48,1104.35 1682.05,1118.86 1695.62,1132.75 1709.18,1145.97 1722.93,1158.65 1736.67,1170.6 1750.41,1181.77 1764.15,1192.14 1779.55,1202.79 
  1794.96,1212.37 1810.36,1220.85 1825.76,1228.21 1839.72,1233.9 1853.67,1238.63 1867.63,1242.39 1881.58,1245.18 1897.56,1247.17 1913.54,1247.87 1929.52,1247.27 
  1945.5,1245.37 1960.3,1242.47 1975.09,1238.47 1989.89,1233.39 2004.68,1227.24 2019.27,1220.14 2033.85,1212.04 2048.44,1202.96 2063.03,1192.92 2077.19,1182.28 
  2091.35,1170.79 2105.51,1158.49 2119.67,1145.39 2134.19,1131.19 2148.71,1116.23 2163.23,1100.55 2177.75,1084.21 2193.65,1065.58 2209.56,1046.26 2225.46,1026.31 
  2241.37,1005.79 2287.58,943.608 2333.79,878.921 2343.28,865.502 2352.76,852.066 
  "/>
<path clip-path="url(#clip480)" d="
M1687 638.171 L2294.27 638.171 L2294.27 482.651 L1687 482.651  Z
  " fill="#ffffff" fill-rule="evenodd" fill-opacity="1"/>
<polyline clip-path="url(#clip480)" style="stroke:#000000; stroke-linecap:butt; stroke-linejoin:round; stroke-width:4; stroke-opacity:1; fill:none" points="
  1687,638.171 2294.27,638.171 2294.27,482.651 1687,482.651 1687,638.171 
  "/>
<polyline clip-path="url(#clip480)" style="stroke:#009af9; stroke-linecap:butt; stroke-linejoin:round; stroke-width:6; stroke-opacity:1; fill:none" points="
  1706.5,560.411 1823.46,560.411 
  "/>
<path clip-path="url(#clip480)" d="M1876.33 536.193 L1876.33 543.033 Q1872.33 541.123 1868.79 540.186 Q1865.25 539.248 1861.95 539.248 Q1856.22 539.248 1853.1 541.47 Q1850.01 543.693 1850.01 547.79 Q1850.01 551.227 1852.06 552.998 Q1854.14 554.734 1859.9 555.811 L1864.14 556.679 Q1871.99 558.172 1875.7 561.956 Q1879.45 565.706 1879.45 572.026 Q1879.45 579.561 1874.38 583.449 Q1869.35 587.338 1859.59 587.338 Q1855.91 587.338 1851.74 586.505 Q1847.61 585.672 1843.17 584.04 L1843.17 576.818 Q1847.44 579.213 1851.53 580.429 Q1855.63 581.644 1859.59 581.644 Q1865.6 581.644 1868.86 579.283 Q1872.12 576.922 1872.12 572.547 Q1872.12 568.727 1869.76 566.575 Q1867.44 564.422 1862.09 563.345 L1857.82 562.512 Q1849.97 560.95 1846.47 557.616 Q1842.96 554.283 1842.96 548.345 Q1842.96 541.47 1847.78 537.512 Q1852.65 533.554 1861.15 533.554 Q1864.8 533.554 1868.58 534.214 Q1872.37 534.873 1876.33 536.193 Z" fill="#000000" fill-rule="evenodd" fill-opacity="1" /><path clip-path="url(#clip480)" d="M1890.11 547.443 L1896.5 547.443 L1896.5 586.331 L1890.11 586.331 L1890.11 547.443 M1890.11 532.304 L1896.5 532.304 L1896.5 540.394 L1890.11 540.394 L1890.11 532.304 Z" fill="#000000" fill-rule="evenodd" fill-opacity="1" /><path clip-path="url(#clip480)" d="M1942.19 562.859 L1942.19 586.331 L1935.8 586.331 L1935.8 563.068 Q1935.8 557.547 1933.65 554.804 Q1931.5 552.061 1927.19 552.061 Q1922.02 552.061 1919.03 555.359 Q1916.05 558.658 1916.05 564.352 L1916.05 586.331 L1909.62 586.331 L1909.62 547.443 L1916.05 547.443 L1916.05 553.484 Q1918.34 549.977 1921.43 548.241 Q1924.55 546.505 1928.62 546.505 Q1935.32 546.505 1938.76 550.672 Q1942.19 554.804 1942.19 562.859 Z" fill="#000000" fill-rule="evenodd" fill-opacity="1" /><path clip-path="url(#clip480)" d="M1997.23 532.304 L1997.23 537.616 L1991.12 537.616 Q1987.68 537.616 1986.33 539.005 Q1985.01 540.394 1985.01 544.005 L1985.01 547.443 L1995.53 547.443 L1995.53 552.408 L1985.01 552.408 L1985.01 586.331 L1978.58 586.331 L1978.58 552.408 L1972.47 552.408 L1972.47 547.443 L1978.58 547.443 L1978.58 544.734 Q1978.58 538.241 1981.6 535.29 Q1984.62 532.304 1991.19 532.304 L1997.23 532.304 Z" fill="#000000" fill-rule="evenodd" fill-opacity="1" /><path clip-path="url(#clip480)" d="M2001.92 570.984 L2001.92 547.443 L2008.3 547.443 L2008.3 570.741 Q2008.3 576.262 2010.46 579.04 Q2012.61 581.783 2016.92 581.783 Q2022.09 581.783 2025.08 578.484 Q2028.1 575.186 2028.1 569.491 L2028.1 547.443 L2034.48 547.443 L2034.48 586.331 L2028.1 586.331 L2028.1 580.359 Q2025.77 583.901 2022.68 585.637 Q2019.62 587.338 2015.56 587.338 Q2008.86 587.338 2005.39 583.172 Q2001.92 579.005 2001.92 570.984 M2017.99 546.505 L2017.99 546.505 Z" fill="#000000" fill-rule="evenodd" fill-opacity="1" /><path clip-path="url(#clip480)" d="M2079.97 562.859 L2079.97 586.331 L2073.58 586.331 L2073.58 563.068 Q2073.58 557.547 2071.43 554.804 Q2069.28 552.061 2064.97 552.061 Q2059.8 552.061 2056.81 555.359 Q2053.83 558.658 2053.83 564.352 L2053.83 586.331 L2047.4 586.331 L2047.4 547.443 L2053.83 547.443 L2053.83 553.484 Q2056.12 549.977 2059.21 548.241 Q2062.33 546.505 2066.39 546.505 Q2073.1 546.505 2076.53 550.672 Q2079.97 554.804 2079.97 562.859 Z" fill="#000000" fill-rule="evenodd" fill-opacity="1" /><path clip-path="url(#clip480)" d="M2120.7 548.936 L2120.7 554.908 Q2117.99 553.415 2115.25 552.686 Q2112.54 551.922 2109.76 551.922 Q2103.55 551.922 2100.11 555.88 Q2096.67 559.804 2096.67 566.922 Q2096.67 574.04 2100.11 577.998 Q2103.55 581.922 2109.76 581.922 Q2112.54 581.922 2115.25 581.192 Q2117.99 580.429 2120.7 578.936 L2120.7 584.838 Q2118.03 586.088 2115.14 586.713 Q2112.3 587.338 2109.07 587.338 Q2100.28 587.338 2095.11 581.817 Q2089.94 576.297 2089.94 566.922 Q2089.94 557.408 2095.14 551.957 Q2100.39 546.505 2109.48 546.505 Q2112.44 546.505 2115.25 547.13 Q2118.06 547.72 2120.7 548.936 Z" fill="#000000" fill-rule="evenodd" fill-opacity="1" /><path clip-path="url(#clip480)" d="M2138.13 536.401 L2138.13 547.443 L2151.29 547.443 L2151.29 552.408 L2138.13 552.408 L2138.13 573.519 Q2138.13 578.276 2139.41 579.63 Q2140.73 580.984 2144.73 580.984 L2151.29 580.984 L2151.29 586.331 L2144.73 586.331 Q2137.33 586.331 2134.52 583.588 Q2131.71 580.811 2131.71 573.519 L2131.71 552.408 L2127.02 552.408 L2127.02 547.443 L2131.71 547.443 L2131.71 536.401 L2138.13 536.401 Z" fill="#000000" fill-rule="evenodd" fill-opacity="1" /><path clip-path="url(#clip480)" d="M2159.69 547.443 L2166.08 547.443 L2166.08 586.331 L2159.69 586.331 L2159.69 547.443 M2159.69 532.304 L2166.08 532.304 L2166.08 540.394 L2159.69 540.394 L2159.69 532.304 Z" fill="#000000" fill-rule="evenodd" fill-opacity="1" /><path clip-path="url(#clip480)" d="M2194.52 551.922 Q2189.38 551.922 2186.39 555.95 Q2183.41 559.943 2183.41 566.922 Q2183.41 573.901 2186.36 577.929 Q2189.35 581.922 2194.52 581.922 Q2199.62 581.922 2202.61 577.894 Q2205.6 573.866 2205.6 566.922 Q2205.6 560.012 2202.61 555.984 Q2199.62 551.922 2194.52 551.922 M2194.52 546.505 Q2202.85 546.505 2207.61 551.922 Q2212.37 557.338 2212.37 566.922 Q2212.37 576.47 2207.61 581.922 Q2202.85 587.338 2194.52 587.338 Q2186.15 587.338 2181.39 581.922 Q2176.67 576.47 2176.67 566.922 Q2176.67 557.338 2181.39 551.922 Q2186.15 546.505 2194.52 546.505 Z" fill="#000000" fill-rule="evenodd" fill-opacity="1" /><path clip-path="url(#clip480)" d="M2255.28 562.859 L2255.28 586.331 L2248.89 586.331 L2248.89 563.068 Q2248.89 557.547 2246.74 554.804 Q2244.59 552.061 2240.28 552.061 Q2235.11 552.061 2232.12 555.359 Q2229.14 558.658 2229.14 564.352 L2229.14 586.331 L2222.71 586.331 L2222.71 547.443 L2229.14 547.443 L2229.14 553.484 Q2231.43 549.977 2234.52 548.241 Q2237.64 546.505 2241.71 546.505 Q2248.41 546.505 2251.84 550.672 Q2255.28 554.804 2255.28 562.859 Z" fill="#000000" fill-rule="evenodd" fill-opacity="1" /></svg>
