<?xml version="1.0" encoding="utf-8"?>
<svg xmlns="http://www.w3.org/2000/svg" xmlns:xlink="http://www.w3.org/1999/xlink" width="600" height="400" viewBox="0 0 2400 1600">
<defs>
  <clipPath id="clip400">
    <rect x="0" y="0" width="2400" height="1600"/>
  </clipPath>
</defs>
<path clip-path="url(#clip400)" d="
M0 1600 L2400 1600 L2400 0 L0 0  Z
  " fill="#ffffff" fill-rule="evenodd" fill-opacity="1"/>
<defs>
  <clipPath id="clip401">
    <rect x="480" y="0" width="1681" height="1600"/>
  </clipPath>
</defs>
<path clip-path="url(#clip400)" d="
M112.177 1486.45 L2352.76 1486.45 L2352.76 47.2441 L112.177 47.2441  Z
  " fill="#ffffff" fill-rule="evenodd" fill-opacity="1"/>
<defs>
  <clipPath id="clip402">
    <rect x="112" y="47" width="2242" height="1440"/>
  </clipPath>
</defs>
<defs>
  <clipPath id="clip403">
    <rect x="568" y="159" width="1328" height="1328"/>
  </clipPath>
</defs>
<polyline clip-path="url(#clip403)" style="stroke:#000000; stroke-linecap:butt; stroke-linejoin:round; stroke-width:2; stroke-opacity:0.1; fill:none" points="
  1896.05,822.86 1232.47,822.86 
  "/>
<polyline clip-path="url(#clip403)" style="stroke:#000000; stroke-linecap:butt; stroke-linejoin:round; stroke-width:2; stroke-opacity:0.1; fill:none" points="
  1701.69,1292.09 1232.47,822.86 
  "/>
<polyline clip-path="url(#clip403)" style="stroke:#000000; stroke-linecap:butt; stroke-linejoin:round; stroke-width:2; stroke-opacity:0.1; fill:none" points="
  1232.47,1486.45 1232.47,822.86 
  "/>
<polyline clip-path="url(#clip403)" style="stroke:#000000; stroke-linecap:butt; stroke-linejoin:round; stroke-width:2; stroke-opacity:0.1; fill:none" points="
  763.239,1292.09 1232.47,822.86 
  "/>
<polyline clip-path="url(#clip403)" style="stroke:#000000; stroke-linecap:butt; stroke-linejoin:round; stroke-width:2; stroke-opacity:0.1; fill:none" points="
  568.879,822.86 1232.47,822.86 
  "/>
<polyline clip-path="url(#clip403)" style="stroke:#000000; stroke-linecap:butt; stroke-linejoin:round; stroke-width:2; stroke-opacity:0.1; fill:none" points="
  763.239,353.633 1232.47,822.86 
  "/>
<polyline clip-path="url(#clip403)" style="stroke:#000000; stroke-linecap:butt; stroke-linejoin:round; stroke-width:2; stroke-opacity:0.1; fill:none" points="
  1232.47,159.273 1232.47,822.86 
  "/>
<polyline clip-path="url(#clip403)" style="stroke:#000000; stroke-linecap:butt; stroke-linejoin:round; stroke-width:2; stroke-opacity:0.1; fill:none" points="
  1701.69,353.633 1232.47,822.86 
  "/>
<polyline clip-path="url(#clip403)" style="stroke:#000000; stroke-linecap:butt; stroke-linejoin:round; stroke-width:2; stroke-opacity:0.1; fill:none" points="
  1232.47,822.86 1232.47,822.86 
  
  
  
  
  
  
  
  
  
  
  
  
  
  
  
  
  
  
  
  
  
  
  
  
  
  
  
  
  
  
  
  
  
  
  
  
  "/>
<polyline clip-path="url(#clip403)" style="stroke:#000000; stroke-linecap:butt; stroke-linejoin:round; stroke-width:2; stroke-opacity:0.1; fill:none" points="
  1328.53,822.86 1328.51,821.184 1328.47,819.508 1328.4,817.833 1328.29,816.16 1328.16,814.488 1328,812.819 1327.81,811.154 1327.59,809.491 1327.34,807.833 
  1327.07,806.18 1326.76,804.531 1326.43,802.888 1326.07,801.251 1325.67,799.621 1325.25,797.998 1324.81,796.383 1324.33,794.775 1323.83,793.176 1323.29,791.586 
  1322.73,790.006 1322.15,788.435 1321.53,786.875 1320.89,785.327 1320.22,783.789 1319.53,782.263 1318.81,780.75 1318.06,779.25 1317.28,777.763 1316.48,776.289 
  1315.66,774.83 1314.81,773.386 1313.93,771.956 1313.03,770.542 1312.1,769.144 1311.15,767.762 1310.18,766.397 1309.18,765.05 1308.16,763.72 1307.12,762.407 
  1306.05,761.114 1304.96,759.839 1303.85,758.583 1302.72,757.347 1301.57,756.131 1300.39,754.935 1299.2,753.76 1297.98,752.606 1296.74,751.473 1295.49,750.363 
  1294.21,749.274 1292.92,748.207 1291.61,747.164 1290.28,746.143 1288.93,745.146 1287.56,744.172 1286.18,743.223 1284.78,742.297 1283.37,741.396 1281.94,740.52 
  1280.5,739.669 1279.04,738.844 1277.56,738.044 1276.08,737.27 1274.58,736.522 1273.06,735.8 1271.54,735.105 1270,734.436 1268.45,733.795 1266.89,733.18 
  1265.32,732.593 1263.74,732.033 1262.15,731.501 1260.55,730.997 1258.94,730.521 1257.33,730.073 1255.71,729.653 1254.08,729.262 1252.44,728.899 1250.8,728.565 
  1249.15,728.259 1247.49,727.982 1245.84,727.735 1244.17,727.516 1242.51,727.326 1240.84,727.165 1239.17,727.034 1237.49,726.931 1235.82,726.858 1234.14,726.814 
  1232.47,726.8 1230.79,726.814 1229.11,726.858 1227.44,726.931 1225.77,727.034 1224.09,727.165 1222.43,727.326 1220.76,727.516 1219.1,727.735 1217.44,727.982 
  1215.79,728.259 1214.14,728.565 1212.49,728.899 1210.86,729.262 1209.23,729.653 1207.6,730.073 1205.99,730.521 1204.38,730.997 1202.78,731.501 1201.19,732.033 
  1199.61,732.593 1198.04,733.18 1196.48,733.795 1194.93,734.436 1193.4,735.105 1191.87,735.8 1190.36,736.522 1188.86,737.27 1187.37,738.044 1185.9,738.844 
  1184.44,739.669 1182.99,740.52 1181.56,741.396 1180.15,742.297 1178.75,743.223 1177.37,744.172 1176,745.146 1174.66,746.143 1173.33,747.164 1172.01,748.207 
  1170.72,749.274 1169.45,750.363 1168.19,751.473 1166.95,752.606 1165.74,753.76 1164.54,754.935 1163.37,756.131 1162.21,757.347 1161.08,758.583 1159.97,759.839 
  1158.88,761.114 1157.81,762.407 1156.77,763.72 1155.75,765.05 1154.75,766.397 1153.78,767.762 1152.83,769.144 1151.9,770.542 1151,771.956 1150.13,773.386 
  1149.28,774.83 1148.45,776.289 1147.65,777.763 1146.88,779.25 1146.13,780.75 1145.41,782.263 1144.71,783.789 1144.04,785.327 1143.4,786.875 1142.79,788.435 
  1142.2,790.006 1141.64,791.586 1141.11,793.176 1140.6,794.775 1140.13,796.383 1139.68,797.998 1139.26,799.621 1138.87,801.251 1138.5,802.888 1138.17,804.531 
  1137.87,806.18 1137.59,807.833 1137.34,809.491 1137.12,811.154 1136.93,812.819 1136.77,814.488 1136.64,816.16 1136.54,817.833 1136.46,819.508 1136.42,821.184 
  1136.41,822.86 1136.42,824.537 1136.46,826.213 1136.54,827.888 1136.64,829.561 1136.77,831.233 1136.93,832.902 1137.12,834.567 1137.34,836.23 1137.59,837.888 
  1137.87,839.541 1138.17,841.19 1138.5,842.833 1138.87,844.469 1139.26,846.1 1139.68,847.723 1140.13,849.338 1140.6,850.946 1141.11,852.545 1141.64,854.135 
  1142.2,855.715 1142.79,857.286 1143.4,858.845 1144.04,860.394 1144.71,861.932 1145.41,863.457 1146.13,864.971 1146.88,866.471 1147.65,867.958 1148.45,869.432 
  1149.28,870.891 1150.13,872.335 1151,873.765 1151.9,875.179 1152.83,876.577 1153.78,877.959 1154.75,879.324 1155.75,880.671 1156.77,882.001 1157.81,883.313 
  1158.88,884.607 1159.97,885.882 1161.08,887.138 1162.21,888.374 1163.37,889.59 1164.54,890.786 1165.74,891.961 1166.95,893.115 1168.19,894.247 1169.45,895.358 
  1170.72,896.447 1172.01,897.514 1173.33,898.557 1174.66,899.578 1176,900.575 1177.37,901.549 1178.75,902.498 1180.15,903.424 1181.56,904.325 1182.99,905.201 
  1184.44,906.051 1185.9,906.877 1187.37,907.677 1188.86,908.451 1190.36,909.199 1191.87,909.921 1193.4,910.616 1194.93,911.285 1196.48,911.926 1198.04,912.541 
  1199.61,913.128 1201.19,913.688 1202.78,914.22 1204.38,914.724 1205.99,915.2 1207.6,915.648 1209.23,916.068 1210.86,916.459 1212.49,916.822 1214.14,917.156 
  1215.79,917.462 1217.44,917.739 1219.1,917.986 1220.76,918.205 1222.43,918.395 1224.09,918.556 1225.77,918.687 1227.44,918.79 1229.11,918.863 1230.79,918.907 
  1232.47,918.921 1234.14,918.907 1235.82,918.863 1237.49,918.79 1239.17,918.687 1240.84,918.556 1242.51,918.395 1244.17,918.205 1245.84,917.986 1247.49,917.739 
  1249.15,917.462 1250.8,917.156 1252.44,916.822 1254.08,916.459 1255.71,916.068 1257.33,915.648 1258.94,915.2 1260.55,914.724 1262.15,914.22 1263.74,913.688 
  1265.32,913.128 1266.89,912.541 1268.45,911.926 1270,911.285 1271.54,910.616 1273.06,909.921 1274.58,909.199 1276.08,908.451 1277.56,907.677 1279.04,906.877 
  1280.5,906.051 1281.94,905.201 1283.37,904.325 1284.78,903.424 1286.18,902.498 1287.56,901.549 1288.93,900.575 1290.28,899.578 1291.61,898.557 1292.92,897.514 
  1294.21,896.447 1295.49,895.358 1296.74,894.247 1297.98,893.115 1299.2,891.961 1300.39,890.786 1301.57,889.59 1302.72,888.374 1303.85,887.138 1304.96,885.882 
  1306.05,884.607 1307.12,883.313 1308.16,882.001 1309.18,880.671 1310.18,879.324 1311.15,877.959 1312.1,876.577 1313.03,875.179 1313.93,873.765 1314.81,872.335 
  1315.66,870.891 1316.48,869.432 1317.28,867.958 1318.06,866.471 1318.81,864.971 1319.53,863.457 1320.22,861.932 1320.89,860.394 1321.53,858.845 1322.15,857.286 
  1322.73,855.715 1323.29,854.135 1323.83,852.545 1324.33,850.946 1324.81,849.338 1325.25,847.723 1325.67,846.1 1326.07,844.469 1326.43,842.833 1326.76,841.19 
  1327.07,839.541 1327.34,837.888 1327.59,836.23 1327.81,834.567 1328,832.902 1328.16,831.233 1328.29,829.561 1328.4,827.888 1328.47,826.213 1328.51,824.537 
  
  "/>
<polyline clip-path="url(#clip403)" style="stroke:#000000; stroke-linecap:butt; stroke-linejoin:round; stroke-width:2; stroke-opacity:0.1; fill:none" points="
  1424.59,822.86 1424.56,819.507 1424.47,816.156 1424.32,812.806 1424.12,809.459 1423.86,806.116 1423.54,802.778 1423.16,799.447 1422.72,796.122 1422.22,792.806 
  1421.67,789.499 1421.06,786.202 1420.39,782.916 1419.66,779.643 1418.88,776.382 1418.04,773.136 1417.15,769.905 1416.19,766.69 1415.18,763.492 1414.12,760.312 
  1413,757.151 1411.83,754.01 1410.6,750.89 1409.32,747.793 1407.98,744.718 1406.59,741.666 1405.14,738.64 1403.65,735.639 1402.1,732.665 1400.5,729.718 
  1398.85,726.8 1397.15,723.911 1395.39,721.052 1393.59,718.224 1391.74,715.428 1389.84,712.664 1387.9,709.934 1385.9,707.239 1383.86,704.579 1381.77,701.955 
  1379.64,699.367 1377.46,696.817 1375.24,694.306 1372.98,691.834 1370.67,689.402 1368.32,687.01 1365.93,684.66 1363.49,682.352 1361.02,680.086 1358.51,677.865 
  1355.96,675.687 1353.37,673.554 1350.75,671.467 1348.09,669.425 1345.39,667.431 1342.66,665.484 1339.9,663.585 1337.1,661.734 1334.28,659.932 1331.42,658.18 
  1328.53,656.478 1325.61,654.827 1322.66,653.227 1319.69,651.679 1316.69,650.183 1313.66,648.739 1310.61,647.349 1307.53,646.012 1304.44,644.729 1301.32,643.5 
  1298.18,642.325 1295.02,641.206 1291.84,640.142 1288.64,639.134 1285.42,638.181 1282.19,637.285 1278.94,636.446 1275.68,635.663 1272.41,634.937 1269.13,634.269 
  1265.83,633.658 1262.52,633.104 1259.2,632.609 1255.88,632.171 1252.55,631.791 1249.21,631.47 1245.87,631.207 1242.52,631.002 1239.17,630.856 1235.82,630.768 
  1232.47,630.739 1229.11,630.768 1225.76,630.856 1222.41,631.002 1219.06,631.207 1215.72,631.47 1212.38,631.791 1209.05,632.171 1205.73,632.609 1202.41,633.104 
  1199.11,633.658 1195.81,634.269 1192.52,634.937 1189.25,635.663 1185.99,636.446 1182.74,637.285 1179.51,638.181 1176.3,639.134 1173.1,640.142 1169.92,641.206 
  1166.76,642.325 1163.62,643.5 1160.5,644.729 1157.4,646.012 1154.32,647.349 1151.27,648.739 1148.25,650.183 1145.25,651.679 1142.27,653.227 1139.32,654.827 
  1136.41,656.478 1133.52,658.18 1130.66,659.932 1127.83,661.734 1125.03,663.585 1122.27,665.484 1119.54,667.431 1116.84,669.425 1114.18,671.467 1111.56,673.554 
  1108.97,675.687 1106.42,677.865 1103.91,680.086 1101.44,682.352 1099.01,684.66 1096.62,687.01 1094.27,689.402 1091.96,691.834 1089.69,694.306 1087.47,696.817 
  1085.29,699.367 1083.16,701.955 1081.07,704.579 1079.03,707.239 1077.04,709.934 1075.09,712.664 1073.19,715.428 1071.34,718.224 1069.54,721.052 1067.79,723.911 
  1066.08,726.8 1064.43,729.718 1062.83,732.665 1061.29,735.639 1059.79,738.64 1058.35,741.666 1056.95,744.718 1055.62,747.793 1054.33,750.89 1053.11,754.01 
  1051.93,757.151 1050.81,760.312 1049.75,763.492 1048.74,766.69 1047.79,769.905 1046.89,773.136 1046.05,776.382 1045.27,779.643 1044.54,782.916 1043.87,786.202 
  1043.26,789.499 1042.71,792.806 1042.21,796.122 1041.78,799.447 1041.4,802.778 1041.08,806.116 1040.81,809.459 1040.61,812.806 1040.46,816.156 1040.37,819.507 
  1040.35,822.86 1040.37,826.213 1040.46,829.565 1040.61,832.915 1040.81,836.262 1041.08,839.605 1041.4,842.943 1041.78,846.274 1042.21,849.599 1042.71,852.915 
  1043.26,856.222 1043.87,859.519 1044.54,862.805 1045.27,866.078 1046.05,869.339 1046.89,872.585 1047.79,875.816 1048.74,879.031 1049.75,882.229 1050.81,885.409 
  1051.93,888.57 1053.11,891.711 1054.33,894.83 1055.62,897.928 1056.95,901.003 1058.35,904.054 1059.79,907.081 1061.29,910.082 1062.83,913.056 1064.43,916.003 
  1066.08,918.921 1067.79,921.81 1069.54,924.669 1071.34,927.497 1073.19,930.293 1075.09,933.057 1077.04,935.787 1079.03,938.482 1081.07,941.142 1083.16,943.766 
  1085.29,946.354 1087.47,948.903 1089.69,951.415 1091.96,953.887 1094.27,956.319 1096.62,958.711 1099.01,961.061 1101.44,963.369 1103.91,965.634 1106.42,967.856 
  1108.97,970.034 1111.56,972.167 1114.18,974.254 1116.84,976.295 1119.54,978.29 1122.27,980.237 1125.03,982.136 1127.83,983.987 1130.66,985.789 1133.52,987.541 
  1136.41,989.242 1139.32,990.894 1142.27,992.494 1145.25,994.042 1148.25,995.538 1151.27,996.982 1154.32,998.372 1157.4,999.709 1160.5,1000.99 1163.62,1002.22 
  1166.76,1003.4 1169.92,1004.51 1173.1,1005.58 1176.3,1006.59 1179.51,1007.54 1182.74,1008.44 1185.99,1009.28 1189.25,1010.06 1192.52,1010.78 1195.81,1011.45 
  1199.11,1012.06 1202.41,1012.62 1205.73,1013.11 1209.05,1013.55 1212.38,1013.93 1215.72,1014.25 1219.06,1014.51 1222.41,1014.72 1225.76,1014.86 1229.11,1014.95 
  1232.47,1014.98 1235.82,1014.95 1239.17,1014.86 1242.52,1014.72 1245.87,1014.51 1249.21,1014.25 1252.55,1013.93 1255.88,1013.55 1259.2,1013.11 1262.52,1012.62 
  1265.83,1012.06 1269.13,1011.45 1272.41,1010.78 1275.68,1010.06 1278.94,1009.28 1282.19,1008.44 1285.42,1007.54 1288.64,1006.59 1291.84,1005.58 1295.02,1004.51 
  1298.18,1003.4 1301.32,1002.22 1304.44,1000.99 1307.53,999.709 1310.61,998.372 1313.66,996.982 1316.69,995.538 1319.69,994.042 1322.66,992.494 1325.61,990.894 
  1328.53,989.242 1331.42,987.541 1334.28,985.789 1337.1,983.987 1339.9,982.136 1342.66,980.237 1345.39,978.29 1348.09,976.295 1350.75,974.254 1353.37,972.167 
  1355.96,970.034 1358.51,967.856 1361.02,965.634 1363.49,963.369 1365.93,961.061 1368.32,958.711 1370.67,956.319 1372.98,953.887 1375.24,951.415 1377.46,948.903 
  1379.64,946.354 1381.77,943.766 1383.86,941.142 1385.9,938.482 1387.9,935.787 1389.84,933.057 1391.74,930.293 1393.59,927.497 1395.39,924.669 1397.15,921.81 
  1398.85,918.921 1400.5,916.003 1402.1,913.056 1403.65,910.082 1405.14,907.081 1406.59,904.054 1407.98,901.003 1409.32,897.928 1410.6,894.83 1411.83,891.711 
  1413,888.57 1414.12,885.409 1415.18,882.229 1416.19,879.031 1417.15,875.816 1418.04,872.585 1418.88,869.339 1419.66,866.078 1420.39,862.805 1421.06,859.519 
  1421.67,856.222 1422.22,852.915 1422.72,849.599 1423.16,846.274 1423.54,842.943 1423.86,839.605 1424.12,836.262 1424.32,832.915 1424.47,829.565 1424.56,826.213 
  
  "/>
<polyline clip-path="url(#clip403)" style="stroke:#000000; stroke-linecap:butt; stroke-linejoin:round; stroke-width:2; stroke-opacity:0.1; fill:none" points="
  1520.65,822.86 1520.6,817.831 1520.47,812.803 1520.25,807.778 1519.95,802.758 1519.55,797.744 1519.07,792.737 1518.5,787.74 1517.84,782.753 1517.1,777.779 
  1516.27,772.818 1515.35,767.873 1514.35,762.944 1513.26,758.034 1512.09,753.143 1510.83,748.273 1509.48,743.427 1508.06,738.604 1506.54,733.807 1504.95,729.038 
  1503.27,724.296 1501.51,719.585 1499.66,714.906 1497.74,710.259 1495.73,705.646 1493.65,701.069 1491.48,696.53 1489.24,692.028 1486.92,687.567 1484.52,683.147 
  1482.04,678.769 1479.49,674.436 1476.86,670.147 1474.16,665.905 1471.38,661.711 1468.53,657.566 1465.61,653.471 1462.62,649.428 1459.56,645.438 1456.43,641.502 
  1453.23,637.621 1449.96,633.796 1446.63,630.029 1443.23,626.321 1439.77,622.672 1436.24,619.085 1432.65,615.56 1429.01,612.097 1425.3,608.699 1421.53,605.367 
  1417.71,602.1 1413.83,598.901 1409.89,595.77 1405.9,592.708 1401.86,589.716 1397.76,586.795 1393.62,583.947 1389.42,581.171 1385.18,578.468 1380.89,575.84 
  1376.56,573.287 1372.18,570.811 1367.76,568.411 1363.3,566.088 1358.8,563.844 1354.26,561.679 1349.68,559.593 1345.07,557.587 1340.42,555.663 1335.74,553.819 
  1331.03,552.058 1326.29,550.379 1321.52,548.783 1316.72,547.27 1311.9,545.842 1307.05,544.498 1302.18,543.239 1297.29,542.064 1292.38,540.976 1287.45,539.973 
  1282.51,539.056 1277.55,538.226 1272.57,537.483 1267.59,536.826 1262.59,536.257 1257.58,535.775 1252.57,535.38 1247.55,535.073 1242.52,534.854 1237.5,534.722 
  1232.47,534.678 1227.44,534.722 1222.41,534.854 1217.38,535.073 1212.36,535.38 1207.35,535.775 1202.34,536.257 1197.35,536.826 1192.36,537.483 1187.38,538.226 
  1182.42,539.056 1177.48,539.973 1172.55,540.976 1167.64,542.064 1162.75,543.239 1157.88,544.498 1153.03,545.842 1148.21,547.27 1143.41,548.783 1138.64,550.379 
  1133.9,552.058 1129.19,553.819 1124.51,555.663 1119.86,557.587 1115.25,559.593 1110.68,561.679 1106.14,563.844 1101.63,566.088 1097.17,568.411 1092.75,570.811 
  1088.38,573.287 1084.04,575.84 1079.75,578.468 1075.51,581.171 1071.32,583.947 1067.17,586.795 1063.08,589.716 1059.03,592.708 1055.04,595.77 1051.11,598.901 
  1047.23,602.1 1043.4,605.367 1039.64,608.699 1035.93,612.097 1032.28,615.56 1028.69,619.085 1025.17,622.672 1021.7,626.321 1018.31,630.029 1014.97,633.796 
  1011.71,637.621 1008.51,641.502 1005.38,645.438 1002.31,649.428 999.322,653.471 996.402,657.566 993.553,661.711 990.777,665.905 988.074,670.147 985.446,674.436 
  982.893,678.769 980.417,683.147 978.017,687.567 975.694,692.028 973.45,696.53 971.285,701.069 969.199,705.646 967.193,710.259 965.269,714.906 963.425,719.585 
  961.664,724.296 959.985,729.038 958.389,733.807 956.877,738.604 955.448,743.427 954.104,748.273 952.845,753.143 951.67,758.034 950.582,762.944 949.579,767.873 
  948.663,772.818 947.832,777.779 947.089,782.753 946.432,787.74 945.863,792.737 945.381,797.744 944.986,802.758 944.679,807.778 944.46,812.803 944.328,817.831 
  944.284,822.86 944.328,827.89 944.46,832.918 944.679,837.943 944.986,842.963 945.381,847.977 945.863,852.984 946.432,857.981 947.089,862.968 947.832,867.942 
  948.663,872.903 949.579,877.848 950.582,882.777 951.67,887.687 952.845,892.578 954.104,897.447 955.448,902.294 956.877,907.117 958.389,911.914 959.985,916.683 
  961.664,921.425 963.425,926.136 965.269,930.815 967.193,935.462 969.199,940.075 971.285,944.651 973.45,949.191 975.694,953.692 978.017,958.154 980.417,962.574 
  982.893,966.952 985.446,971.285 988.074,975.574 990.777,979.816 993.553,984.01 996.402,988.155 999.322,992.25 1002.31,996.293 1005.38,1000.28 1008.51,1004.22 
  1011.71,1008.1 1014.97,1011.92 1018.31,1015.69 1021.7,1019.4 1025.17,1023.05 1028.69,1026.64 1032.28,1030.16 1035.93,1033.62 1039.64,1037.02 1043.4,1040.35 
  1047.23,1043.62 1051.11,1046.82 1055.04,1049.95 1059.03,1053.01 1063.08,1056 1067.17,1058.93 1071.32,1061.77 1075.51,1064.55 1079.75,1067.25 1084.04,1069.88 
  1088.38,1072.43 1092.75,1074.91 1097.17,1077.31 1101.63,1079.63 1106.14,1081.88 1110.68,1084.04 1115.25,1086.13 1119.86,1088.13 1124.51,1090.06 1129.19,1091.9 
  1133.9,1093.66 1138.64,1095.34 1143.41,1096.94 1148.21,1098.45 1153.03,1099.88 1157.88,1101.22 1162.75,1102.48 1167.64,1103.66 1172.55,1104.75 1177.48,1105.75 
  1182.42,1106.66 1187.38,1107.49 1192.36,1108.24 1197.35,1108.89 1202.34,1109.46 1207.35,1109.95 1212.36,1110.34 1217.38,1110.65 1222.41,1110.87 1227.44,1111 
  1232.47,1111.04 1237.5,1111 1242.52,1110.87 1247.55,1110.65 1252.57,1110.34 1257.58,1109.95 1262.59,1109.46 1267.59,1108.89 1272.57,1108.24 1277.55,1107.49 
  1282.51,1106.66 1287.45,1105.75 1292.38,1104.75 1297.29,1103.66 1302.18,1102.48 1307.05,1101.22 1311.9,1099.88 1316.72,1098.45 1321.52,1096.94 1326.29,1095.34 
  1331.03,1093.66 1335.74,1091.9 1340.42,1090.06 1345.07,1088.13 1349.68,1086.13 1354.26,1084.04 1358.8,1081.88 1363.3,1079.63 1367.76,1077.31 1372.18,1074.91 
  1376.56,1072.43 1380.89,1069.88 1385.18,1067.25 1389.42,1064.55 1393.62,1061.77 1397.76,1058.93 1401.86,1056 1405.9,1053.01 1409.89,1049.95 1413.83,1046.82 
  1417.71,1043.62 1421.53,1040.35 1425.3,1037.02 1429.01,1033.62 1432.65,1030.16 1436.24,1026.64 1439.77,1023.05 1443.23,1019.4 1446.63,1015.69 1449.96,1011.92 
  1453.23,1008.1 1456.43,1004.22 1459.56,1000.28 1462.62,996.293 1465.61,992.25 1468.53,988.155 1471.38,984.01 1474.16,979.816 1476.86,975.574 1479.49,971.285 
  1482.04,966.952 1484.52,962.574 1486.92,958.154 1489.24,953.692 1491.48,949.191 1493.65,944.651 1495.73,940.075 1497.74,935.462 1499.66,930.815 1501.51,926.136 
  1503.27,921.425 1504.95,916.683 1506.54,911.914 1508.06,907.117 1509.48,902.294 1510.83,897.447 1512.09,892.578 1513.26,887.687 1514.35,882.777 1515.35,877.848 
  1516.27,872.903 1517.1,867.942 1517.84,862.968 1518.5,857.981 1519.07,852.984 1519.55,847.977 1519.95,842.963 1520.25,837.943 1520.47,832.918 1520.6,827.89 
  
  "/>
<polyline clip-path="url(#clip403)" style="stroke:#000000; stroke-linecap:butt; stroke-linejoin:round; stroke-width:2; stroke-opacity:0.1; fill:none" points="
  1616.71,822.86 1616.65,816.154 1616.48,809.451 1616.18,802.751 1615.77,796.057 1615.25,789.371 1614.6,782.696 1613.85,776.033 1612.97,769.384 1611.98,762.752 
  1610.87,756.137 1609.65,749.543 1608.31,742.972 1606.86,736.425 1605.3,729.904 1603.62,723.411 1601.82,716.949 1599.92,710.519 1597.9,704.123 1595.78,697.763 
  1593.54,691.442 1591.19,685.16 1588.73,678.921 1586.16,672.725 1583.49,666.575 1580.71,660.472 1577.82,654.419 1574.83,648.418 1571.73,642.469 1568.53,636.576 
  1565.23,630.739 1561.83,624.961 1558.32,619.243 1554.72,613.587 1551.02,607.995 1547.22,602.468 1543.33,597.008 1539.34,591.617 1535.25,586.297 1531.08,581.049 
  1526.81,575.874 1522.46,570.774 1518.01,565.752 1513.48,560.807 1508.87,555.943 1504.17,551.16 1499.38,546.459 1494.52,541.843 1489.58,537.312 1484.55,532.869 
  1479.45,528.513 1474.28,524.248 1469.03,520.073 1463.71,515.99 1458.32,512.001 1452.86,508.107 1447.33,504.309 1441.74,500.607 1436.08,497.004 1430.37,493.5 
  1424.59,490.096 1418.75,486.794 1412.86,483.594 1406.91,480.498 1400.91,477.505 1394.85,474.618 1388.75,471.837 1382.6,469.163 1376.41,466.597 1370.17,464.139 
  1363.89,461.79 1357.56,459.552 1351.2,457.424 1344.81,455.407 1338.38,453.503 1331.92,451.71 1325.42,450.031 1318.9,448.466 1312.36,447.014 1305.78,445.677 
  1299.19,444.455 1292.58,443.348 1285.94,442.357 1279.29,441.482 1272.63,440.723 1265.96,440.08 1259.27,439.554 1252.58,439.144 1245.88,438.852 1239.17,438.676 
  1232.47,438.618 1225.76,438.676 1219.06,438.852 1212.36,439.144 1205.66,439.554 1198.98,440.08 1192.3,440.723 1185.64,441.482 1178.99,442.357 1172.36,443.348 
  1165.74,444.455 1159.15,445.677 1152.58,447.014 1146.03,448.466 1139.51,450.031 1133.02,451.71 1126.55,453.503 1120.12,455.407 1113.73,457.424 1107.37,459.552 
  1101.05,461.79 1094.77,464.139 1088.53,466.597 1082.33,469.163 1076.18,471.837 1070.08,474.618 1064.03,477.505 1058.02,480.498 1052.08,483.594 1046.18,486.794 
  1040.35,490.096 1034.57,493.5 1028.85,497.004 1023.19,500.607 1017.6,504.309 1012.07,508.107 1006.61,512.001 1001.22,515.99 995.903,520.073 990.655,524.248 
  985.48,528.513 980.381,532.869 975.358,537.312 970.414,541.843 965.549,546.459 960.766,551.16 956.065,555.943 951.449,560.807 946.918,565.752 942.475,570.774 
  938.119,575.874 933.854,581.049 929.679,586.297 925.597,591.617 921.608,597.008 917.713,602.468 913.915,607.995 910.213,613.587 906.61,619.243 903.106,624.961 
  899.702,630.739 896.4,636.576 893.2,642.469 890.104,648.418 887.111,654.419 884.224,660.472 881.443,666.575 878.769,672.725 876.203,678.921 873.745,685.16 
  871.396,691.442 869.158,697.763 867.03,704.123 865.013,710.519 863.109,716.949 861.316,723.411 859.637,729.904 858.072,736.425 856.62,742.972 855.283,749.543 
  854.061,756.137 852.954,762.752 851.963,769.384 851.088,776.033 850.329,782.696 849.686,789.371 849.16,796.057 848.75,802.751 848.458,809.451 848.282,816.154 
  848.224,822.86 848.282,829.566 848.458,836.27 848.75,842.97 849.16,849.664 849.686,856.349 850.329,863.025 851.088,869.688 851.963,876.337 852.954,882.969 
  854.061,889.584 855.283,896.177 856.62,902.749 858.072,909.296 859.637,915.817 861.316,922.31 863.109,928.772 865.013,935.202 867.03,941.598 869.158,947.958 
  871.396,954.279 873.745,960.561 876.203,966.8 878.769,972.996 881.443,979.146 884.224,985.249 887.111,991.301 890.104,997.303 893.2,1003.25 896.4,1009.15 
  899.702,1014.98 903.106,1020.76 906.61,1026.48 910.213,1032.13 913.915,1037.73 917.713,1043.25 921.608,1048.71 925.597,1054.1 929.679,1059.42 933.854,1064.67 
  938.119,1069.85 942.475,1074.95 946.918,1079.97 951.449,1084.91 956.065,1089.78 960.766,1094.56 965.549,1099.26 970.414,1103.88 975.358,1108.41 980.381,1112.85 
  985.48,1117.21 990.655,1121.47 995.903,1125.65 1001.22,1129.73 1006.61,1133.72 1012.07,1137.61 1017.6,1141.41 1023.19,1145.11 1028.85,1148.72 1034.57,1152.22 
  1040.35,1155.62 1046.18,1158.93 1052.08,1162.13 1058.02,1165.22 1064.03,1168.22 1070.08,1171.1 1076.18,1173.88 1082.33,1176.56 1088.53,1179.12 1094.77,1181.58 
  1101.05,1183.93 1107.37,1186.17 1113.73,1188.3 1120.12,1190.31 1126.55,1192.22 1133.02,1194.01 1139.51,1195.69 1146.03,1197.26 1152.58,1198.71 1159.15,1200.04 
  1165.74,1201.27 1172.36,1202.37 1178.99,1203.36 1185.64,1204.24 1192.3,1205 1198.98,1205.64 1205.66,1206.17 1212.36,1206.58 1219.06,1206.87 1225.76,1207.04 
  1232.47,1207.1 1239.17,1207.04 1245.88,1206.87 1252.58,1206.58 1259.27,1206.17 1265.96,1205.64 1272.63,1205 1279.29,1204.24 1285.94,1203.36 1292.58,1202.37 
  1299.19,1201.27 1305.78,1200.04 1312.36,1198.71 1318.9,1197.26 1325.42,1195.69 1331.92,1194.01 1338.38,1192.22 1344.81,1190.31 1351.2,1188.3 1357.56,1186.17 
  1363.89,1183.93 1370.17,1181.58 1376.41,1179.12 1382.6,1176.56 1388.75,1173.88 1394.85,1171.1 1400.91,1168.22 1406.91,1165.22 1412.86,1162.13 1418.75,1158.93 
  1424.59,1155.62 1430.37,1152.22 1436.08,1148.72 1441.74,1145.11 1447.33,1141.41 1452.86,1137.61 1458.32,1133.72 1463.71,1129.73 1469.03,1125.65 1474.28,1121.47 
  1479.45,1117.21 1484.55,1112.85 1489.58,1108.41 1494.52,1103.88 1499.38,1099.26 1504.17,1094.56 1508.87,1089.78 1513.48,1084.91 1518.01,1079.97 1522.46,1074.95 
  1526.81,1069.85 1531.08,1064.67 1535.25,1059.42 1539.34,1054.1 1543.33,1048.71 1547.22,1043.25 1551.02,1037.73 1554.72,1032.13 1558.32,1026.48 1561.83,1020.76 
  1565.23,1014.98 1568.53,1009.15 1571.73,1003.25 1574.83,997.303 1577.82,991.301 1580.71,985.249 1583.49,979.146 1586.16,972.996 1588.73,966.8 1591.19,960.561 
  1593.54,954.279 1595.78,947.958 1597.9,941.598 1599.92,935.202 1601.82,928.772 1603.62,922.31 1605.3,915.817 1606.86,909.296 1608.31,902.749 1609.65,896.177 
  1610.87,889.584 1611.98,882.969 1612.97,876.337 1613.85,869.688 1614.6,863.025 1615.25,856.349 1615.77,849.664 1616.18,842.97 1616.48,836.27 1616.65,829.566 
  
  "/>
<polyline clip-path="url(#clip403)" style="stroke:#000000; stroke-linecap:butt; stroke-linejoin:round; stroke-width:2; stroke-opacity:0.1; fill:none" points="
  1712.77,822.86 1712.7,814.478 1712.48,806.098 1712.11,797.723 1711.6,789.356 1710.94,780.999 1710.14,772.655 1709.19,764.326 1708.1,756.015 1706.86,747.724 
  1705.47,739.457 1703.95,731.214 1702.27,723 1700.46,714.816 1698.5,706.665 1696.4,698.549 1694.16,690.471 1691.78,682.433 1689.26,674.438 1686.6,666.489 
  1683.8,658.587 1680.87,650.735 1677.8,642.936 1674.59,635.191 1671.25,627.503 1667.77,619.875 1664.16,612.309 1660.42,604.807 1656.55,597.372 1652.55,590.005 
  1648.42,582.709 1644.17,575.486 1639.79,568.338 1635.28,561.268 1630.66,554.278 1625.91,547.37 1621.04,540.545 1616.05,533.807 1610.95,527.156 1605.73,520.596 
  1600.4,514.127 1594.96,507.753 1589.4,501.475 1583.74,495.294 1577.97,489.214 1572.09,483.235 1566.11,477.359 1560.03,471.589 1553.85,465.925 1547.57,460.371 
  1541.2,454.927 1534.73,449.594 1528.17,444.376 1521.52,439.273 1514.78,434.287 1507.96,429.419 1501.05,424.671 1494.06,420.044 1486.99,415.54 1479.84,411.16 
  1472.62,406.905 1465.32,402.777 1457.96,398.778 1450.52,394.907 1443.02,391.166 1435.45,387.558 1427.82,384.081 1420.14,380.739 1412.39,377.531 1404.59,374.458 
  1396.74,371.523 1388.84,368.724 1380.89,366.065 1372.89,363.544 1364.86,361.163 1356.78,358.923 1348.66,356.824 1340.51,354.867 1332.33,353.053 1324.11,351.381 
  1315.87,349.854 1307.6,348.47 1299.31,347.231 1291,346.137 1282.67,345.188 1274.33,344.385 1265.97,343.727 1257.6,343.215 1249.23,342.849 1240.85,342.63 
  1232.47,342.557 1224.08,342.63 1215.7,342.849 1207.33,343.215 1198.96,343.727 1190.61,344.385 1182.26,345.188 1173.93,346.137 1165.62,347.231 1157.33,348.47 
  1149.06,349.854 1140.82,351.381 1132.61,353.053 1124.42,354.867 1116.27,356.824 1108.15,358.923 1100.08,361.163 1092.04,363.544 1084.04,366.065 1076.09,368.724 
  1068.19,371.523 1060.34,374.458 1052.54,377.531 1044.8,380.739 1037.11,384.081 1029.48,387.558 1021.92,391.166 1014.41,394.907 1006.98,398.778 999.611,402.777 
  992.315,406.905 985.092,411.16 977.944,415.54 970.874,420.044 963.884,424.671 956.976,429.419 950.151,434.287 943.413,439.273 936.762,444.376 930.202,449.594 
  923.733,454.927 917.359,460.371 911.081,465.925 904.9,471.589 898.82,477.359 892.841,483.235 886.965,489.214 881.195,495.294 875.531,501.475 869.977,507.753 
  864.533,514.127 859.201,520.596 853.982,527.156 848.879,533.807 843.893,540.545 839.025,547.37 834.277,554.278 829.65,561.268 825.146,568.338 820.766,575.486 
  816.511,582.709 812.384,590.005 808.384,597.372 804.513,604.807 800.773,612.309 797.164,619.875 793.687,627.503 790.345,635.191 787.137,642.936 784.065,650.735 
  781.129,658.587 778.331,666.489 775.671,674.438 773.15,682.433 770.769,690.471 768.529,698.549 766.43,706.665 764.473,714.816 762.659,723 760.987,731.214 
  759.46,739.457 758.076,747.724 756.837,756.015 755.743,764.326 754.794,772.655 753.991,780.999 753.333,789.356 752.821,797.723 752.456,806.098 752.236,814.478 
  752.163,822.86 752.236,831.243 752.456,839.623 752.821,847.998 753.333,856.365 753.991,864.722 754.794,873.066 755.743,881.395 756.837,889.706 758.076,897.996 
  759.46,906.264 760.987,914.507 762.659,922.721 764.473,930.905 766.43,939.056 768.529,947.172 770.769,955.25 773.15,963.288 775.671,971.282 778.331,979.232 
  781.129,987.134 784.065,994.986 787.137,1002.79 790.345,1010.53 793.687,1018.22 797.164,1025.85 800.773,1033.41 804.513,1040.91 808.384,1048.35 812.384,1055.72 
  816.511,1063.01 820.766,1070.24 825.146,1077.38 829.65,1084.45 834.277,1091.44 839.025,1098.35 843.893,1105.18 848.879,1111.91 853.982,1118.56 859.201,1125.13 
  864.533,1131.59 869.977,1137.97 875.531,1144.25 881.195,1150.43 886.965,1156.51 892.841,1162.49 898.82,1168.36 904.9,1174.13 911.081,1179.8 917.359,1185.35 
  923.733,1190.79 930.202,1196.13 936.762,1201.34 943.413,1206.45 950.151,1211.43 956.976,1216.3 963.884,1221.05 970.874,1225.68 977.944,1230.18 985.092,1234.56 
  992.315,1238.82 999.611,1242.94 1006.98,1246.94 1014.41,1250.81 1021.92,1254.55 1029.48,1258.16 1037.11,1261.64 1044.8,1264.98 1052.54,1268.19 1060.34,1271.26 
  1068.19,1274.2 1076.09,1277 1084.04,1279.66 1092.04,1282.18 1100.08,1284.56 1108.15,1286.8 1116.27,1288.9 1124.42,1290.85 1132.61,1292.67 1140.82,1294.34 
  1149.06,1295.87 1157.33,1297.25 1165.62,1298.49 1173.93,1299.58 1182.26,1300.53 1190.61,1301.34 1198.96,1301.99 1207.33,1302.51 1215.7,1302.87 1224.08,1303.09 
  1232.47,1303.16 1240.85,1303.09 1249.23,1302.87 1257.6,1302.51 1265.97,1301.99 1274.33,1301.34 1282.67,1300.53 1291,1299.58 1299.31,1298.49 1307.6,1297.25 
  1315.87,1295.87 1324.11,1294.34 1332.33,1292.67 1340.51,1290.85 1348.66,1288.9 1356.78,1286.8 1364.86,1284.56 1372.89,1282.18 1380.89,1279.66 1388.84,1277 
  1396.74,1274.2 1404.59,1271.26 1412.39,1268.19 1420.14,1264.98 1427.82,1261.64 1435.45,1258.16 1443.02,1254.55 1450.52,1250.81 1457.96,1246.94 1465.32,1242.94 
  1472.62,1238.82 1479.84,1234.56 1486.99,1230.18 1494.06,1225.68 1501.05,1221.05 1507.96,1216.3 1514.78,1211.43 1521.52,1206.45 1528.17,1201.34 1534.73,1196.13 
  1541.2,1190.79 1547.57,1185.35 1553.85,1179.8 1560.03,1174.13 1566.11,1168.36 1572.09,1162.49 1577.97,1156.51 1583.74,1150.43 1589.4,1144.25 1594.96,1137.97 
  1600.4,1131.59 1605.73,1125.13 1610.95,1118.56 1616.05,1111.91 1621.04,1105.18 1625.91,1098.35 1630.66,1091.44 1635.28,1084.45 1639.79,1077.38 1644.17,1070.24 
  1648.42,1063.01 1652.55,1055.72 1656.55,1048.35 1660.42,1040.91 1664.16,1033.41 1667.77,1025.85 1671.25,1018.22 1674.59,1010.53 1677.8,1002.79 1680.87,994.986 
  1683.8,987.134 1686.6,979.232 1689.26,971.282 1691.78,963.288 1694.16,955.25 1696.4,947.172 1698.5,939.056 1700.46,930.905 1702.27,922.721 1703.95,914.507 
  1705.47,906.264 1706.86,897.996 1708.1,889.706 1709.19,881.395 1710.14,873.066 1710.94,864.722 1711.6,856.365 1712.11,847.998 1712.48,839.623 1712.7,831.243 
  
  "/>
<polyline clip-path="url(#clip403)" style="stroke:#000000; stroke-linecap:butt; stroke-linejoin:round; stroke-width:2; stroke-opacity:0.1; fill:none" points="
  1808.83,822.86 1808.74,812.802 1808.48,802.746 1808.04,792.696 1807.43,782.655 1806.64,772.627 1805.67,762.614 1804.53,752.619 1803.22,742.646 1801.73,732.697 
  1800.07,722.776 1798.24,712.885 1796.24,703.028 1794.06,693.207 1791.71,683.425 1789.19,673.686 1786.5,663.993 1783.65,654.348 1780.62,644.754 1777.43,635.215 
  1774.07,625.732 1770.55,616.31 1766.86,606.951 1763.01,597.657 1759,588.432 1754.83,579.278 1750.5,570.199 1746.01,561.197 1741.37,552.274 1736.57,543.433 
  1731.61,534.678 1726.51,526.011 1721.25,517.434 1715.85,508.95 1710.29,500.562 1704.6,492.271 1698.76,484.082 1692.77,475.996 1686.65,468.015 1680.39,460.143 
  1673.99,452.381 1667.45,444.731 1660.79,437.197 1653.99,429.781 1647.07,422.484 1640.02,415.309 1632.84,408.259 1625.55,401.334 1618.13,394.538 1610.6,387.873 
  1602.95,381.34 1595.18,374.941 1587.31,368.679 1579.33,362.555 1571.24,356.572 1563.06,350.73 1554.77,345.033 1546.38,339.481 1537.89,334.076 1529.32,328.82 
  1520.65,323.714 1511.89,318.761 1503.05,313.961 1494.13,309.316 1485.13,304.828 1476.05,300.497 1466.9,296.325 1457.67,292.314 1448.38,288.465 1439.02,284.778 
  1429.59,281.255 1420.11,277.897 1410.57,274.705 1400.98,271.681 1391.33,268.824 1381.64,266.135 1371.9,263.617 1362.12,261.268 1352.3,259.091 1342.44,257.086 
  1332.55,255.252 1322.63,253.592 1312.68,252.105 1302.71,250.792 1292.71,249.654 1282.7,248.689 1272.67,247.9 1262.63,247.286 1252.58,246.847 1242.53,246.584 
  1232.47,246.496 1222.41,246.584 1212.35,246.847 1202.3,247.286 1192.26,247.9 1182.23,248.689 1172.22,249.654 1162.23,250.792 1152.25,252.105 1142.3,253.592 
  1132.38,255.252 1122.49,257.086 1112.63,259.091 1102.81,261.268 1093.03,263.617 1083.29,266.135 1073.6,268.824 1063.95,271.681 1054.36,274.705 1044.82,277.897 
  1035.34,281.255 1025.92,284.778 1016.56,288.465 1007.26,292.314 998.038,296.325 988.884,300.497 979.805,304.828 970.803,309.316 961.88,313.961 953.04,318.761 
  944.284,323.714 935.617,328.82 927.04,334.076 918.556,339.481 910.168,345.033 901.878,350.73 893.688,356.572 885.602,362.555 877.621,368.679 869.749,374.941 
  861.987,381.34 854.338,387.873 846.804,394.538 839.387,401.334 832.09,408.259 824.915,415.309 817.865,422.484 810.94,429.781 804.144,437.197 797.479,444.731 
  790.946,452.381 784.547,460.143 778.285,468.015 772.162,475.996 766.178,484.082 760.337,492.271 754.639,500.562 749.087,508.95 743.682,517.434 738.426,526.011 
  733.32,534.678 728.367,543.433 723.567,552.274 718.922,561.197 714.434,570.199 710.103,579.278 705.932,588.432 701.92,597.657 698.071,606.951 694.384,616.31 
  690.861,625.732 687.503,635.215 684.312,644.754 681.287,654.348 678.43,663.993 675.741,673.686 673.223,683.425 670.874,693.207 668.697,703.028 666.692,712.885 
  664.859,722.776 663.198,732.697 661.711,742.646 660.398,752.619 659.26,762.614 658.295,772.627 657.506,782.655 656.892,792.696 656.453,802.746 656.19,812.802 
  656.102,822.86 656.19,832.919 656.453,842.975 656.892,853.025 657.506,863.066 658.295,873.094 659.26,883.107 660.398,893.102 661.711,903.075 663.198,913.024 
  664.859,922.945 666.692,932.836 668.697,942.693 670.874,952.514 673.223,962.296 675.741,972.035 678.43,981.728 681.287,991.373 684.312,1000.97 687.503,1010.51 
  690.861,1019.99 694.384,1029.41 698.071,1038.77 701.92,1048.06 705.932,1057.29 710.103,1066.44 714.434,1075.52 718.922,1084.52 723.567,1093.45 728.367,1102.29 
  733.32,1111.04 738.426,1119.71 743.682,1128.29 749.087,1136.77 754.639,1145.16 760.337,1153.45 766.178,1161.64 772.162,1169.73 778.285,1177.71 784.547,1185.58 
  790.946,1193.34 797.479,1200.99 804.144,1208.52 810.94,1215.94 817.865,1223.24 824.915,1230.41 832.09,1237.46 839.387,1244.39 846.804,1251.18 854.338,1257.85 
  861.987,1264.38 869.749,1270.78 877.621,1277.04 885.602,1283.17 893.688,1289.15 901.878,1294.99 910.168,1300.69 918.556,1306.24 927.04,1311.65 935.617,1316.9 
  944.284,1322.01 953.04,1326.96 961.88,1331.76 970.803,1336.4 979.805,1340.89 988.884,1345.22 998.038,1349.4 1007.26,1353.41 1016.56,1357.26 1025.92,1360.94 
  1035.34,1364.47 1044.82,1367.82 1054.36,1371.02 1063.95,1374.04 1073.6,1376.9 1083.29,1379.59 1093.03,1382.1 1102.81,1384.45 1112.63,1386.63 1122.49,1388.64 
  1132.38,1390.47 1142.3,1392.13 1152.25,1393.62 1162.23,1394.93 1172.22,1396.07 1182.23,1397.03 1192.26,1397.82 1202.3,1398.43 1212.35,1398.87 1222.41,1399.14 
  1232.47,1399.22 1242.53,1399.14 1252.58,1398.87 1262.63,1398.43 1272.67,1397.82 1282.7,1397.03 1292.71,1396.07 1302.71,1394.93 1312.68,1393.62 1322.63,1392.13 
  1332.55,1390.47 1342.44,1388.64 1352.3,1386.63 1362.12,1384.45 1371.9,1382.1 1381.64,1379.59 1391.33,1376.9 1400.98,1374.04 1410.57,1371.02 1420.11,1367.82 
  1429.59,1364.47 1439.02,1360.94 1448.38,1357.26 1457.67,1353.41 1466.9,1349.4 1476.05,1345.22 1485.13,1340.89 1494.13,1336.4 1503.05,1331.76 1511.89,1326.96 
  1520.65,1322.01 1529.32,1316.9 1537.89,1311.65 1546.38,1306.24 1554.77,1300.69 1563.06,1294.99 1571.24,1289.15 1579.33,1283.17 1587.31,1277.04 1595.18,1270.78 
  1602.95,1264.38 1610.6,1257.85 1618.13,1251.18 1625.55,1244.39 1632.84,1237.46 1640.02,1230.41 1647.07,1223.24 1653.99,1215.94 1660.79,1208.52 1667.45,1200.99 
  1673.99,1193.34 1680.39,1185.58 1686.65,1177.71 1692.77,1169.73 1698.76,1161.64 1704.6,1153.45 1710.29,1145.16 1715.85,1136.77 1721.25,1128.29 1726.51,1119.71 
  1731.61,1111.04 1736.57,1102.29 1741.37,1093.45 1746.01,1084.52 1750.5,1075.52 1754.83,1066.44 1759,1057.29 1763.01,1048.06 1766.86,1038.77 1770.55,1029.41 
  1774.07,1019.99 1777.43,1010.51 1780.62,1000.97 1783.65,991.373 1786.5,981.728 1789.19,972.035 1791.71,962.296 1794.06,952.514 1796.24,942.693 1798.24,932.836 
  1800.07,922.945 1801.73,913.024 1803.22,903.075 1804.53,893.102 1805.67,883.107 1806.64,873.094 1807.43,863.066 1808.04,853.025 1808.48,842.975 1808.74,832.919 
  
  "/>
<polyline clip-path="url(#clip403)" style="stroke:#000000; stroke-linecap:butt; stroke-linejoin:round; stroke-width:2; stroke-opacity:0.1; fill:none" points="
  1896.05,822.86 1895.95,811.279 1895.65,799.702 1895.14,788.131 1894.44,776.571 1893.53,765.025 1892.42,753.497 1891.11,741.989 1889.6,730.507 1887.88,719.053 
  1885.97,707.63 1883.86,696.242 1881.55,684.893 1879.05,673.586 1876.34,662.324 1873.44,651.111 1870.35,639.951 1867.06,628.846 1863.58,617.801 1859.9,606.818 
  1856.03,595.9 1851.98,585.052 1847.73,574.276 1843.3,563.576 1838.68,552.955 1833.88,542.416 1828.89,531.963 1823.73,521.598 1818.38,511.325 1812.85,501.147 
  1807.15,491.067 1801.27,481.088 1795.22,471.213 1789,461.445 1782.61,451.787 1776.05,442.242 1769.32,432.814 1762.43,423.504 1755.38,414.315 1748.17,405.251 
  1740.8,396.315 1733.28,387.508 1725.61,378.834 1717.78,370.295 1709.81,361.894 1701.69,353.633 1693.43,345.516 1685.03,337.543 1676.49,329.719 1667.82,322.045 
  1659.01,314.523 1650.08,307.156 1641.01,299.946 1631.82,292.896 1622.51,286.007 1613.08,279.281 1603.54,272.722 1593.88,266.329 1584.11,260.106 1574.24,254.055 
  1564.26,248.177 1554.18,242.474 1544,236.948 1533.73,231.6 1523.36,226.432 1512.91,221.446 1502.37,216.643 1491.75,212.025 1481.05,207.593 1470.28,203.348 
  1459.43,199.292 1448.51,195.426 1437.53,191.751 1426.48,188.269 1415.38,184.979 1404.22,181.884 1393,178.984 1381.74,176.281 1370.43,173.774 1359.08,171.465 
  1347.7,169.354 1336.27,167.443 1324.82,165.731 1313.34,164.219 1301.83,162.908 1290.3,161.798 1278.76,160.889 1267.2,160.182 1255.63,159.677 1244.05,159.374 
  1232.47,159.273 1220.89,159.374 1209.31,159.677 1197.74,160.182 1186.18,160.889 1174.63,161.798 1163.1,162.908 1151.6,164.219 1140.11,165.731 1128.66,167.443 
  1117.24,169.354 1105.85,171.465 1094.5,173.774 1083.19,176.281 1071.93,178.984 1060.72,181.884 1049.56,184.979 1038.45,188.269 1027.41,191.751 1016.42,195.426 
  1005.51,199.292 994.658,203.348 983.882,207.593 973.182,212.025 962.561,216.643 952.022,221.446 941.569,226.432 931.204,231.6 920.931,236.948 910.753,242.474 
  900.673,248.177 890.694,254.055 880.819,260.106 871.051,266.329 861.393,272.722 851.848,279.281 842.42,286.007 833.11,292.896 823.921,299.946 814.857,307.156 
  805.921,314.523 797.114,322.045 788.44,329.719 779.901,337.543 771.5,345.516 763.239,353.633 755.122,361.894 747.149,370.295 739.325,378.834 731.651,387.508 
  724.129,396.315 716.762,405.251 709.553,414.315 702.502,423.504 695.613,432.814 688.888,442.242 682.328,451.787 675.935,461.445 669.712,471.213 663.661,481.088 
  657.783,491.067 652.08,501.147 646.554,511.325 641.206,521.598 636.038,531.963 631.052,542.416 626.249,552.955 621.631,563.576 617.199,574.276 612.954,585.052 
  608.898,595.9 605.032,606.818 601.357,617.801 597.875,628.846 594.585,639.951 591.49,651.111 588.591,662.324 585.887,673.586 583.38,684.893 581.071,696.242 
  578.961,707.63 577.049,719.053 575.337,730.507 573.825,741.989 572.514,753.497 571.404,765.025 570.496,776.571 569.789,788.131 569.283,799.702 568.98,811.279 
  568.879,822.86 568.98,834.442 569.283,846.019 569.789,857.59 570.496,869.15 571.404,880.696 572.514,892.224 573.825,903.731 575.337,915.214 577.049,926.668 
  578.961,938.091 581.071,949.479 583.38,960.828 585.887,972.135 588.591,983.397 591.49,994.61 594.585,1005.77 597.875,1016.87 601.357,1027.92 605.032,1038.9 
  608.898,1049.82 612.954,1060.67 617.199,1071.44 621.631,1082.14 626.249,1092.77 631.052,1103.3 636.038,1113.76 641.206,1124.12 646.554,1134.4 652.08,1144.57 
  657.783,1154.65 663.661,1164.63 669.712,1174.51 675.935,1184.28 682.328,1193.93 688.888,1203.48 695.613,1212.91 702.502,1222.22 709.553,1231.41 716.762,1240.47 
  724.129,1249.41 731.651,1258.21 739.325,1266.89 747.149,1275.43 755.122,1283.83 763.239,1292.09 771.5,1300.21 779.901,1308.18 788.44,1316 797.114,1323.68 
  805.921,1331.2 814.857,1338.56 823.921,1345.77 833.11,1352.82 842.42,1359.71 851.848,1366.44 861.393,1373 871.051,1379.39 880.819,1385.61 890.694,1391.67 
  900.673,1397.54 910.753,1403.25 920.931,1408.77 931.204,1414.12 941.569,1419.29 952.022,1424.27 962.561,1429.08 973.182,1433.7 983.882,1438.13 994.658,1442.37 
  1005.51,1446.43 1016.42,1450.29 1027.41,1453.97 1038.45,1457.45 1049.56,1460.74 1060.72,1463.84 1071.93,1466.74 1083.19,1469.44 1094.5,1471.95 1105.85,1474.26 
  1117.24,1476.37 1128.66,1478.28 1140.11,1479.99 1151.6,1481.5 1163.1,1482.81 1174.63,1483.92 1186.18,1484.83 1197.74,1485.54 1209.31,1486.04 1220.89,1486.35 
  1232.47,1486.45 1244.05,1486.35 1255.63,1486.04 1267.2,1485.54 1278.76,1484.83 1290.3,1483.92 1301.83,1482.81 1313.34,1481.5 1324.82,1479.99 1336.27,1478.28 
  1347.7,1476.37 1359.08,1474.26 1370.43,1471.95 1381.74,1469.44 1393,1466.74 1404.22,1463.84 1415.38,1460.74 1426.48,1457.45 1437.53,1453.97 1448.51,1450.29 
  1459.43,1446.43 1470.28,1442.37 1481.05,1438.13 1491.75,1433.7 1502.37,1429.08 1512.91,1424.27 1523.36,1419.29 1533.73,1414.12 1544,1408.77 1554.18,1403.25 
  1564.26,1397.54 1574.24,1391.67 1584.11,1385.61 1593.88,1379.39 1603.54,1373 1613.08,1366.44 1622.51,1359.71 1631.82,1352.82 1641.01,1345.77 1650.08,1338.56 
  1659.01,1331.2 1667.82,1323.68 1676.49,1316 1685.03,1308.18 1693.43,1300.21 1701.69,1292.09 1709.81,1283.83 1717.78,1275.43 1725.61,1266.89 1733.28,1258.21 
  1740.8,1249.41 1748.17,1240.47 1755.38,1231.41 1762.43,1222.22 1769.32,1212.91 1776.05,1203.48 1782.61,1193.93 1789,1184.28 1795.22,1174.51 1801.27,1164.63 
  1807.15,1154.65 1812.85,1144.57 1818.38,1134.4 1823.73,1124.12 1828.89,1113.76 1833.88,1103.3 1838.68,1092.77 1843.3,1082.14 1847.73,1071.44 1851.98,1060.67 
  1856.03,1049.82 1859.9,1038.9 1863.58,1027.92 1867.06,1016.87 1870.35,1005.77 1873.44,994.61 1876.34,983.397 1879.05,972.135 1881.55,960.828 1883.86,949.479 
  1885.97,938.091 1887.88,926.668 1889.6,915.214 1891.11,903.731 1892.42,892.224 1893.53,880.696 1894.44,869.15 1895.14,857.59 1895.65,846.019 1895.95,834.442 
  
  "/>
<polyline clip-path="url(#clip403)" style="stroke:#ededed; stroke-linecap:butt; stroke-linejoin:round; stroke-width:2; stroke-opacity:1; fill:none" points="
  1896.05,822.86 1895.95,811.279 1895.65,799.702 1895.14,788.131 1894.44,776.571 1893.53,765.025 1892.42,753.497 1891.11,741.989 1889.6,730.507 1887.88,719.053 
  1885.97,707.63 1883.86,696.242 1881.55,684.893 1879.05,673.586 1876.34,662.324 1873.44,651.111 1870.35,639.951 1867.06,628.846 1863.58,617.801 1859.9,606.818 
  1856.03,595.9 1851.98,585.052 1847.73,574.276 1843.3,563.576 1838.68,552.955 1833.88,542.416 1828.89,531.963 1823.73,521.598 1818.38,511.325 1812.85,501.147 
  1807.15,491.067 1801.27,481.088 1795.22,471.213 1789,461.445 1782.61,451.787 1776.05,442.242 1769.32,432.814 1762.43,423.504 1755.38,414.315 1748.17,405.251 
  1740.8,396.315 1733.28,387.508 1725.61,378.834 1717.78,370.295 1709.81,361.894 1701.69,353.633 1693.43,345.516 1685.03,337.543 1676.49,329.719 1667.82,322.045 
  1659.01,314.523 1650.08,307.156 1641.01,299.946 1631.82,292.896 1622.51,286.007 1613.08,279.281 1603.54,272.722 1593.88,266.329 1584.11,260.106 1574.24,254.055 
  1564.26,248.177 1554.18,242.474 1544,236.948 1533.73,231.6 1523.36,226.432 1512.91,221.446 1502.37,216.643 1491.75,212.025 1481.05,207.593 1470.28,203.348 
  1459.43,199.292 1448.51,195.426 1437.53,191.751 1426.48,188.269 1415.38,184.979 1404.22,181.884 1393,178.984 1381.74,176.281 1370.43,173.774 1359.08,171.465 
  1347.7,169.354 1336.27,167.443 1324.82,165.731 1313.34,164.219 1301.83,162.908 1290.3,161.798 1278.76,160.889 1267.2,160.182 1255.63,159.677 1244.05,159.374 
  1232.47,159.273 1220.89,159.374 1209.31,159.677 1197.74,160.182 1186.18,160.889 1174.63,161.798 1163.1,162.908 1151.6,164.219 1140.11,165.731 1128.66,167.443 
  1117.24,169.354 1105.85,171.465 1094.5,173.774 1083.19,176.281 1071.93,178.984 1060.72,181.884 1049.56,184.979 1038.45,188.269 1027.41,191.751 1016.42,195.426 
  1005.51,199.292 994.658,203.348 983.882,207.593 973.182,212.025 962.561,216.643 952.022,221.446 941.569,226.432 931.204,231.6 920.931,236.948 910.753,242.474 
  900.673,248.177 890.694,254.055 880.819,260.106 871.051,266.329 861.393,272.722 851.848,279.281 842.42,286.007 833.11,292.896 823.921,299.946 814.857,307.156 
  805.921,314.523 797.114,322.045 788.44,329.719 779.901,337.543 771.5,345.516 763.239,353.633 755.122,361.894 747.149,370.295 739.325,378.834 731.651,387.508 
  724.129,396.315 716.762,405.251 709.553,414.315 702.502,423.504 695.613,432.814 688.888,442.242 682.328,451.787 675.935,461.445 669.712,471.213 663.661,481.088 
  657.783,491.067 652.08,501.147 646.554,511.325 641.206,521.598 636.038,531.963 631.052,542.416 626.249,552.955 621.631,563.576 617.199,574.276 612.954,585.052 
  608.898,595.9 605.032,606.818 601.357,617.801 597.875,628.846 594.585,639.951 591.49,651.111 588.591,662.324 585.887,673.586 583.38,684.893 581.071,696.242 
  578.961,707.63 577.049,719.053 575.337,730.507 573.825,741.989 572.514,753.497 571.404,765.025 570.496,776.571 569.789,788.131 569.283,799.702 568.98,811.279 
  568.879,822.86 568.98,834.442 569.283,846.019 569.789,857.59 570.496,869.15 571.404,880.696 572.514,892.224 573.825,903.731 575.337,915.214 577.049,926.668 
  578.961,938.091 581.071,949.479 583.38,960.828 585.887,972.135 588.591,983.397 591.49,994.61 594.585,1005.77 597.875,1016.87 601.357,1027.92 605.032,1038.9 
  608.898,1049.82 612.954,1060.67 617.199,1071.44 621.631,1082.14 626.249,1092.77 631.052,1103.3 636.038,1113.76 641.206,1124.12 646.554,1134.4 652.08,1144.57 
  657.783,1154.65 663.661,1164.63 669.712,1174.51 675.935,1184.28 682.328,1193.93 688.888,1203.48 695.613,1212.91 702.502,1222.22 709.553,1231.41 716.762,1240.47 
  724.129,1249.41 731.651,1258.21 739.325,1266.89 747.149,1275.43 755.122,1283.83 763.239,1292.09 771.5,1300.21 779.901,1308.18 788.44,1316 797.114,1323.68 
  805.921,1331.2 814.857,1338.56 823.921,1345.77 833.11,1352.82 842.42,1359.71 851.848,1366.44 861.393,1373 871.051,1379.39 880.819,1385.61 890.694,1391.67 
  900.673,1397.54 910.753,1403.25 920.931,1408.77 931.204,1414.12 941.569,1419.29 952.022,1424.27 962.561,1429.08 973.182,1433.7 983.882,1438.13 994.658,1442.37 
  1005.51,1446.43 1016.42,1450.29 1027.41,1453.97 1038.45,1457.45 1049.56,1460.74 1060.72,1463.84 1071.93,1466.74 1083.19,1469.44 1094.5,1471.95 1105.85,1474.26 
  1117.24,1476.37 1128.66,1478.28 1140.11,1479.99 1151.6,1481.5 1163.1,1482.81 1174.63,1483.92 1186.18,1484.83 1197.74,1485.54 1209.31,1486.04 1220.89,1486.35 
  1232.47,1486.45 1244.05,1486.35 1255.63,1486.04 1267.2,1485.54 1278.76,1484.83 1290.3,1483.92 1301.83,1482.81 1313.34,1481.5 1324.82,1479.99 1336.27,1478.28 
  1347.7,1476.37 1359.08,1474.26 1370.43,1471.95 1381.74,1469.44 1393,1466.74 1404.22,1463.84 1415.38,1460.74 1426.48,1457.45 1437.53,1453.97 1448.51,1450.29 
  1459.43,1446.43 1470.28,1442.37 1481.05,1438.13 1491.75,1433.7 1502.37,1429.08 1512.91,1424.27 1523.36,1419.29 1533.73,1414.12 1544,1408.77 1554.18,1403.25 
  1564.26,1397.54 1574.24,1391.67 1584.11,1385.61 1593.88,1379.39 1603.54,1373 1613.08,1366.44 1622.51,1359.71 1631.82,1352.82 1641.01,1345.77 1650.08,1338.56 
  1659.01,1331.2 1667.82,1323.68 1676.49,1316 1685.03,1308.18 1693.43,1300.21 1701.69,1292.09 1709.81,1283.83 1717.78,1275.43 1725.61,1266.89 1733.28,1258.21 
  1740.8,1249.41 1748.17,1240.47 1755.38,1231.41 1762.43,1222.22 1769.32,1212.91 1776.05,1203.48 1782.61,1193.93 1789,1184.28 1795.22,1174.51 1801.27,1164.63 
  1807.15,1154.65 1812.85,1144.57 1818.38,1134.4 1823.73,1124.12 1828.89,1113.76 1833.88,1103.3 1838.68,1092.77 1843.3,1082.14 1847.73,1071.44 1851.98,1060.67 
  1856.03,1049.82 1859.9,1038.9 1863.58,1027.92 1867.06,1016.87 1870.35,1005.77 1873.44,994.61 1876.34,983.397 1879.05,972.135 1881.55,960.828 1883.86,949.479 
  1885.97,938.091 1887.88,926.668 1889.6,915.214 1891.11,903.731 1892.42,892.224 1893.53,880.696 1894.44,869.15 1895.14,857.59 1895.65,846.019 1895.95,834.442 
  
  "/>
<path clip-path="url(#clip400)" d="M1952.75 815.107 Q1949.13 815.107 1947.31 818.672 Q1945.5 822.213 1945.5 829.343 Q1945.5 836.449 1947.31 840.014 Q1949.13 843.556 1952.75 843.556 Q1956.38 843.556 1958.19 840.014 Q1960.01 836.449 1960.01 829.343 Q1960.01 822.213 1958.19 818.672 Q1956.38 815.107 1952.75 815.107 M1952.75 811.403 Q1958.56 811.403 1961.61 816.01 Q1964.69 820.593 1964.69 829.343 Q1964.69 838.07 1961.61 842.676 Q1958.56 847.259 1952.75 847.259 Q1946.94 847.259 1943.86 842.676 Q1940.8 838.07 1940.8 829.343 Q1940.8 820.593 1943.86 816.01 Q1946.94 811.403 1952.75 811.403 Z" fill="#000000" fill-rule="evenodd" fill-opacity="1" /><path clip-path="url(#clip400)" d="M1974.36 800.539 Q1971.57 800.539 1969.96 802.721 Q1968.34 804.884 1968.34 808.664 Q1968.34 812.444 1969.94 814.626 Q1971.55 816.789 1974.36 816.789 Q1977.12 816.789 1978.74 814.607 Q1980.36 812.426 1980.36 808.664 Q1980.36 804.921 1978.74 802.74 Q1977.12 800.539 1974.36 800.539 M1974.36 797.605 Q1978.87 797.605 1981.45 800.539 Q1984.02 803.473 1984.02 808.664 Q1984.02 813.836 1981.45 816.789 Q1978.87 819.723 1974.36 819.723 Q1969.82 819.723 1967.25 816.789 Q1964.69 813.836 1964.69 808.664 Q1964.69 803.473 1967.25 800.539 Q1969.82 797.605 1974.36 797.605 Z" fill="#000000" fill-rule="evenodd" fill-opacity="1" /><path clip-path="url(#clip400)" d="M1713.21 1344.1 Q1716.57 1344.82 1718.44 1347.09 Q1720.34 1349.36 1720.34 1352.69 Q1720.34 1357.81 1716.82 1360.61 Q1713.3 1363.41 1706.82 1363.41 Q1704.64 1363.41 1702.33 1362.97 Q1700.04 1362.55 1697.58 1361.7 L1697.58 1357.18 Q1699.53 1358.32 1701.84 1358.9 Q1704.16 1359.47 1706.68 1359.47 Q1711.08 1359.47 1713.37 1357.74 Q1715.69 1356 1715.69 1352.69 Q1715.69 1349.64 1713.53 1347.92 Q1711.4 1346.19 1707.58 1346.19 L1703.56 1346.19 L1703.56 1342.34 L1707.77 1342.34 Q1711.22 1342.34 1713.05 1340.98 Q1714.88 1339.59 1714.88 1337 Q1714.88 1334.34 1712.98 1332.92 Q1711.1 1331.49 1707.58 1331.49 Q1705.66 1331.49 1703.46 1331.9 Q1701.26 1332.32 1698.63 1333.2 L1698.63 1329.03 Q1701.29 1328.29 1703.6 1327.92 Q1705.94 1327.55 1708 1327.55 Q1713.32 1327.55 1716.43 1329.98 Q1719.53 1332.39 1719.53 1336.51 Q1719.53 1339.38 1717.88 1341.37 Q1716.24 1343.34 1713.21 1344.1 Z" fill="#000000" fill-rule="evenodd" fill-opacity="1" /><path clip-path="url(#clip400)" d="M1730.01 1358.8 L1737.65 1358.8 L1737.65 1332.44 L1729.34 1334.1 L1729.34 1329.84 L1737.61 1328.18 L1742.28 1328.18 L1742.28 1358.8 L1749.92 1358.8 L1749.92 1362.74 L1730.01 1362.74 L1730.01 1358.8 Z" fill="#000000" fill-rule="evenodd" fill-opacity="1" /><path clip-path="url(#clip400)" d="M1759.41 1328.18 L1777.77 1328.18 L1777.77 1332.11 L1763.69 1332.11 L1763.69 1340.59 Q1764.71 1340.24 1765.73 1340.08 Q1766.75 1339.89 1767.77 1339.89 Q1773.56 1339.89 1776.94 1343.06 Q1780.31 1346.23 1780.31 1351.65 Q1780.31 1357.23 1776.84 1360.33 Q1773.37 1363.41 1767.05 1363.41 Q1764.88 1363.41 1762.61 1363.04 Q1760.36 1362.67 1757.95 1361.93 L1757.95 1357.23 Q1760.04 1358.36 1762.26 1358.92 Q1764.48 1359.47 1766.96 1359.47 Q1770.96 1359.47 1773.3 1357.37 Q1775.64 1355.26 1775.64 1351.65 Q1775.64 1348.04 1773.3 1345.93 Q1770.96 1343.83 1766.96 1343.83 Q1765.08 1343.83 1763.21 1344.24 Q1761.36 1344.66 1759.41 1345.54 L1759.41 1328.18 Z" fill="#000000" fill-rule="evenodd" fill-opacity="1" /><path clip-path="url(#clip400)" d="M1789.98 1316.69 Q1787.2 1316.69 1785.58 1318.87 Q1783.96 1321.03 1783.96 1324.81 Q1783.96 1328.59 1785.56 1330.78 Q1787.18 1332.94 1789.98 1332.94 Q1792.75 1332.94 1794.36 1330.76 Q1795.98 1328.58 1795.98 1324.81 Q1795.98 1321.07 1794.36 1318.89 Q1792.75 1316.69 1789.98 1316.69 M1789.98 1313.76 Q1794.5 1313.76 1797.07 1316.69 Q1799.65 1319.62 1799.65 1324.81 Q1799.65 1329.99 1797.07 1332.94 Q1794.5 1335.87 1789.98 1335.87 Q1785.45 1335.87 1782.87 1332.94 Q1780.31 1329.99 1780.31 1324.81 Q1780.31 1319.62 1782.87 1316.69 Q1785.45 1313.76 1789.98 1313.76 Z" fill="#000000" fill-rule="evenodd" fill-opacity="1" /><path clip-path="url(#clip400)" d="M1186.49 1572.6 L1202.81 1572.6 L1202.81 1576.53 L1180.87 1576.53 L1180.87 1572.6 Q1183.53 1569.84 1188.11 1565.21 Q1192.72 1560.56 1193.9 1559.22 Q1196.14 1556.7 1197.02 1554.96 Q1197.93 1553.2 1197.93 1551.51 Q1197.93 1548.76 1195.98 1547.02 Q1194.06 1545.28 1190.96 1545.28 Q1188.76 1545.28 1186.31 1546.05 Q1183.88 1546.81 1181.1 1548.36 L1181.1 1543.64 Q1183.92 1542.51 1186.38 1541.93 Q1188.83 1541.35 1190.87 1541.35 Q1196.24 1541.35 1199.43 1544.03 Q1202.63 1546.72 1202.63 1551.21 Q1202.63 1553.34 1201.82 1555.26 Q1201.03 1557.16 1198.92 1559.75 Q1198.34 1560.42 1195.24 1563.64 Q1192.14 1566.84 1186.49 1572.6 Z" fill="#000000" fill-rule="evenodd" fill-opacity="1" /><path clip-path="url(#clip400)" d="M1211.45 1541.97 L1233.67 1541.97 L1233.67 1543.96 L1221.12 1576.53 L1216.24 1576.53 L1228.04 1545.91 L1211.45 1545.91 L1211.45 1541.97 Z" fill="#000000" fill-rule="evenodd" fill-opacity="1" /><path clip-path="url(#clip400)" d="M1252.79 1545.05 Q1249.18 1545.05 1247.35 1548.62 Q1245.54 1552.16 1245.54 1559.29 Q1245.54 1566.4 1247.35 1569.96 Q1249.18 1573.5 1252.79 1573.5 Q1256.42 1573.5 1258.23 1569.96 Q1260.06 1566.4 1260.06 1559.29 Q1260.06 1552.16 1258.23 1548.62 Q1256.42 1545.05 1252.79 1545.05 M1252.79 1541.35 Q1258.6 1541.35 1261.65 1545.96 Q1264.73 1550.54 1264.73 1559.29 Q1264.73 1568.02 1261.65 1572.62 Q1258.6 1577.21 1252.79 1577.21 Q1246.98 1577.21 1243.9 1572.62 Q1240.84 1568.02 1240.84 1559.29 Q1240.84 1550.54 1243.9 1545.96 Q1246.98 1541.35 1252.79 1541.35 Z" fill="#000000" fill-rule="evenodd" fill-opacity="1" /><path clip-path="url(#clip400)" d="M1274.4 1530.49 Q1271.62 1530.49 1270 1532.67 Q1268.38 1534.83 1268.38 1538.61 Q1268.38 1542.39 1269.98 1544.57 Q1271.6 1546.74 1274.4 1546.74 Q1277.16 1546.74 1278.78 1544.55 Q1280.4 1542.37 1280.4 1538.61 Q1280.4 1534.87 1278.78 1532.69 Q1277.16 1530.49 1274.4 1530.49 M1274.4 1527.55 Q1278.91 1527.55 1281.49 1530.49 Q1284.07 1533.42 1284.07 1538.61 Q1284.07 1543.78 1281.49 1546.74 Q1278.91 1549.67 1274.4 1549.67 Q1269.87 1549.67 1267.29 1546.74 Q1264.73 1543.78 1264.73 1538.61 Q1264.73 1533.42 1267.29 1530.49 Q1269.87 1527.55 1274.4 1527.55 Z" fill="#000000" fill-rule="evenodd" fill-opacity="1" /><path clip-path="url(#clip400)" d="M670.839 1358.8 L687.159 1358.8 L687.159 1362.74 L665.215 1362.74 L665.215 1358.8 Q667.877 1356.05 672.46 1351.42 Q677.066 1346.77 678.247 1345.42 Q680.492 1342.9 681.372 1341.16 Q682.275 1339.4 682.275 1337.71 Q682.275 1334.96 680.33 1333.22 Q678.409 1331.49 675.307 1331.49 Q673.108 1331.49 670.654 1332.25 Q668.224 1333.02 665.446 1334.57 L665.446 1329.84 Q668.27 1328.71 670.724 1328.13 Q673.177 1327.55 675.214 1327.55 Q680.585 1327.55 683.779 1330.24 Q686.974 1332.92 686.974 1337.41 Q686.974 1339.54 686.163 1341.46 Q685.376 1343.36 683.27 1345.96 Q682.691 1346.63 679.589 1349.84 Q676.488 1353.04 670.839 1358.8 Z" fill="#000000" fill-rule="evenodd" fill-opacity="1" /><path clip-path="url(#clip400)" d="M701.001 1358.8 L717.321 1358.8 L717.321 1362.74 L695.376 1362.74 L695.376 1358.8 Q698.038 1356.05 702.622 1351.42 Q707.228 1346.77 708.409 1345.42 Q710.654 1342.9 711.534 1341.16 Q712.436 1339.4 712.436 1337.71 Q712.436 1334.96 710.492 1333.22 Q708.571 1331.49 705.469 1331.49 Q703.27 1331.49 700.816 1332.25 Q698.386 1333.02 695.608 1334.57 L695.608 1329.84 Q698.432 1328.71 700.886 1328.13 Q703.339 1327.55 705.376 1327.55 Q710.747 1327.55 713.941 1330.24 Q717.136 1332.92 717.136 1337.41 Q717.136 1339.54 716.325 1341.46 Q715.538 1343.36 713.432 1345.96 Q712.853 1346.63 709.751 1349.84 Q706.649 1353.04 701.001 1358.8 Z" fill="#000000" fill-rule="evenodd" fill-opacity="1" /><path clip-path="url(#clip400)" d="M727.182 1328.18 L745.538 1328.18 L745.538 1332.11 L731.464 1332.11 L731.464 1340.59 Q732.483 1340.24 733.501 1340.08 Q734.52 1339.89 735.538 1339.89 Q741.325 1339.89 744.705 1343.06 Q748.084 1346.23 748.084 1351.65 Q748.084 1357.23 744.612 1360.33 Q741.14 1363.41 734.821 1363.41 Q732.645 1363.41 730.376 1363.04 Q728.131 1362.67 725.723 1361.93 L725.723 1357.23 Q727.807 1358.36 730.029 1358.92 Q732.251 1359.47 734.728 1359.47 Q738.733 1359.47 741.071 1357.37 Q743.409 1355.26 743.409 1351.65 Q743.409 1348.04 741.071 1345.93 Q738.733 1343.83 734.728 1343.83 Q732.853 1343.83 730.978 1344.24 Q729.126 1344.66 727.182 1345.54 L727.182 1328.18 Z" fill="#000000" fill-rule="evenodd" fill-opacity="1" /><path clip-path="url(#clip400)" d="M757.752 1316.69 Q754.968 1316.69 753.351 1318.87 Q751.733 1321.03 751.733 1324.81 Q751.733 1328.59 753.332 1330.78 Q754.949 1332.94 757.752 1332.94 Q760.516 1332.94 762.134 1330.76 Q763.751 1328.58 763.751 1324.81 Q763.751 1321.07 762.134 1318.89 Q760.516 1316.69 757.752 1316.69 M757.752 1313.76 Q762.265 1313.76 764.842 1316.69 Q767.419 1319.62 767.419 1324.81 Q767.419 1329.99 764.842 1332.94 Q762.265 1335.87 757.752 1335.87 Q753.219 1335.87 750.642 1332.94 Q748.084 1329.99 748.084 1324.81 Q748.084 1319.62 750.642 1316.69 Q753.219 1313.76 757.752 1313.76 Z" fill="#000000" fill-rule="evenodd" fill-opacity="1" /><path clip-path="url(#clip400)" d="M452.46 842.653 L460.099 842.653 L460.099 816.287 L451.789 817.954 L451.789 813.695 L460.052 812.028 L464.728 812.028 L464.728 842.653 L472.367 842.653 L472.367 846.588 L452.46 846.588 L452.46 842.653 Z" fill="#000000" fill-rule="evenodd" fill-opacity="1" /><path clip-path="url(#clip400)" d="M491.812 830.176 Q488.478 830.176 486.557 831.959 Q484.659 833.741 484.659 836.866 Q484.659 839.991 486.557 841.773 Q488.478 843.556 491.812 843.556 Q495.145 843.556 497.066 841.773 Q498.987 839.968 498.987 836.866 Q498.987 833.741 497.066 831.959 Q495.168 830.176 491.812 830.176 M487.136 828.185 Q484.126 827.445 482.437 825.384 Q480.77 823.324 480.77 820.361 Q480.77 816.218 483.71 813.81 Q486.673 811.403 491.812 811.403 Q496.974 811.403 499.913 813.81 Q502.853 816.218 502.853 820.361 Q502.853 823.324 501.163 825.384 Q499.497 827.445 496.511 828.185 Q499.89 828.972 501.765 831.264 Q503.663 833.556 503.663 836.866 Q503.663 841.889 500.585 844.574 Q497.529 847.259 491.812 847.259 Q486.094 847.259 483.015 844.574 Q479.96 841.889 479.96 836.866 Q479.96 833.556 481.858 831.264 Q483.756 828.972 487.136 828.185 M485.423 820.801 Q485.423 823.486 487.089 824.991 Q488.779 826.496 491.812 826.496 Q494.821 826.496 496.511 824.991 Q498.224 823.486 498.224 820.801 Q498.224 818.116 496.511 816.611 Q494.821 815.107 491.812 815.107 Q488.779 815.107 487.089 816.611 Q485.423 818.116 485.423 820.801 Z" fill="#000000" fill-rule="evenodd" fill-opacity="1" /><path clip-path="url(#clip400)" d="M521.973 815.107 Q518.362 815.107 516.534 818.672 Q514.728 822.213 514.728 829.343 Q514.728 836.449 516.534 840.014 Q518.362 843.556 521.973 843.556 Q525.608 843.556 527.413 840.014 Q529.242 836.449 529.242 829.343 Q529.242 822.213 527.413 818.672 Q525.608 815.107 521.973 815.107 M521.973 811.403 Q527.784 811.403 530.839 816.01 Q533.918 820.593 533.918 829.343 Q533.918 838.07 530.839 842.676 Q527.784 847.259 521.973 847.259 Q516.163 847.259 513.085 842.676 Q510.029 838.07 510.029 829.343 Q510.029 820.593 513.085 816.01 Q516.163 811.403 521.973 811.403 Z" fill="#000000" fill-rule="evenodd" fill-opacity="1" /><path clip-path="url(#clip400)" d="M543.585 800.539 Q540.801 800.539 539.184 802.721 Q537.566 804.884 537.566 808.664 Q537.566 812.444 539.165 814.626 Q540.783 816.789 543.585 816.789 Q546.35 816.789 547.967 814.607 Q549.585 812.426 549.585 808.664 Q549.585 804.921 547.967 802.74 Q546.35 800.539 543.585 800.539 M543.585 797.605 Q548.099 797.605 550.676 800.539 Q553.252 803.473 553.252 808.664 Q553.252 813.836 550.676 816.789 Q548.099 819.723 543.585 819.723 Q539.052 819.723 536.476 816.789 Q533.918 813.836 533.918 808.664 Q533.918 803.473 536.476 800.539 Q539.052 797.605 543.585 797.605 Z" fill="#000000" fill-rule="evenodd" fill-opacity="1" /><path clip-path="url(#clip400)" d="M666.754 326.503 L674.393 326.503 L674.393 300.137 L666.083 301.804 L666.083 297.545 L674.346 295.878 L679.022 295.878 L679.022 326.503 L686.661 326.503 L686.661 330.438 L666.754 330.438 L666.754 326.503 Z" fill="#000000" fill-rule="evenodd" fill-opacity="1" /><path clip-path="url(#clip400)" d="M710.272 311.804 Q713.629 312.522 715.504 314.79 Q717.402 317.059 717.402 320.392 Q717.402 325.508 713.883 328.309 Q710.365 331.109 703.883 331.109 Q701.707 331.109 699.393 330.67 Q697.101 330.253 694.647 329.397 L694.647 324.883 Q696.592 326.017 698.906 326.596 Q701.221 327.174 703.744 327.174 Q708.143 327.174 710.434 325.438 Q712.749 323.702 712.749 320.392 Q712.749 317.336 710.596 315.623 Q708.467 313.887 704.647 313.887 L700.619 313.887 L700.619 310.045 L704.832 310.045 Q708.281 310.045 710.11 308.679 Q711.939 307.29 711.939 304.698 Q711.939 302.036 710.041 300.624 Q708.166 299.188 704.647 299.188 Q702.726 299.188 700.527 299.605 Q698.328 300.022 695.689 300.901 L695.689 296.735 Q698.351 295.994 700.666 295.624 Q703.004 295.253 705.064 295.253 Q710.388 295.253 713.49 297.684 Q716.592 300.091 716.592 304.211 Q716.592 307.082 714.948 309.073 Q713.305 311.04 710.272 311.804 Z" fill="#000000" fill-rule="evenodd" fill-opacity="1" /><path clip-path="url(#clip400)" d="M726.314 295.878 L744.67 295.878 L744.67 299.813 L730.596 299.813 L730.596 308.286 Q731.615 307.938 732.633 307.776 Q733.652 307.591 734.67 307.591 Q740.457 307.591 743.837 310.762 Q747.216 313.934 747.216 319.35 Q747.216 324.929 743.744 328.031 Q740.272 331.109 733.953 331.109 Q731.777 331.109 729.508 330.739 Q727.263 330.369 724.855 329.628 L724.855 324.929 Q726.939 326.063 729.161 326.619 Q731.383 327.174 733.86 327.174 Q737.865 327.174 740.203 325.068 Q742.54 322.961 742.54 319.35 Q742.54 315.739 740.203 313.633 Q737.865 311.526 733.86 311.526 Q731.985 311.526 730.11 311.943 Q728.258 312.36 726.314 313.239 L726.314 295.878 Z" fill="#000000" fill-rule="evenodd" fill-opacity="1" /><path clip-path="url(#clip400)" d="M756.884 284.389 Q754.1 284.389 752.483 286.571 Q750.865 288.734 750.865 292.514 Q750.865 296.295 752.464 298.476 Q754.081 300.639 756.884 300.639 Q759.648 300.639 761.266 298.457 Q762.883 296.276 762.883 292.514 Q762.883 288.771 761.266 286.59 Q759.648 284.389 756.884 284.389 M756.884 281.455 Q761.397 281.455 763.974 284.389 Q766.551 287.323 766.551 292.514 Q766.551 297.686 763.974 300.639 Q761.397 303.573 756.884 303.573 Q752.351 303.573 749.774 300.639 Q747.216 297.686 747.216 292.514 Q747.216 287.323 749.774 284.389 Q752.351 281.455 756.884 281.455 Z" fill="#000000" fill-rule="evenodd" fill-opacity="1" /><path clip-path="url(#clip400)" d="M1197.93 115.924 L1197.93 111.665 Q1199.69 112.498 1201.49 112.938 Q1203.3 113.378 1205.03 113.378 Q1209.66 113.378 1212.09 110.276 Q1214.55 107.151 1214.89 100.809 Q1213.55 102.799 1211.49 103.864 Q1209.43 104.929 1206.93 104.929 Q1201.75 104.929 1198.71 101.804 Q1195.7 98.6559 1195.7 93.2161 Q1195.7 87.892 1198.85 84.6745 Q1202 81.4569 1207.23 81.4569 Q1213.23 81.4569 1216.38 86.0633 Q1219.55 90.6467 1219.55 99.3966 Q1219.55 107.568 1215.66 112.452 Q1211.79 117.313 1205.24 117.313 Q1203.48 117.313 1201.68 116.966 Q1199.87 116.619 1197.93 115.924 M1207.23 101.272 Q1210.38 101.272 1212.21 99.1188 Q1214.06 96.9661 1214.06 93.2161 Q1214.06 89.4893 1212.21 87.3365 Q1210.38 85.1606 1207.23 85.1606 Q1204.08 85.1606 1202.23 87.3365 Q1200.4 89.4893 1200.4 93.2161 Q1200.4 96.9661 1202.23 99.1188 Q1204.08 101.272 1207.23 101.272 Z" fill="#000000" fill-rule="evenodd" fill-opacity="1" /><path clip-path="url(#clip400)" d="M1237.95 85.1606 Q1234.34 85.1606 1232.51 88.7254 Q1230.7 92.267 1230.7 99.3966 Q1230.7 106.503 1232.51 110.068 Q1234.34 113.609 1237.95 113.609 Q1241.58 113.609 1243.39 110.068 Q1245.22 106.503 1245.22 99.3966 Q1245.22 92.267 1243.39 88.7254 Q1241.58 85.1606 1237.95 85.1606 M1237.95 81.4569 Q1243.76 81.4569 1246.82 86.0633 Q1249.89 90.6467 1249.89 99.3966 Q1249.89 108.123 1246.82 112.73 Q1243.76 117.313 1237.95 117.313 Q1232.14 117.313 1229.06 112.73 Q1226.01 108.123 1226.01 99.3966 Q1226.01 90.6467 1229.06 86.0633 Q1232.14 81.4569 1237.95 81.4569 Z" fill="#000000" fill-rule="evenodd" fill-opacity="1" /><path clip-path="url(#clip400)" d="M1259.56 70.593 Q1256.78 70.593 1255.16 72.7747 Q1253.54 74.9376 1253.54 78.7179 Q1253.54 82.4983 1255.14 84.68 Q1256.76 86.8429 1259.56 86.8429 Q1262.33 86.8429 1263.94 84.6612 Q1265.56 82.4795 1265.56 78.7179 Q1265.56 74.9752 1263.94 72.7935 Q1262.33 70.593 1259.56 70.593 M1259.56 67.659 Q1264.08 67.659 1266.65 70.593 Q1269.23 73.527 1269.23 78.7179 Q1269.23 83.8901 1266.65 86.8429 Q1264.08 89.7769 1259.56 89.7769 Q1255.03 89.7769 1252.45 86.8429 Q1249.89 83.8901 1249.89 78.7179 Q1249.89 73.527 1252.45 70.593 Q1255.03 67.659 1259.56 67.659 Z" fill="#000000" fill-rule="evenodd" fill-opacity="1" /><path clip-path="url(#clip400)" d="M1727.62 299.952 L1715.81 318.401 L1727.62 318.401 L1727.62 299.952 M1726.39 295.878 L1732.27 295.878 L1732.27 318.401 L1737.2 318.401 L1737.2 322.29 L1732.27 322.29 L1732.27 330.438 L1727.62 330.438 L1727.62 322.29 L1712.02 322.29 L1712.02 317.776 L1726.39 295.878 Z" fill="#000000" fill-rule="evenodd" fill-opacity="1" /><path clip-path="url(#clip400)" d="M1744.98 295.878 L1763.34 295.878 L1763.34 299.813 L1749.26 299.813 L1749.26 308.286 Q1750.28 307.938 1751.3 307.776 Q1752.32 307.591 1753.34 307.591 Q1759.12 307.591 1762.5 310.762 Q1765.88 313.934 1765.88 319.35 Q1765.88 324.929 1762.41 328.031 Q1758.94 331.109 1752.62 331.109 Q1750.44 331.109 1748.17 330.739 Q1745.93 330.369 1743.52 329.628 L1743.52 324.929 Q1745.6 326.063 1747.83 326.619 Q1750.05 327.174 1752.53 327.174 Q1756.53 327.174 1758.87 325.068 Q1761.21 322.961 1761.21 319.35 Q1761.21 315.739 1758.87 313.633 Q1756.53 311.526 1752.53 311.526 Q1750.65 311.526 1748.78 311.943 Q1746.92 312.36 1744.98 313.239 L1744.98 295.878 Z" fill="#000000" fill-rule="evenodd" fill-opacity="1" /><path clip-path="url(#clip400)" d="M1775.55 284.389 Q1772.77 284.389 1771.15 286.571 Q1769.53 288.734 1769.53 292.514 Q1769.53 296.295 1771.13 298.476 Q1772.75 300.639 1775.55 300.639 Q1778.31 300.639 1779.93 298.457 Q1781.55 296.276 1781.55 292.514 Q1781.55 288.771 1779.93 286.59 Q1778.31 284.389 1775.55 284.389 M1775.55 281.455 Q1780.06 281.455 1782.64 284.389 Q1785.22 287.323 1785.22 292.514 Q1785.22 297.686 1782.64 300.639 Q1780.06 303.573 1775.55 303.573 Q1771.02 303.573 1768.44 300.639 Q1765.88 297.686 1765.88 292.514 Q1765.88 287.323 1768.44 284.389 Q1771.02 281.455 1775.55 281.455 Z" fill="#000000" fill-rule="evenodd" fill-opacity="1" /><path clip-path="url(#clip400)" d="M1265.65 808.659 Q1262.03 808.659 1260.21 812.224 Q1258.4 815.766 1258.4 822.895 Q1258.4 830.002 1260.21 833.566 Q1262.03 837.108 1265.65 837.108 Q1269.28 837.108 1271.09 833.566 Q1272.91 830.002 1272.91 822.895 Q1272.91 815.766 1271.09 812.224 Q1269.28 808.659 1265.65 808.659 M1265.65 804.955 Q1271.46 804.955 1274.51 809.562 Q1277.59 814.145 1277.59 822.895 Q1277.59 831.622 1274.51 836.228 Q1271.46 840.812 1265.65 840.812 Q1259.84 840.812 1256.76 836.228 Q1253.7 831.622 1253.7 822.895 Q1253.7 814.145 1256.76 809.562 Q1259.84 804.955 1265.65 804.955 Z" fill="#000000" fill-rule="evenodd" fill-opacity="1" /><path clip-path="url(#clip400)" d="M1256.03 740.145 L1263.67 740.145 L1263.67 713.779 L1255.36 715.446 L1255.36 711.186 L1263.62 709.52 L1268.3 709.52 L1268.3 740.145 L1275.94 740.145 L1275.94 744.08 L1256.03 744.08 L1256.03 740.145 Z" fill="#000000" fill-rule="evenodd" fill-opacity="1" /><path clip-path="url(#clip400)" d="M1260.3 644.084 L1276.62 644.084 L1276.62 648.019 L1254.67 648.019 L1254.67 644.084 Q1257.34 641.329 1261.92 636.7 Q1266.53 632.047 1267.71 630.704 Q1269.95 628.181 1270.83 626.445 Q1271.73 624.686 1271.73 622.996 Q1271.73 620.241 1269.79 618.505 Q1267.87 616.769 1264.77 616.769 Q1262.57 616.769 1260.11 617.533 Q1257.68 618.297 1254.91 619.848 L1254.91 615.126 Q1257.73 613.991 1260.18 613.413 Q1262.64 612.834 1264.67 612.834 Q1270.04 612.834 1273.24 615.519 Q1276.43 618.204 1276.43 622.695 Q1276.43 624.825 1275.62 626.746 Q1274.84 628.644 1272.73 631.237 Q1272.15 631.908 1269.05 635.126 Q1265.95 638.32 1260.3 644.084 Z" fill="#000000" fill-rule="evenodd" fill-opacity="1" /><path clip-path="url(#clip400)" d="M1269.89 533.324 Q1273.25 534.042 1275.13 536.31 Q1277.02 538.579 1277.02 541.912 Q1277.02 547.028 1273.5 549.829 Q1269.99 552.63 1263.5 552.63 Q1261.33 552.63 1259.01 552.19 Q1256.72 551.773 1254.27 550.917 L1254.27 546.403 Q1256.21 547.537 1258.53 548.116 Q1260.84 548.694 1263.37 548.694 Q1267.76 548.694 1270.06 546.958 Q1272.37 545.222 1272.37 541.912 Q1272.37 538.857 1270.22 537.144 Q1268.09 535.407 1264.27 535.407 L1260.24 535.407 L1260.24 531.565 L1264.45 531.565 Q1267.9 531.565 1269.73 530.199 Q1271.56 528.81 1271.56 526.218 Q1271.56 523.556 1269.66 522.144 Q1267.79 520.708 1264.27 520.708 Q1262.35 520.708 1260.15 521.125 Q1257.95 521.542 1255.31 522.421 L1255.31 518.255 Q1257.97 517.514 1260.29 517.144 Q1262.63 516.773 1264.69 516.773 Q1270.01 516.773 1273.11 519.204 Q1276.21 521.611 1276.21 525.732 Q1276.21 528.602 1274.57 530.593 Q1272.93 532.56 1269.89 533.324 Z" fill="#000000" fill-rule="evenodd" fill-opacity="1" /><path clip-path="url(#clip400)" d="M1268.66 425.412 L1256.85 443.861 L1268.66 443.861 L1268.66 425.412 M1267.43 421.338 L1273.31 421.338 L1273.31 443.861 L1278.24 443.861 L1278.24 447.749 L1273.31 447.749 L1273.31 455.898 L1268.66 455.898 L1268.66 447.749 L1253.05 447.749 L1253.05 443.236 L1267.43 421.338 Z" fill="#000000" fill-rule="evenodd" fill-opacity="1" /><path clip-path="url(#clip400)" d="M1255.92 325.277 L1274.28 325.277 L1274.28 329.212 L1260.21 329.212 L1260.21 337.684 Q1261.22 337.337 1262.24 337.175 Q1263.26 336.99 1264.28 336.99 Q1270.07 336.99 1273.45 340.161 Q1276.83 343.332 1276.83 348.749 Q1276.83 354.328 1273.35 357.429 Q1269.88 360.508 1263.56 360.508 Q1261.39 360.508 1259.12 360.138 Q1256.87 359.767 1254.47 359.027 L1254.47 354.328 Q1256.55 355.462 1258.77 356.017 Q1260.99 356.573 1263.47 356.573 Q1267.47 356.573 1269.81 354.467 Q1272.15 352.36 1272.15 348.749 Q1272.15 345.138 1269.81 343.031 Q1267.47 340.925 1263.47 340.925 Q1261.6 340.925 1259.72 341.342 Q1257.87 341.758 1255.92 342.638 L1255.92 325.277 Z" fill="#000000" fill-rule="evenodd" fill-opacity="1" /><path clip-path="url(#clip400)" d="M1266.05 244.633 Q1262.9 244.633 1261.05 246.786 Q1259.22 248.938 1259.22 252.688 Q1259.22 256.415 1261.05 258.591 Q1262.9 260.744 1266.05 260.744 Q1269.2 260.744 1271.03 258.591 Q1272.88 256.415 1272.88 252.688 Q1272.88 248.938 1271.03 246.786 Q1269.2 244.633 1266.05 244.633 M1275.33 229.98 L1275.33 234.239 Q1273.57 233.406 1271.77 232.966 Q1269.99 232.526 1268.23 232.526 Q1263.6 232.526 1261.14 235.651 Q1258.71 238.776 1258.37 245.096 Q1259.73 243.082 1261.79 242.017 Q1263.85 240.929 1266.33 240.929 Q1271.54 240.929 1274.55 244.1 Q1277.58 247.248 1277.58 252.688 Q1277.58 258.012 1274.43 261.23 Q1271.28 264.447 1266.05 264.447 Q1260.06 264.447 1256.88 259.864 Q1253.71 255.258 1253.71 246.531 Q1253.71 238.336 1257.6 233.475 Q1261.49 228.591 1268.04 228.591 Q1269.8 228.591 1271.58 228.938 Q1273.39 229.286 1275.33 229.98 Z" fill="#000000" fill-rule="evenodd" fill-opacity="1" /><polyline clip-path="url(#clip403)" style="stroke:#009af9; stroke-linecap:butt; stroke-linejoin:round; stroke-width:4; stroke-opacity:1; fill:none" points="
  1232.47,822.86 1233.43,822.851 1234.39,822.822 1235.35,822.774 1236.31,822.707 1237.26,822.62 1238.22,822.515 1239.17,822.39 1240.13,822.246 1241.08,822.083 
  1242.02,821.901 1242.97,821.7 1243.91,821.48 1244.85,821.242 1245.78,820.984 1246.71,820.707 1247.64,820.412 1248.56,820.098 1249.48,819.765 1250.39,819.413 
  1251.3,819.044 1252.2,818.655 1253.09,818.249 1253.98,817.824 1254.86,817.38 1255.74,816.919 1256.6,816.44 1257.46,815.942 1258.32,815.427 1259.16,814.895 
  1260,814.344 1260.83,813.776 1261.65,813.191 1262.46,812.588 1263.26,811.969 1264.05,811.332 1264.83,810.678 1265.6,810.008 1266.37,809.321 1267.12,808.617 
  1267.86,807.897 1268.59,807.161 1269.31,806.409 1270.01,805.641 1270.71,804.857 1271.39,804.058 1272.06,803.243 1272.72,802.413 1273.37,801.568 1274,800.708 
  1274.62,799.833 1275.22,798.944 1275.82,798.041 1276.39,797.123 1276.96,796.191 1277.51,795.245 1278.04,794.286 1278.56,793.313 1279.07,792.327 1279.56,791.328 
  1280.04,790.316 1280.5,789.292 1280.94,788.255 1281.37,787.206 1281.78,786.146 1282.17,785.073 1282.55,783.989 1282.91,782.893 1283.26,781.787 1283.59,780.67 
  1283.9,779.542 1284.19,778.403 1284.46,777.255 1284.72,776.097 1284.96,774.929 1285.18,773.751 1285.38,772.565 1285.57,771.37 1285.73,770.166 1285.88,768.953 
  1286.01,767.733 1286.12,766.504 1286.2,765.268 1286.27,764.025 1286.32,762.774 1286.36,761.517 1286.37,760.253 1286.36,758.983 1286.33,757.707 1286.28,756.425 
  1286.21,755.138 1286.12,753.846 1286.01,752.548 1285.87,751.247 1285.72,749.94 1285.55,748.63 1285.36,747.316 1285.14,745.999 1284.9,744.678 1284.65,743.354 
  1284.37,742.028 1284.07,740.7 1283.75,739.369 1283.4,738.037 1283.04,736.704 1282.65,735.369 1282.25,734.033 1281.82,732.697 1281.36,731.361 1280.89,730.025 
  1280.4,728.689 1279.88,727.354 1279.34,726.02 1278.78,724.688 1278.2,723.357 1277.59,722.028 1276.97,720.701 1276.32,719.376 1275.64,718.055 1274.95,716.737 
  1274.24,715.422 1273.5,714.111 1272.74,712.804 1271.96,711.501 1271.15,710.203 1270.33,708.91 1269.48,707.623 1268.61,706.341 1267.72,705.065 1266.81,703.795 
  1265.87,702.532 1264.91,701.276 1263.94,700.027 1262.93,698.786 1261.91,697.552 1260.87,696.327 1259.8,695.11 1258.71,693.901 1257.61,692.702 1256.48,691.512 
  1255.32,690.332 1254.15,689.162 1252.96,688.002 1251.74,686.853 1250.51,685.715 1249.25,684.587 1247.97,683.472 1246.68,682.368 1245.36,681.276 1244.02,680.197 
  1242.66,679.13 1241.28,678.077 1239.88,677.037 1238.46,676.01 1237.02,674.997 1235.56,673.999 1234.08,673.014 1232.59,672.045 1231.07,671.091 1229.53,670.152 
  1227.98,669.229 1226.4,668.322 1224.81,667.43 1223.2,666.556 1221.57,665.698 1219.93,664.857 1218.26,664.034 1216.58,663.228 1214.88,662.44 1213.16,661.67 
  1211.43,660.918 1209.67,660.186 1207.91,659.472 1206.12,658.777 1204.32,658.102 1202.5,657.446 1200.67,656.811 1198.82,656.195 1196.96,655.6 1195.08,655.026 
  1193.18,654.473 1191.27,653.941 1189.35,653.431 1187.41,652.942 1185.46,652.475 1183.49,652.03 1181.51,651.608 1179.52,651.208 1177.51,650.831 1175.49,650.477 
  1173.46,650.146 1171.42,649.839 1169.36,649.555 1167.29,649.296 1165.22,649.06 1163.12,648.849 1161.02,648.663 1158.91,648.501 1156.79,648.364 1154.66,648.252 
  1152.52,648.165 1150.36,648.104 1148.2,648.068 1146.03,648.058 1143.86,648.075 1141.67,648.117 1139.48,648.186 1137.27,648.281 1135.06,648.403 1132.85,648.552 
  1130.63,648.727 1128.4,648.93 1126.16,649.16 1123.92,649.418 1121.67,649.703 1119.42,650.015 1117.16,650.356 1114.9,650.724 1112.64,651.121 1110.37,651.545 
  1108.1,651.998 1105.82,652.479 1103.54,652.989 1101.26,653.527 1098.98,654.094 1096.7,654.69 1094.41,655.315 1092.12,655.969 1089.84,656.652 1087.55,657.363 
  1085.26,658.105 1082.97,658.875 1080.69,659.675 1078.4,660.504 1076.12,661.362 1073.83,662.251 1071.55,663.168 1069.28,664.115 1067,665.092 1064.73,666.099 
  1062.46,667.135 1060.2,668.201 1057.94,669.297 1055.69,670.423 1053.44,671.578 1051.19,672.763 1048.96,673.978 1046.72,675.223 1044.5,676.498 1042.28,677.802 
  1040.07,679.136 1037.87,680.5 1035.67,681.894 1033.49,683.317 1031.31,684.77 1029.14,686.253 1026.98,687.765 1024.83,689.307 1022.7,690.879 1020.57,692.48 
  1018.45,694.11 1016.35,695.77 1014.25,697.458 1012.17,699.177 1010.11,700.924 1008.05,702.7 1006.01,704.505 1003.98,706.339 1001.97,708.202 999.967,710.093 
  997.983,712.014 996.014,713.962 994.06,715.939 992.122,717.944 990.201,719.977 988.296,722.038 986.409,724.127 984.539,726.244 982.687,728.388 980.853,730.56 
  979.037,732.759 977.24,734.985 975.463,737.238 973.705,739.517 971.968,741.824 970.25,744.157 968.554,746.516 966.878,748.901 965.224,751.312 963.591,753.749 
  961.981,756.211 960.393,758.699 958.828,761.212 957.286,763.749 955.767,766.312 954.273,768.899 952.802,771.51 951.356,774.145 949.935,776.804 948.539,779.486 
  947.168,782.192 945.824,784.921 944.505,787.673 943.213,790.447 941.948,793.244 940.709,796.063 939.499,798.903 938.316,801.765 937.161,804.649 936.034,807.553 
  934.936,810.478 933.867,813.424 932.827,816.389 931.817,819.375 930.836,822.38 929.886,825.404 928.966,828.448 928.077,831.51 927.219,834.59 926.392,837.688 
  925.596,840.804 924.833,843.938 924.101,847.088 923.402,850.255 922.736,853.439 922.102,856.639 921.501,859.854 920.934,863.085 920.401,866.331 919.901,869.591 
  919.435,872.866 919.004,876.155 918.607,879.457 918.245,882.773 917.918,886.101 917.626,889.442 917.37,892.795 917.15,896.16 916.965,899.537 916.816,902.924 
  916.704,906.322 916.628,909.73 916.589,913.148 916.587,916.575 916.622,920.012 916.694,923.457 916.803,926.91 916.95,930.372 917.135,933.84 917.357,937.316 
  917.618,940.798 917.917,944.287 918.254,947.781 918.63,951.281 919.045,954.785 919.498,958.294 919.99,961.807 920.521,965.324 921.092,968.844 921.702,972.367 
  922.351,975.892 923.039,979.419 923.768,982.948 924.536,986.478 925.344,990.008 926.191,993.538 927.079,997.069 928.007,1000.6 928.974,1004.13 929.983,1007.65 
  931.031,1011.18 932.12,1014.7 933.249,1018.22 934.418,1021.73 935.628,1025.25 936.878,1028.75 938.169,1032.26 939.501,1035.75 940.873,1039.24 942.286,1042.73 
  943.739,1046.21 945.233,1049.68 946.768,1053.14 948.343,1056.6 949.959,1060.05 951.615,1063.48 953.312,1066.91 955.05,1070.33 956.828,1073.74 958.647,1077.14 
  960.506,1080.52 962.405,1083.9 964.345,1087.26 966.325,1090.61 968.345,1093.94 970.406,1097.27 972.507,1100.57 974.647,1103.87 976.828,1107.15 979.048,1110.41 
  981.309,1113.66 983.609,1116.89 985.948,1120.1 988.327,1123.3 990.745,1126.47 993.202,1129.63 995.699,1132.77 998.234,1135.89 1000.81,1139 1003.42,1142.08 
  1006.07,1145.14 1008.76,1148.18 1011.49,1151.19 1014.26,1154.19 1017.06,1157.16 1019.9,1160.11 1022.78,1163.04 1025.7,1165.94 1028.65,1168.82 1031.64,1171.67 
  1034.67,1174.5 1037.73,1177.3 1040.83,1180.08 1043.97,1182.83 1047.14,1185.55 1050.35,1188.25 1053.59,1190.91 1056.87,1193.55 1060.18,1196.16 1063.53,1198.74 
  1066.91,1201.29 1070.33,1203.81 1073.78,1206.3 1077.26,1208.76 1080.78,1211.19 1084.33,1213.59 1087.91,1215.95 1091.53,1218.28 1095.18,1220.58 1098.86,1222.84 
  1102.57,1225.07 1106.31,1227.27 1110.08,1229.43 1113.89,1231.55 1117.72,1233.65 1121.59,1235.7 1125.48,1237.72 1129.4,1239.7 1133.36,1241.64 1137.34,1243.55 
  1141.35,1245.42 1145.38,1247.25 1149.45,1249.04 1153.54,1250.8 1157.66,1252.51 1161.8,1254.19 1165.97,1255.82 1170.17,1257.42 1174.39,1258.97 1178.64,1260.48 
  1182.91,1261.95 1187.2,1263.38 1191.52,1264.77 1195.86,1266.11 1200.23,1267.41 1204.62,1268.67 1209.03,1269.89 1213.46,1271.06 1217.91,1272.19 1222.38,1273.27 
  1226.87,1274.31 1231.39,1275.31 1235.92,1276.25 1240.47,1277.16 1245.04,1278.01 1249.62,1278.83 1254.23,1279.59 1258.85,1280.31 1263.49,1280.98 1268.14,1281.61 
  1272.81,1282.18 1277.5,1282.71 1282.2,1283.19 1286.91,1283.63 1291.64,1284.01 1296.38,1284.35 1301.13,1284.64 1305.89,1284.88 1310.67,1285.07 1315.46,1285.21 
  1320.26,1285.3 1325.07,1285.34 1329.88,1285.33 1334.71,1285.27 1339.55,1285.16 1344.39,1285 1349.24,1284.79 1354.1,1284.53 1358.96,1284.21 1363.83,1283.85 
  1368.71,1283.44 1373.59,1282.97 1378.48,1282.45 1383.36,1281.88 1388.26,1281.26 1393.15,1280.58 1398.05,1279.86 1402.94,1279.08 1407.84,1278.25 1412.74,1277.36 
  1417.64,1276.43 1422.54,1275.44 1427.44,1274.4 1432.33,1273.3 1437.22,1272.15 1442.11,1270.95 1447,1269.7 1451.88,1268.4 1456.76,1267.04 1461.63,1265.63 
  1466.5,1264.16 1471.36,1262.64 1476.21,1261.07 1481.06,1259.45 1485.89,1257.77 1490.72,1256.04 1495.54,1254.25 1500.35,1252.42 1505.15,1250.53 1509.93,1248.58 
  1514.71,1246.59 1519.47,1244.54 1524.22,1242.43 1528.96,1240.28 1533.69,1238.07 1538.39,1235.81 1543.09,1233.5 1547.77,1231.13 1552.43,1228.71 1557.07,1226.24 
  1561.7,1223.71 1566.31,1221.14 1570.9,1218.51 1575.47,1215.83 1580.02,1213.1 1584.55,1210.31 1589.06,1207.48 1593.55,1204.59 1598.02,1201.65 1602.46,1198.66 
  1606.88,1195.62 1611.28,1192.53 1615.65,1189.39 1620,1186.19 1624.32,1182.95 1628.61,1179.66 1632.88,1176.31 1637.12,1172.92 1641.33,1169.48 1645.52,1165.99 
  1649.67,1162.44 1653.8,1158.85 1657.9,1155.22 1661.96,1151.53 1666,1147.79 1670,1144.01 1673.97,1140.18 1677.9,1136.3 1681.81,1132.38 1685.68,1128.4 
  1689.51,1124.39 1693.31,1120.32 1697.07,1116.21 1700.8,1112.06 1704.49,1107.85 1708.15,1103.61 1711.76,1099.32 1715.34,1094.98 1718.88,1090.6 1722.38,1086.18 
  1725.84,1081.71 1729.25,1077.21 1732.63,1072.65 1735.97,1068.06 1739.26,1063.43 1742.52,1058.75 1745.72,1054.03 1748.89,1049.27 1752.01,1044.47 1755.09,1039.64 
  1758.12,1034.76 1761.11,1029.84 1764.05,1024.89 1766.95,1019.89 1769.79,1014.86 1772.59,1009.79 1775.35,1004.69 1778.05,999.545 1780.71,994.367 1783.32,989.154 
  1785.87,983.906 1788.38,978.623 1790.84,973.306 1793.25,967.955 1795.6,962.572 1797.9,957.155 1800.16,951.707 1802.36,946.227 1804.5,940.716 1806.59,935.174 
  1808.63,929.602 1810.62,924.001 1812.55,918.371 1814.42,912.712 1816.24,907.025 1818.01,901.31 1819.72,895.569 1821.37,889.802 1822.96,884.008 1824.5,878.19 
  1825.98,872.347 1827.41,866.479 1828.77,860.588 1830.08,854.675 1831.33,848.738 1832.52,842.781 1833.64,836.801 1834.71,830.802 1835.72,824.782 
  "/>
<path clip-path="url(#clip400)" d="
M1976.69 198.898 L2278.07 198.898 L2278.07 95.2176 L1976.69 95.2176  Z
  " fill="#ffffff" fill-rule="evenodd" fill-opacity="1"/>
<polyline clip-path="url(#clip400)" style="stroke:#000000; stroke-linecap:butt; stroke-linejoin:round; stroke-width:4; stroke-opacity:1; fill:none" points="
  1976.69,198.898 2278.07,198.898 2278.07,95.2176 1976.69,95.2176 1976.69,198.898 
  "/>
<polyline clip-path="url(#clip400)" style="stroke:#009af9; stroke-linecap:butt; stroke-linejoin:round; stroke-width:4; stroke-opacity:1; fill:none" points="
  2001.58,147.058 2150.95,147.058 
  "/>
<path clip-path="url(#clip400)" d="M2189.69 166.745 Q2187.89 171.375 2186.17 172.787 Q2184.46 174.199 2181.59 174.199 L2178.19 174.199 L2178.19 170.634 L2180.69 170.634 Q2182.45 170.634 2183.42 169.8 Q2184.39 168.967 2185.57 165.865 L2186.34 163.921 L2175.85 138.412 L2180.36 138.412 L2188.46 158.689 L2196.57 138.412 L2201.08 138.412 L2189.69 166.745 Z" fill="#000000" fill-rule="evenodd" fill-opacity="1" /><path clip-path="url(#clip400)" d="M2208.37 160.402 L2216.01 160.402 L2216.01 134.037 L2207.7 135.703 L2207.7 131.444 L2215.96 129.778 L2220.64 129.778 L2220.64 160.402 L2228.28 160.402 L2228.28 164.338 L2208.37 164.338 L2208.37 160.402 Z" fill="#000000" fill-rule="evenodd" fill-opacity="1" /></svg>
